<svg width="36" height="40" viewBox="0 0 36 40" fill="none" xmlns="http://www.w3.org/2000/svg">
<path d="M21.8025 38.1382C21.0668 38.4596 20.6004 38.6608 20.0768 38.7949C19.5675 38.9252 18.9664 39 18 39C17.0335 39 16.4324 38.9252 15.9232 38.7949C15.3996 38.6608 14.9332 38.4596 14.1974 38.1382C8.98578 35.8616 1 30.6415 1 19.9828V19.9761V19.9695V19.9628V19.9562V19.9495V19.9429V19.9363V19.9296V19.923V19.9163V19.9097V19.9031V19.8964V19.8898V19.8832V19.8766V19.8699V19.8633V19.8567V19.8501V19.8435V19.8369V19.8302V19.8236V19.817V19.8104V19.8038V19.7972V19.7906V19.784V19.7774V19.7708V19.7642V19.7577V19.7511V19.7445V19.7379V19.7313V19.7247V19.7182V19.7116V19.705V19.6984V19.6919V19.6853V19.6787V19.6722V19.6656V19.6591V19.6525V19.646V19.6394V19.6329V19.6263V19.6198V19.6132V19.6067V19.6001V19.5936V19.5871V19.5805V19.574V19.5675V19.5609V19.5544V19.5479V19.5414V19.5348V19.5283V19.5218V19.5153V19.5088V19.5023V19.4958V19.4893V19.4827V19.4762V19.4697V19.4632V19.4567V19.4503V19.4438V19.4373V19.4308V19.4243V19.4178V19.4113V19.4049V19.3984V19.3919V19.3854V19.3789V19.3725V19.366V19.3595V19.3531V19.3466V19.3402V19.3337V19.3272V19.3208V19.3143V19.3079V19.3014V19.295V19.2885V19.2821V19.2757V19.2692V19.2628V19.2564V19.2499V19.2435V19.2371V19.2306V19.2242V19.2178V19.2114V19.2049V19.1985V19.1921V19.1857V19.1793V19.1729V19.1665V19.1601V19.1537V19.1473V19.1409V19.1345V19.1281V19.1217V19.1153V19.1089V19.1025V19.0961V19.0898V19.0834V19.077V19.0706V19.0642V19.0579V19.0515V19.0451V19.0388V19.0324V19.026V19.0197V19.0133V19.007V19.0006V18.9943V18.9879V18.9816V18.9752V18.9689V18.9625V18.9562V18.9498V18.9435V18.9372V18.9308V18.9245V18.9182V18.9118V18.9055V18.8992V18.8929V18.8866V18.8802V18.8739V18.8676V18.8613V18.855V18.8487V18.8424V18.8361V18.8298V18.8235V18.8172V18.8109V18.8046V18.7983V18.792V18.7857V18.7794V18.7731V18.7669V18.7606V18.7543V18.748V18.7417V18.7355V18.7292V18.7229V18.7167V18.7104V18.7041V18.6979V18.6916V18.6854V18.6791V18.6729V18.6666V18.6604V18.6541V18.6479V18.6416V18.6354V18.6291V18.6229V18.6167V18.6104V18.6042V18.598V18.5918V18.5855V18.5793V18.5731V18.5669V18.5606V18.5544V18.5482V18.542V18.5358V18.5296V18.5234V18.5172V18.511V18.5048V18.4986V18.4924V18.4862V18.48V18.4738V18.4676V18.4614V18.4553V18.4491V18.4429V18.4367V18.4305V18.4244V18.4182V18.412V18.4059V18.3997V18.3935V18.3874V18.3812V18.375V18.3689V18.3627V18.3566V18.3504V18.3443V18.3381V18.332V18.3258V18.3197V18.3136V18.3074V18.3013V18.2952V18.289V18.2829V18.2768V18.2706V18.2645V18.2584V18.2523V18.2462V18.24V18.2339V18.2278V18.2217V18.2156V18.2095V18.2034V18.1973V18.1912V18.1851V18.179V18.1729V18.1668V18.1607V18.1546V18.1485V18.1425V18.1364V18.1303V18.1242V18.1181V18.1121V18.106V18.0999V18.0938V18.0878V18.0817V18.0756V18.0696V18.0635V18.0575V18.0514V18.0454V18.0393V18.0333V18.0272V18.0212V18.0151V18.0091V18.003V17.997V17.991V17.9849V17.9789V17.9729V17.9668V17.9608V17.9548V17.9488V17.9427V17.9367V17.9307V17.9247V17.9187V17.9127V17.9067V17.9006V17.8946V17.8886V17.8826V17.8766V17.8706V17.8646V17.8586V17.8527V17.8467V17.8407V17.8347V17.8287V17.8227V17.8167V17.8108V17.8048V17.7988V17.7928V17.7869V17.7809V17.7749V17.769V17.763V17.757V17.7511V17.7451V17.7392V17.7332V17.7273V17.7213V17.7154V17.7094V17.7035V17.6975V17.6916V17.6857V17.6797V17.6738V17.6679V17.6619V17.656V17.6501V17.6441V17.6382V17.6323V17.6264V17.6205V17.6145V17.6086V17.6027V17.5968V17.5909V17.585V17.5791V17.5732V17.5673V17.5614V17.5555V17.5496V17.5437V17.5378V17.5319V17.526V17.5202V17.5143V17.5084V17.5025V17.4966V17.4908V17.4849V17.479V17.4731V17.4673V17.4614V17.4556V17.4497V17.4438V17.438V17.4321V17.4263V17.4204V17.4146V17.4087V17.4029V17.397V17.3912V17.3853V17.3795V17.3737V17.3678V17.362V17.3562V17.3503V17.3445V17.3387V17.3328V17.327V17.3212V17.3154V17.3096V17.3038V17.2979V17.2921V17.2863V17.2805V17.2747V17.2689V17.2631V17.2573V17.2515V17.2457V17.2399V17.2341V17.2283V17.2226V17.2168V17.211V17.2052V17.1994V17.1936V17.1879V17.1821V17.1763V17.1705V17.1648V17.159V17.1532V17.1475V17.1417V17.136V17.1302V17.1245V17.1187V17.1129V17.1072V17.1014V17.0957V17.09V17.0842V17.0785V17.0727V17.067V17.0613V17.0555V17.0498V17.0441V17.0383V17.0326V17.0269V17.0212V17.0154V17.0097V17.004V16.9983V16.9926V16.9869V16.9812V16.9755V16.9698V16.9641V16.9584V16.9527V16.947V16.9413V16.9356V16.9299V16.9242V16.9185V16.9128V16.9071V16.9014V16.8958V16.8901V16.8844V16.8787V16.8731V16.8674V16.8617V16.8561V16.8504V16.8447V16.8391V16.8334C1 13.6231 1.00037 11.258 1.0929 9.55866C1.13912 8.70991 1.20684 8.06135 1.30047 7.57551C1.39727 7.07318 1.50566 6.83605 1.57355 6.73931L1.57356 6.7393C1.63856 6.64668 1.82033 6.46856 2.25747 6.21469C2.68029 5.96914 3.26526 5.69572 4.04699 5.37814C5.61222 4.74227 7.83468 3.9811 10.8537 2.94769L10.5477 2.05371L10.8537 2.94769L11.9993 2.55555L11.7038 1.69236L11.9993 2.55555C15.1969 1.46101 16.5821 1 18 1C19.4179 1 20.8031 1.46101 24.0007 2.55555L25.1463 2.94769C28.1653 3.9811 30.3878 4.74227 31.953 5.37814C32.7348 5.69572 33.3198 5.96914 33.7426 6.21469C34.1797 6.46856 34.3615 6.64668 34.4265 6.73929C34.4944 6.83603 34.6027 7.07317 34.6995 7.5755C34.7932 8.06134 34.8609 8.7099 34.9071 9.55866C34.9996 11.258 35 13.6231 35 16.8334V16.8391V16.8447V16.8504V16.8561V16.8617V16.8674V16.8731V16.8787V16.8844V16.8901V16.8958V16.9014V16.9071V16.9128V16.9185V16.9242V16.9299V16.9356V16.9413V16.947V16.9527V16.9584V16.9641V16.9698V16.9755V16.9812V16.9869V16.9926V16.9983V17.004V17.0097V17.0154V17.0212V17.0269V17.0326V17.0383V17.0441V17.0498V17.0555V17.0613V17.067V17.0727V17.0785V17.0842V17.09V17.0957V17.1014V17.1072V17.1129V17.1187V17.1245V17.1302V17.136V17.1417V17.1475V17.1532V17.159V17.1648V17.1705V17.1763V17.1821V17.1879V17.1936V17.1994V17.2052V17.211V17.2168V17.2226V17.2283V17.2341V17.2399V17.2457V17.2515V17.2573V17.2631V17.2689V17.2747V17.2805V17.2863V17.2921V17.2979V17.3038V17.3096V17.3154V17.3212V17.327V17.3328V17.3387V17.3445V17.3503V17.3562V17.362V17.3678V17.3737V17.3795V17.3853V17.3912V17.397V17.4029V17.4087V17.4146V17.4204V17.4263V17.4321V17.438V17.4438V17.4497V17.4556V17.4614V17.4673V17.4731V17.479V17.4849V17.4908V17.4966V17.5025V17.5084V17.5143V17.5202V17.526V17.5319V17.5378V17.5437V17.5496V17.5555V17.5614V17.5673V17.5732V17.5791V17.585V17.5909V17.5968V17.6027V17.6086V17.6145V17.6205V17.6264V17.6323V17.6382V17.6441V17.6501V17.656V17.6619V17.6679V17.6738V17.6797V17.6857V17.6916V17.6975V17.7035V17.7094V17.7154V17.7213V17.7273V17.7332V17.7392V17.7451V17.7511V17.757V17.763V17.769V17.7749V17.7809V17.7869V17.7928V17.7988V17.8048V17.8108V17.8167V17.8227V17.8287V17.8347V17.8407V17.8467V17.8527V17.8586V17.8646V17.8706V17.8766V17.8826V17.8886V17.8946V17.9006V17.9067V17.9127V17.9187V17.9247V17.9307V17.9367V17.9427V17.9488V17.9548V17.9608V17.9668V17.9729V17.9789V17.9849V17.991V17.997V18.003V18.0091V18.0151V18.0212V18.0272V18.0333V18.0393V18.0454V18.0514V18.0575V18.0635V18.0696V18.0756V18.0817V18.0878V18.0938V18.0999V18.106V18.1121V18.1181V18.1242V18.1303V18.1364V18.1425V18.1485V18.1546V18.1607V18.1668V18.1729V18.179V18.1851V18.1912V18.1973V18.2034V18.2095V18.2156V18.2217V18.2278V18.2339V18.24V18.2462V18.2523V18.2584V18.2645V18.2706V18.2768V18.2829V18.289V18.2952V18.3013V18.3074V18.3136V18.3197V18.3258V18.332V18.3381V18.3443V18.3504V18.3566V18.3627V18.3689V18.375V18.3812V18.3874V18.3935V18.3997V18.4059V18.412V18.4182V18.4244V18.4305V18.4367V18.4429V18.4491V18.4553V18.4614V18.4676V18.4738V18.48V18.4862V18.4924V18.4986V18.5048V18.511V18.5172V18.5234V18.5296V18.5358V18.542V18.5482V18.5544V18.5606V18.5669V18.5731V18.5793V18.5855V18.5918V18.598V18.6042V18.6104V18.6167V18.6229V18.6291V18.6354V18.6416V18.6479V18.6541V18.6604V18.6666V18.6729V18.6791V18.6854V18.6916V18.6979V18.7041V18.7104V18.7167V18.7229V18.7292V18.7355V18.7417V18.748V18.7543V18.7606V18.7669V18.7731V18.7794V18.7857V18.792V18.7983V18.8046V18.8109V18.8172V18.8235V18.8298V18.8361V18.8424V18.8487V18.855V18.8613V18.8676V18.8739V18.8802V18.8866V18.8929V18.8992V18.9055V18.9118V18.9182V18.9245V18.9308V18.9372V18.9435V18.9498V18.9562V18.9625V18.9689V18.9752V18.9816V18.9879V18.9943V19.0006V19.007V19.0133V19.0197V19.026V19.0324V19.0388V19.0451V19.0515V19.0579V19.0642V19.0706V19.077V19.0834V19.0898V19.0961V19.1025V19.1089V19.1153V19.1217V19.1281V19.1345V19.1409V19.1473V19.1537V19.1601V19.1665V19.1729V19.1793V19.1857V19.1921V19.1985V19.2049V19.2114V19.2178V19.2242V19.2306V19.2371V19.2435V19.2499V19.2564V19.2628V19.2692V19.2757V19.2821V19.2885V19.295V19.3014V19.3079V19.3143V19.3208V19.3272V19.3337V19.3402V19.3466V19.3531V19.3595V19.366V19.3725V19.3789V19.3854V19.3919V19.3984V19.4049V19.4113V19.4178V19.4243V19.4308V19.4373V19.4438V19.4503V19.4567V19.4632V19.4697V19.4762V19.4827V19.4893V19.4958V19.5023V19.5088V19.5153V19.5218V19.5283V19.5348V19.5414V19.5479V19.5544V19.5609V19.5675V19.574V19.5805V19.5871V19.5936V19.6001V19.6067V19.6132V19.6198V19.6263V19.6329V19.6394V19.646V19.6525V19.6591V19.6656V19.6722V19.6787V19.6853V19.6919V19.6984V19.705V19.7116V19.7182V19.7247V19.7313V19.7379V19.7445V19.7511V19.7577V19.7642V19.7708V19.7774V19.784V19.7906V19.7972V19.8038V19.8104V19.817V19.8236V19.8302V19.8369V19.8435V19.8501V19.8567V19.8633V19.8699V19.8766V19.8832V19.8898V19.8964V19.9031V19.9097V19.9163V19.923V19.9296V19.9363V19.9429V19.9495V19.9562V19.9628V19.9695V19.9761V19.9828C35 30.6415 27.0141 35.8616 21.8025 38.1382ZM21.8025 38.1382L22.2028 39.0546L21.8025 38.1382C21.8025 38.1382 21.8025 38.1382 21.8025 38.1382ZM0.755467 6.16512L0.75504 6.16482L0.755467 6.16512Z" stroke="black" stroke-width="2"/>
<path fill-rule="evenodd" clip-rule="evenodd" d="M25.4862 20.0701C23.9905 20.0701 22.7779 21.2826 22.7779 22.7785V27.2923C22.7779 28.7881 23.9905 30.0006 25.4862 30.0006C26.982 30.0006 28.1946 28.7881 28.1946 27.2923V22.7785C28.1946 21.2826 26.982 20.0701 25.4862 20.0701ZM18.2641 8.33398C16.7682 8.33398 15.5557 9.54655 15.5557 11.0423V27.2923C15.5557 28.7881 16.7682 30.0006 18.2641 30.0006C19.7598 30.0006 20.9724 28.7881 20.9724 27.2923V11.0423C20.9724 9.54655 19.7598 8.33398 18.2641 8.33398ZM11.0418 14.6534C9.54599 14.6534 8.33344 15.866 8.33344 17.3618V27.2923C8.33344 28.7881 9.54599 30.0006 11.0418 30.0006C12.5376 30.0006 13.7501 28.7881 13.7501 27.2923V17.3618C13.7501 15.866 12.5376 14.6534 11.0418 14.6534Z" fill="black"/>
</svg>
