<svg width="22" height="24" viewBox="0 0 22 24" fill="none" xmlns="http://www.w3.org/2000/svg">
<path fill-rule="evenodd" clip-rule="evenodd" d="M0.453024 3.69889C0 4.34434 0 6.26288 0 10.1V11.9897C0 18.7553 5.08675 22.0386 8.27827 23.4328L8.27861 23.4329C9.14411 23.8109 9.577 24 10.8 24C12.023 24 12.4559 23.8109 13.3214 23.4329L13.3217 23.4328C16.5132 22.0386 21.6 18.7553 21.6 11.9897V10.1C21.6 6.26288 21.6 4.34434 21.147 3.69889C20.694 3.05346 18.8901 2.43597 15.2822 1.20099L15.2821 1.20095L14.5948 0.965664L14.5944 0.965547C12.7139 0.321849 11.7736 0 10.8 0C9.82637 0 8.88609 0.321856 7.00554 0.965569L7.00526 0.965664L6.31789 1.20095L6.3178 1.20098C2.70995 2.43596 0.906032 3.05345 0.453024 3.69889ZM13.6667 13.6667C13.6667 12.7692 14.3943 12.0417 15.2917 12.0417C16.1892 12.0417 16.9167 12.7692 16.9167 13.6667V16.375C16.9167 17.2725 16.1892 18 15.2917 18C14.3943 18 13.6667 17.2725 13.6667 16.375V13.6667ZM9.33341 6.625C9.33341 5.72754 10.0609 5 10.9584 5C11.8559 5 12.5834 5.72754 12.5834 6.625V16.375C12.5834 17.2725 11.8559 18 10.9584 18C10.0609 18 9.33341 17.2725 9.33341 16.375V6.625ZM5.00004 10.4167C5.00004 9.5192 5.72757 8.79167 6.62504 8.79167C7.52256 8.79167 8.25004 9.5192 8.25004 10.4167V16.375C8.25004 17.2725 7.52256 18 6.62504 18C5.72757 18 5.00004 17.2725 5.00004 16.375V10.4167Z" fill="black"/>
</svg>
