<svg width="18" height="18" viewBox="0 0 18 18" fill="none" xmlns="http://www.w3.org/2000/svg">
<path d="M9.702 9.7693C10.6173 11.3863 10.4342 13.2168 9.27487 13.8879C8.11553 14.5591 6.40708 13.7964 5.49183 12.21C4.57657 10.593 4.75962 8.76252 5.91896 8.09135C7.07826 7.38964 8.78674 8.15234 9.702 9.7693Z" fill="#F1F4FA"/>
<path d="M16.3234 5.02782C16.659 6.88883 17.8488 9.29902 17.8488 11.7397C17.8488 15.0956 15.1031 17.8414 11.7471 17.8414C11.1064 17.8414 10.4963 17.7498 9.91661 17.5668C10.3132 17.4448 10.7098 17.2617 11.0759 17.0481C14.0048 15.3702 14.981 11.6176 13.303 8.71933C12.0827 6.61425 9.85558 5.11935 8.63525 3.65494C8.36068 3.34987 8.0861 3.04476 7.81152 2.80072C8.63525 1.00071 9.97764 0.146484 11.7166 0.146484C14.0963 0.146484 15.7132 1.67192 16.3234 5.02782Z" fill="#3A36DB"/>
<path d="M9.27481 13.885C10.4341 13.2138 10.6477 11.3528 9.70194 9.76638C8.78668 8.14942 7.0782 7.41722 5.9189 8.08843C4.7596 8.75963 4.54602 10.6206 5.49177 12.2071C6.40702 13.7935 8.08498 14.5562 9.27481 13.885ZM9.91548 17.5765C7.23075 18.4613 4.21042 17.363 2.74601 14.8308C1.52568 12.7257 1.34263 10.0105 0.701955 8.24094C-0.457379 5.03756 0.183299 2.90198 2.22735 1.71215C4.02736 0.674873 5.88837 0.949449 7.8104 2.77996C8.08498 3.02404 8.35955 3.32911 8.63413 3.63418C9.85446 5.06809 12.0816 6.56299 13.3019 8.69857C14.9799 11.6274 14.0036 15.3494 11.0748 17.0274C10.7087 17.2715 10.3121 17.4545 9.91548 17.5765Z" fill="#3A36DB"/>
<path d="M8.05465 18C5.88853 18 3.78345 16.8712 2.62415 14.8881C1.83092 13.5153 1.46482 11.8983 1.15975 10.4644C0.976696 9.67119 0.824142 8.90849 0.580098 8.29831C-0.548739 5.12542 -0.030083 2.86782 2.16653 1.58643C4.36313 0.335569 6.59024 0.976247 8.75635 3.56949C9.18348 4.08814 9.76313 4.60676 10.3733 5.15592C11.4411 6.1322 12.6614 7.261 13.4547 8.63388C14.2784 10.0678 14.5225 11.7762 14.0649 13.3932C13.6377 15.0102 12.6005 16.3525 11.136 17.1762C10.1902 17.7254 9.12245 18 8.05465 18ZM4.3326 1.25086C3.66143 1.25086 2.99022 1.43391 2.31904 1.83051C0.27499 3.02034 -0.213134 5.15595 0.854638 8.17625C1.06819 8.81693 1.25124 9.57963 1.43429 10.3729C1.73936 11.7762 2.10546 13.3932 2.8682 14.7356C4.51565 17.5729 8.14617 18.5492 10.9835 16.9017C12.3563 16.1085 13.3326 14.8271 13.7597 13.3017C14.1563 11.7763 13.9733 10.1594 13.1801 8.78647C12.4174 7.44409 11.2275 6.34578 10.1597 5.36954C9.54955 4.82038 8.9699 4.27123 8.51227 3.75258C7.13939 2.10508 5.73602 1.25086 4.3326 1.25086ZM12.0513 18C11.9597 18 11.8987 17.939 11.8987 17.8474C11.8987 17.7559 11.9597 17.6949 12.0513 17.6949C15.2242 17.5423 17.6953 14.9186 17.6953 11.7457C17.6953 10.2203 17.2072 8.66438 16.7801 7.2915C16.536 6.49827 16.292 5.73557 16.1699 5.06439C15.5902 1.92203 14.0953 0.305108 11.7462 0.305108C10.3733 0.305108 9.27497 0.854261 8.51227 1.92207C8.45124 1.9831 8.35972 2.01359 8.29873 1.95256C8.2377 1.89154 8.2072 1.80001 8.26823 1.73902C9.09192 0.579684 10.2818 0 11.7462 0C14.2784 0 15.8648 1.67795 16.475 5.0034C16.597 5.67457 16.8411 6.40678 17.0852 7.20001C17.5123 8.60338 18.0004 10.1593 18.0004 11.7458C18.0004 15.0712 15.3767 17.8169 12.0513 18ZM8.32922 14.2475C7.96312 14.2475 7.59702 14.1559 7.23092 14.0034C6.49872 13.6678 5.82754 13.0576 5.36991 12.2339C4.39363 10.5559 4.63771 8.60338 5.85804 7.90171C7.1089 7.20001 8.87838 7.96274 9.85466 9.6407C10.8309 11.3186 10.5869 13.2712 9.36653 13.9729C9.03093 14.1559 8.69532 14.2475 8.32922 14.2475ZM6.86482 7.96271C6.55974 7.96271 6.25464 8.02374 5.98006 8.17625C4.88175 8.81693 4.7292 10.5559 5.61396 12.0813C6.04109 12.844 6.65123 13.4237 7.35294 13.7288C8.02411 14.0339 8.66479 14.0339 9.21394 13.7288C10.3122 13.0881 10.4648 11.3491 9.58005 9.82371C8.90887 8.66441 7.81057 7.96271 6.86482 7.96271ZM8.69532 10.678C8.63429 10.678 8.5733 10.6475 8.5733 10.5864C7.99362 9.45764 6.86482 9.15254 6.83432 9.15254C6.74279 9.12204 6.7123 9.06101 6.7123 8.96949C6.74279 8.87796 6.80382 8.84746 6.89535 8.84746C6.95638 8.84746 8.1767 9.18307 8.81738 10.4644C8.84788 10.5255 8.81738 10.617 8.75635 10.678C8.75635 10.678 8.72582 10.678 8.69532 10.678Z" fill="#F1F4FA"/>
</svg>
