<svg width="24" height="24" viewBox="0 0 24 24" fill="none" xmlns="http://www.w3.org/2000/svg">
<path d="M4.37068 0C2.04171 0 0 1.81283 0 4.15946V7.03946C0 9.38609 2.04171 11.199 4.37068 11.199H6.83024C9.15921 11.199 11.2009 9.38609 11.2009 7.03946V4.15946C11.2009 1.81283 9.15921 0 6.83024 0H4.37068ZM4.37068 3.19901H6.83024C7.57064 3.19901 7.99998 3.66961 7.99998 4.15946V7.03946C7.99998 7.52931 7.57064 7.99998 6.83024 7.99998H4.37068C3.63028 7.99998 3.20094 7.52931 3.20094 7.03946V4.15946C3.20094 3.66961 3.63028 3.19901 4.37068 3.19901Z" fill="black"/>
<path d="M4.37068 12.8008C2.04171 12.8008 0 14.6137 0 16.9603V19.8403C0 22.1869 2.04171 23.9998 4.37068 23.9998H6.83024C9.15921 23.9998 11.2009 22.1869 11.2009 19.8403V16.9603C11.2009 14.6137 9.15921 12.8008 6.83024 12.8008H4.37068ZM4.37068 15.9998H6.83024C7.57064 15.9998 7.99998 16.4705 7.99998 16.9603V19.8403C7.99998 20.3302 7.57064 20.8008 6.83024 20.8008H4.37068C3.63028 20.8008 3.20094 20.3302 3.20094 19.8403V16.9603C3.20094 16.4705 3.63028 15.9998 4.37068 15.9998Z" fill="black"/>
<path d="M17.1698 12.8008C14.8408 12.8008 12.7991 14.6137 12.7991 16.9603V19.8403C12.7991 22.1869 14.8408 23.9998 17.1698 23.9998H19.6294C21.9584 23.9998 24.0001 22.1869 24.0001 19.8403V16.9603C24.0001 14.6137 21.9584 12.8008 19.6294 12.8008H17.1698ZM17.1698 15.9998H19.6294C20.3698 15.9998 20.7991 16.4705 20.7991 16.9603V19.8403C20.7991 20.3302 20.3698 20.8008 19.6294 20.8008H17.1698C16.4294 20.8008 16 20.3302 16 19.8403V16.9603C16 16.4705 16.4294 15.9998 17.1698 15.9998Z" fill="black"/>
<path d="M18.3996 0C15.3241 0 12.7991 2.52555 12.7991 5.5995C12.7991 8.67344 15.3241 11.199 18.3996 11.199C21.4751 11.199 24.0001 8.67344 24.0001 5.5995C24.0001 2.52555 21.4751 0 18.3996 0ZM18.3996 3.19901C19.7561 3.19901 20.7991 4.24144 20.7991 5.5995C20.7991 6.95755 19.7561 7.99998 18.3996 7.99998C17.0431 7.99998 16 6.95755 16 5.5995C16 4.24144 17.0431 3.19901 18.3996 3.19901Z" fill="black"/>
</svg>
