<svg width="26" height="26" viewBox="0 0 26 26" fill="none" xmlns="http://www.w3.org/2000/svg">
<path d="M21.0169 16.093C20.1437 15.9051 19.4529 16.3105 18.8412 16.6646C18.2148 17.0295 17.0237 17.9957 16.3409 17.7484C12.8454 16.3092 9.55777 13.2496 8.1346 9.74009C7.88377 9.04277 8.84552 7.84409 9.20768 7.21029C9.55911 6.59676 9.95615 5.89944 9.77507 5.01968C9.61142 4.22912 7.49478 1.5358 6.74631 0.799296C6.2527 0.312796 5.74701 0.0452213 5.22791 0.00197685C3.27626 -0.0818093 1.09657 2.52232 0.714288 3.14531C-0.243432 4.47372 -0.238066 6.24134 0.730384 8.38464C3.06432 14.1416 11.8917 22.8296 17.6702 25.2513C18.7366 25.75 19.7117 26 20.5876 26C21.4448 26 22.208 25.7608 22.8639 25.2865C23.3589 25.0013 26.0697 22.7134 25.9986 20.7093C25.9557 20.1985 25.6888 19.6877 25.2086 19.1931C24.4775 18.4376 21.8016 16.2578 21.0169 16.093" fill="black"/>
</svg>
