<svg width="22" height="18" viewBox="0 0 22 18" fill="none" xmlns="http://www.w3.org/2000/svg">
<path d="M7.25434 8.42861C9.51873 8.42861 11.3544 6.59295 11.3544 4.32856C11.3544 2.06417 9.51873 0.228516 7.25434 0.228516C4.98995 0.228516 3.1543 2.06417 3.1543 4.32856C3.1543 6.59295 4.98995 8.42861 7.25434 8.42861Z" fill="black"/>
<path d="M11.1199 4.32837C11.1129 5.92515 10.1018 7.40805 8.59105 7.95891C7.82403 8.23782 6.98031 8.27269 6.19238 8.04955C5.43466 7.83572 4.76294 7.38713 4.2609 6.78282C3.22426 5.53467 3.10572 3.70546 3.94247 2.32483C4.77689 0.946528 6.43643 0.212052 8.01927 0.537453C9.59979 0.862853 10.827 2.15748 11.0757 3.7473C11.1083 3.93789 11.1199 4.13313 11.1199 4.32837C11.1222 4.6282 11.5871 4.6282 11.5847 4.32837C11.5801 3.43584 11.3081 2.54796 10.7852 1.82278C10.2715 1.1069 9.55795 0.560696 8.7305 0.256214C7.0361 -0.366696 5.0558 0.174864 3.91458 1.56944C3.34745 2.2644 3.00345 3.10812 2.93373 4.00297C2.864 4.89317 3.08016 5.80429 3.54269 6.56666C3.98895 7.30346 4.66067 7.9101 5.44628 8.26571C6.2807 8.64225 7.21274 8.75149 8.11224 8.57252C9.85313 8.22852 11.2593 6.76887 11.5266 5.01636C11.5615 4.78858 11.5824 4.55847 11.5824 4.32837C11.5871 4.02853 11.1222 4.02853 11.1199 4.32837Z" fill="black"/>
<path d="M16.5259 8.91222C18.2165 8.91222 19.587 7.54172 19.587 5.85113C19.587 4.16053 18.2165 2.79004 16.5259 2.79004C14.8353 2.79004 13.4648 4.16053 13.4648 5.85113C13.4648 7.54172 14.8353 8.91222 16.5259 8.91222Z" fill="black"/>
<path d="M19.3527 5.85266C19.3458 7.01945 18.609 8.10722 17.5026 8.507C16.3753 8.91375 15.1086 8.56743 14.3393 7.64934C13.5792 6.74054 13.4909 5.39943 14.1022 4.38836C14.7065 3.38659 15.9151 2.84271 17.068 3.07514C18.2301 3.30757 19.1296 4.2489 19.3202 5.41802C19.3458 5.56213 19.3527 5.70856 19.3527 5.85266C19.3551 6.15249 19.8199 6.15249 19.8176 5.85266C19.8106 4.47203 18.9367 3.23086 17.6421 2.75439C16.3614 2.28488 14.8576 2.69395 13.9929 3.74918C13.1167 4.81835 12.9842 6.35936 13.7024 7.54939C14.4206 8.73943 15.8338 9.35072 17.1912 9.07645C18.5044 8.8138 19.5712 7.70512 19.7734 6.37795C19.799 6.20363 19.8153 6.02698 19.8176 5.85034C19.8199 5.55283 19.3551 5.55283 19.3527 5.85266Z" fill="black"/>
<path d="M14.2799 14.5116V16.1874C14.2799 16.7196 13.8383 17.1496 13.306 17.1496H1.20347C0.671204 17.1496 0.241211 16.7196 0.241211 16.1874V14.5116C0.241211 11.9293 2.3354 9.82812 4.91768 9.82812H9.59415C10.6587 9.82812 11.6442 10.1861 12.4321 10.7857C13.5501 11.6411 14.2799 12.9915 14.2799 14.5116Z" fill="black"/>
<path d="M14.0354 14.5085C14.0354 15.0175 14.0354 15.5265 14.0354 16.0356C14.0354 16.1053 14.0401 16.1774 14.0331 16.2494C14.0168 16.4446 13.9169 16.6283 13.7658 16.7538C13.624 16.87 13.4497 16.9165 13.2684 16.9165C12.6106 16.9188 11.9529 16.9165 11.2951 16.9165C10.0377 16.9165 8.78022 16.9165 7.52045 16.9165C6.22583 16.9165 4.9312 16.9165 3.63657 16.9165C2.86955 16.9165 2.10021 16.9165 1.3332 16.9165C1.28904 16.9165 1.2472 16.9165 1.20304 16.9165C0.840448 16.9118 0.524345 16.6469 0.475535 16.2819C0.447643 16.0774 0.470886 15.8566 0.470886 15.6521C0.470886 15.336 0.470886 15.0175 0.470886 14.7014C0.470886 14.4202 0.47321 14.1413 0.515047 13.8624C0.582452 13.4207 0.712612 12.9838 0.907852 12.5817C1.29601 11.7868 1.91195 11.115 2.67431 10.6688C3.35998 10.2667 4.14094 10.0645 4.93352 10.0645C5.32633 10.0645 5.71913 10.0645 6.10961 10.0645C7.23921 10.0645 8.3665 10.0645 9.4961 10.0645C10.3468 10.0645 11.1673 10.2667 11.8971 10.7129C12.7571 11.2359 13.4334 12.0587 13.7705 13.0093C13.9494 13.4905 14.0331 13.9948 14.0354 14.5085C14.0378 14.8083 14.5026 14.8083 14.5003 14.5085C14.4956 13.3929 14.1168 12.319 13.4241 11.4451C12.7245 10.5595 11.7018 9.92966 10.5955 9.70421C10.0702 9.59729 9.54723 9.59961 9.0173 9.59961C8.38509 9.59961 7.75521 9.59961 7.123 9.59961C6.52333 9.59961 5.92134 9.59961 5.32168 9.59961C4.78941 9.59961 4.2618 9.61356 3.73884 9.7414C1.86546 10.197 0.377914 11.7961 0.0734326 13.7066C-0.0265118 14.3319 0.00602826 14.9757 0.00602826 15.6079C0.00602826 15.831 -0.0102418 16.0588 0.0106768 16.2819C0.0571625 16.7956 0.436022 17.2512 0.949689 17.3534C1.15888 17.3953 1.37968 17.3813 1.59119 17.3813C1.97703 17.3813 2.36518 17.3813 2.75101 17.3813C3.98521 17.3813 5.21708 17.3813 6.45128 17.3813C7.80634 17.3813 9.1614 17.3813 10.5165 17.3813C11.3718 17.3813 12.2295 17.3813 13.0848 17.3813C13.1522 17.3813 13.2196 17.3813 13.287 17.3813C13.6217 17.379 13.9518 17.2488 14.1795 16.9978C14.4282 16.7259 14.498 16.3982 14.498 16.0425C14.498 15.7311 14.498 15.4196 14.498 15.1082C14.498 14.9083 14.498 14.7084 14.498 14.5085C14.5003 14.2087 14.0354 14.2087 14.0354 14.5085Z" fill="black"/>
<path d="M21.7628 13.2882V14.8594C21.7628 15.1546 21.5373 15.4056 21.2491 15.4289H15.3478V14.376C15.3478 12.6932 14.5691 11.1917 13.3535 10.2132C13.744 10.0528 14.1693 9.9668 14.6179 9.9668H18.4367C20.2729 9.9668 21.7628 11.452 21.7628 13.2882Z" fill="black"/>
<path d="M21.5294 13.2881C21.5294 13.8087 21.5457 14.334 21.5294 14.857C21.5224 15.0615 21.369 15.1894 21.1738 15.1894C21.0041 15.1894 20.8345 15.1894 20.6648 15.1894C19.2958 15.1894 17.9268 15.1894 16.5554 15.1894C16.151 15.1894 15.7489 15.1894 15.3445 15.1894C15.4212 15.2661 15.5002 15.3451 15.5769 15.4218C15.5769 14.9221 15.6002 14.413 15.556 13.9156C15.4723 12.9487 15.1446 12.0051 14.5868 11.2079C14.2846 10.7732 13.9243 10.3827 13.5129 10.048C13.4781 10.1782 13.4455 10.306 13.4107 10.4362C13.8058 10.2758 14.2172 10.1968 14.6426 10.1968C14.7983 10.1968 14.9563 10.1968 15.1121 10.1968C15.721 10.1968 16.3277 10.1968 16.9366 10.1968C17.4108 10.1968 17.8849 10.1968 18.3614 10.1968C19.0633 10.1968 19.7351 10.3967 20.2999 10.822C21.0739 11.3984 21.5248 12.3258 21.5294 13.2881C21.5317 13.5879 21.9966 13.5879 21.9943 13.2881C21.9896 12.3282 21.6015 11.3961 20.9088 10.729C20.2464 10.0899 19.3539 9.73193 18.4335 9.72961C17.3922 9.72496 16.3486 9.72961 15.3073 9.72961C15.0958 9.72961 14.8866 9.72961 14.6751 9.72961C14.2009 9.72961 13.7338 9.80863 13.2921 9.98528C13.148 10.0434 13.0388 10.2502 13.1899 10.3734C13.8802 10.9336 14.4357 11.6611 14.7588 12.4932C14.9238 12.9185 15.04 13.3671 15.0865 13.8227C15.1167 14.1062 15.1144 14.3898 15.1144 14.6757C15.1144 14.9244 15.1144 15.1731 15.1144 15.4218C15.1144 15.5473 15.2213 15.6542 15.3468 15.6542C15.6862 15.6542 16.0232 15.6542 16.3625 15.6542C17.0924 15.6542 17.8222 15.6542 18.552 15.6542C19.2307 15.6542 19.9117 15.6542 20.5904 15.6542C20.7787 15.6542 20.9646 15.6542 21.1529 15.6542C21.4504 15.6542 21.7293 15.5287 21.885 15.2637C22.0408 14.9988 21.9943 14.6455 21.9943 14.348C21.9943 14.0179 21.9943 13.6855 21.9943 13.3555C21.9943 13.3346 21.9943 13.3113 21.9943 13.2904C21.9943 12.9883 21.5294 12.9883 21.5294 13.2881Z" fill="black"/>
</svg>
