<svg width="14" height="15" viewBox="0 0 14 15" fill="currentColor" xmlns="http://www.w3.org/2000/svg">
<path fill-rule="evenodd" clip-rule="evenodd" d="M12.9653 2.43223C13.2571 2.43223 13.5 2.67447 13.5 2.98272V3.26772C13.5 3.56846 13.2571 3.81821 12.9653 3.81821H0.53539C0.242895 3.81821 0 3.56846 0 3.26772V2.98272C0 2.67447 0.242895 2.43223 0.53539 2.43223H2.72217C3.16639 2.43223 3.55298 2.11648 3.65291 1.67098L3.76743 1.15949C3.9454 0.462745 4.53112 0 5.20145 0H8.29855C8.96158 0 9.55387 0.462745 9.72528 1.12274L9.84782 1.67023C9.94702 2.11648 10.3336 2.43223 10.7786 2.43223H12.9653ZM11.8542 12.8506C12.0825 10.7229 12.4822 5.66794 12.4822 5.61694C12.4968 5.46244 12.4465 5.3162 12.3466 5.19845C12.2393 5.0882 12.1037 5.02295 11.9541 5.02295H1.55123C1.40097 5.02295 1.25801 5.0882 1.1588 5.19845C1.05815 5.3162 1.00855 5.46244 1.01584 5.61694C1.01718 5.62631 1.03152 5.80438 1.0555 6.10207C1.16203 7.42451 1.45872 11.1077 1.65043 12.8506C1.7861 14.1346 2.62857 14.9416 3.84888 14.9708C4.79056 14.9926 5.76068 15.0001 6.75268 15.0001C7.68706 15.0001 8.63603 14.9926 9.60688 14.9708C10.8695 14.9491 11.7112 14.1564 11.8542 12.8506Z"/>
</svg>
