<svg width="22" height="24" viewBox="0 0 22 24" fill="none" xmlns="http://www.w3.org/2000/svg">
<path fill-rule="evenodd" clip-rule="evenodd" d="M0 10.1C0 6.26288 0 4.34434 0.453024 3.69889C0.906032 3.05345 2.70995 2.43596 6.3178 1.20098L6.31789 1.20095L7.00526 0.965664L7.00554 0.965569C8.88609 0.321856 9.82637 0 10.8 0C11.7736 0 12.7139 0.321849 14.5944 0.965547L14.5948 0.965664L15.2821 1.20095L15.2822 1.20099C18.8901 2.43597 20.694 3.05346 21.147 3.69889C21.6 4.34434 21.6 6.26288 21.6 10.1V11.9897C21.6 18.7553 16.5132 22.0386 13.3217 23.4328L13.3214 23.4329C12.4559 23.8109 12.023 24 10.8 24C9.577 24 9.14411 23.8109 8.27861 23.4329L8.27827 23.4328C5.08675 22.0386 0 18.7553 0 11.9897V10.1ZM15.0063 6H13.8753C12.5776 6 11.8931 6.68456 11.8931 7.98225V9.11326C11.8931 10.4109 12.5776 11.0955 13.8753 11.0955H15.0063C16.304 11.0955 16.9886 10.4109 16.9886 9.11326V7.98225C16.9886 6.68456 16.304 6 15.0063 6ZM8.11919 12.8978C9.41688 12.8978 10.1014 13.5824 10.0955 14.886V16.017C10.0955 17.3147 9.41093 17.9993 8.11324 17.9993H6.98223C5.68454 17.9993 4.99998 17.3147 4.99998 16.0111V14.8801C4.99998 13.5824 5.68454 12.8978 6.98818 12.8978H8.11919ZM7.55369 11.1074C8.96406 11.1074 10.1074 9.96408 10.1074 8.55371C10.1074 7.14333 8.96406 6 7.55369 6C6.14331 6 4.99998 7.14333 4.99998 8.55371C4.99998 9.96408 6.14331 11.1074 7.55369 11.1074ZM16.9888 15.4461C16.9888 16.8565 15.8454 17.9998 14.4351 17.9998C13.0247 17.9998 11.8814 16.8565 11.8814 15.4461C11.8814 14.0358 13.0247 12.8924 14.4351 12.8924C15.8454 12.8924 16.9888 14.0358 16.9888 15.4461Z" fill="black"/>
</svg>
