<svg width="15" height="15" viewBox="0 0 15 15" fill="currentColor" xmlns="http://www.w3.org/2000/svg">
<path fill-rule="evenodd" clip-rule="evenodd" d="M5.31342 14.1893L12.6351 4.72098C13.033 4.21039 13.1745 3.62008 13.0418 3.01902C12.9269 2.4726 12.5908 1.95305 12.0868 1.55891L10.8577 0.582526C9.78775 -0.268455 8.46137 -0.178878 7.70091 0.79751L6.87855 1.86437C6.77244 1.99784 6.79897 2.19491 6.9316 2.3024C6.9316 2.3024 9.00961 3.96853 9.05382 4.00436C9.1953 4.13873 9.30141 4.31788 9.32794 4.53287C9.37215 4.95388 9.08035 5.34802 8.64706 5.40176C8.44368 5.42863 8.24915 5.36593 8.10767 5.24948L5.92355 3.51169C5.81744 3.43197 5.65828 3.44899 5.56985 3.55648L0.379264 10.2747C0.0432467 10.6958 -0.0717067 11.2422 0.0432467 11.7707L0.706439 14.6461C0.741809 14.7984 0.874448 14.9059 1.03361 14.9059L3.95166 14.87C4.48221 14.8611 4.9774 14.6192 5.31342 14.1893ZM9.40028 13.2918H14.1585C14.6227 13.2918 15.0003 13.6743 15.0003 14.1446C15.0003 14.6157 14.6227 14.9973 14.1585 14.9973H9.40028C8.93605 14.9973 8.55847 14.6157 8.55847 14.1446C8.55847 13.6743 8.93605 13.2918 9.40028 13.2918Z"/>
</svg>
