<svg width="20" height="20" viewBox="0 0 20 20" fill="none" xmlns="http://www.w3.org/2000/svg">
<path d="M14.1971 0H5.8129C2.17108 0 0 2.17 0 5.81V14.18C0 17.83 2.17108 20 5.8129 20H14.1871C17.8289 20 20 17.83 20 14.19V5.81C20.01 2.17 17.8389 0 14.1971 0ZM8.95446 15.51C8.66432 15.8 8.11404 16.08 7.71384 16.14L5.25262 16.49C5.16257 16.5 5.07253 16.51 4.98248 16.51C4.57228 16.51 4.19209 16.37 3.92195 16.1C3.59179 15.77 3.45172 15.29 3.53176 14.76L3.88193 12.3C3.94196 11.89 4.2121 11.35 4.51225 11.06L8.97447 6.6C9.05451 6.81 9.13455 7.02 9.24461 7.26C9.34466 7.47 9.45471 7.69 9.57477 7.89C9.67482 8.06 9.78488 8.22 9.87492 8.34C9.98498 8.51 10.115 8.67 10.1951 8.76C10.2451 8.83 10.2851 8.88 10.3051 8.9C10.5553 9.2 10.8454 9.48 11.0955 9.69C11.1656 9.76 11.2056 9.8 11.2256 9.81C11.3757 9.93 11.5257 10.05 11.6558 10.14C11.8159 10.26 11.976 10.37 12.1461 10.46C12.3462 10.58 12.5663 10.69 12.7864 10.8C13.0165 10.9 13.2266 10.99 13.4367 11.06L8.95446 15.51ZM15.3777 9.09L14.4572 10.02C14.3972 10.08 14.3171 10.11 14.2371 10.11C14.2071 10.11 14.1671 10.11 14.147 10.1C12.116 9.52 10.4952 7.9 9.91494 5.87C9.88493 5.76 9.91494 5.64 9.99498 5.57L10.9254 4.64C12.4462 3.12 13.8969 3.15 15.3877 4.64C16.148 5.4 16.5182 6.13 16.5182 6.89C16.5082 7.61 16.138 8.33 15.3777 9.09Z" fill="black"/>
</svg>
