<svg width="22" height="21" viewBox="0 0 22 21" fill="none" xmlns="http://www.w3.org/2000/svg">
<path d="M15.2402 0.333984H6.43679C2.61289 0.333984 0.333252 2.50507 0.333252 6.14688V14.5211C0.333252 18.1729 2.61289 20.344 6.43679 20.344H15.2297C19.0536 20.344 21.3332 18.1729 21.3332 14.5311V6.14688C21.3437 2.50507 19.0641 0.333984 15.2402 0.333984ZM8.87401 12.8402C9.17866 13.1304 9.17866 13.6106 8.87401 13.9007C8.71643 14.0508 8.51683 14.1209 8.31723 14.1209C8.11763 14.1209 7.91803 14.0508 7.76045 13.9007L5.14465 11.4095C4.52484 10.8192 4.52484 9.86873 5.14465 9.27844L7.76045 6.7872C8.0651 6.49706 8.56936 6.49706 8.87401 6.7872C9.17866 7.07734 9.17866 7.55758 8.87401 7.84773L6.2582 10.339L8.87401 12.8402ZM16.5323 11.3995L13.9165 13.8907C13.7589 14.0408 13.5593 14.1108 13.3597 14.1108C13.1601 14.1108 12.9605 14.0408 12.803 13.8907C12.4983 13.6006 12.4983 13.1204 12.803 12.8302L15.4188 10.339L12.803 7.83772C12.4983 7.54758 12.4983 7.06734 12.803 6.77719C13.1076 6.48705 13.6119 6.48705 13.9165 6.77719L16.5323 9.26844C17.1521 9.85873 17.1521 10.8192 16.5323 11.3995Z" fill="#292D32"/>
</svg>
