<svg width="28" height="24" viewBox="0 0 28 24" fill="none" xmlns="http://www.w3.org/2000/svg">
<path fill-rule="evenodd" clip-rule="evenodd" d="M27.7166 11.8884C27.7211 13.6435 26.3256 15.0699 24.5997 15.0743L13.1415 15.1037C11.4156 15.1082 10.0128 13.689 10.0083 11.9339C10.0038 10.1787 11.3993 8.75247 13.1251 8.74804L24.5834 8.71859C26.3093 8.71415 27.7121 10.1332 27.7166 11.8884Z" fill="black"/>
<path d="M18.3722 23.8475C20.0982 23.843 21.4935 22.4167 21.489 20.6616C21.4845 18.9065 20.0819 17.4873 18.3559 17.4918L13.1476 17.5052C11.4218 17.5096 10.0263 18.936 10.0308 20.691C10.0354 22.4461 11.4381 23.8653 13.164 23.8609L18.3722 23.8475Z" fill="black"/>
<path d="M18.3495 6.37974C20.0755 6.3753 21.4709 4.94893 21.4664 3.19386C21.4618 1.43878 20.0592 0.0196011 18.3332 0.0240369L13.125 0.0374223C11.3991 0.0418578 10.0037 1.46823 10.0082 3.2233C10.0127 4.97838 11.4154 6.39756 13.1413 6.39312L18.3495 6.37974Z" fill="black"/>
<ellipse cx="3.15" cy="3.20328" rx="3.15" ry="3.20328" fill="black"/>
<ellipse cx="3.15" cy="20.797" rx="3.15" ry="3.20328" fill="black"/>
<ellipse cx="3.15" cy="12.3556" rx="3.15" ry="3.20328" fill="black"/>
</svg>
