<svg class="trailing" width="14" height="18" viewBox="0 0 23 28" fill="var(--grey-text-color)" xmlns="http://www.w3.org/2000/svg">
<path fill-rule="evenodd" clip-rule="evenodd" d="M0 11.6152C0 5.19177 5.20054 0 11.4911 0C17.7995 0 23 5.19177 23 11.6152C23 14.852 21.8595 17.857 19.9823 20.404C17.9113 23.2136 15.3588 25.6614 12.4857 27.5828C11.8281 28.0269 11.2347 28.0604 10.513 27.5828C7.62347 25.6614 5.07094 23.2136 3.01774 20.404C1.13915 17.857 0 14.852 0 11.6152ZM7.7041 11.9774C7.7041 14.1293 9.40533 15.8217 11.4913 15.8217C13.5786 15.8217 15.2962 14.1293 15.2962 11.9774C15.2962 9.84237 13.5786 8.06756 11.4913 8.06756C9.40533 8.06756 7.7041 9.84237 7.7041 11.9774Z"/>
</svg>
