<svg width="18" height="18" viewBox="0 0 18 18" fill="currentColor" xmlns="http://www.w3.org/2000/svg">
<path fill-rule="evenodd" clip-rule="evenodd" d="M7.24547 8.35964C6.88089 8.35964 6.59261 8.64297 6.59261 9.0013C6.59261 9.3513 6.88089 9.64297 7.24547 9.64297H12.3327V13.6263C12.3327 15.668 10.6454 17.3346 8.55967 17.3346H4.43055C2.35327 17.3346 0.666016 15.6763 0.666016 13.6346V4.3763C0.666016 2.3263 2.36175 0.667969 4.43903 0.667969H8.57663C10.6454 0.667969 12.3327 2.3263 12.3327 4.36797V8.35964H7.24547ZM15.3579 6.11814L17.7912 8.54314C17.9162 8.66814 17.9829 8.82647 17.9829 9.00147C17.9829 9.16814 17.9162 9.33481 17.7912 9.45147L15.3579 11.8765C15.2329 12.0015 15.0662 12.0681 14.9079 12.0681C14.7412 12.0681 14.5745 12.0015 14.4495 11.8765C14.1995 11.6265 14.1995 11.2181 14.4495 10.9681L15.7829 9.64314H12.3329V8.35981H15.7829L14.4495 7.03481C14.1995 6.78481 14.1995 6.37647 14.4495 6.12647C14.6995 5.86814 15.1079 5.86814 15.3579 6.11814Z"/>
</svg>
