<svg width="25" height="24" viewBox="0 0 25 24" fill="none" xmlns="http://www.w3.org/2000/svg">
<g opacity="0.3">
<path fill-rule="evenodd" clip-rule="evenodd" d="M18.6738 0C20.35 0 21.9625 0.690104 23.1488 1.92839C24.3363 3.16406 25 4.83073 25 6.57552V16.862C25 20.4948 22.1625 23.4375 18.6738 23.4375H6.325C2.83625 23.4375 0 20.4948 0 16.862V6.57552C0 2.94271 2.82375 0 6.325 0H18.6738ZM20.6625 8.51504L20.7625 8.41087C21.0613 8.03327 21.0613 7.48639 20.7488 7.10879C20.575 6.91478 20.3363 6.79629 20.0875 6.77025C19.825 6.75592 19.575 6.84837 19.3863 7.03066L13.75 11.7182C13.025 12.3445 11.9863 12.3445 11.25 11.7182L5.62504 7.03066C5.23629 6.73118 4.69879 6.77025 4.37504 7.12181C4.03754 7.47337 4.00004 8.03327 4.28629 8.42389L4.45004 8.59316L10.1375 13.2156C10.8375 13.7885 11.6863 14.101 12.575 14.101C13.4613 14.101 14.325 13.7885 15.0238 13.2156L20.6625 8.51504Z" fill="black"/>
</g>
</svg>
