<svg width="24" height="26" viewBox="0 0 24 26" fill="currentColor" xmlns="http://www.w3.org/2000/svg">
<circle cx="3.15" cy="14.4996" r="3.15" />
<path fill-rule="evenodd" clip-rule="evenodd" d="M11.5251 0C13.251 0 14.6501 1.39912 14.6501 3.12503V14.5833C14.6501 16.3092 13.251 17.7083 11.5251 17.7083C9.79915 17.7083 8.40015 16.3092 8.40015 14.5833V3.12503C8.40015 1.39912 9.79915 0 11.5251 0Z" />
<path d="M23.2616 9.37507C23.2616 7.64908 21.8625 6.25009 20.1366 6.25009C18.4107 6.25009 17.0116 7.64908 17.0116 9.37507V14.5833C17.0116 16.3092 18.4107 17.7083 20.1366 17.7083C21.8625 17.7083 23.2616 16.3092 23.2616 14.5833V9.37507Z" />
<path d="M3.34941 25.2552C3.34941 25.3623 3.1579 25.4159 2.77487 25.4159C2.39185 25.4159 2.18404 25.3776 2.15144 25.3011L1.13073 22.9145V25.2935C1.13073 25.3853 0.941257 25.4312 0.562309 25.4312C0.187436 25.4312 0 25.3853 0 25.2935V20.1759C0 20.0994 0.160951 20.0612 0.482853 20.0612C0.609168 20.0612 0.755858 20.0765 0.922921 20.1071C1.09406 20.1326 1.19796 20.1836 1.23464 20.2601L2.21256 22.6161V20.2142C2.21256 20.1173 2.40204 20.0688 2.78099 20.0688C3.15993 20.0688 3.34941 20.1173 3.34941 20.2142V25.2552Z" />
<path d="M5.77857 25.5C5.20811 25.5 4.74156 25.2654 4.37891 24.7962C4.02033 24.3271 3.84105 23.6437 3.84105 22.7462C3.84105 21.8435 4.02237 21.1602 4.38502 20.6961C4.75174 20.232 5.22237 20 5.7969 20C6.37551 20 6.84207 20.2295 7.19657 20.6885C7.55106 21.1423 7.72831 21.8333 7.72831 22.7615C7.72831 23.6845 7.54699 24.373 7.18434 24.8268C6.82169 25.2756 6.3531 25.5 5.77857 25.5ZM5.78468 21.4687C5.58909 21.4687 5.42407 21.5809 5.2896 21.8053C5.15921 22.0297 5.09402 22.3459 5.09402 22.7538C5.09402 23.1567 5.15718 23.4678 5.28349 23.6871C5.40981 23.9013 5.57483 24.0083 5.77857 24.0083C5.98638 24.0083 6.15344 23.8987 6.27976 23.6794C6.41015 23.4601 6.47534 23.1465 6.47534 22.7385C6.47534 22.3306 6.40811 22.0169 6.27364 21.7976C6.14325 21.5783 5.98027 21.4687 5.78468 21.4687Z" />
<path d="M9.37103 25.0716V20.4819C9.37103 20.3544 9.39547 20.255 9.44437 20.1836C9.49734 20.1071 9.56457 20.0688 9.64607 20.0688H10.6668C11.3147 20.0688 11.8057 20.2728 12.1398 20.6808C12.478 21.0888 12.6471 21.7313 12.6471 22.6085C12.6471 24.4852 12.0074 25.4235 10.7279 25.4235H9.68274C9.47493 25.4235 9.37103 25.3062 9.37103 25.0716ZM10.5445 21.5223V23.8095C10.5445 23.9166 10.5507 23.9854 10.5629 24.016C10.5751 24.0415 10.6118 24.0542 10.6729 24.0542C10.897 24.0542 11.0661 23.9497 11.1802 23.7406C11.2984 23.5315 11.3574 23.1847 11.3574 22.7003C11.3574 22.2107 11.2963 21.892 11.1741 21.7441C11.0559 21.5962 10.8664 21.5223 10.6057 21.5223H10.5445Z" />
<path d="M16.01 25.4388C15.6555 25.4388 15.464 25.3674 15.4355 25.2246L15.2338 24.2378H14.262L14.0847 25.1864C14.0603 25.3445 13.8647 25.4235 13.498 25.4235C13.3024 25.4235 13.1577 25.4108 13.064 25.3853C12.9703 25.3547 12.9234 25.3317 12.9234 25.3164L14.0053 20.1377C14.0053 20.0969 14.2844 20.0765 14.8426 20.0765C15.4008 20.0765 15.68 20.0969 15.68 20.1377L16.7373 25.3241C16.7373 25.3598 16.6436 25.3878 16.4562 25.4082C16.2688 25.4286 16.12 25.4388 16.01 25.4388ZM14.4148 23.2663H15.0565L14.7815 21.6829H14.7448L14.4148 23.2663Z" />
<path d="M18.8269 25.3011C18.8269 25.4031 18.6253 25.4541 18.2219 25.4541C17.8185 25.4541 17.6168 25.4031 17.6168 25.3011V21.4611H16.8833C16.814 21.4611 16.7651 21.3438 16.7366 21.1092C16.7244 20.997 16.7183 20.8822 16.7183 20.765C16.7183 20.6477 16.7244 20.5329 16.7366 20.4207C16.7651 20.1861 16.814 20.0688 16.8833 20.0688H19.5421C19.6113 20.0688 19.6602 20.1861 19.6888 20.4207C19.701 20.5329 19.7071 20.6477 19.7071 20.765C19.7071 20.8822 19.701 20.997 19.6888 21.1092C19.6602 21.3438 19.6113 21.4611 19.5421 21.4611H18.8269V25.3011Z" />
<path d="M22.7727 25.4388C22.4182 25.4388 22.2267 25.3674 22.1981 25.2246L21.9964 24.2378H21.0246L20.8474 25.1864C20.8229 25.3445 20.6273 25.4235 20.2606 25.4235C20.065 25.4235 19.9204 25.4108 19.8267 25.3853C19.7329 25.3547 19.6861 25.3317 19.6861 25.3164L20.7679 20.1377C20.7679 20.0969 21.047 20.0765 21.6053 20.0765C22.1635 20.0765 22.4426 20.0969 22.4426 20.1377L23.5 25.3241C23.5 25.3598 23.4063 25.3878 23.2188 25.4082C23.0314 25.4286 22.8827 25.4388 22.7727 25.4388ZM21.1774 23.2663H21.8192L21.5441 21.6829H21.5075L21.1774 23.2663Z" />
</svg>
