<svg width="21" height="23" viewBox="0 0 21 23" fill="none" xmlns="http://www.w3.org/2000/svg">
<path d="M19.0766 2.05257C17.7021 0.523443 15.3481 0.398208 13.8189 1.77284L2.39293 12.0445C1.91061 12.4781 1.55521 13.0346 1.36471 13.6545L0.114227 17.7239C-0.00885014 18.1245 0.0872362 18.5602 0.367346 18.8717C0.647449 19.1833 1.0705 19.3251 1.4818 19.2452L5.6609 18.4335C6.29755 18.3099 6.88864 18.0155 7.37089 17.5819L18.7969 7.3103C20.3261 5.93567 20.4513 3.5817 19.0766 2.05257Z" fill="black"/>
<path d="M0 21.5C0 20.6716 0.55965 20 1.25 20H18.75C19.4404 20 20 20.6716 20 21.5C20 22.3284 19.4404 23 18.75 23H1.25C0.55965 23 0 22.3284 0 21.5Z" fill="black"/>
</svg>
