<svg width="134" height="134" viewBox="0 0 134 134" fill="none"
    xmlns="http://www.w3.org/2000/svg">
    <circle cx="67" cy="67" r="67" fill="#F1F4FA"/>
    <g opacity="1">
        <path fill-rule="evenodd" clip-rule="evenodd" d="M73.844 59.2073C73.898 59.2982 73.9925 59.3632 74.114 59.3632C77.354 59.3632 80 61.9083 80 65.0249V72.7383C80 75.8548 77.354 78.4 74.114 78.4H58.886C55.6325 78.4 53 75.8548 53 72.7383V65.0249C53 61.9083 55.6325 59.3632 58.886 59.3632C58.994 59.3632 59.102 59.3112 59.1425 59.2073L59.2235 59.0515C59.2701 58.9571 59.3178 58.8602 59.3663 58.7618C59.7117 58.0614 60.0938 57.2864 60.3305 56.831C60.9515 55.6623 62.0045 55.013 63.314 55H69.6725C70.982 55.013 72.0485 55.6623 72.6695 56.831C72.8821 57.2401 73.2061 57.899 73.5184 58.5342C73.5828 58.6651 73.6467 58.7951 73.709 58.9216L73.844 59.2073ZM72.8584 64.1935C72.8584 64.8428 73.3984 65.3622 74.0734 65.3622C74.7484 65.3622 75.302 64.8428 75.302 64.1935C75.302 63.5442 74.7484 63.0118 74.0734 63.0118C73.3984 63.0118 72.8584 63.5442 72.8584 64.1935ZM64.164 66.2065C64.7985 65.5961 65.622 65.2715 66.4995 65.2715C67.377 65.2715 68.2005 65.5961 68.8215 66.1935C69.4425 66.7908 69.78 67.5829 69.78 68.427C69.7665 70.1671 68.3085 71.5825 66.4995 71.5825C65.622 71.5825 64.7985 71.2579 64.1775 70.6605C63.5565 70.0632 63.219 69.2711 63.219 68.427V68.414C63.2055 67.5959 63.543 66.8038 64.164 66.2065ZM70.2393 72.037C69.2808 72.9589 67.9578 73.5303 66.4998 73.5303C65.0823 73.5303 63.7593 72.9979 62.7468 72.037C61.7478 71.063 61.1943 69.7904 61.1943 68.427C61.1808 67.0765 61.7343 65.8039 62.7333 64.83C63.7458 63.856 65.0823 63.3236 66.4998 63.3236C67.9173 63.3236 69.2538 63.856 70.2528 64.817C71.2518 65.7909 71.8053 67.0765 71.8053 68.427C71.7918 69.8424 71.1978 71.115 70.2393 72.037Z" fill="black"/>
        <path d="M73.844 59.2073L73.3919 59.421L73.402 59.4423L73.4141 59.4627L73.844 59.2073ZM59.1425 59.2073L58.6989 58.9767L58.6864 59.0006L58.6767 59.0257L59.1425 59.2073ZM59.2235 59.0515L59.6672 59.2822L59.6719 59.2727L59.2235 59.0515ZM59.3663 58.7618L58.9179 58.5407L58.9179 58.5408L59.3663 58.7618ZM60.3305 56.831L59.8889 56.5963L59.8869 56.6004L60.3305 56.831ZM63.314 55V54.5L63.309 54.5L63.314 55ZM69.6725 55L69.6775 54.5H69.6725V55ZM72.6695 56.831L73.1132 56.6003L73.111 56.5964L72.6695 56.831ZM73.5184 58.5342L73.9671 58.3136L73.9671 58.3136L73.5184 58.5342ZM73.709 58.9216L74.1611 58.708L74.1576 58.7007L73.709 58.9216ZM64.164 66.2065L63.8174 65.8461L63.8174 65.8461L64.164 66.2065ZM68.8215 66.1935L69.1681 65.8331L69.1681 65.8331L68.8215 66.1935ZM69.78 68.427L70.28 68.4309V68.427H69.78ZM64.1775 70.6605L63.8309 71.0209L63.8309 71.0209L64.1775 70.6605ZM63.219 68.414H63.7191L63.7189 68.4058L63.219 68.414ZM70.2393 72.037L70.5859 72.3973L70.5859 72.3973L70.2393 72.037ZM62.7468 72.037L62.3977 72.395L62.4026 72.3996L62.7468 72.037ZM61.1943 68.427H61.6943L61.6943 68.422L61.1943 68.427ZM62.7333 64.83L62.3867 64.4696L62.3843 64.4719L62.7333 64.83ZM70.2528 64.817L70.6018 64.4589L70.5994 64.4566L70.2528 64.817ZM71.8053 68.427L72.3053 68.4317V68.427H71.8053ZM74.114 58.8632C74.1452 58.8632 74.1807 58.8723 74.2127 58.8916C74.2429 58.91 74.2624 58.9326 74.2739 58.952L73.4141 59.4627C73.5473 59.6869 73.7957 59.8632 74.114 59.8632V58.8632ZM80.5 65.0249C80.5 61.6141 77.6117 58.8632 74.114 58.8632V59.8632C77.0963 59.8632 79.5 62.2026 79.5 65.0249H80.5ZM80.5 72.7383V65.0249H79.5V72.7383H80.5ZM74.114 78.9C77.6117 78.9 80.5 76.1491 80.5 72.7383H79.5C79.5 75.5606 77.0963 77.9 74.114 77.9V78.9ZM58.886 78.9H74.114V77.9H58.886V78.9ZM52.5 72.7383C52.5 76.1484 55.3741 78.9 58.886 78.9V77.9C55.8909 77.9 53.5 75.5613 53.5 72.7383H52.5ZM52.5 65.0249V72.7383H53.5V65.0249H52.5ZM58.886 58.8632C55.3741 58.8632 52.5 61.6148 52.5 65.0249H53.5C53.5 62.2019 55.8909 59.8632 58.886 59.8632V58.8632ZM58.6767 59.0257C58.703 58.9581 58.7506 58.9134 58.792 58.8898C58.8299 58.8682 58.863 58.8632 58.886 58.8632V59.8632C59.1304 59.8632 59.4706 59.7424 59.6084 59.3889L58.6767 59.0257ZM58.7799 58.8209L58.6989 58.9767L59.5861 59.4379L59.6671 59.2821L58.7799 58.8209ZM58.9179 58.5408C58.8694 58.6391 58.8216 58.736 58.7751 58.8303L59.6719 59.2727C59.7185 59.1783 59.7663 59.0813 59.8148 58.9829L58.9179 58.5408ZM59.8869 56.6004C59.647 57.0618 59.262 57.8427 58.9179 58.5407L59.8148 58.9829C60.1613 58.2801 60.5405 57.5111 60.7741 57.0616L59.8869 56.6004ZM63.309 54.5C61.8127 54.5149 60.5941 55.2692 59.889 56.5964L60.772 57.0656C61.3089 56.0553 62.1963 55.5111 63.319 55.5L63.309 54.5ZM69.6725 54.5H63.314V55.5H69.6725V54.5ZM73.111 56.5964C72.4048 55.2672 71.1715 54.5148 69.6775 54.5L69.6675 55.5C70.7925 55.5111 71.6922 56.0573 72.228 57.0656L73.111 56.5964ZM73.9671 58.3136C73.656 57.6809 73.329 57.0157 73.1131 56.6004L72.2259 57.0616C72.4353 57.4644 72.7562 58.1172 73.0697 58.7548L73.9671 58.3136ZM74.1576 58.7007C74.0953 58.5744 74.0315 58.4446 73.9671 58.3136L73.0697 58.7548C73.1341 58.8857 73.198 59.0158 73.2604 59.1425L74.1576 58.7007ZM74.2961 58.9937L74.1611 58.708L73.2569 59.1353L73.3919 59.421L74.2961 58.9937ZM74.0734 64.8622C73.6561 64.8622 73.3584 64.5485 73.3584 64.1935H72.3584C72.3584 65.1371 73.1408 65.8622 74.0734 65.8622V64.8622ZM74.802 64.1935C74.802 64.5415 74.4981 64.8622 74.0734 64.8622V65.8622C74.9987 65.8622 75.802 65.1441 75.802 64.1935H74.802ZM74.0734 63.5118C74.4908 63.5118 74.802 63.8385 74.802 64.1935H75.802C75.802 63.25 75.0061 62.5118 74.0734 62.5118V63.5118ZM73.3584 64.1935C73.3584 63.8314 73.6634 63.5118 74.0734 63.5118V62.5118C73.1335 62.5118 72.3584 63.2571 72.3584 64.1935H73.3584ZM66.4995 64.7715C65.4953 64.7715 64.5469 65.1444 63.8174 65.8461L64.5106 66.5668C65.0501 66.0479 65.7487 65.7715 66.4995 65.7715V64.7715ZM69.1681 65.8331C68.4511 65.1434 67.5021 64.7715 66.4995 64.7715V65.7715C67.2518 65.7715 67.9499 66.0489 68.4749 66.5538L69.1681 65.8331ZM70.28 68.427C70.28 67.4453 69.8859 66.5236 69.1681 65.8331L68.4749 66.5538C68.9991 67.0581 69.28 67.7206 69.28 68.427H70.28ZM66.4995 72.0825C68.5698 72.0825 70.2642 70.4587 70.28 68.4309L69.28 68.4231C69.2687 69.8754 68.0472 71.0825 66.4995 71.0825V72.0825ZM63.8309 71.0209C64.5479 71.7106 65.4968 72.0825 66.4995 72.0825V71.0825C65.7471 71.0825 65.0491 70.8051 64.5241 70.3002L63.8309 71.0209ZM62.719 68.427C62.719 69.4087 63.1131 70.3304 63.8309 71.0209L64.5241 70.3002C63.9999 69.7959 63.719 69.1334 63.719 68.427H62.719ZM62.719 68.414V68.427H63.719V68.414H62.719ZM63.8174 65.8461C63.1015 66.5347 62.7032 67.4583 62.7191 68.4223L63.7189 68.4058C63.7078 67.7336 63.9845 67.0729 64.5106 66.5668L63.8174 65.8461ZM66.4998 74.0303C68.0901 74.0303 69.5365 73.4067 70.5859 72.3973L69.8927 71.6766C69.0251 72.5111 67.8255 73.0303 66.4998 73.0303V74.0303ZM62.4026 72.3996C63.508 73.4487 64.9541 74.0303 66.4998 74.0303V73.0303C65.2104 73.0303 64.0106 72.5471 63.091 71.6743L62.4026 72.3996ZM60.6943 68.427C60.6943 69.9311 61.3065 71.3311 62.3978 72.395L63.0958 71.6789C62.1891 70.795 61.6943 69.6498 61.6943 68.427H60.6943ZM62.3843 64.4719C61.2937 65.5351 60.6794 66.9365 60.6943 68.432L61.6943 68.422C61.6822 67.2164 62.1749 66.0726 63.0823 65.188L62.3843 64.4719ZM66.4998 62.8236C64.9551 62.8236 63.4938 63.4047 62.3867 64.4696L63.0799 65.1903C63.9978 64.3074 65.2094 63.8236 66.4998 63.8236V62.8236ZM70.5994 64.4566C69.5051 63.404 68.0435 62.8236 66.4998 62.8236V63.8236C67.7911 63.8236 69.0025 64.3081 69.9062 65.1773L70.5994 64.4566ZM72.3053 68.427C72.3053 66.9365 71.6936 65.5233 70.6018 64.459L69.9038 65.175C70.81 66.0585 71.3053 67.2164 71.3053 68.427H72.3053ZM70.5859 72.3973C71.6363 71.3869 72.2904 69.9881 72.3053 68.4317L71.3053 68.4222C71.2932 69.6966 70.7593 70.843 69.8927 71.6766L70.5859 72.3973Z" fill="black"/>
    </g>
</svg>
