<svg width="23" height="23" viewBox="0 0 23 23" fill="none" xmlns="http://www.w3.org/2000/svg">
<path fill-rule="evenodd" clip-rule="evenodd" d="M19.0602 15.7337L17.0283 17.7267C14.0419 20.6558 12.5487 22.1204 10.711 22.1026C8.87333 22.0848 7.40876 20.5916 4.47963 17.6053C1.55049 14.6189 0.0859195 13.1257 0.103704 11.288C0.121488 9.45032 1.61468 7.98576 4.60106 5.05663L6.63301 3.0636C8.34943 1.38004 9.20769 0.538264 10.3136 0.232657C11.4194 -0.0729605 12.5882 0.208677 14.9255 0.77195L16.2735 1.09678C18.2399 1.57066 19.2231 1.80761 19.8914 2.48893C20.5596 3.17025 20.7775 4.15788 21.2133 6.13313L21.5119 7.48708C22.0299 9.83493 22.2888 11.0089 21.9619 12.1086C21.6349 13.2084 20.7767 14.0502 19.0602 15.7337ZM8.55394 10.1426C9.30126 9.40946 10.3633 9.42601 11.2007 9.87688C11.5243 9.65868 11.9672 9.69531 12.2502 9.98384C12.5322 10.2714 12.5611 10.7128 12.3393 11.0317C12.5344 11.4074 12.6355 11.8193 12.6277 12.2285C12.619 12.6841 12.2426 13.0463 11.787 13.0376C11.3315 13.0289 10.9692 12.6525 10.9779 12.1969C10.9817 12.0024 10.8968 11.7458 10.6796 11.5243C10.2575 11.094 9.8302 11.2019 9.70926 11.3205C9.58842 11.4391 9.47222 11.8642 9.89432 12.2946C10.7483 13.1654 11.0202 14.6571 10.0568 15.602C9.30937 16.3351 8.24732 16.3186 7.40993 15.8677C7.08638 16.0859 6.64341 16.0493 6.36041 15.7607C6.07839 15.4732 6.04966 15.0316 6.27144 14.7126C6.00924 14.2075 5.91467 13.6349 6.03203 13.0908C6.12798 12.6455 6.56689 12.3623 7.01236 12.4583C7.45772 12.5543 7.74092 12.9932 7.64497 13.4386C7.60294 13.6331 7.66392 13.9478 7.93101 14.2203C8.35323 14.6506 8.78054 14.5426 8.90138 14.4241C9.02232 14.3055 9.13853 13.8804 8.71631 13.45C7.8623 12.5792 7.5905 11.0875 8.55394 10.1426ZM13.0045 8.9473C13.8553 9.81468 15.2482 9.82816 16.1157 8.97741C16.9831 8.12657 16.9966 6.73367 16.1458 5.86624C15.295 4.99881 13.9021 4.98533 13.0347 5.83613C12.1672 6.68693 12.1537 8.07983 13.0045 8.9473Z" fill="black"/>
</svg>
