<svg width="24" height="24" viewBox="0 0 24 24" fill="none" xmlns="http://www.w3.org/2000/svg">
<path d="M23.6986 9.77114C23.2401 7.47759 22.1129 5.37112 20.459 3.71725C18.8052 2.06338 16.6987 0.936144 14.4051 0.477648C13.9762 0.391628 13.5336 0.401855 13.1092 0.50759C12.6847 0.613325 12.289 0.811935 11.9506 1.0891C11.6122 1.36626 11.3395 1.71506 11.1522 2.11035C10.9649 2.50565 10.8676 2.93758 10.8674 3.37501V9.77114C10.8674 10.7094 11.2402 11.6092 11.9036 12.2727C12.5671 12.9361 13.4669 13.3088 14.4051 13.3088H20.8013C21.2387 13.3086 21.6706 13.2114 22.0659 13.0241C22.4612 12.8368 22.81 12.5641 23.0872 12.2257C23.3643 11.8873 23.5629 11.4916 23.6687 11.0671C23.7744 10.6427 23.7846 10.2 23.6986 9.77114ZM21.2635 10.7299C21.208 10.799 21.1376 10.8547 21.0576 10.8929C20.9775 10.9311 20.8899 10.9507 20.8013 10.9504H14.4051C14.0924 10.9504 13.7924 10.8261 13.5713 10.605C13.3501 10.3838 13.2259 10.0839 13.2259 9.77114V3.37501C13.2265 3.21805 13.2885 3.06757 13.3988 2.95581C13.509 2.84405 13.6586 2.77992 13.8155 2.77714C13.8552 2.77729 13.8947 2.78164 13.9334 2.79011C15.7711 3.1572 17.4588 4.06021 18.7839 5.38528C20.109 6.71035 21.012 8.39813 21.3791 10.2358C21.3978 10.3215 21.3972 10.4104 21.3772 10.4959C21.3572 10.5814 21.3183 10.6613 21.2635 10.7299ZM21.089 15.6755C21.1993 15.839 21.2677 16.0272 21.2883 16.2233C21.3089 16.4195 21.2809 16.6177 21.2069 16.8005C20.4222 18.7607 19.0661 20.4396 17.3147 21.619C15.5633 22.7983 13.4977 23.4236 11.3863 23.4136C11.0082 23.4133 10.6303 23.3936 10.2542 23.3547C7.84886 23.0751 5.6084 21.9913 3.89609 20.279C2.18378 18.5667 1.09999 16.3262 0.820424 13.9208C0.566803 11.6303 1.07041 9.31964 2.25423 7.34235C3.43805 5.36506 5.23692 3.82992 7.37575 2.97171C7.55868 2.89823 7.75681 2.87056 7.95287 2.89111C8.14894 2.91166 8.33702 2.97982 8.50073 3.08964C8.65951 3.19751 8.78954 3.34252 8.87955 3.51206C8.96956 3.6816 9.01683 3.87055 9.01724 4.0625V12.211C9.01724 12.9928 9.32784 13.7427 9.88071 14.2956C10.4336 14.8484 11.1834 15.159 11.9653 15.159H20.1161C20.3081 15.1594 20.497 15.2067 20.6666 15.2967C20.8361 15.3867 20.9811 15.5168 21.089 15.6755Z" fill="black"/>
</svg>
