<svg width="22" height="24" viewBox="0 0 22 24" fill="none" xmlns="http://www.w3.org/2000/svg">
<path fill-rule="evenodd" clip-rule="evenodd" d="M0.453024 3.69889C0 4.34434 0 6.26288 0 10.1V11.9897C0 18.7553 5.08675 22.0386 8.27827 23.4328L8.27861 23.4329C9.14411 23.8109 9.577 24 10.8 24C12.023 24 12.4559 23.8109 13.3214 23.4329L13.3217 23.4328C16.5132 22.0386 21.6 18.7553 21.6 11.9897V10.1C21.6 6.26288 21.6 4.34434 21.147 3.69889C20.694 3.05346 18.8901 2.43597 15.2822 1.20099L15.2821 1.20095L14.5948 0.965664L14.5944 0.965547C12.7139 0.321849 11.7736 0 10.8 0C9.82637 0 8.88609 0.321856 7.00554 0.965569L7.00526 0.965664L6.31789 1.20095L6.3178 1.20098C2.70995 2.43596 0.906032 3.05345 0.453024 3.69889ZM11.175 6C11.7853 6 12.0905 6 12.3312 6.09895C12.6522 6.2309 12.9072 6.48398 13.0401 6.80251C13.1008 6.94791 13.1245 7.11701 13.1338 7.36366C13.1475 7.72618 13.3349 8.06174 13.6514 8.24312C13.968 8.42451 14.3545 8.41773 14.6776 8.24822C14.8975 8.13288 15.0569 8.06875 15.2141 8.04821C15.5586 8.0032 15.9069 8.09583 16.1825 8.30572C16.3892 8.46309 16.5417 8.72527 16.8467 9.24953L16.847 9.25C17.1522 9.77457 17.3047 10.0369 17.3388 10.2932C17.3841 10.6351 17.2908 10.9808 17.0793 11.2543C16.9827 11.3792 16.8471 11.4841 16.6364 11.6155C16.3269 11.8085 16.1278 12.1372 16.1278 12.4999C16.1278 12.8627 16.3269 13.1915 16.6364 13.3845C16.847 13.5158 16.9827 13.6208 17.0793 13.7457C17.2907 14.0192 17.384 14.3649 17.3387 14.7067C17.3047 14.9631 17.1521 15.2254 16.8469 15.7499L16.8468 15.7501C16.5417 16.2746 16.3892 16.5368 16.1824 16.6943C15.9068 16.9041 15.5585 16.9968 15.2141 16.9517C15.0568 16.9312 14.8975 16.8671 14.6776 16.7518C14.3544 16.5823 13.9679 16.5754 13.6513 16.7568C13.3348 16.9383 13.1475 17.2738 13.1339 17.6363C13.1246 17.883 13.1008 18.0521 13.0401 18.1975C12.9072 18.516 12.6522 18.7691 12.3312 18.9011C12.0905 19 11.7853 19 11.175 19C10.5646 19 10.2595 19 10.0188 18.9011C9.69779 18.7691 9.44279 18.516 9.30984 18.1975C9.24915 18.0521 9.2254 17.883 9.2161 17.6364C9.20244 17.2738 9.01512 16.9383 8.69855 16.7568C8.38199 16.5755 7.99551 16.5823 7.67234 16.7518C7.45246 16.8671 7.29303 16.9312 7.13581 16.9518C6.79137 16.9968 6.44303 16.9041 6.16742 16.6943C5.96077 16.5369 5.80821 16.2747 5.50323 15.7505L5.50295 15.75C5.19778 15.2254 5.0452 14.9631 5.01119 14.7067C4.96585 14.3649 5.05918 14.0192 5.27067 13.7457C5.36721 13.6209 5.5029 13.5159 5.71348 13.3845C6.02299 13.1915 6.22215 12.8628 6.22217 12.5C6.22219 12.1372 6.02302 11.8084 5.71348 11.6153C5.50293 11.484 5.36727 11.3791 5.27073 11.2543C5.05924 10.9807 4.9659 10.635 5.01125 10.2932C5.04526 10.0368 5.19784 9.77453 5.50301 9.24995C5.80818 8.72538 5.96077 8.4631 6.16748 8.30568C6.44309 8.09579 6.79144 8.00316 7.13587 8.04816C7.29311 8.0687 7.45254 8.13284 7.67245 8.24819C7.99559 8.4177 8.38204 8.42447 8.69859 8.2431C9.01513 8.06173 9.20245 7.72619 9.2161 7.36369C9.2254 7.11702 9.24915 6.94792 9.30984 6.80251C9.44279 6.48398 9.69779 6.2309 10.0188 6.09895C10.2595 6 10.5646 6 11.175 6ZM13.1398 12.5C13.1398 13.577 12.2602 14.45 11.175 14.45C10.0898 14.45 9.21013 13.577 9.21013 12.5C9.21013 11.423 10.0898 10.55 11.175 10.55C12.2602 10.55 13.1398 11.423 13.1398 12.5Z" fill="black"/>
</svg>
