<svg width="22" height="24" viewBox="0 0 22 24" fill="none" xmlns="http://www.w3.org/2000/svg">
<path fill-rule="evenodd" clip-rule="evenodd" d="M0.453024 3.69889C0 4.34434 0 6.26288 0 10.1V11.9897C0 18.7553 5.08675 22.0386 8.27827 23.4328L8.27861 23.4329C9.14411 23.8109 9.577 24 10.8 24C12.023 24 12.4559 23.8109 13.3214 23.4329L13.3217 23.4328C16.5132 22.0386 21.6 18.7553 21.6 11.9897V10.1C21.6 6.26288 21.6 4.34434 21.147 3.69889C20.694 3.05346 18.8901 2.43597 15.2822 1.20099L15.2821 1.20095L14.5948 0.965664L14.5944 0.965547C12.7139 0.321849 11.7736 0 10.8 0C9.82637 0 8.88609 0.321856 7.00554 0.965569L7.00526 0.965664L6.31789 1.20095L6.3178 1.20098C2.70995 2.43596 0.906032 3.05345 0.453024 3.69889ZM14.1667 14C14.1667 12.9644 15.0062 12.125 16.0417 12.125C17.0773 12.125 17.9167 12.9644 17.9167 14V17.125C17.9167 18.1605 17.0773 19 16.0417 19C15.0062 19 14.1667 18.1605 14.1667 17.125V14ZM9.16677 5.875C9.16677 4.83946 10.0062 4 11.0418 4C12.0773 4 12.9167 4.83946 12.9167 5.875V17.125C12.9167 18.1605 12.0773 19 11.0418 19C10.0062 19 9.16677 18.1605 9.16677 17.125V5.875ZM4.16673 10.25C4.16673 9.21447 5.00619 8.375 6.04173 8.375C7.07733 8.375 7.91673 9.21447 7.91673 10.25V17.125C7.91673 18.1605 7.07733 19 6.04173 19C5.00619 19 4.16673 18.1605 4.16673 17.125V10.25Z" fill="black"/>
</svg>
