<svg width="24" height="24" viewBox="0 0 24 24" fill="none" xmlns="http://www.w3.org/2000/svg">
<path d="M6.1665 0.416016C2.99087 0.416016 0.416504 2.99038 0.416504 6.16602V17.666C0.416504 20.8416 2.99087 23.416 6.1665 23.416H17.6665C20.8421 23.416 23.4165 20.8416 23.4165 17.666V11.916C23.4165 11.2809 22.9016 10.766 22.2665 10.766C21.6314 10.766 21.1165 11.2809 21.1165 11.916V17.666C21.1165 19.5715 19.5719 21.116 17.6665 21.116H6.1665C4.26113 21.116 2.7165 19.5715 2.7165 17.666V6.16602C2.7165 4.26064 4.26113 2.71602 6.1665 2.71602H11.9165C12.5516 2.71602 13.0665 2.20114 13.0665 1.56602C13.0665 0.930894 12.5516 0.416016 11.9165 0.416016H6.1665Z" fill="black"/>
<path d="M16.2783 2.47908C17.6802 1.07729 19.9529 1.07729 21.3547 2.47908C22.7565 3.88087 22.7565 6.15363 21.3547 7.55542L13.1801 15.7299C12.7381 16.1721 12.184 16.4858 11.5774 16.6374L7.59545 17.633C7.20355 17.7309 6.789 17.616 6.50335 17.3304C6.21772 17.0448 6.10289 16.6303 6.20087 16.2383L7.19635 12.2564C7.34802 11.6497 7.66168 11.0958 8.10383 10.6536L16.2783 2.47908Z" fill="black"/>
</svg>
