<svg width="23" height="25" viewBox="0 0 23 25" fill="none" xmlns="http://www.w3.org/2000/svg">
<path fill-rule="evenodd" clip-rule="evenodd" d="M3.125 13.5417C4.85089 13.5417 6.25 14.9407 6.25 16.6667V21.875C6.25 23.6009 4.85089 25 3.125 25C1.39911 25 0 23.6009 0 21.875V16.6667C0 14.9407 1.39911 13.5417 3.125 13.5417ZM11.4583 0C13.1843 0 14.5833 1.39911 14.5833 3.125V21.875C14.5833 23.6009 13.1843 25 11.4583 25C9.7324 25 8.33333 23.6009 8.33333 21.875V3.125C8.33333 1.39911 9.7324 0 11.4583 0ZM19.7917 7.29167C21.5176 7.29167 22.9167 8.69078 22.9167 10.4167V21.875C22.9167 23.6009 21.5176 25 19.7917 25C18.0657 25 16.6667 23.6009 16.6667 21.875V10.4167C16.6667 8.69078 18.0657 7.29167 19.7917 7.29167Z" fill="black"/>
</svg>
