<svg width="50" height="50" viewBox="0 0 50 50" fill="none" xmlns="http://www.w3.org/2000/svg">
<path d="M26.9482 27.1192C29.4906 31.6107 28.9821 36.6955 25.7617 38.5598C22.5414 40.4242 17.7957 38.3056 15.2533 33.8988C12.7109 29.4073 13.2194 24.3225 16.4398 22.4582C19.6601 20.509 24.4058 22.6276 26.9482 27.1192Z" fill="#F1F4FA"/>
<path d="M45.3379 13.9831C46.2701 19.1526 49.5752 25.8475 49.5752 32.6271C49.5752 41.9492 41.9481 49.5763 32.626 49.5763C30.8464 49.5763 29.1514 49.3221 27.5413 48.8136C28.643 48.4746 29.7447 47.9662 30.7617 47.3729C38.8973 42.7119 41.6092 32.2882 36.9481 24.2373C33.5583 18.3899 27.3718 14.2373 23.982 10.1696C23.2193 9.32213 22.4566 8.4746 21.6938 7.79671C23.982 2.79668 27.7108 0.423828 32.5413 0.423828C39.1515 0.423828 43.6431 4.66115 45.3379 13.9831Z" fill="black"/>
<path d="M25.7617 38.5587C28.9821 36.6943 29.5753 31.5247 26.9482 27.118C24.4059 22.6264 19.6601 20.5925 16.4398 22.457C13.2195 24.3215 12.6262 29.4909 15.2533 33.8977C17.7957 38.3044 22.4567 40.423 25.7617 38.5587ZM27.5414 48.8129C20.0838 51.2705 11.694 48.2197 7.6262 41.1857C4.23641 35.3383 3.72793 27.796 1.94827 22.8807C-1.2721 13.9824 0.507564 8.0502 6.18549 4.74512C11.1855 1.8638 16.355 2.62651 21.694 7.71125C22.4567 8.38925 23.2194 9.23667 23.9821 10.0841C27.3719 14.0672 33.5584 18.2197 36.9482 24.1518C41.6092 32.2874 38.8974 42.6264 30.7618 47.2874C29.7448 47.9654 28.6432 48.4739 27.5414 48.8129Z" fill="black"/>
<path d="M22.3718 50C16.3549 50 10.5074 46.8644 7.28714 41.3559C5.08372 37.5424 4.06677 33.0508 3.21935 29.0678C2.71087 26.8644 2.28711 24.7458 1.60921 23.0509C-1.52644 14.2373 -0.085734 7.96616 6.01596 4.40674C12.1176 0.932137 18.3041 2.7118 24.321 9.91525C25.5075 11.356 27.1176 12.7966 28.8126 14.322C31.7787 17.0339 35.1685 20.1694 37.3719 23.983C39.6601 27.9661 40.3381 32.7118 39.0669 37.2033C37.8804 41.6949 34.9991 45.4236 30.9313 47.7118C28.304 49.2373 25.338 50 22.3718 50ZM12.0328 3.47461C10.1685 3.47461 8.30399 3.98308 6.43962 5.08474C0.76169 8.38982 -0.594208 14.3221 2.37182 22.7118C2.96501 24.4915 3.47349 26.6101 3.98196 28.8135C4.82938 32.7118 5.84633 37.2033 7.96504 40.9322C12.5413 48.8135 22.6261 51.5254 30.5074 46.9492C34.321 44.7457 37.0329 41.1864 38.2193 36.9492C39.3209 32.7119 38.8124 28.2204 36.6091 24.4069C34.4905 20.678 31.1854 17.6272 28.2193 14.9154C26.5244 13.39 24.9142 11.8645 23.643 10.4238C19.8295 5.84745 15.9312 3.47461 12.0328 3.47461ZM33.4736 50C33.2193 50 33.0498 49.8305 33.0498 49.5762C33.0498 49.322 33.2193 49.1525 33.4736 49.1525C42.2872 48.7287 49.1516 41.4406 49.1516 32.6271C49.1516 28.3897 47.7957 24.0677 46.6092 20.2542C45.9312 18.0507 45.2533 15.9321 44.9142 14.0678C43.304 5.33898 39.1515 0.847523 32.626 0.847523C28.8125 0.847523 25.7616 2.37295 23.643 5.33908C23.4735 5.5086 23.2193 5.59332 23.0498 5.42379C22.8803 5.25427 22.7956 5.00003 22.9651 4.8306C25.2532 1.61023 28.5582 0 32.626 0C39.66 0 44.0667 4.66098 45.7617 13.8983C46.1006 15.7627 46.7786 17.7966 47.4566 20C48.6431 23.8983 49.999 28.2203 49.999 32.6272C49.999 41.8644 42.7108 49.4915 33.4736 50ZM23.1346 39.5763C22.1176 39.5763 21.1007 39.322 20.0837 38.8983C18.0498 37.966 16.1854 36.2712 14.9143 33.9831C12.2024 29.3221 12.8804 23.8983 16.2702 21.9492C19.7448 20 24.66 22.1187 27.3719 26.7797C30.0838 31.4407 29.4058 36.8645 26.016 38.8136C25.0837 39.322 24.1515 39.5763 23.1346 39.5763ZM19.0668 22.1186C18.2193 22.1186 17.3718 22.2882 16.6091 22.7118C13.5583 24.4915 13.1345 29.322 15.5922 33.5593C16.7786 35.6779 18.4735 37.2881 20.4227 38.1356C22.287 38.983 24.0667 38.983 25.5921 38.1356C28.643 36.3559 29.0667 31.5254 26.6091 27.2881C24.7447 24.0678 21.6938 22.1186 19.0668 22.1186ZM24.1515 29.661C23.982 29.661 23.8126 29.5763 23.8126 29.4068C22.2023 26.2712 19.0668 25.4237 18.982 25.4237C18.7278 25.339 18.6431 25.1695 18.6431 24.9152C18.7278 24.661 18.8973 24.5763 19.1516 24.5763C19.3211 24.5763 22.7109 25.5085 24.4906 29.0678C24.5753 29.2374 24.4906 29.4916 24.321 29.661C24.321 29.661 24.2362 29.661 24.1515 29.661Z" fill="black"/>
</svg>
