<svg width="50" height="51" viewBox="0 0 50 51" fill="none" xmlns="http://www.w3.org/2000/svg">
<path d="M26.9476 27.1204C29.4901 31.6121 28.9816 36.6971 25.7611 38.5616C22.5406 40.426 17.7946 38.3073 15.2522 33.9004C12.7097 29.4086 13.2182 24.3236 16.4387 22.4592C19.6591 20.5099 24.4051 22.6286 26.9476 27.1204Z" fill="#F1F4FA"/>
<path d="M45.3385 13.9837C46.2708 19.1534 49.576 25.8487 49.576 32.6286C49.576 41.9511 41.9485 49.5785 32.626 49.5785C30.8463 49.5785 29.1513 49.3243 27.5411 48.8158C28.6428 48.4768 29.7446 47.9683 30.7616 47.375C38.8975 42.7138 41.6096 32.2896 36.9483 24.2384C33.5583 18.3907 27.3715 14.238 23.9816 10.17C23.2188 9.32253 22.4561 8.47497 21.6934 7.79704C23.9816 2.79678 27.7106 0.423828 32.5413 0.423828C39.1518 0.423828 43.6435 4.66134 45.3385 13.9837Z" fill="#3A36DB"/>
<path d="M25.7617 38.5612C28.9822 36.6968 29.5754 31.527 26.9482 27.12C24.4057 22.6283 19.6597 20.5943 16.4393 22.4589C13.2189 24.3234 12.6256 29.4931 15.2528 33.9C17.7953 38.307 22.4564 40.4257 25.7617 38.5612ZM27.5414 48.8159C20.0835 51.2737 11.6933 48.2227 7.62531 41.1884C4.23536 35.3407 3.72686 27.7981 1.94712 22.8825C-1.27339 13.9838 0.50635 8.0514 6.18453 4.74617C11.1848 1.86472 16.3545 2.62746 21.6937 7.71244C22.4564 8.39046 23.2192 9.23793 23.9819 10.0854C27.3719 14.0686 33.5587 18.2213 36.9486 24.1538C41.6098 32.2897 38.8979 42.6292 30.7619 47.2904C29.7449 47.9684 28.6432 48.4769 27.5414 48.8159Z" fill="#3A36DB"/>
<path d="M22.3716 50.0022C16.3544 50.0022 10.5067 46.8665 7.28625 41.3578C5.08273 37.5441 4.06573 33.0523 3.21827 29.0691C2.70978 26.8656 2.28599 24.7469 1.60806 23.0519C-1.52773 14.2379 -0.0869586 7.96652 6.01501 4.40694C12.117 0.932179 18.3037 2.71192 24.3209 9.91569C25.5074 11.3565 27.1176 12.7971 28.8127 14.3226C31.7789 17.0347 35.1689 20.1704 37.3724 23.9841C39.6606 27.9673 40.3387 32.7132 39.0674 37.205C37.8809 41.6968 34.9994 45.4257 30.9315 47.7139C28.3041 49.2395 25.3379 50.0022 22.3716 50.0022ZM12.0322 3.47476C10.1677 3.47476 8.30314 3.98326 6.43869 5.08497C0.760503 8.3902 -0.595456 14.3227 2.37071 22.7128C2.96392 24.4926 3.47242 26.6113 3.98092 28.8148C4.82838 32.7132 5.84537 37.205 7.96418 40.934C12.5407 48.8157 22.6259 51.5277 30.5076 46.9513C34.3213 44.7477 37.0333 41.1883 38.2198 36.9509C39.3215 32.7133 38.813 28.2217 36.6095 24.408C34.4908 20.6789 31.1856 17.628 28.2193 14.916C26.5243 13.3906 24.9141 11.8651 23.6429 10.4243C19.8291 5.84772 15.9307 3.47476 12.0322 3.47476ZM33.4738 50.0022C33.2196 50.0022 33.0501 49.8327 33.0501 49.5785C33.0501 49.3242 33.2196 49.1547 33.4738 49.1547C42.2878 48.7309 49.1525 41.4425 49.1525 32.6285C49.1525 28.391 47.7966 24.0688 46.6101 20.2551C45.932 18.0515 45.2541 15.9328 44.915 14.0684C43.3047 5.33922 39.152 0.847561 32.6263 0.847561C28.8126 0.847561 25.7616 2.37305 23.6429 5.33932C23.4733 5.50885 23.2191 5.59357 23.0497 5.42403C22.8801 5.2545 22.7954 5.00025 22.9649 4.83082C25.2531 1.61031 28.5583 0 32.6263 0C39.6605 0 44.0675 4.66119 45.7625 13.899C46.1015 15.7634 46.7795 17.7974 47.4575 20.0009C48.644 23.8994 50 28.2216 50 32.6286C50 41.8663 42.7115 49.4938 33.4738 50.0022ZM23.1344 39.5781C22.1174 39.5781 21.1004 39.3238 20.0834 38.9C18.0494 37.9677 16.1849 36.2728 14.9137 33.9846C12.2017 29.3234 12.8797 23.8994 16.2697 21.9502C19.7444 20.0009 24.6599 22.1197 27.3719 26.7809C30.0839 31.4421 29.4059 36.8661 26.0159 38.8153C25.0836 39.3238 24.1514 39.5781 23.1344 39.5781ZM19.0664 22.1196C18.2189 22.1196 17.3714 22.2892 16.6086 22.7128C13.5576 24.4926 13.1339 29.3233 15.5916 33.5608C16.7782 35.6795 18.4731 37.2898 20.4224 38.1373C22.2868 38.9847 24.0666 38.9847 25.592 38.1373C28.643 36.3575 29.0668 31.5268 26.609 27.2893C24.7446 24.0689 21.6936 22.1196 19.0664 22.1196ZM24.1514 29.6624C23.9818 29.6624 23.8124 29.5776 23.8124 29.4081C22.2021 26.2724 19.0664 25.4249 18.9817 25.4249C18.7274 25.3401 18.6427 25.1706 18.6427 24.9164C18.7274 24.6621 18.897 24.5774 19.1512 24.5774C19.3207 24.5774 22.7107 25.5097 24.4904 29.0691C24.5751 29.2387 24.4904 29.4929 24.3209 29.6624C24.3209 29.6624 24.2361 29.6624 24.1514 29.6624Z" fill="white"/>
</svg>
