<svg width="134" height="134" viewBox="0 0 134 134" fill="none" xmlns="http://www.w3.org/2000/svg">
<g opacity="0.7">
<path fill-rule="evenodd" clip-rule="evenodd" d="M87.1185 47.3274C87.2639 47.5721 87.5183 47.7469 87.8454 47.7469C96.5685 47.7469 103.692 54.5993 103.692 62.99V83.7569C103.692 92.1476 96.5685 99 87.8454 99H46.8469C38.0875 99 31 92.1476 31 83.7569V62.99C31 54.5993 38.0875 47.7469 46.8469 47.7469C47.1377 47.7469 47.4285 47.6071 47.5375 47.3274L47.7556 46.9079C47.8809 46.6539 48.0095 46.393 48.1401 46.1281C49.0699 44.2422 50.0986 42.1558 50.736 40.9295C52.4079 37.783 55.2429 36.035 58.7685 36H75.8875C79.4131 36.035 82.2844 37.783 83.9564 40.9295C84.5288 42.0308 85.401 43.8048 86.2416 45.5146C86.4151 45.8674 86.5872 46.2174 86.755 46.5583L87.1185 47.3274ZM84.4644 60.7286C84.4644 62.4766 85.9182 63.8751 87.7355 63.8751C89.5528 63.8751 91.043 62.4766 91.043 60.7286C91.043 58.9805 89.5528 57.5471 87.7355 57.5471C85.9182 57.5471 84.4644 58.9805 84.4644 60.7286ZM61.0599 66.1908C62.7682 64.5477 64.9853 63.6736 67.3478 63.6736C69.7103 63.6736 71.9274 64.5477 73.5993 66.1559C75.2712 67.7641 76.1799 69.8967 76.1799 72.1692C76.1436 76.854 72.2182 80.6648 67.3478 80.6648C64.9853 80.6648 62.7682 79.7907 61.0962 78.1825C59.4243 76.5743 58.5157 74.4417 58.5157 72.1692V72.1342C58.4793 69.9317 59.388 67.7991 61.0599 66.1908ZM77.4105 81.8594C74.8299 84.3417 71.268 85.88 67.3426 85.88C63.5262 85.88 59.9643 84.4465 57.2383 81.8594C54.5487 79.2373 53.0585 75.8111 53.0585 72.1402C53.0222 68.5043 54.5124 65.0781 57.202 62.456C59.928 59.8339 63.5262 58.4005 67.3426 58.4005C71.1589 58.4005 74.7572 59.8339 77.4468 62.421C80.1364 65.0431 81.6266 68.5043 81.6266 72.1402C81.5903 75.951 79.991 79.3772 77.4105 81.8594Z" fill="#9596A7"/>
<path d="M87.1185 47.3274L86.6664 47.541L86.6765 47.5624L86.6886 47.5828L87.1185 47.3274ZM47.5375 47.3274L47.0939 47.0968L47.0814 47.1207L47.0717 47.1458L47.5375 47.3274ZM47.7556 46.9079L48.1993 47.1385L48.204 47.1291L47.7556 46.9079ZM48.1401 46.1281L47.6916 45.907L47.6916 45.907L48.1401 46.1281ZM50.736 40.9295L50.2944 40.6949L50.2923 40.6989L50.736 40.9295ZM58.7685 36L58.7685 35.5L58.7635 35.5L58.7685 36ZM75.8875 36L75.8925 35.5H75.8875V36ZM83.9564 40.9295L84.4 40.6989L84.3979 40.6949L83.9564 40.9295ZM86.2416 45.5146L86.6903 45.294L86.6903 45.294L86.2416 45.5146ZM86.755 46.5583L87.2071 46.3446L87.2036 46.3374L86.755 46.5583ZM61.0599 66.1908L60.7133 65.8305L60.7133 65.8305L61.0599 66.1908ZM73.5993 66.1559L73.2527 66.5162L73.2527 66.5162L73.5993 66.1559ZM76.1799 72.1692L76.6799 72.1731V72.1692H76.1799ZM61.0962 78.1825L60.7496 78.5429L60.7496 78.5429L61.0962 78.1825ZM58.5157 72.1342H59.0157L59.0156 72.126L58.5157 72.1342ZM77.4105 81.8594L77.0638 81.4991L77.0638 81.4991L77.4105 81.8594ZM57.2383 81.8594L56.8893 82.2175L56.8941 82.2221L57.2383 81.8594ZM53.0585 72.1402H53.5586L53.5585 72.1352L53.0585 72.1402ZM57.202 62.456L56.8554 62.0956L56.853 62.098L57.202 62.456ZM77.4468 62.421L77.7959 62.063L77.7934 62.0607L77.4468 62.421ZM81.6266 72.1402L82.1266 72.145V72.1402H81.6266ZM87.8454 47.2469C87.715 47.2469 87.6145 47.1835 87.5483 47.072L86.6886 47.5828C86.9132 47.9608 87.3215 48.2469 87.8454 48.2469V47.2469ZM104.192 62.99C104.192 54.3051 96.8261 47.2469 87.8454 47.2469V48.2469C96.3108 48.2469 103.192 54.8936 103.192 62.99H104.192ZM104.192 83.7569V62.99H103.192V83.7569H104.192ZM87.8454 99.5C96.8261 99.5 104.192 92.4419 104.192 83.7569H103.192C103.192 91.8533 96.3108 98.5 87.8454 98.5V99.5ZM46.8469 99.5H87.8454V98.5H46.8469V99.5ZM30.5 83.7569C30.5 92.4412 37.8291 99.5 46.8469 99.5V98.5C38.3459 98.5 31.5 91.8541 31.5 83.7569H30.5ZM30.5 62.99V83.7569H31.5V62.99H30.5ZM46.8469 47.2469C37.8291 47.2469 30.5 54.3058 30.5 62.99H31.5C31.5 54.8929 38.3459 48.2469 46.8469 48.2469V47.2469ZM47.0717 47.1458C47.0637 47.1661 47.0485 47.1873 47.0128 47.2077C46.9736 47.23 46.9153 47.2469 46.8469 47.2469V48.2469C47.2741 48.2469 47.797 48.0383 48.0034 47.509L47.0717 47.1458ZM47.3119 46.6773L47.0939 47.0968L47.9811 47.558L48.1992 47.1385L47.3119 46.6773ZM47.6916 45.907C47.5611 46.1719 47.4325 46.4327 47.3072 46.6867L48.204 47.1291C48.3293 46.875 48.458 46.6141 48.5886 46.3492L47.6916 45.907ZM50.2923 40.6989C49.6518 41.9311 48.6203 44.0235 47.6916 45.907L48.5886 46.3492C49.5195 44.4609 50.5453 42.3804 51.1796 41.1601L50.2923 40.6989ZM58.7635 35.5C55.0511 35.5368 52.0505 37.39 50.2944 40.6949L51.1775 41.1641C52.7653 38.176 55.4347 36.5331 58.7734 36.5L58.7635 35.5ZM75.8875 35.5H58.7685V36.5H75.8875V35.5ZM84.3979 40.6949C82.6407 37.3879 79.6026 35.5368 75.8925 35.5L75.8826 36.5C79.2235 36.5331 81.9282 38.1781 83.5148 41.1641L84.3979 40.6949ZM86.6903 45.294C85.8509 43.5866 84.9757 41.8064 84.4 40.6989L83.5127 41.1601C84.0819 42.2552 84.9511 44.023 85.7929 45.7352L86.6903 45.294ZM87.2036 46.3374C87.0358 45.9967 86.8638 45.6468 86.6903 45.294L85.7929 45.7352C85.9663 46.0879 86.1385 46.4381 86.3065 46.7792L87.2036 46.3374ZM87.5705 47.1138L87.2071 46.3446L86.3029 46.7719L86.6664 47.541L87.5705 47.1138ZM87.7355 63.3751C86.1759 63.3751 84.9644 62.1823 84.9644 60.7286H83.9644C83.9644 62.7709 85.6606 64.3751 87.7355 64.3751V63.3751ZM90.543 60.7286C90.543 62.1753 89.3025 63.3751 87.7355 63.3751V64.3751C89.8031 64.3751 91.543 62.7779 91.543 60.7286H90.543ZM87.7355 58.0471C89.2952 58.0471 90.543 59.2748 90.543 60.7286H91.543C91.543 58.6862 89.8105 57.0471 87.7355 57.0471V58.0471ZM84.9644 60.7286C84.9644 59.2677 86.1832 58.0471 87.7355 58.0471V57.0471C85.6532 57.0471 83.9644 58.6933 83.9644 60.7286H84.9644ZM67.3478 63.1736C64.8586 63.1736 62.5165 64.0959 60.7133 65.8305L61.4065 66.5512C63.0198 64.9994 65.112 64.1736 67.3478 64.1736V63.1736ZM73.9459 65.7955C72.178 64.0949 69.8354 63.1736 67.3478 63.1736V64.1736C69.5851 64.1736 71.6768 65.0004 73.2527 66.5162L73.9459 65.7955ZM76.6799 72.1692C76.6799 69.7591 75.7147 67.4969 73.9459 65.7955L73.2527 66.5162C74.8278 68.0313 75.6799 70.0344 75.6799 72.1692H76.6799ZM67.3478 81.1648C72.4794 81.1648 76.6413 77.1457 76.6799 72.1731L75.6799 72.1653C75.6458 76.5623 71.9569 80.1648 67.3478 80.1648V81.1648ZM60.7496 78.5429C62.5176 80.2435 64.8601 81.1648 67.3478 81.1648V80.1648C65.1104 80.1648 63.0187 79.338 61.4429 77.8222L60.7496 78.5429ZM58.0157 72.1692C58.0157 74.5793 58.9809 76.8415 60.7496 78.5429L61.4429 77.8222C59.8677 76.3071 59.0157 74.304 59.0157 72.1692H58.0157ZM58.0157 72.1342V72.1692H59.0157V72.1342H58.0157ZM60.7133 65.8305C58.9465 67.5299 57.977 69.794 58.0157 72.1425L59.0156 72.126C58.9817 70.0693 59.8294 68.0682 61.4065 66.5512L60.7133 65.8305ZM67.3426 86.38C71.4003 86.38 75.0856 84.7895 77.7571 82.2198L77.0638 81.4991C74.5742 83.8938 71.1357 85.38 67.3426 85.38V86.38ZM56.8941 82.2221C59.713 84.8974 63.3981 86.38 67.3426 86.38V85.38C63.6544 85.38 60.2156 83.9957 57.5825 81.4968L56.8941 82.2221ZM52.5585 72.1402C52.5585 75.9518 54.1074 79.5054 56.8893 82.2174L57.5874 81.5014C54.99 78.9693 53.5585 75.6705 53.5585 72.1402H52.5585ZM56.853 62.098C54.0718 64.8093 52.5208 68.3643 52.5586 72.1452L53.5585 72.1352C53.5236 68.6442 54.953 65.3468 57.551 62.814L56.853 62.098ZM67.3426 57.9005C63.3991 57.9005 59.676 59.3825 56.8554 62.0956L57.5486 62.8163C60.1799 60.2853 63.6534 58.9005 67.3426 58.9005V57.9005ZM77.7934 62.0607C75.0085 59.3819 71.2852 57.9005 67.3426 57.9005V58.9005C71.0327 58.9005 74.5059 60.2859 77.1002 62.7814L77.7934 62.0607ZM82.1266 72.1402C82.1266 68.3643 80.5782 64.7755 77.7958 62.063L77.0978 62.779C79.6946 65.3107 81.1266 68.6442 81.1266 72.1402H82.1266ZM77.7571 82.2198C80.4296 79.6491 82.0889 76.0967 82.1266 72.145L81.1266 72.1355C81.0916 75.8052 79.5525 79.1052 77.0638 81.4991L77.7571 82.2198Z" fill="#9596A7"/>
</g>
</svg>
