<svg width="300" height="300" viewBox="0 0 300 300" fill="none" xmlns="http://www.w3.org/2000/svg">
<g opacity="0.7">
<path fill-rule="evenodd" clip-rule="evenodd" d="M172.076 126.934C172.242 127.213 172.533 127.413 172.906 127.413C182.866 127.413 191 135.237 191 144.817V168.529C191 178.109 182.866 185.933 172.906 185.933H126.094C116.093 185.933 108 178.109 108 168.529V144.817C108 135.237 116.093 127.413 126.094 127.413C126.426 127.413 126.758 127.253 126.883 126.934L127.132 126.455C127.275 126.165 127.421 125.867 127.57 125.564C128.632 123.411 129.807 121.029 130.535 119.629C132.444 116.036 135.681 114.04 139.706 114H159.253C163.278 114.04 166.556 116.036 168.465 119.629C169.119 120.886 170.115 122.911 171.075 124.863C171.273 125.266 171.469 125.666 171.661 126.055L172.076 126.934ZM169.044 142.226C169.044 144.222 170.704 145.819 172.779 145.819C174.854 145.819 176.556 144.222 176.556 142.226C176.556 140.23 174.854 138.594 172.779 138.594C170.704 138.594 169.044 140.23 169.044 142.226ZM142.324 148.47C144.274 146.594 146.806 145.596 149.503 145.596C152.201 145.596 154.732 146.594 156.641 148.43C158.55 150.266 159.588 152.701 159.588 155.296C159.546 160.645 155.064 164.996 149.503 164.996C146.806 164.996 144.274 163.998 142.365 162.162C140.456 160.326 139.419 157.891 139.419 155.296V155.256C139.377 152.741 140.415 150.306 142.324 148.47ZM160.991 166.354C158.045 169.188 153.978 170.944 149.496 170.944C145.138 170.944 141.071 169.308 137.959 166.354C134.888 163.36 133.186 159.448 133.186 155.256C133.145 151.105 134.846 147.193 137.917 144.199C141.03 141.205 145.138 139.568 149.496 139.568C153.853 139.568 157.962 141.205 161.033 144.159C164.104 147.153 165.805 151.105 165.805 155.256C165.764 159.607 163.938 163.52 160.991 166.354Z" fill="#9596A7"/>
<path d="M172.076 126.934L171.624 127.147L171.634 127.169L171.646 127.189L172.076 126.934ZM126.883 126.934L126.439 126.703L126.426 126.727L126.417 126.752L126.883 126.934ZM127.132 126.455L127.575 126.685L127.58 126.676L127.132 126.455ZM127.57 125.564L127.122 125.343L127.122 125.343L127.57 125.564ZM130.535 119.629L130.093 119.394L130.091 119.398L130.535 119.629ZM139.706 114V113.5L139.701 113.5L139.706 114ZM159.253 114L159.257 113.5H159.253V114ZM168.465 119.629L168.909 119.398L168.907 119.394L168.465 119.629ZM171.075 124.863L171.523 124.643L171.523 124.643L171.075 124.863ZM171.661 126.055L172.113 125.842L172.11 125.835L171.661 126.055ZM142.324 148.47L141.977 148.11L141.977 148.11L142.324 148.47ZM159.588 155.296L160.088 155.3V155.296H159.588ZM139.419 155.256H139.919L139.919 155.248L139.419 155.256ZM160.991 166.354L160.644 165.993L160.644 165.993L160.991 166.354ZM137.959 166.354L137.609 166.712L137.614 166.716L137.959 166.354ZM133.186 155.256H133.686L133.686 155.251L133.186 155.256ZM137.917 144.199L137.57 143.839L137.568 143.841L137.917 144.199ZM161.033 144.159L161.382 143.801L161.379 143.799L161.033 144.159ZM165.805 155.256L166.305 155.261V155.256H165.805ZM172.906 126.913C172.729 126.913 172.593 126.824 172.506 126.678L171.646 127.189C171.891 127.602 172.336 127.913 172.906 127.913V126.913ZM191.5 144.817C191.5 134.942 183.124 126.913 172.906 126.913V127.913C182.608 127.913 190.5 135.531 190.5 144.817H191.5ZM191.5 168.529V144.817H190.5V168.529H191.5ZM172.906 186.433C183.124 186.433 191.5 178.404 191.5 168.529H190.5C190.5 177.815 182.608 185.433 172.906 185.433V186.433ZM126.094 186.433H172.906V185.433H126.094V186.433ZM107.5 168.529C107.5 178.403 115.834 186.433 126.094 186.433V185.433C116.351 185.433 108.5 177.816 108.5 168.529H107.5ZM107.5 144.817V168.529H108.5V144.817H107.5ZM126.094 126.913C115.834 126.913 107.5 134.943 107.5 144.817H108.5C108.5 135.53 116.351 127.913 126.094 127.913V126.913ZM126.417 126.752C126.389 126.822 126.29 126.913 126.094 126.913V127.913C126.562 127.913 127.127 127.684 127.348 127.115L126.417 126.752ZM126.688 126.224L126.439 126.703L127.326 127.164L127.575 126.685L126.688 126.224ZM127.122 125.343C126.973 125.646 126.826 125.943 126.683 126.233L127.58 126.676C127.723 126.386 127.87 126.088 128.019 125.786L127.122 125.343ZM130.091 119.398C129.36 120.804 128.182 123.192 127.122 125.343L128.019 125.786C129.082 123.63 130.253 121.253 130.978 119.859L130.091 119.398ZM139.701 113.5C135.489 113.542 132.086 115.643 130.093 119.394L130.976 119.863C132.801 116.429 135.872 114.538 139.711 114.5L139.701 113.5ZM159.253 113.5H139.706V114.5H159.253V113.5ZM168.907 119.394C166.913 115.641 163.468 113.542 159.257 113.5L159.248 114.5C163.088 114.538 166.2 116.431 168.024 119.863L168.907 119.394ZM171.523 124.643C170.565 122.693 169.566 120.661 168.909 119.398L168.022 119.859C168.672 121.11 169.665 123.129 170.626 125.084L171.523 124.643ZM172.11 125.835C171.918 125.445 171.721 125.046 171.523 124.643L170.626 125.084C170.824 125.487 171.021 125.887 171.212 126.276L172.11 125.835ZM172.528 126.72L172.113 125.842L171.209 126.269L171.624 127.147L172.528 126.72ZM172.779 145.319C170.962 145.319 169.544 143.928 169.544 142.226H168.544C168.544 144.517 170.447 146.319 172.779 146.319V145.319ZM176.056 142.226C176.056 143.921 174.604 145.319 172.779 145.319V146.319C175.105 146.319 177.056 144.524 177.056 142.226H176.056ZM172.779 139.094C174.597 139.094 176.056 140.525 176.056 142.226H177.056C177.056 139.936 175.112 138.094 172.779 138.094V139.094ZM169.544 142.226C169.544 140.518 170.969 139.094 172.779 139.094V138.094C170.439 138.094 168.544 139.943 168.544 142.226H169.544ZM149.503 145.096C146.679 145.096 144.023 146.142 141.977 148.11L142.67 148.83C144.526 147.046 146.932 146.096 149.503 146.096V145.096ZM156.988 148.07C154.983 146.141 152.326 145.096 149.503 145.096V146.096C152.076 146.096 154.482 147.047 156.295 148.79L156.988 148.07ZM160.088 155.296C160.088 152.564 158.994 149.999 156.988 148.07L156.295 148.79C158.107 150.534 159.088 152.839 159.088 155.296H160.088ZM149.503 165.496C155.326 165.496 160.044 160.937 160.088 155.3L159.088 155.292C159.049 160.354 154.803 164.496 149.503 164.496V165.496ZM142.019 162.522C144.024 164.451 146.681 165.496 149.503 165.496V164.496C146.931 164.496 144.525 163.546 142.712 161.802L142.019 162.522ZM138.919 155.296C138.919 158.028 140.013 160.593 142.019 162.522L142.712 161.802C140.9 160.059 139.919 157.753 139.919 155.296H138.919ZM138.919 155.256V155.296H139.919V155.256H138.919ZM141.977 148.11C139.973 150.037 138.875 152.604 138.919 155.264L139.919 155.248C139.88 152.879 140.856 150.575 142.67 148.83L141.977 148.11ZM149.496 171.444C154.11 171.444 158.3 169.636 161.338 166.714L160.644 165.993C157.789 168.74 153.845 170.444 149.496 170.444V171.444ZM137.614 166.716C140.82 169.759 145.01 171.444 149.496 171.444V170.444C145.266 170.444 141.322 168.857 138.303 165.991L137.614 166.716ZM132.686 155.256C132.686 159.588 134.446 163.628 137.61 166.712L138.308 165.996C135.329 163.092 133.686 159.307 133.686 155.256H132.686ZM137.568 143.841C134.405 146.924 132.643 150.965 132.686 155.261L133.686 155.251C133.646 151.245 135.287 147.462 138.266 144.557L137.568 143.841ZM149.496 139.068C145.011 139.068 140.778 140.754 137.57 143.839L138.264 144.559C141.282 141.656 145.265 140.068 149.496 140.068V139.068ZM161.379 143.799C158.213 140.753 153.979 139.068 149.496 139.068V140.068C153.727 140.068 157.71 141.657 160.686 144.519L161.379 143.799ZM166.305 155.256C166.305 150.965 164.545 146.885 161.382 143.801L160.684 144.517C163.662 147.42 165.305 151.245 165.305 155.256H166.305ZM161.338 166.714C164.376 163.791 166.262 159.753 166.305 155.261L165.305 155.252C165.265 159.462 163.499 163.248 160.644 165.993L161.338 166.714Z" fill="#9596A7"/>
</g>
</svg>
