<svg id="eYKJvSHINEs1" xmlns="http://www.w3.org/2000/svg" xmlns:xlink="http://www.w3.org/1999/xlink" viewBox="0 0 694 428" shape-rendering="geometricPrecision" text-rendering="geometricPrecision"><g transform="matrix(.928691 0 0 0.895205 31.152205 22.42613)"><g><g id="eYKJvSHINEs4" transform="matrix(0 0 0 0 358.117031 176.549336)"><g><path d="M337.281,96.0335c28.612-4.0561,55.69-15.2379,79.04-32.1201c34.97-25.3233,107.98-68.40581,177.701-46.9194c96.251,29.4891,96.689,115.106,71.585,161.587C640.613,225.062,462.911,361.216,232.59,339.62C26.4952,320.216,-13.6275,98.3356,96.2165,58.1033C191.7,23.3523,224.149,112.039,337.281,96.0335Z" opacity="0.1" fill="#3a36db"/></g></g><g><g id="eYKJvSHINEs8" transform="matrix(0 0 0 0.5 339.046509 209.556)"><path d="M339.047,427.224c-124.842,0-226.047-3.632-226.047-8.112s101.205-8.112,226.047-8.112c124.841,0,226.046,3.632,226.046,8.112s-101.205,8.112-226.046,8.112Z" opacity="0.2" fill="#605bff"/></g><g><g><g id="eYKJvSHINEs12" transform="translate(-695.719071-455.09633)"><g><g><path d="M388.039,104.474l-.329,1.754-.438,1.864-.877,3.837c-.548,2.631-1.206,5.152-1.864,7.783s-1.315,5.152-2.083,7.674c-.658,2.521-1.425,5.043-2.192,7.564-.768,2.521-1.645,4.933-2.522,7.345s-1.754,4.823-2.74,7.016c-.987,2.302-1.974,4.494-3.07,6.687-1.096,2.083-2.192,4.166-3.398,5.92-1.206,1.863-2.412,3.508-3.508,4.823-1.206,1.316-2.302,2.412-3.289,2.96-.438.329-.877.548-1.206.658-.329.109-.548.219-.877.329h-.109l-.439.109-.987.219-1.973.329-4.056.658-4.056.658-4.056.658c-2.741.438-5.372.877-8.112,1.205l-4.056.658c-1.316.219-2.741.439-4.057.658l-2.082.329-2.083.329c-.658.109-1.316.219-2.083.329-.658.109-1.425.219-1.973.328l-.549.11c-6.358,1.206-10.633,7.345-9.427,13.813.986,5.262,5.371,9.099,10.524,9.537l2.192.219c.768.11,1.425.11,2.193.22c1.425.109,2.96.219,4.385.329l2.192.109l2.193.11c1.425,0,2.85.109,4.385.109c1.425,0,2.96,0,4.385,0s2.96,0,4.385,0c2.96,0,5.81-.109,8.77-.219c1.425-.109,2.959-.109,4.385-.219l2.192-.11l1.096-.109h.548l.987-.11c2.521-.329,5.043-.987,7.345-1.864s4.385-1.973,6.358-3.069c1.973-1.206,3.727-2.412,5.262-3.837c1.645-1.315,3.07-2.741,4.385-4.056c1.316-1.425,2.522-2.85,3.727-4.275c1.097-1.426,2.193-2.851,3.18-4.276c1.973-2.85,3.727-5.7,5.262-8.66c1.534-2.85,2.959-5.81,4.165-8.66c1.316-2.851,2.412-5.811,3.508-8.661c1.097-2.85,2.083-5.81,3.07-8.66.877-2.85,1.754-5.81,2.631-8.661.767-2.85,1.534-5.81,2.192-8.66s1.316-5.81,1.973-8.77c.329-1.425.549-2.96.877-4.385l.439-2.192.219-1.097.219-1.315c1.316-8.551-4.604-16.5534-13.155-17.8689-8.331-1.3155-16.114,4.2753-17.759,12.3879l-.219.109Z" fill="#ffaa8c"/></g><g><path d="M421.584,113.683c-2.083,7.126-10.524,31.353-17.979,43.411l-32.778-15.457c0,0,11.182-25.871,16.992-42.2053c1.864-5.262,6.03-9.5373,11.401-11.4009c3.618-1.2059,7.893-1.5348,12.717.7673c9.427,4.4946,10.414,14.9089,10.304,20.0609.11,1.754-.219,3.289-.657,4.824Z" fill="#ff69b4"/></g></g><g><g><g><g><g><path d="M297.268,367.902l-8.661,14.032-16.443-7.235l7.454-15.129l17.65,8.332Z" fill="#ffaa8c"/></g></g></g><g><g><g><path d="M220.042,382.236l62.157,27.516c.877-.658,1.644-1.754,2.302-3.07c2.741-5.043,4.714-14.251,6.249-19.952.219-.657.328-1.315.548-1.863.329-.987.548-1.754.767-2.193c1.864-4.275-2.193-5.262-2.193-5.262-8.989,3.399-12.058-8.989-17.539-7.783c0,0-2.412.438-9.319,2.741-6.906,2.302-16.663,1.425-25.104,1.315-10.962-.219-15.237,2.521-16.991,4.933-1.206,1.864-.877,3.618-.877,3.618Z" fill="#ff69b4"/></g></g><g><g><g><g><path d="M220.092,382.701l62.158,27.516c.877-.658,1.644-1.754,2.302-3.07l-63.583-28.173c-1.205,1.973-.877,3.727-.877,3.727Z" fill="#3a36db"/></g></g></g></g><g><g><g><g><g><path d="M276.002,407.476l1.863.767c-.877-2.959-1.206-6.906,1.097-11.401c3.069-6.029,8.55-8.55,12.058-9.537.219-.658.329-1.315.548-1.864-3.727.877-10.414,3.399-14.032,10.634-2.302,4.385-2.302,8.222-1.534,11.401Z" fill="#3a36db"/></g></g></g></g></g><g><g><g><g><path d="M262.518,377.001c.438.219.986.109,1.315-.329.329-.439.329-1.206-.219-1.535l-3.508-2.741c-.439-.329-1.206-.329-1.535.22-.329.438-.329,1.205.219,1.534l3.508,2.741c.11,0,.22,0,.22.11Z" fill="#3a36db"/></g></g></g></g><g><g><g><g><path d="M267.89,375.465c.438.22.986.11,1.315-.328.329-.439.329-1.206-.219-1.535l-3.508-2.741c-.438-.329-1.206-.329-1.535.219-.329.439-.329,1.206.22,1.535l3.508,2.741c0,0,.109,0,.219.109Z" fill="#3a36db"/></g></g></g></g><g><g><g><g><path d="M257.693,377.548c.439.22.987.11,1.316-.328.329-.439.329-1.206-.219-1.535l-3.508-2.741c-.439-.329-1.206-.329-1.535.219-.329.439-.329,1.206.219,1.535l3.508,2.741c0,0,.11,0,.219.109Z" fill="#3a36db"/></g></g></g></g><g><g><g><g><path d="M252.87,377.987c.439.219.987.109,1.316-.329.329-.439.329-1.206-.22-1.535l-3.508-2.74c-.438-.329-1.205-.329-1.534.219-.329.438-.329,1.206.219,1.535l3.508,2.74c0,0,.11,0,.219.11Z" fill="#3a36db"/></g></g></g></g><g><g><g><g><path d="M247.718,378.096c.438.22.987.11,1.315-.329.329-.438.329-1.205-.219-1.534l-3.508-2.741c-.438-.329-1.206-.329-1.535.219-.329.439-.328,1.206.22,1.535l3.508,2.741c0,0,.109.109.219.109Z" fill="#3a36db"/></g></g></g></g><g><g><g><g><path d="M242.346,377.767c.438.219.986.11,1.315-.329.329-.438.329-1.206-.219-1.534l-3.508-2.741c-.438-.329-1.206-.329-1.535.219-.329.439-.329,1.206.22,1.535l3.508,2.741c0,0,.109.109.219.109Z" fill="#3a36db"/></g></g></g></g></g></g><g><g><path d="M335.857,231.748c5.81-5.7,51.304-18.417,81.561-9.976c3.508,6.688,7.893,23.57-2.96,39.246-39.794,6.468-61.938,19.842-61.938,19.842s-14.142,32.559-22.473,44.508c-8.332,11.949-27.626,49.989-27.626,49.989L273.48,362.969c.11,0,46.7-115.764,62.377-131.221Z" fill="#06152b"/></g></g><g><g><path d="M305.6,368.231c-.11,0-.22,0-.329-.11l-28.283-11.73c-.439-.219-.658-.657-.439-1.096.219-.438.658-.658,1.096-.438l28.284,11.729c.438.22.657.658.438,1.097-.11.329-.438.548-.767.548Z" fill="#f1f4fa"/></g></g><g><g><path d="M300.886,365.819c-.11,0-.22,0-.329-.11-.439-.219-.658-.658-.439-1.096.11-.11,6.03-14.909,19.842-35.957c13.703-20.829,28.064-56.128,28.284-56.457.219-.438.657-.657,1.096-.438.438.219.657.658.438,1.096-.109.329-14.58,35.738-28.393,56.676-13.703,20.829-19.622,35.518-19.622,35.628-.329.439-.549.658-.877.658Z" fill="#f1f4fa"/></g></g></g><g><g><g><g><path d="M370.389,370.314l-2.193,16.444h-18.088l.767-16.882l19.514.438Z" fill="#ffaa8c"/></g></g></g><g><g><g><path d="M305.659,414.686h68.077c.548-.877.767-2.193.877-3.727.438-5.811-1.425-14.909-2.302-20.719-.11-.658-.22-1.316-.329-1.864-.11-.987-.219-1.754-.219-2.412c0-4.714-4.166-3.946-4.166-3.946-6.906,6.796-14.69-3.399-19.294,0c0,0-1.973,1.425-7.345,6.248-5.372,4.824-14.58,8.113-22.363,11.292-10.086,4.275-12.936,8.441-13.484,11.291-.439,2.412.548,3.837.548,3.837Z" fill="#ff69b4"/></g></g><g><g><g><g><path d="M305.71,415.15h68.077c.548-.877.767-2.192.877-3.727h-69.502c-.439,2.302.548,3.727.548,3.727Z" fill="#3a36db"/></g></g></g></g><g><g><g><g><g><path d="M366.88,415.151h1.973c-1.973-2.302-3.946-5.81-3.617-10.853.329-6.687,4.385-11.291,7.125-13.594-.109-.657-.219-1.315-.329-1.863-3.069,2.302-8.112,7.345-8.55,15.457-.11,4.714,1.534,8.331,3.398,10.853Z" fill="#3a36db"/></g></g></g></g></g><g><g><g><g><path d="M342.324,392.678c.548,0,.987-.329,1.096-.877.11-.548-.219-1.206-.767-1.316l-4.275-1.096c-.548-.109-1.206.219-1.316.768-.109.548.219,1.205.768,1.315l4.275,1.096c0,.11.11.11.219.11Z" fill="#3a36db"/></g></g></g></g><g><g><g><g><path d="M346.49,389.169c.548,0,.987-.329,1.096-.877.11-.548-.219-1.206-.767-1.315l-4.275-1.097c-.548-.109-1.206.22-1.316.768-.109.548.219,1.206.768,1.315l4.275,1.097c.11.109.11.109.219.109Z" fill="#3a36db"/></g></g></g></g><g><g><g><g><path d="M338.051,395.198c.548,0,.986-.328,1.096-.877.11-.548-.219-1.205-.767-1.315l-4.276-1.096c-.548-.11-1.206.219-1.315.767-.11.548.219,1.206.767,1.316l4.275,1.096c0,.109.11.109.22.109Z" fill="#3a36db"/></g></g></g></g><g><g><g><g><path d="M333.773,397.611c.548,0,.987-.329,1.097-.877.109-.549-.22-1.206-.768-1.316l-4.275-1.096c-.548-.11-1.206.219-1.316.767-.109.548.22,1.206.768,1.316l4.275,1.096c0,0,.11.11.219.11Z" fill="#3a36db"/></g></g></g></g><g><g><g><g><path d="M329.169,399.803c.548,0,.987-.329,1.096-.877.11-.548-.219-1.206-.767-1.316l-4.276-1.096c-.548-.109-1.206.219-1.315.768-.11.548.219,1.205.767,1.315l4.276,1.096c0,.11.109.11.219.11Z" fill="#3a36db"/></g></g></g></g><g><g><g><g><path d="M324.127,401.666c.548,0,.987-.329,1.096-.877.11-.548-.219-1.206-.767-1.315l-4.276-1.097c-.548-.109-1.205.22-1.315.768s.219,1.206.767,1.315l4.276,1.097c0,.109.109.109.219.109Z" fill="#3a36db"/></g></g></g></g></g></g><g><g><g><g><g><g><path d="M389.245,98.2259c-.11,6.6871,7.235,18.8551,11.949,45.0561.109.657.219,1.315.329,1.973.219,1.425.438,2.96.767,4.495.11.657.219,1.205.219,1.863.219,1.535.439,3.07.658,4.714.11.548.11,1.096.219,1.644.219,2.083.439,4.166.658,6.359.219,1.973.329,3.837.438,5.919.11.987.11,2.083.22,3.07c0,1.096.109,2.192.109,3.289.548,11.729,1.206,39.245.22,54.593c21.157,13.374,65.226,14.141,94.935-8.003c1.754-10.524-.987-46.262-1.864-56.895-.219-2.083-.439-4.275-.658-6.358-1.206-10.195-3.289-20.281-5.81-30.695-.11-.548-.329-1.097-.438-1.754-2.083-8.661-4.385-17.54-6.907-26.968-4.823-18.7458-13.374-29.2698-24.665-28.8313-5.262.1097-9.538-.5481-12.826-1.3155-.439-.1096-.768-.2192-1.097-.3288-3.946-1.0963-6.248-2.4118-6.248-2.4118l-24.556,4.7139c-1.535,3.508-3.837,5.9197-6.468,7.7833-.329.2193-.548.4385-.877.6578-7.893,5.3716-18.198,6.4679-18.307,17.4303Z" fill="#ff69b4"/></g></g></g></g><g><path d="M402.29,149.749c.109.658.219,1.206.219,1.864.219,1.535.438,3.07.658,4.714.109.548.109,1.096.219,1.644.219,2.083.438,4.166.658,6.358.219,1.974.329,3.837.438,5.92.11.987.11,2.083.219,3.07l6.688,8.441l7.783-21.158-14.142-18.307-2.74,7.454Z" fill="#ff69b4"/><path d="M440.878,157.314l-8.003,21.048-13.812-17.76l7.893-21.815l13.922,18.527Z" fill="#ff69b4"/><path d="M462.803,154.245l-8.222,21.048-13.703-17.979l8.112-21.706l13.813,18.637Z" fill="#ad2f24"/><path d="M484.617,151.503l-8.441,20.829-13.484-18.088l8.332-21.597l13.593,18.856Z" fill="#ff69b4"/></g><g><path d="M489.881,216.072c.329,0,.548-.219.548-.548c2.412-58.54-8.66-101.732-8.77-102.17-.11-.329-.329-.439-.658-.439-.329.11-.438.329-.438.658.109.438,11.181,43.411,8.77,101.841c0,.329.219.658.548.658Z" fill="#fff"/></g><g><path d="M426.517,93.6217c-.908,0-1.645-.7362-1.645-1.6443c0-.9082.737-1.6444,1.645-1.6444s1.644.7362,1.644,1.6444c0,.9081-.736,1.6443-1.644,1.6443Z" fill="#fff"/></g><g><path d="M426.954,101.733c-.908,0-1.644-.736-1.644-1.644c0-.9085.736-1.6447,1.644-1.6447s1.645.7362,1.645,1.6447c0,.908-.737,1.644-1.645,1.644Z" fill="#fff"/></g><g><g><g><g><path d="M425.858,112.476c4.057-1.315,8.003-3.727,11.84-7.345c6.577-6.1386,10.414-13.7027,10.414-13.7027.11-.3289,0-.6577-.219-.7674-.219-.2192-.548-.1096-.767.2193c0,.1096-3.837,7.4545-10.195,13.4838-8.551,8.003-17.431,10.086-26.42,6.249-.329-.11-.548,0-.658.329-.109.328,0,.657.329.767c5.152,2.302,10.414,2.631,15.567.987c0-.22,0-.22.109-.22Z" fill="#fff"/></g></g></g></g><g><g><g><g><path d="M424.653,84.5229c5.81-1.0962,11.511-7.3448,11.84-7.6737.219-.2192.219-.5481,0-.877s-.548-.2192-.768,0c-.109.1096-9.756,10.524-15.895,6.6871-.219-.2192-.548-.1096-.768.2193-.109.3288,0,.6577.22.7673c1.644.9867,3.508,1.2059,5.371.877Z" fill="#fff"/></g></g></g></g><g><g><g><g><path d="M435.506,207.193c2.192-.438,4.385-.986,6.577-1.863c5.372-1.973,10.744-5.262,16.005-9.647c8.99-7.455,14.581-15.786,14.581-15.896.219-.219.109-.657-.11-.767-.219-.219-.548-.11-.767.11c0,.109-5.591,8.331-14.361,15.676-8.112,6.797-20.829,14.251-35.08,11.182-.329-.11-.548.109-.658.438c0,.329.11.658.439.658c4.275.986,8.77.986,13.374.109Z" fill="#fff"/></g></g></g></g></g><g><g><g><g><g><g><path d="M432.435,37.9317c.329,2.8503,4.385,1.4251,6.358-.5481.877-.877.439-2.8503.329-5.262-.109-2.9599-.767-.9866,1.316-5.262c2.192-4.6042-1.425-11.401-4.385-10.9625c0,0,2.521-6.90631-3.618-10.74318-5.481-3.39836-8.989.4385-8.989.4385s-1.973-5.700484-7.016-5.590859-8.003,5.371609-8.003,5.371609-4.056-3.83686-9.428-.65775c-5.371,3.17912-2.74,7.23528-2.74,7.23528s-5.92.3288-7.345,5.3716c-1.315,4.2753,1.973,6.7967,1.973,6.7967s-2.192,2.3021-.767,6.9064c1.206,3.9464,4.166,3.7272,4.714,6.4678.329,1.5348.986,3.2888,1.534,4.6043.439.9866,1.754,2.5213,2.741,2.4117c1.316-.2193,1.754-2.631,1.316-3.9465-.658-2.1925-1.426-5.3716-.439-7.5641c1.644-3.508-.438-7.1256,2.85-8.8796c3.289-1.754,16.115,1.9732,23.46-4.6042c0,0,.439,4.9331,3.618,5.8101s2.631,4.8235,2.631,8.1122c-.22,1.3155-.11,4.4946-.11,4.4946Z" fill="#06152b"/></g></g></g></g></g><g><g><g><g><g><path d="M413.8,68.1883l1.206,6.2486c.877.4385,1.644.877,2.521,1.0962c12.059,4.4946,22.254-5.8101,22.254-5.8101l-4.056-21.596-19.184,17.6495-2.741,2.4118Z" fill="#ffaa8c"/></g></g></g></g><g><g><g><g><path d="M413.801,68.1884l1.206,6.2487c.877.4385,1.644.877,2.521,1.0962c8.551-5.3716,13.374-16.3341,13.374-16.3341l-14.47,6.5775-2.631,2.4117Z" fill="#d0886f"/></g></g></g></g></g><g><g><g><g><path d="M400.754,41.9878c0,0-4.385-3.508-5.591,1.0962s1.973,12.7165,7.016,10.3048l-1.425-11.401Z" fill="#ffaa8c"/></g></g></g></g><g><g><g><g><path d="M399.767,57.4448c0,0,2.412,12.9358,15.786,10.3048c13.374-2.5214,20.39-14.7994,20.829-15.3475l-.329-2.7406-1.864-14.2512-.986-7.5641c0,0-.877-13.8127-14.251-13.9224-9.757,0-18.308,3.1791-21.816,8.9893-.109.2192-.219.3288-.329.5481-1.096,1.9732-1.534,4.2753-1.315,6.7967l2.192,13.5935.548,3.2887l1.535,10.3047Z" fill="#ffaa8c"/></g></g></g></g><g><g><g><g><path d="M420.377,29.0519c-.439,1.6444-1.973,2.631-3.618,2.3021-.986-.2192-2.083-.4385-3.179-.4385-1.644,0-2.85-1.4251-2.74-3.0695-.11,0,6.029-1.7539,9.537,1.2059Z" fill="#35252f"/></g></g></g></g><g><g><g><g><path d="M396.15,33.6562c.987,1.4251,2.85,1.754,4.276.7674.767-.5482,1.754-1.0963,2.85-1.5348c1.535-.6577,2.192-2.4117,1.425-3.8369c0-.1096-6.358.5482-8.551,4.6043Z" fill="#35252f"/></g></g></g></g><g><g><g><g><path d="M397.001,23.1764c2.018-1.1196,3.699-.7838,7.286.1119c5.269,1.2316,10.313-1.6794,14.572-5.0382c4.372-3.3587,7.847-.4478,6.614,2.0153-1.233,2.5751-.673,4.3664,1.681,6.8295s-2.578,4.8143.673,6.4937c1.345.6718,1.569,2.1272,1.345,3.5827-.224,1.5674,1.233,2.799,2.69,2.2392c1.458-.6718,3.139-3.9186,3.139-3.9186l-1.009-7.7252c0,0-.897-14.1069-14.572-14.2188-9.977,0-18.72,3.2468-22.307,9.1806.112.112,0,.2239-.112.4479Z" fill="#06152b"/></g></g></g></g><g><g><g><g><path d="M420.052,43.0584c-2.379.4519-4.454.0468-4.635-.9049-.181-.9516,1.601-2.0894,3.98-2.5413s4.455-.0468,4.635.9049c.181.9516-1.601,2.0894-3.98,2.5413Z" fill="#fd9983"/></g></g></g></g><g><g><g><g><path d="M398.122,47.14c.329,0,.658-.1097,1.097-.1097c2.411-.4385,4.165-1.5347,3.946-2.5213s-2.302-1.3155-4.604-.877c-.329.1096-.658.1096-.877.2192l.438,3.2888Z" fill="#fd9983"/></g></g></g></g><g><g><g><g><path d="M415.471,39.3093c-.714.1355-1.494-.8153-1.742-2.1239-.249-1.3085.128-2.4792.842-2.6147.714-.1356,1.494.8153,1.742,2.1238.249,1.3085-.128,2.4792-.842,2.6148Z" fill="#35252f"/></g></g></g></g><g><g><g><g><path d="M402.525,41.7194c-.714.1356-1.494-.8153-1.743-2.1238-.248-1.3085.129-2.4792.843-2.6148.713-.1356,1.493.8153,1.742,2.1238.249,1.3086-.129,2.4792-.842,2.6148Z" fill="#35252f"/></g></g></g></g><g><g><g><g><path d="M408.647,51.3059c4.714-.877,7.783-5.7005,7.893-5.7005.11-.2193.11-.5481-.219-.7674-.22-.1096-.548-.1096-.768.2193-.219.3288-5.042,7.6737-11.62,4.6042-.219-.1096-.548,0-.767.2193-.11.2192,0,.5481.219.7673c1.973.877,3.727.9867,5.262.6578Z" fill="#35252f"/></g></g></g></g><g><g><g><g><path d="M431.229,47.9082c.11.1096,2.522,3.7272,5.153,4.385l-.329-2.7406c0,.1096-2.193.1096-4.824-1.6444Z" fill="#35252f"/></g></g></g></g><g><g><g><g><path d="M431.887,38.5896c0,0,3.837-7.893,8.661-3.1791c3.946,3.9465.329,16.6629-6.578,13.8127l-2.083-10.6336Z" fill="#ffaa8c"/></g></g></g></g><g><g><g><g><path d="M434.19,47.0308c.219,0,.438-.3289.438-.5481-.438-5.3716,3.618-8.0026,3.837-8.1123.219-.1096.329-.5481.11-.7673-.11-.2193-.439-.3289-.768-.2193-.219.1097-4.713,3.0695-4.275,9.0989.11.3289.329.5481.658.5481Z" fill="#35252f"/></g></g></g></g><g><g><g><g><path d="M438.575,42.8651c.11,0,.329-.1096.329-.3288.11-.2193,0-.5482-.219-.7674-.219-.1096-2.412-1.3155-3.946-.5481-.22.1096-.439.4385-.22.7673.11.2193.439.4385.768.2193.877-.4385,2.411.2192,2.96.5481.109.1096.219.1096.328.1096Z" fill="#35252f"/></g></g></g></g><g><g><g><g><g><g><path d="M389.353,42.0975l7.893-1.2059.219,1.0962-7.893,1.2059c-.329,0-.548-.1096-.658-.4385-.109-.3289.11-.5481.439-.6577Z" fill="#3a36db"/></g></g></g></g></g><g><g><g><g><g><g><path d="M420.267,45.3864c5.043-.9866,8.442-5.8101,7.455-10.9625-.987-5.0427-5.81-8.4411-10.963-7.4545-5.042.9867-8.441,5.8102-7.454,10.9625.987,5.1524,5.92,8.4411,10.962,7.4545Zm-3.288-17.2111c4.494-.877,8.77,2.0829,9.647,6.5775s-2.083,8.77-6.578,9.647c-4.494.877-8.77-2.0829-9.647-6.5775-.767-4.4946,2.193-8.77,6.578-9.647Z" fill="#3a36db"/></g></g></g></g></g><g><g><g><g><g><path d="M398.561,49.5514c5.043-.9866,8.442-5.8101,7.455-10.9624-.987-5.0428-5.81-8.4411-10.963-7.4545-5.042.9866-8.441,5.8101-7.454,10.9625c1.096,5.0427,5.92,8.4411,10.962,7.4544Zm-3.179-17.3207c4.495-.877,8.77,2.0829,9.647,6.5775s-2.083,8.77-6.577,9.647c-4.495.877-8.77-2.0829-9.647-6.5775s2.083-8.77,6.577-9.647Z" fill="#3a36db"/></g></g></g></g></g><g><g><g><g><g><path d="M438.903,34.3141c.11,0,.11,0,.22-.1097.219-.1096.328-.5481.219-.7673-3.618-5.8101-12.607-.7674-12.717-.7674-.219.1096-.329.4385-.219.7674.11.2192.439.3288.767.2192.11,0,8.113-4.6042,11.182.3289.11.3289.329.4385.548.3289Z" fill="#3a36db"/></g></g></g></g></g></g></g><g><g><g><g><path d="M409.634,44.619c.329-.1096.438-.3289.438-.6578-.109-.3288-.329-.4385-.657-.4385-1.974.3289-3.07-.4385-3.399-.877c1.316-4.7138,2.522-9.5373,2.522-9.6469.109-.3289-.11-.5482-.439-.6578s-.548.1096-.658.4385c0,0-1.315,5.0428-2.631,9.8662c0,.1097,0,.3289.11.4385.11.2193,1.535,2.1925,4.714,1.5348Z" fill="#35252f"/></g></g></g></g><g><g><g><g><g><path d="M405.14,37.2744c.109,0,.219-.1096.328-.2192c1.206-1.8637,3.728-.9867,3.728-.9867.329.1097.657,0,.657-.3288.11-.3289,0-.6578-.328-.6578-1.206-.4385-3.728-.6577-5.043,1.3155-.219.2193-.11.5481.109.7674.329.1096.439.2192.549.1096Z" fill="#605bff"/></g></g></g></g></g></g><g><path d="M438.357,62.3784c0,0,9.099-.2192,10.962,8.4411l-5.481,12.1684c0,0-5.152-7.016-17.211-6.5775-.11,0,8.88-6.6871,11.73-14.032Z" fill="#fff"/></g><g><path d="M419.721,76.1908c0,0-4.495-1.754-5.701-6.5775c0,0-8.002,4.6042-7.893,11.9491l7.345,3.6176c.11.1096,2.631-6.3582,6.249-8.9892Z" fill="#fff"/></g></g><g><g><path d="M500.184,222.211c0,0,14.032,55.47-58.759,55.47-38.917,0-57.443-3.727-57.443-3.727s-.987,34.313-2.741,48.893c-1.863,14.47-8.222,50.646-8.222,50.646l-30.695,2.412c0,0-4.933-125.739,13.923-137.36c18.746-11.62,45.823-11.949,92.194-16.334c0-.219,41.658-7.235,51.743,0Z" fill="#06152b"/></g></g><g><g><path d="M368.853,363.298c-.109,0-.109,0-.219,0-.438-.109-.767-.548-.658-.986c4.276-17.65,5.92-43.083,7.236-63.363c1.315-20.062,2.082-30.586,4.165-32.449c2.302-2.083,9.099-1.316,20.391-.11c14.032,1.535,35.189,3.727,57.991,1.096c11.291-1.315,20.061-5.7,25.871-13.155c10.415-13.374,8.003-32.12,8.003-32.339-.11-.438.219-.877.767-.987.439-.109.877.22.987.768.11.767,2.521,19.623-8.331,33.545-6.139,7.783-15.129,12.497-26.968,13.813-23.021,2.631-44.288.329-58.32-1.097-9.757-.986-17.431-1.863-19.185-.328-.438.328-1.206,2.082-1.973,9.646-.548,5.591-1.096,13.046-1.644,21.706-1.316,20.39-3.07,45.823-7.345,63.692c0,.329-.439.548-.768.548Z" fill="#f1f4fa"/></g></g><g><g><path d="M342.763,365.82c-.439,0-.768-.329-.877-.768c0-.438.329-.877.767-.877l31.353-1.863c.438,0,.877.328.877.767c0,.438-.329.877-.768.877l-31.352,1.864Z" fill="#f1f4fa"/></g></g><g><g><path d="M449.319,95.0463l-.11,2.1925-.109,2.3021c-.11,1.5351-.219,3.1791-.329,4.7141-.329,3.179-.548,6.248-.987,9.428-.219,1.534-.329,3.179-.548,4.713-.219,1.535-.438,3.07-.658,4.714-.438,3.07-.986,6.139-1.534,9.209-.548,3.069-1.206,6.029-1.864,8.989-.329,1.425-.767,2.96-1.096,4.385-.439,1.425-.768,2.85-1.206,4.166-.877,2.74-1.864,5.371-2.85,7.893-1.097,2.411-2.193,4.714-3.399,6.577-1.206,1.864-2.411,3.289-3.398,4.166-.439.438-.877.767-1.206.877l-.11.11h-.109c-.219.109-.548.219-.768.328l-.438.22-.439.219c-.328.11-.548.219-.877.329-1.205.438-2.521.877-3.836,1.315-1.316.439-2.741.768-4.276,1.097-2.96.767-5.92,1.425-8.989,1.973s-6.249,1.206-9.428,1.644c-1.534.219-3.179.548-4.714.767-1.644.22-3.179.549-4.823.768-3.179.438-6.468.877-9.647,1.315l-9.647,1.206h-.329c-6.468.877-10.962,6.797-10.195,13.155.767,5.701,5.481,9.976,11.072,10.195l1.316.11h1.315c.877,0,1.754.11,2.631.11c1.754,0,3.398.109,5.152.109c3.399,0,6.907,0,10.305-.109c1.754,0,3.508-.11,5.153-.22c1.754-.109,3.508-.219,5.262-.329c3.508-.219,7.015-.438,10.523-.877c3.508-.438,7.126-.877,10.744-1.425c3.617-.657,7.345-1.425,11.291-2.521.548-.11.987-.329,1.535-.439l.767-.219.768-.219c.548-.219,1.096-.329,1.534-.548h.11.11l.219-.11.548-.219c.329-.11.658-.329.987-.439c2.631-1.205,5.152-2.74,7.235-4.385c4.275-3.288,7.345-7.016,9.976-10.743c2.521-3.727,4.494-7.345,6.248-10.962c1.645-3.618,3.07-7.235,4.276-10.853.657-1.754,1.205-3.618,1.754-5.372.548-1.754.986-3.617,1.425-5.371.877-3.508,1.754-7.126,2.411-10.634.658-3.508,1.316-7.016,1.864-10.524.219-1.754.548-3.508.767-5.262.22-1.754.439-3.508.658-5.262.329-3.508.658-7.016.877-10.524.11-1.754.219-3.508.329-5.262l.11-2.6308v-1.3155-1.5348c.219-8.6603-6.687-15.7859-15.348-16.0052-8.441-.1096-15.457,6.3583-15.895,14.6897l-.11.3289Z" fill="#ffaa8c"/></g><g><g><g><g><g><g><g><g><g><g><g><g><g><g><path d="M376.528,178.69c0,0,4.056,13.045,1.535,23.569-1.535,1.096-3.947,1.644-5.81,1.206c0,0,2.521-11.62-1.535-24.775c1.864-.768,3.837-.768,5.81,0Z" fill="#06152b"/></g></g></g></g></g></g></g></g></g></g></g></g></g><g><g><g><g><g><g><g><g><g><g><g><g><g><path d="M376.199,202.15c-4.117,0-7.455-3.337-7.455-7.454s3.338-7.455,7.455-7.455s7.454,3.338,7.454,7.455-3.337,7.454-7.454,7.454Z" fill="#06152b"/></g></g></g></g></g></g></g></g></g></g></g></g></g><g><g><g><g><g><g><g><g><g><g><g><g><g><path d="M376.528,199.957c2.959-.219,5.152-2.74,5.042-5.7-.219-2.96-2.74-5.153-5.7-5.043-2.96.219-5.153,2.741-5.043,5.7.219,2.96,2.85,5.262,5.701,5.043Z" fill="#fff"/></g></g></g></g></g></g></g></g></g></g></g></g></g></g><g><g><path d="M443.838,178.252c.109,0,.219,0,.329-.11.219-.219.219-.548,0-.767-4.824-5.372-12.498-8.661-12.826-8.77-.329-.11-.549,0-.768.328-.109.329,0,.549.329.768.11,0,7.783,3.289,12.388,8.551.219,0,.328,0,.548,0Z" fill="#d0886f"/></g><g><path d="M442.631,171.345c.22,0,.439-.219.548-.438.11-.329-.109-.548-.438-.658-.219-.11-6.358-1.425-10.524-1.206-.329,0-.548.329-.548.548c0,.329.329.548.548.548c3.947-.219,10.195,1.206,10.195,1.206.219,0,.219,0,.219,0Z" fill="#d0886f"/></g></g><g><path d="M484.288,97.3484c-.11,7.3446-2.192,32.9966-6.249,46.5906l-35.628-6.578c0,0,4.166-27.844,5.701-45.165.438-5.5908,3.398-10.7432,8.112-13.9223c3.179-2.0829,7.345-3.508,12.497-2.5214c10.305,1.9733,13.923,11.7299,15.129,16.663.328,1.754.438,3.2887.438,4.9331Z" fill="#ff69b4"/></g><g><path d="M478.04,144.487c.219,0,.439-.11.548-.329c6.578-20.719,6.03-41.548,6.03-41.767c0-.329-.22-.548-.548-.548-.329,0-.549.219-.549.548c0,.219.549,20.829-6.029,41.438-.11.329.11.548.329.658.11,0,.11,0,.219,0Z" fill="#fff"/></g><g><path d="M442.412,137.91c.22,0,.439-.22.548-.439c2.083-11.839,4.934-37.9299,4.934-38.1492c0-.3289-.22-.5481-.439-.6577-.329,0-.548.2192-.658.4385c0,.2192-2.85,26.3094-4.933,38.0394-.109.439.11.768.548.768c0,0-.109,0,0,0Z" fill="#fff"/></g></g></g><g id="eYKJvSHINEs356" transform="matrix(0 0 0 0 385.495392 418.920349)"><g><g><path d="M497.114,355.187h-98.334c-2.302,0-4.166-1.864-4.166-4.166s1.864-4.166,4.166-4.166h98.334c2.302,0,4.165,1.864,4.165,4.166s-1.863,4.166-4.165,4.166Z" fill="#99b2c6"/></g></g><g><g><path d="M389.682,418.769c-.22,0-.329,0-.548,0-2.303-.329-3.837-2.412-3.618-4.714l17.978-133.742c.329-2.083,2.083-3.618,4.166-3.618h80.245c2.083,0,3.837,1.535,4.166,3.618l17.65,133.852c.329,2.302-1.316,4.385-3.618,4.714-2.302.328-4.385-1.316-4.714-3.618L484.178,285.136h-73.01l-17.43,130.235c-.219,1.973-1.973,3.398-4.056,3.398Z" fill="#99b2c6"/></g></g><g><g><path d="M430.901,280.861h52.181c16.554,0,34.203-8.989,36.725-25.323c3.398-21.815,4.275-42.973,3.288-62.376-1.096-21.925-12.278-42.316-29.598-55.909c0,0,12.935,66.433,3.508,107.98-5.482,23.679-66.104,35.628-66.104,35.628Z" fill="#99b2c6"/></g></g></g></g><g><g id="eYKJvSHINEs367" transform="matrix(0 0 0 0 420.707 202.9715)"><g><g><g><g><g><path d="M294.419,205.328h125.74c.329,0,.548-.219.548-.548c0-3.947-3.179-7.016-7.016-7.016h-119.162c-.329,0-.548.219-.548.548v6.577c-.11.22.219.439.438.439Z" fill="#99b2c6"/></g></g></g></g><g><g><path d="M252.097,135.37l15.677,66.433c.438,1.754,1.973,3.069,3.836,3.069h96.689c2.522,0,4.385-2.411,3.837-4.823L356.46,133.616c-.439-1.754-1.973-3.069-3.837-3.069h-96.689c-2.521,0-4.385,2.412-3.837,4.823Z" fill="#99b2c6"/></g></g><g><g><g><path d="M302.979,167.975c.987,5.262,6.029,9.427,11.182,9.427c5.152,0,8.66-4.275,7.674-9.427-.987-5.262-6.03-9.428-11.182-9.428s-8.66,4.166-7.674,9.428Z" fill="#fff"/></g></g></g><g><g><g><path d="M349.122,131.002l16.663,74.216h2.85c2.522,0,4.385-2.412,3.837-4.823l-15.676-66.433c-.439-1.754-1.973-3.069-3.837-3.069h-3.837v.109Z" fill="#99b2c6"/></g></g></g></g></g><g id="eYKJvSHINEs385" transform="matrix(1 0 0 0 0 587.893192)"><g><g><g><g><path d="M158.704,210.589v5.153c0,2.96,2.521,5.371,5.591,5.371h385.55c3.069,0,5.591-2.411,5.591-5.371v-5.153c0-2.959-2.522-5.371-5.591-5.371h-385.55c-3.18,0-5.591,2.412-5.591,5.371Z" fill="#605bff"/></g><g><path d="M179.971,234.159h343.016c7.016,0,12.607-5.701,12.607-12.607v-.548h-368.339v.548c.109,6.906,5.7,12.607,12.716,12.607Z" fill="#605bff"/></g><g><path d="M174.49,299.275h348.936v9.099h-348.936v-9.099Z" fill="#605bff"/></g><g><path d="M540.088,420.411L495.142,234.158h15.786l44.946,186.253h-15.786Z" fill="#605bff"/></g><g><path d="M159.8,420.411l44.946-186.253h-15.786L144.014,420.411h15.786Z" fill="#605bff"/></g></g></g></g><g><path d="M158.594,213.111h396.732v2.302h-396.732v-2.302Z" fill="#1b48ca"/></g></g></g><g id="eYKJvSHINEs401" transform="translate(-1.643985-500.175067)"><g><g><g><g><path d="M520.072,162.329l4.876.747-5.643,36.844-4.876-.747l5.643-36.844Z" fill="#3a36db"/></g></g><g><g><path d="M520.076,162.356l4.823.767-1.096-3.727-.548-1.973-1.096,1.644-2.083,3.289Z" fill="#ff8c64"/></g></g><g><g><path d="M514.816,196.551l4.876.747-.415,2.709-4.876-.747.415-2.709Z" fill="#35252f"/></g></g><g><g><path d="M514.375,201.382l4.276.658c.219,0,.329-.11.329-.329l.329-1.864-4.934-.767-.328,1.864c0,.219.109.438.328.438Z" fill="#ef452f"/></g></g><g><g><path d="M522.159,159.067l1.645.329-.548-1.973-1.097,1.644Z" fill="#35252f"/></g></g><g><g><path d="M519.679,197.3l-4.876-.747.298-1.951l4.877.747-.299,1.951Z" fill="#f68407"/></g></g><g><g><path d="M523.474,164.768l-4.166,27.296c0,.219-.219.329-.439.329-.219,0-.328-.219-.328-.438l4.165-27.297c0-.219.219-.329.439-.329.219,0,.329.219.329.439Z" fill="#3a36db"/></g></g><g><g><path d="M521.501,164.439l-4.166,27.296c0,.219-.219.329-.438.329s-.329-.219-.329-.439l4.166-27.296c0-.219.219-.329.438-.329s.329.219.329.439Z" fill="#3a36db"/></g></g></g><g><g><g><path d="M511.254,162.458l4.934.016-.122,37.272-4.933-.016.121-37.272Z" fill="#03a89e"/></g></g><g><g><path d="M511.196,162.465l4.933.11-1.644-3.618-.768-1.754-.877,1.754-1.644,3.508Z" fill="#ff8c64"/></g></g><g><g><path d="M511.088,197.099l4.933.016-.008,2.741-4.934-.016.009-2.741Z" fill="#35252f"/></g></g><g><g><path d="M511.414,201.931h4.276c.219,0,.329-.11.329-.329v-1.864h-4.934v1.864c0,.219.11.329.329.329Z" fill="#ef452f"/></g></g><g><g><path d="M512.839,158.958h1.644l-.767-1.754-.877,1.754Z" fill="#35252f"/></g></g><g><g><path d="M516.023,197.117l-4.933-.016.006-1.974l4.933.016-.006,1.974Z" fill="#3c7341"/></g></g><g><g><path d="M514.924,164.329l-.11,27.625c0,.22-.219.329-.329.329-.219,0-.329-.219-.329-.329l.11-27.625c0-.219.219-.329.329-.329s.329.11.329.329Z" fill="#03a89e"/></g></g><g><g><path d="M512.949,164.33l-.109,27.625c0,.22-.22.329-.329.329-.22,0-.329-.219-.329-.329l.109-27.625c0-.219.22-.329.329-.329.22,0,.329.11.329.329Z" fill="#03a89e"/></g></g></g><g><g><g><path d="M502.664,163.025l4.884-.694l5.244,36.903-4.884.695-5.244-36.904Z" fill="#06152b"/></g></g><g><g><path d="M502.646,163.014l4.933-.658-2.083-3.289-1.096-1.644-.658,1.863-1.096,3.728Z" fill="#ff8c64"/></g></g><g><g><path d="M507.51,197.279l4.885-.694.385,2.713-4.884.695-.386-2.714Z" fill="#35252f"/></g></g><g><g><path d="M508.566,202.041l4.275-.658c.219,0,.329-.219.329-.329l-.219-1.864-4.933.658.219,1.864c0,.219.109.329.329.329Z" fill="#ef452f"/></g></g><g><g><path d="M503.742,159.286l1.754-.219-1.096-1.644-.658,1.863Z" fill="#35252f"/></g></g><g><g><path d="M512.427,196.506l-4.884.694-.278-1.954l4.885-.694.277,1.954Z" fill="#1b48ca"/></g></g><g><g><path d="M506.593,164.329l3.837,27.296c0,.22-.11.439-.329.439s-.439-.11-.439-.329l-3.837-27.296c0-.22.11-.439.329-.439.22,0,.439.11.439.329Z" fill="#06152b"/></g></g><g><g><path d="M504.729,164.658l3.836,27.296c0,.22-.109.439-.328.439-.22,0-.439-.11-.439-.329l-3.837-27.297c0-.219.11-.438.329-.438.219-.11.329.11.439.329Z" fill="#06152b"/></g></g></g></g><g><g><g><path d="M501.001,177.266l.328,1.973.22,1.863.329,2.741.219,1.754.438,2.85.22,1.754.328,2.741.22,1.754.329,2.85.219,1.754.438,2.85.22,1.645.219,1.535h19.403l.22-1.535.219-1.645.329-2.85.219-1.754.329-2.85.219-1.754.439-2.741.219-1.754.329-2.85.219-1.754.329-2.741.219-1.863.329-1.973h-26.748Z" fill="#ff69b4"/></g></g><g><g><g><path d="M501.33,179.239l.219,1.864h25.653l.219-1.864h-26.091Z" fill="#ff2290"/></g></g><g><g><path d="M501.878,183.844l.219,1.754h24.556l.219-1.754h-24.994Z" fill="#ff2290"/></g></g><g><g><path d="M502.536,188.446l.219,1.754h23.35l.219-1.754h-23.788Z" fill="#ff2290"/></g></g><g><g><path d="M503.084,192.942l.22,1.754h22.144l.219-1.754h-22.583Z" fill="#ff2290"/></g></g><g><g><path d="M503.633,197.547l.219,1.754h21.048l.219-1.754h-21.486Z" fill="#ff2290"/></g></g><g><g><path d="M504.291,202.149l.219,1.645h19.842l.219-1.645h-20.28Z" fill="#ff2290"/></g></g></g></g></g><g id="eYKJvSHINEs501" transform="matrix(0 0 0 0 197.072 205.405014)"><g><g><g><path d="M176.573,176.608h41.987v6.03h-41.987v-6.03Z" fill="#fab623"/></g></g><g><g><path d="M175.915,200.287c4.276,5.043,16.444,5.153,20.391,5.043.767,0,1.205,0,1.205,0s16.444,1.096,21.597-5.043c2.85-3.508,1.315-8.66-.658-12.497-.439-.877-.987-1.754-1.425-2.521-.987-1.645-1.754-2.631-1.754-2.631h-35.519c0,0-1.644,2.192-3.179,5.042-1.863,3.947-3.508,9.099-.658,12.607Z" fill="#fab623"/></g></g><g><g><path d="M211.105,195.573c1.754,5.591-4.824,9.867-13.594,9.647c0,0,16.444,1.097,21.597-5.042c2.85-3.508,1.315-8.661-.658-12.498c0-.109-.11-.219-.11-.219c0-.109-.109-.219-.109-.219-.329-.658-.768-1.316-1.097-1.973-.986-1.645-1.754-2.631-1.754-2.631h-35.518c0,0-1.644,2.192-3.179,5.042h15.895c3.947,0,7.893.768,11.621,2.193c3.069,1.315,6.139,3.179,6.906,5.7Z" fill="#f68407"/></g></g></g><g><g><g><g><path d="M182.712,171.236c.438.767.986,1.425,1.425,1.973c1.425,1.973,2.631,3.289,2.74,3.398h21.377c.11-.109,1.206-1.425,2.741-3.398.438-.658.986-1.315,1.425-1.973c2.631-3.947,5.372-9.209,4.604-13.155-.219-1.206-.548-2.083-1.096-2.631-.219-.329-.439-.548-.767-.658-2.303-1.315-5.811,1.754-6.907,1.644-1.535-.109.987-7.673,4.495-13.045c3.289-5.043,5.371-11.62,1.425-14.032-.11-.109-.329-.219-.439-.219-.109-.11-.328-.11-.438-.219-5.152-1.864-7.016,5.042-9.209,4.056-2.192-.987,4.495-23.241-5.919-23.241-.11,0-.329,0-.548,0-.22,0-.329,0-.548,0-10.415,0-3.728,22.364-5.92,23.241-2.193.986-3.947-6.03-9.209-4.056-.109.109-.329.109-.438.219-.11.11-.329.11-.439.219-4.056,2.412-1.863,9.099,1.425,14.032c3.508,5.372,5.92,12.826,4.495,13.045-1.096.11-4.604-3.069-6.906-1.644-.22.11-.548.329-.768.658-.438.548-.767,1.425-1.096,2.631-.877,3.946,1.864,9.208,4.495,13.155Z" fill="#4f9d5c"/></g></g></g><g><g><g><path d="M197.072,109.737v66.871h.987v-66.871c-.11,0-.329,0-.549,0-.109,0-.328,0-.438,0Z" fill="#3c7341"/></g></g></g><g><g><g><path d="M197.182,148.106l.329.329.329.328.11-.109l16.444-18.965-.439-.329c-.11-.11-.329-.219-.438-.219L197.95,147.119l-.548.548-.22.439Z" fill="#3c7341"/></g></g></g><g><g><g><path d="M197.181,175.511l.329.329.329.329.11-.11l17.868-20.609c-.219-.329-.438-.548-.767-.658l-17.101,19.732-.549.549-.219.438Z" fill="#3c7341"/></g></g></g><g><g><g><path d="M180.63,129.579l16.443,18.965.11.11.329-.329.329-.329-.329-.438-.548-.548-15.567-17.979c-.11.11-.329.11-.438.219l-.329.329Z" fill="#3c7341"/></g></g></g><g><g><g><path d="M179.094,155.34l17.869,20.61.11.109.329-.328.328-.329-.328-.439-.549-.548-17.101-19.732c-.11.219-.329.438-.658.657Z" fill="#3c7341"/></g></g></g></g></g></g></g><g><g><g id="eYKJvSHINEs539" transform="matrix(.4 0 0 0 373.029309 423.811)"><g><g><path d="M619.675,423.811c-30.091,0-54.484-1.914-54.484-4.275s24.393-4.275,54.484-4.275c30.09,0,54.483,1.914,54.483,4.275s-24.393,4.275-54.483,4.275Z" opacity="0.2" fill="#605bff"/></g></g><g><g><g><g><g><path d="M580.648,400.901l-8.441-126.617h97.676l-8.551,126.617h-80.684Z" fill="#ef452f"/></g></g></g><g><g><g><path d="M572.975,286.233l95.702,5.481.658-9.976h-96.689l.329,4.495Z" fill="#ad2f24"/></g></g></g><g><g><g><path d="M568.918,281.738h104.143c1.426,0,2.631-1.206,2.631-2.631v-5.81c0-1.425-1.205-2.631-2.631-2.631h-104.143c-1.425,0-2.631,1.206-2.631,2.631v5.81c0,1.425,1.206,2.631,2.631,2.631Z" fill="#ef5f44"/></g></g></g><g><g><g><path d="M583.169,302.02l2.412,42.315h70.927l2.412-42.315h-75.751Z" fill="#ad2f24"/></g></g></g><g><g><g><path d="M620.99,328.438c-1.937,0-3.508-1.571-3.508-3.508c0-1.938,1.571-3.508,3.508-3.508s3.508,1.57,3.508,3.508c0,1.937-1.571,3.508-3.508,3.508Z" fill="#ef452f"/></g></g></g><g><g><g><path d="M586.458,354.311l2.192,38.478h64.679l2.192-38.478h-69.063Z" fill="#ad2f24"/></g></g></g><g><g><g><path d="M620.99,378.428c-1.937,0-3.508-1.571-3.508-3.508s1.571-3.508,3.508-3.508s3.508,1.571,3.508,3.508-1.571,3.508-3.508,3.508Z" fill="#ef452f"/></g></g></g><g><g><g><g><path d="M631.404,400.9c.22,0,.439,0,.549,0c9.756.11,18.197,6.907,20.39,16.225l.658,2.631h7.564l.767-18.856h-29.928Z" fill="#ad2f24"/></g></g></g><g><g><g><path d="M610.576,400.9c-.219,0-.438,0-.548,0-9.757.11-18.198,6.907-20.39,16.225l-.658,2.631h-7.564l-.767-18.856h29.927Z" fill="#ad2f24"/></g></g></g></g></g></g></g><g id="eYKJvSHINEs582" transform="matrix(0 0 0 0 824.267442 13.5479)"><g><g><g><g><g><path d="M640.503,207.412c0,0,8.551,2.412,17.979-9.757c6.796-8.879,18.855-27.735,35.518-28.064c0,0-19.732-8.55-37.163.11-17.54,8.77-26.858,31.353-16.334,37.711Z" fill="#03a89e"/></g></g><g><g><path d="M635.352,242.711c.219,0,.438-.22.438-.439c0-.11-.548-11.949,1.754-25.323c2.193-12.388,7.235-28.612,19.404-36.176.219-.11.328-.439.109-.658-.109-.219-.438-.329-.657-.11-5.482,3.399-9.976,8.77-13.484,16.115-2.741,5.81-4.933,12.717-6.249,20.719-2.412,13.484-1.754,25.433-1.754,25.543c0,.109.219.329.439.329Z" fill="#06152b"/></g></g></g><g><g><g><path d="M633.927,180.444c0,0-8.661-1.973-10.963-17.321-1.644-11.072-3.069-33.435-17.43-41.767c0,0,21.486,2.083,32.449,18.198c10.962,16.115,8.221,40.452-4.056,40.89Z" fill="#03a89e"/></g></g><g><g><path d="M622.087,243.698c.219,0,.329-.109.439-.329.109-.109,5.81-15.895,9.976-35.299c2.411-11.401,3.946-21.815,4.275-31.024.548-11.51-.658-21.048-3.398-28.283-.11-.219-.329-.329-.549-.219-.219.11-.328.329-.219.548c6.139,16.334,2.85,41-.986,58.759-4.166,19.404-9.867,35.08-9.867,35.189-.109.22,0,.549.22.549c0,.109,0,.109.109.109Z" fill="#06152b"/></g></g></g><g><g><g><path d="M618.797,187.899c0,0-8.77,1.206-16.444-12.278-5.481-9.757-14.799-30.037-31.243-32.778c0,0,20.829-5.7,36.834,5.372c16.115,11.291,22.144,34.86,10.853,39.684Z" fill="#03a89e"/></g></g><g><g><path d="M617.482,243.698c.219,0,.438-.109.438-.329c0-.109,2.96-15.018,2.96-32.777c0-10.415-.877-19.842-2.741-27.955-2.302-10.085-6.139-18.197-11.291-24.117-.219-.219-.439-.219-.658,0s-.219.438,0,.658c11.511,13.045,13.923,35.08,13.813,51.414-.11,17.649-2.96,32.449-2.96,32.558-.11.219.11.439.439.548c0,0-.11,0,0,0Z" fill="#06152b"/></g></g></g><g><g><g><path d="M603.669,208.508c0,0-8.441,2.96-18.526-8.77-7.345-8.441-20.5-26.529-37.163-25.871c0,0,19.184-9.757,37.163-1.974c17.978,7.674,28.612,29.709,18.526,36.615Z" fill="#03a89e"/></g></g><g><g><path d="M611.891,243.698c.219,0,.439-.22.439-.439c0-.109.219-10.305-2.851-22.911-1.863-7.345-4.385-14.142-7.673-20.062-4.166-7.454-9.428-13.593-15.677-18.197-.219-.11-.438-.11-.657.109-.11.219-.11.439.109.658c13.922,10.414,20.171,26.31,23.021,37.821c3.07,12.497,2.851,22.473,2.851,22.582c0,.219.109.439.438.439Z" fill="#06152b"/></g></g></g><g><g><path d="M584.595,254.221c0,1.316.219,2.631.658,4.056c1.754,5.92,6.796,10.305,12.935,11.182c14.909,2.083,30.257,1.973,46.043-.11c6.906-.877,12.497-6.139,13.593-13.045.219-1.206.219-2.302.11-3.508-.329-3.946-2.412-7.783-6.358-11.62h-60.623c-4.385,4.166-6.358,8.551-6.358,13.045Z" fill="#ffd66b"/></g></g><g><g><path d="M619.017,260.251c19.293,0,31.791-3.727,38.807-6.906.219-.11.329-.329.219-.549-.11-.219-.329-.328-.548-.219-7.016,3.07-19.294,6.797-38.478,6.797-13.594,0-24.995-1.864-33.875-5.481-.219-.11-.548,0-.548.219-.109.219,0,.548.22.548c8.989,3.727,20.499,5.591,34.203,5.591Z" fill="#f68407"/></g></g></g></g></g></g><g><g id="eYKJvSHINEs620" transform="matrix(0 0 0 0.5-201.964926 67.804)"><g><g><g><g><path d="M40.7472,118.616h7.2352v74.984h-7.2352v-74.984Z" fill="#f2b441"/></g></g></g><g><g><g><path d="M40.6376,122.233v6.468l7.3448,2.193v-8.661h-7.3448Z" fill="#f28d32"/></g></g></g></g><g><g><g><path d="M4.89883,120.919c26.20027,4.056,52.51027,4.056,78.71057,0L64.9732,69.2854c-13.8127-2.4118-27.6255-2.4118-41.3286,0L4.89883,120.919Z" fill="#3a36db"/></g></g><g><g><g><path d="M44.5833,116.972c11.9491,0,23.7886-.657,36.0666-1.863.4385,0,.6577-.439.6577-.768c0-.438-.4384-.657-.7673-.657-24.2271,2.521-47.2483,2.521-72.35232,0-.4385,0-.76738.219-.76738.657c0,.439.21922.768.65772.768c12.49718,1.206,24.55588,1.863,36.50498,1.863Z" fill="#1b48ca"/></g></g></g><g><g><g><path d="M70.4547,115.986c.1096,0,.1096,0,.2192,0c.4385-.11.6578-.548.5482-.877L59.7115,68.9569c-.1097-.4385-.5482-.6577-.8771-.5481-.4385.1096-.6577.5481-.5481.877L69.7969,115.438c0,.329.3289.548.6578.548Z" fill="#1b48ca"/></g></g></g><g><g><g><path d="M18.0528,115.986c.3288,0,.6577-.219.7673-.548l11.401-46.1522c.1096-.4385-.1096-.7674-.5481-.877s-.7674.1096-.877.5481L17.395,115.109c-.1096.438.1096.767.5481.877c0,0,0,0,.1097,0Z" fill="#1b48ca"/></g></g></g><g><g><g><path d="M44.2541,116.972c.4385,0,.7674-.329.7674-.767v-47.9064c0-.4385-.3289-.7674-.7674-.7674s-.7674.3289-.7674.7674v48.0154c.1096.329.4385.658.7674.658Z" fill="#1b48ca"/></g></g></g></g><g><g><g><path d="M26.496,186.146v7.455h35.628v-7.455L44.2552,181.98L26.496,186.146Z" fill="#3a36db"/></g></g></g></g><g id="eYKJvSHINEs654" transform="matrix(0 0 0 0 94.95545 195.951)"><g><g><g><g><g><g><path d="M68.9194,183.733h-1.3155v-1.973l48.7831.109c1.644,0,3.069.658,4.166,1.754c1.096,1.097,1.754,2.522,1.754,4.166c0,3.289-2.631,5.81-5.92,5.81l-48.7831-.109v-1.645h1.3155v-8.112Z" fill="#ff69b4"/></g></g></g></g></g><g><g><g><g><path d="M68.5922,183.733v8.113l44.7268.109c2.193,0,3.947-1.863,3.947-4.056c0-1.096-.439-2.083-1.206-2.85-.768-.767-1.754-1.206-2.851-1.206l-44.6168-.11Z" fill="#fff"/></g></g></g></g><g><g><g><g><path d="M68.5915,185.816v1.206l43.6305.11c.329,0,.658-.329.658-.658s-.329-.658-.658-.658h-43.6305Z" fill="#ead6bf"/></g></g></g></g><g><g><g><g><path d="M68.5915,188.886v1.206l43.6305.109c.329,0,.658-.329.658-.658c0-.328-.329-.657-.658-.657h-43.6305Z" fill="#ead6bf"/></g></g></g></g></g><g><g><g><g><g><g><path d="M73.3042,172.004h-1.3156v-1.974l48.7834.11c1.644,0,3.069.658,4.165,1.754c1.097,1.096,1.754,2.521,1.754,4.166c0,3.288-2.631,5.81-5.919,5.81l-48.7834-.11v-1.644h1.3156v-8.112Z" fill="#03a89e"/></g></g></g></g></g><g><g><g><g><path d="M72.976,172.003v8.112l44.727.11c2.192,0,3.946-1.864,3.946-4.056c0-1.097-.438-2.083-1.205-2.851-.768-.767-1.754-1.205-2.851-1.205l-44.617-.11Z" fill="#fff"/></g></g></g></g><g><g><g><g><path d="M72.9772,174.087v1.206l43.6308.109c.329,0,.658-.328.658-.657s-.329-.658-.658-.658h-43.6308Z" fill="#ead6bf"/></g></g></g></g><g><g><g><g><path d="M72.9772,177.156v1.206l43.6308.11c.329,0,.658-.329.658-.658s-.329-.658-.658-.658h-43.6308Z" fill="#ead6bf"/></g></g></g></g></g><g><g><g><path d="M64.8637,160.274h-1.3154v-1.973l48.7827.109c1.645,0,3.07.658,4.166,1.754c1.096,1.097,1.754,2.522,1.754,4.166c0,3.289-2.631,5.81-5.92,5.81l-48.7827-.109v-1.645h1.3154v-8.112Z" fill="#3a36db"/></g></g><g><g><g><g><path d="M64.5346,160.273v8.113l44.7264.109c2.193,0,3.947-1.863,3.947-4.056c0-1.096-.439-2.083-1.206-2.85s-1.754-1.206-2.85-1.206l-44.6174-.11Z" fill="#fff"/></g></g></g></g><g><g><g><g><path d="M64.5339,162.357v1.206l43.6301.11c.329,0,.658-.329.658-.658s-.329-.658-.658-.658h-43.6301Z" fill="#ead6bf"/></g></g></g></g><g><g><g><g><path d="M64.5339,165.427v1.206l43.6301.109c.329,0,.658-.329.658-.657c0-.329-.329-.658-.658-.658h-43.6301Z" fill="#ead6bf"/></g></g></g></g></g></g><g id="eYKJvSHINEs718" transform="matrix(.5 0 0 0 35.624847 425.346)"><g><g><g><path d="M68.591,425.346c-37.84,0-68.515454-2.7-68.515454-6.03c0-3.329,30.675454-6.029,68.515454-6.029s68.515,2.7,68.515,6.029c0,3.33-30.675,6.03-68.515,6.03Z" opacity="0.2" fill="#605bff"/></g></g></g><g><g><path d="M8.84477,198.095L23.7537,419.537h89.7823l14.909-221.442h-119.60023Z" fill="#fab623"/></g></g><g><g><g><path d="M9.83169,212.675L127.02,219.471l.877-12.278h-118.50383l.43852,5.482Z" fill="#f68407"/></g></g></g><g><g><g><path d="M4.35123,207.193h128.58977c1.535,0,2.741-1.206,2.741-2.741v-8.112c0-1.535-1.206-2.74-2.741-2.74h-128.58977c-1.53475,0-2.74062,1.205-2.74062,2.74v8.112c0,1.535,1.20587,2.741,2.74062,2.741Z" fill="#edc85a"/></g></g></g><g><g><g><path d="M22.2201,232.188L25.18,283.93h86.932l2.96-51.742h-92.8519Z" fill="#f68407"/></g></g></g><g><g><g><path d="M68.5906,264.636c-2.4218,0-4.385-1.963-4.385-4.385s1.9632-4.385,4.385-4.385s4.385,1.963,4.385,4.385-1.9632,4.385-4.385,4.385Z" fill="#fab623"/></g></g></g><g><g><g><path d="M26.2757,296.099l2.7406,47.248h79.2587l2.741-47.248h-84.7403Z" fill="#f68407"/></g></g></g><g><g><g><path d="M68.5906,325.916c-2.4218,0-4.385-1.963-4.385-4.385c0-2.421,1.9632-4.385,4.385-4.385s4.385,1.964,4.385,4.385c0,2.422-1.9632,4.385-4.385,4.385Z" fill="#fab623"/></g></g></g><g><g><g><path d="M29.7841,355.296l2.5214,43.411h72.6815l2.411-43.411h-77.6139Z" fill="#f68407"/></g></g></g><g><g><g><path d="M68.5906,381.386c-2.4218,0-4.385-1.963-4.385-4.385s1.9632-4.385,4.385-4.385s4.385,1.963,4.385,4.385-1.9632,4.385-4.385,4.385Z" fill="#fab623"/></g></g></g></g></g></g></g></g>
<script><![CDATA[
!function(t,n){"object"==typeof exports&&"undefined"!=typeof module?module.exports=n():"function"==typeof __SVGATOR_DEFINE__&&__SVGATOR_DEFINE__.amd?__SVGATOR_DEFINE__(n):((t="undefined"!=typeof globalThis?globalThis:t||self).__SVGATOR_PLAYER__=t.__SVGATOR_PLAYER__||{},t.__SVGATOR_PLAYER__["5c7f360c"]=n())}(this,(function(){"use strict";function t(t,n){var e=Object.keys(t);if(Object.getOwnPropertySymbols){var r=Object.getOwnPropertySymbols(t);n&&(r=r.filter((function(n){return Object.getOwnPropertyDescriptor(t,n).enumerable}))),e.push.apply(e,r)}return e}function n(n){for(var e=1;e<arguments.length;e++){var r=null!=arguments[e]?arguments[e]:{};e%2?t(Object(r),!0).forEach((function(t){o(n,t,r[t])})):Object.getOwnPropertyDescriptors?Object.defineProperties(n,Object.getOwnPropertyDescriptors(r)):t(Object(r)).forEach((function(t){Object.defineProperty(n,t,Object.getOwnPropertyDescriptor(r,t))}))}return n}function e(t){return(e="function"==typeof Symbol&&"symbol"==typeof Symbol.iterator?function(t){return typeof t}:function(t){return t&&"function"==typeof Symbol&&t.constructor===Symbol&&t!==Symbol.prototype?"symbol":typeof t})(t)}function r(t,n){if(!(t instanceof n))throw new TypeError("Cannot call a class as a function")}function i(t,n){for(var e=0;e<n.length;e++){var r=n[e];r.enumerable=r.enumerable||!1,r.configurable=!0,"value"in r&&(r.writable=!0),Object.defineProperty(t,r.key,r)}}function u(t,n,e){return n&&i(t.prototype,n),e&&i(t,e),t}function o(t,n,e){return n in t?Object.defineProperty(t,n,{value:e,enumerable:!0,configurable:!0,writable:!0}):t[n]=e,t}function a(t){return(a=Object.setPrototypeOf?Object.getPrototypeOf:function(t){return t.__proto__||Object.getPrototypeOf(t)})(t)}function l(t,n){return(l=Object.setPrototypeOf||function(t,n){return t.__proto__=n,t})(t,n)}function s(){if("undefined"==typeof Reflect||!Reflect.construct)return!1;if(Reflect.construct.sham)return!1;if("function"==typeof Proxy)return!0;try{return Boolean.prototype.valueOf.call(Reflect.construct(Boolean,[],(function(){}))),!0}catch(t){return!1}}function f(t,n,e){return(f=s()?Reflect.construct:function(t,n,e){var r=[null];r.push.apply(r,n);var i=new(Function.bind.apply(t,r));return e&&l(i,e.prototype),i}).apply(null,arguments)}function c(t,n){if(n&&("object"==typeof n||"function"==typeof n))return n;if(void 0!==n)throw new TypeError("Derived constructors may only return object or undefined");return function(t){if(void 0===t)throw new ReferenceError("this hasn't been initialised - super() hasn't been called");return t}(t)}function h(t,n,e){return(h="undefined"!=typeof Reflect&&Reflect.get?Reflect.get:function(t,n,e){var r=function(t,n){for(;!Object.prototype.hasOwnProperty.call(t,n)&&null!==(t=a(t)););return t}(t,n);if(r){var i=Object.getOwnPropertyDescriptor(r,n);return i.get?i.get.call(e):i.value}})(t,n,e||t)}function v(t){return function(t){if(Array.isArray(t))return y(t)}(t)||function(t){if("undefined"!=typeof Symbol&&null!=t[Symbol.iterator]||null!=t["@@iterator"])return Array.from(t)}(t)||function(t,n){if(!t)return;if("string"==typeof t)return y(t,n);var e=Object.prototype.toString.call(t).slice(8,-1);"Object"===e&&t.constructor&&(e=t.constructor.name);if("Map"===e||"Set"===e)return Array.from(t);if("Arguments"===e||/^(?:Ui|I)nt(?:8|16|32)(?:Clamped)?Array$/.test(e))return y(t,n)}(t)||function(){throw new TypeError("Invalid attempt to spread non-iterable instance.\nIn order to be iterable, non-array objects must have a [Symbol.iterator]() method.")}()}function y(t,n){(null==n||n>t.length)&&(n=t.length);for(var e=0,r=new Array(n);e<n;e++)r[e]=t[e];return r}Number.isInteger||(Number.isInteger=function(t){return"number"==typeof t&&isFinite(t)&&Math.floor(t)===t}),Number.EPSILON||(Number.EPSILON=2220446049250313e-31);var g=d(Math.pow(10,-6));function d(t){var n=arguments.length>1&&void 0!==arguments[1]?arguments[1]:6;if(Number.isInteger(t))return t;var e=Math.pow(10,n);return Math.round((+t+Number.EPSILON)*e)/e}function p(t,n){var e=arguments.length>2&&void 0!==arguments[2]?arguments[2]:g;return Math.abs(t-n)<e}var m=Math.PI/180;function b(t){return t}function w(t,n,e){var r=1-e;return 3*e*r*(t*r+n*e)+e*e*e}function A(){var t=arguments.length>0&&void 0!==arguments[0]?arguments[0]:0,n=arguments.length>1&&void 0!==arguments[1]?arguments[1]:0,e=arguments.length>2&&void 0!==arguments[2]?arguments[2]:1,r=arguments.length>3&&void 0!==arguments[3]?arguments[3]:1;return t<0||t>1||e<0||e>1?null:p(t,n)&&p(e,r)?b:function(i){if(i<=0)return t>0?i*n/t:0===n&&e>0?i*r/e:0;if(i>=1)return e<1?1+(i-1)*(r-1)/(e-1):1===e&&t<1?1+(i-1)*(n-1)/(t-1):1;for(var u,o=0,a=1;o<a;){var l=w(t,e,u=(o+a)/2);if(p(i,l))break;l<i?o=u:a=u}return w(n,r,u)}}function _(){return 1}function x(t){return 1===t?1:0}function k(){var t=arguments.length>0&&void 0!==arguments[0]?arguments[0]:1,n=arguments.length>1&&void 0!==arguments[1]?arguments[1]:0;if(1===t){if(0===n)return x;if(1===n)return _}var e=1/t;return function(t){return t>=1?1:(t+=n*e)-t%e}}var S=Math.sin,O=Math.cos,j=Math.acos,E=Math.asin,M=Math.tan,P=Math.atan2,I=Math.PI/180,R=180/Math.PI,F=Math.sqrt,N=function(){function t(){var n=arguments.length>0&&void 0!==arguments[0]?arguments[0]:1,e=arguments.length>1&&void 0!==arguments[1]?arguments[1]:0,i=arguments.length>2&&void 0!==arguments[2]?arguments[2]:0,u=arguments.length>3&&void 0!==arguments[3]?arguments[3]:1,o=arguments.length>4&&void 0!==arguments[4]?arguments[4]:0,a=arguments.length>5&&void 0!==arguments[5]?arguments[5]:0;r(this,t),this.m=[n,e,i,u,o,a],this.i=null,this.w=null,this.s=null}return u(t,[{key:"determinant",get:function(){var t=this.m;return t[0]*t[3]-t[1]*t[2]}},{key:"isIdentity",get:function(){if(null===this.i){var t=this.m;this.i=1===t[0]&&0===t[1]&&0===t[2]&&1===t[3]&&0===t[4]&&0===t[5]}return this.i}},{key:"point",value:function(t,n){var e=this.m;return{x:e[0]*t+e[2]*n+e[4],y:e[1]*t+e[3]*n+e[5]}}},{key:"translateSelf",value:function(){var t=arguments.length>0&&void 0!==arguments[0]?arguments[0]:0,n=arguments.length>1&&void 0!==arguments[1]?arguments[1]:0;if(!t&&!n)return this;var e=this.m;return e[4]+=e[0]*t+e[2]*n,e[5]+=e[1]*t+e[3]*n,this.w=this.s=this.i=null,this}},{key:"rotateSelf",value:function(){var t=arguments.length>0&&void 0!==arguments[0]?arguments[0]:0;if(t%=360){var n=S(t*=I),e=O(t),r=this.m,i=r[0],u=r[1];r[0]=i*e+r[2]*n,r[1]=u*e+r[3]*n,r[2]=r[2]*e-i*n,r[3]=r[3]*e-u*n,this.w=this.s=this.i=null}return this}},{key:"scaleSelf",value:function(){var t=arguments.length>0&&void 0!==arguments[0]?arguments[0]:1,n=arguments.length>1&&void 0!==arguments[1]?arguments[1]:1;if(1!==t||1!==n){var e=this.m;e[0]*=t,e[1]*=t,e[2]*=n,e[3]*=n,this.w=this.s=this.i=null}return this}},{key:"skewSelf",value:function(t,n){if(n%=360,(t%=360)||n){var e=this.m,r=e[0],i=e[1],u=e[2],o=e[3];t&&(t=M(t*I),e[2]+=r*t,e[3]+=i*t),n&&(n=M(n*I),e[0]+=u*n,e[1]+=o*n),this.w=this.s=this.i=null}return this}},{key:"resetSelf",value:function(){var t=arguments.length>0&&void 0!==arguments[0]?arguments[0]:1,n=arguments.length>1&&void 0!==arguments[1]?arguments[1]:0,e=arguments.length>2&&void 0!==arguments[2]?arguments[2]:0,r=arguments.length>3&&void 0!==arguments[3]?arguments[3]:1,i=arguments.length>4&&void 0!==arguments[4]?arguments[4]:0,u=arguments.length>5&&void 0!==arguments[5]?arguments[5]:0,o=this.m;return o[0]=t,o[1]=n,o[2]=e,o[3]=r,o[4]=i,o[5]=u,this.w=this.s=this.i=null,this}},{key:"recomposeSelf",value:function(){var t=arguments.length>0&&void 0!==arguments[0]?arguments[0]:null,n=arguments.length>1&&void 0!==arguments[1]?arguments[1]:null,e=arguments.length>2&&void 0!==arguments[2]?arguments[2]:null,r=arguments.length>3&&void 0!==arguments[3]?arguments[3]:null,i=arguments.length>4&&void 0!==arguments[4]?arguments[4]:null;return this.isIdentity||this.resetSelf(),t&&(t.x||t.y)&&this.translateSelf(t.x,t.y),n&&this.rotateSelf(n),e&&(e.x&&this.skewSelf(e.x,0),e.y&&this.skewSelf(0,e.y)),!r||1===r.x&&1===r.y||this.scaleSelf(r.x,r.y),i&&(i.x||i.y)&&this.translateSelf(i.x,i.y),this}},{key:"decompose",value:function(){var t=arguments.length>0&&void 0!==arguments[0]?arguments[0]:0,n=arguments.length>1&&void 0!==arguments[1]?arguments[1]:0,e=this.m,r=e[0]*e[0]+e[1]*e[1],i=[[e[0],e[1]],[e[2],e[3]]],u=F(r);if(0===u)return{origin:{x:d(e[4]),y:d(e[5])},translate:{x:d(t),y:d(n)},scale:{x:0,y:0},skew:{x:0,y:0},rotate:0};i[0][0]/=u,i[0][1]/=u;var o=e[0]*e[3]-e[1]*e[2]<0;o&&(u=-u);var a=i[0][0]*i[1][0]+i[0][1]*i[1][1];i[1][0]-=i[0][0]*a,i[1][1]-=i[0][1]*a;var l=F(i[1][0]*i[1][0]+i[1][1]*i[1][1]);if(0===l)return{origin:{x:d(e[4]),y:d(e[5])},translate:{x:d(t),y:d(n)},scale:{x:d(u),y:0},skew:{x:0,y:0},rotate:0};i[1][0]/=l,i[1][1]/=l,a/=l;var s=0;return i[1][1]<0?(s=j(i[1][1])*R,i[0][1]<0&&(s=360-s)):s=E(i[0][1])*R,o&&(s=-s),a=P(a,F(i[0][0]*i[0][0]+i[0][1]*i[0][1]))*R,o&&(a=-a),{origin:{x:d(e[4]),y:d(e[5])},translate:{x:d(t),y:d(n)},scale:{x:d(u),y:d(l)},skew:{x:d(a),y:0},rotate:d(s)}}},{key:"clone",value:function(){var t=this.m;return new this.constructor(t[0],t[1],t[2],t[3],t[4],t[5])}},{key:"toString",value:function(){var t=arguments.length>0&&void 0!==arguments[0]?arguments[0]:" ";if(null===this.s){var n=this.m.map((function(t){return d(t)}));1===n[0]&&0===n[1]&&0===n[2]&&1===n[3]?this.s="translate("+n[4]+t+n[5]+")":this.s="matrix("+n.join(t)+")"}return this.s}}],[{key:"create",value:function(t){return t?Array.isArray(t)?f(this,v(t)):t instanceof this?t.clone():(new this).recomposeSelf(t.origin,t.rotate,t.skew,t.scale,t.translate):new this}}]),t}();function T(t,n,e){return t>=.5?e:n}function B(t,n,e){return 0===t||n===e?n:t*(e-n)+n}function q(t,n,e){var r=B(t,n,e);return r<=0?0:r}function D(t,n,e){var r=B(t,n,e);return r<=0?0:r>=1?1:r}function L(t,n,e){return 0===t?n:1===t?e:{x:B(t,n.x,e.x),y:B(t,n.y,e.y)}}function C(t,n,e){var r=function(t,n,e){return Math.round(B(t,n,e))}(t,n,e);return r<=0?0:r>=255?255:r}function V(t,n,e){return 0===t?n:1===t?e:{r:C(t,n.r,e.r),g:C(t,n.g,e.g),b:C(t,n.b,e.b),a:B(t,null==n.a?1:n.a,null==e.a?1:e.a)}}function G(t,n){for(var e=[],r=0;r<t;r++)e.push(n);return e}function z(t,n){if(--n<=0)return t;var e=(t=Object.assign([],t)).length;do{for(var r=0;r<e;r++)t.push(t[r])}while(--n>0);return t}var Y,$=function(){function t(n){r(this,t),this.list=n,this.length=n.length}return u(t,[{key:"setAttribute",value:function(t,n){for(var e=this.list,r=0;r<this.length;r++)e[r].setAttribute(t,n)}},{key:"removeAttribute",value:function(t){for(var n=this.list,e=0;e<this.length;e++)n[e].removeAttribute(t)}},{key:"style",value:function(t,n){for(var e=this.list,r=0;r<this.length;r++)e[r].style[t]=n}}]),t}(),U=/-./g,Q=function(t,n){return n.toUpperCase()};function H(t){return"function"==typeof t?t:T}function J(t){return t?"function"==typeof t?t:Array.isArray(t)?function(t){var n=arguments.length>1&&void 0!==arguments[1]?arguments[1]:b;if(!Array.isArray(t))return n;switch(t.length){case 1:return k(t[0])||n;case 2:return k(t[0],t[1])||n;case 4:return A(t[0],t[1],t[2],t[3])||n}return n}(t,null):function(t,n){var e=arguments.length>2&&void 0!==arguments[2]?arguments[2]:b;switch(t){case"linear":return b;case"steps":return k(n.steps||1,n.jump||0)||e;case"bezier":case"cubic-bezier":return A(n.x1||0,n.y1||0,n.x2||0,n.y2||0)||e}return e}(t.type,t.value,null):null}function Z(t,n,e){var r=arguments.length>3&&void 0!==arguments[3]&&arguments[3],i=n.length-1;if(t<=n[0].t)return r?[0,0,n[0].v]:n[0].v;if(t>=n[i].t)return r?[i,1,n[i].v]:n[i].v;var u,o=n[0],a=null;for(u=1;u<=i;u++){if(!(t>n[u].t)){a=n[u];break}o=n[u]}return null==a?r?[i,1,n[i].v]:n[i].v:o.t===a.t?r?[u,1,a.v]:a.v:(t=(t-o.t)/(a.t-o.t),o.e&&(t=o.e(t)),r?[u,t,e(t,o.v,a.v)]:e(t,o.v,a.v))}function K(t,n){var e=arguments.length>2&&void 0!==arguments[2]?arguments[2]:null;return t&&t.length?"function"!=typeof n?null:("function"!=typeof e&&(e=null),function(r){var i=Z(r,t,n);return null!=i&&e&&(i=e(i)),i}):null}function W(t,n){return t.t-n.t}function X(t,n,r,i,u){var o,a="@"===r[0],l="#"===r[0],s=Y[r],f=T;switch(a?(o=r.substr(1),r=o.replace(U,Q)):l&&(r=r.substr(1)),e(s)){case"function":if(f=s(i,u,Z,J,r,a,n,t),l)return f;break;case"string":f=K(i,H(s));break;case"object":if((f=K(i,H(s.i),s.f))&&"function"==typeof s.u)return s.u(n,f,r,a,t)}return f?function(t,n,e){if(arguments.length>3&&void 0!==arguments[3]&&arguments[3])return t instanceof $?function(r){return t.style(n,e(r))}:function(r){return t.style[n]=e(r)};if(Array.isArray(n)){var r=n.length;return function(i){var u=e(i);if(null==u)for(var o=0;o<r;o++)t[o].removeAttribute(n);else for(var a=0;a<r;a++)t[a].setAttribute(n,u)}}return function(r){var i=e(r);null==i?t.removeAttribute(n):t.setAttribute(n,i)}}(n,r,f,a):null}function tt(t,n,r,i){if(!i||"object"!==e(i))return null;var u=null,o=null;return Array.isArray(i)?o=function(t){if(!t||!t.length)return null;for(var n=0;n<t.length;n++)t[n].e&&(t[n].e=J(t[n].e));return t.sort(W)}(i):(o=i.keys,u=i.data||null),o?X(t,n,r,o,u):null}function nt(t,n,e){if(!e)return null;var r=[];for(var i in e)if(e.hasOwnProperty(i)){var u=tt(t,n,i,e[i]);u&&r.push(u)}return r.length?r:null}function et(t,n){if(!n.settings.duration||n.settings.duration<0)return null;var e,r,i,u,o,a=function(t,n){if(!n)return null;var e=[];if(Array.isArray(n))for(var r=n.length,i=0;i<r;i++){var u=n[i];if(2===u.length){var o=null;if("string"==typeof u[0])o=t.getElementById(u[0]);else if(Array.isArray(u[0])){o=[];for(var a=0;a<u[0].length;a++)if("string"==typeof u[0][a]){var l=t.getElementById(u[0][a]);l&&o.push(l)}o=o.length?1===o.length?o[0]:new $(o):null}if(o){var s=nt(t,o,u[1]);s&&(e=e.concat(s))}}}else for(var f in n)if(n.hasOwnProperty(f)){var c=t.getElementById(f);if(c){var h=nt(t,c,n[f]);h&&(e=e.concat(h))}}return e.length?e:null}(t,n.elements);return a?(e=a,r=n.settings,i=r.duration,u=e.length,o=null,function(t,n){var a=r.iterations||1/0,l=(r.alternate&&a%2==0)^r.direction>0?i:0,s=t%i,f=1+(t-s)/i;n*=r.direction,r.alternate&&f%2==0&&(n=-n);var c=!1;if(f>a)s=l,c=!0,-1===r.fill&&(s=r.direction>0?0:i);else if(n<0&&(s=i-s),s===o)return!1;o=s;for(var h=0;h<u;h++)e[h](s);return c}):null}function rt(t,n){if(Y=n,!t||!t.root||!Array.isArray(t.animations))return null;var e=function(t){for(var n=document.getElementsByTagName("svg"),e=0;e<n.length;e++)if(n[e].id===t.root&&!n[e].svgatorAnimation)return n[e].svgatorAnimation=!0,n[e];return null}(t);if(!e)return null;var r=t.animations.map((function(t){return et(e,t)})).filter((function(t){return!!t}));return r.length?{svg:e,animations:r,animationSettings:t.animationSettings,options:t.options||void 0}:null}function it(t){var n=arguments.length>1&&void 0!==arguments[1]?arguments[1]:null,e=arguments.length>2&&void 0!==arguments[2]?arguments[2]:Number,r=arguments.length>3&&void 0!==arguments[3]?arguments[3]:"undefined"!=typeof BigInt&&BigInt,i="0x"+(t.replace(/[^0-9a-fA-F]+/g,"")||27);return n&&r&&e.isSafeInteger&&!e.isSafeInteger(+i)?e(r(i))%n+n:+i}function ut(t,n,e){return!t||!e||n>t.length?t:t.substring(0,n)+ut(t.substring(n+1),e,e)}function ot(t){var n=arguments.length>1&&void 0!==arguments[1]?arguments[1]:27;return!t||t%n?t%n:[0,1].includes(n)?n:ot(t/n,n)}function at(t,n,e){if(t&&t.length){var r=it(e),i=ot(r)+5,u=ut(t,ot(r,5),i);return u=u.replace(/\x7c$/g,"==").replace(/\x2f$/g,"="),u=function(t,n,e){var r=+("0x"+t.substring(0,4));t=t.substring(4);for(var i=it(n,r)%r+e%27,u=[],o=0;o<t.length;o+=2)if("|"!==t[o]){var a=+("0x"+t[o]+t[o+1])-i;u.push(a)}else{var l=+("0x"+t.substring(o+1,o+1+4))-i;o+=3,u.push(l)}return String.fromCharCode.apply(String,u)}(u=(u=atob(u)).replace(/[\x41-\x5A]/g,""),n,r),u=JSON.parse(u)}}var lt=[{key:"alternate",def:!1},{key:"fill",def:1},{key:"iterations",def:0},{key:"direction",def:1},{key:"speed",def:1},{key:"fps",def:100}],st=function(){function t(n,e){var i=this,u=arguments.length>2&&void 0!==arguments[2]?arguments[2]:null;r(this,t),this._id=0,this._running=!1,this._rollingBack=!1,this._animations=n,this._settings=e,(!u||u<"2022-05-02")&&delete this._settings.speed,lt.forEach((function(t){i._settings[t.key]=i._settings[t.key]||t.def})),this.duration=e.duration,this.offset=e.offset||0,this.rollbackStartOffset=0}return u(t,[{key:"alternate",get:function(){return this._settings.alternate}},{key:"fill",get:function(){return this._settings.fill}},{key:"iterations",get:function(){return this._settings.iterations}},{key:"direction",get:function(){return this._settings.direction}},{key:"speed",get:function(){return this._settings.speed}},{key:"fps",get:function(){return this._settings.fps}},{key:"maxFiniteDuration",get:function(){return this.iterations>0?this.iterations*this.duration:this.duration}},{key:"_apply",value:function(t){for(var n=arguments.length>1&&void 0!==arguments[1]?arguments[1]:{},e=this._animations,r=e.length,i=0,u=0;u<r;u++)n[u]?i++:(n[u]=e[u](t,1),n[u]&&i++);return i}},{key:"_rollback",value:function(t){var n=this,e=1/0,r=null;this.rollbackStartOffset=t,this._rollingBack=!0,this._running=!0;this._id=window.requestAnimationFrame((function i(u){if(n._rollingBack){null==r&&(r=u);var o=Math.round(t-(u-r)*n.speed);if(o>n.duration&&e!==1/0){var a=!!n.alternate&&o/n.duration%2>1,l=o%n.duration;o=(l+=a?n.duration:0)||n.duration}var s=(n.fps?1e3/n.fps:0)*n.speed,f=Math.max(0,o);f<=e-s&&(n.offset=f,e=f,n._apply(f));var c=n.iterations>0&&-1===n.fill&&o>=n.maxFiniteDuration;(o<=0||n.offset<o||c)&&n.stop(),n._id=window.requestAnimationFrame(i)}}))}},{key:"_start",value:function(){var t=this,n=arguments.length>0&&void 0!==arguments[0]?arguments[0]:0,e=-1/0,r=null,i={};this._running=!0;var u=function u(o){null==r&&(r=o);var a=Math.round((o-r)*t.speed+n),l=(t.fps?1e3/t.fps:0)*t.speed;if(a>=e+l&&!t._rollingBack&&(t.offset=a,e=a,t._apply(a,i)===t._animations.length))return void t.pause(!0);t._id=window.requestAnimationFrame(u)};this._id=window.requestAnimationFrame(u)}},{key:"_pause",value:function(){this._id&&window.cancelAnimationFrame(this._id),this._running=!1}},{key:"play",value:function(){if(!this._running)return this._rollingBack?this._rollback(this.offset):this._start(this.offset)}},{key:"stop",value:function(){this._pause(),this.offset=0,this.rollbackStartOffset=0,this._rollingBack=!1,this._apply(0)}},{key:"reachedToEnd",value:function(){return this.iterations>0&&this.offset>=this.iterations*this.duration}},{key:"restart",value:function(){var t=arguments.length>0&&void 0!==arguments[0]&&arguments[0];this.stop(t),this.play(t)}},{key:"pause",value:function(){this._pause()}},{key:"reverse",value:function(){this.direction=-this.direction}}],[{key:"build",value:function(t,n){delete t.animationSettings,t.options=at(t.options,t.root,"5c7f360c"),t.animations.map((function(n){n.settings=at(n.s,t.root,"5c7f360c"),delete n.s,t.animationSettings||(t.animationSettings=n.settings)}));var e=t.version;if(!(t=rt(t,n)))return null;var r=t.options||{},i=new this(t.animations,t.animationSettings,e);return{el:t.svg,options:r,player:i}}},{key:"push",value:function(t){return this.build(t)}},{key:"init",value:function(){var t=this,n=window.__SVGATOR_PLAYER__&&window.__SVGATOR_PLAYER__["5c7f360c"];Array.isArray(n)&&n.splice(0).forEach((function(n){return t.build(n)}))}}]),t}();function ft(t){return d(t)+""}function ct(t){var n=arguments.length>1&&void 0!==arguments[1]?arguments[1]:" ";return t&&t.length?t.map(ft).join(n):""}function ht(t){if(!t)return"transparent";if(null==t.a||t.a>=1){var n=function(t){return 1===(t=parseInt(t).toString(16)).length?"0"+t:t},e=function(t){return t.charAt(0)===t.charAt(1)},r=n(t.r),i=n(t.g),u=n(t.b);return e(r)&&e(i)&&e(u)&&(r=r.charAt(0),i=i.charAt(0),u=u.charAt(0)),"#"+r+i+u}return"rgba("+t.r+","+t.g+","+t.b+","+t.a+")"}function vt(t){return t?"url(#"+t+")":"none"}!function(){for(var t=0,n=["ms","moz","webkit","o"],e=0;e<n.length&&!window.requestAnimationFrame;++e)window.requestAnimationFrame=window[n[e]+"RequestAnimationFrame"],window.cancelAnimationFrame=window[n[e]+"CancelAnimationFrame"]||window[n[e]+"CancelRequestAnimationFrame"];window.requestAnimationFrame||(window.requestAnimationFrame=function(n){var e=Date.now(),r=Math.max(0,16-(e-t)),i=window.setTimeout((function(){n(e+r)}),r);return t=e+r,i},window.cancelAnimationFrame=window.clearTimeout)}();var yt={f:null,i:function(t,n,e){return 0===t?n:1===t?e:{x:q(t,n.x,e.x),y:q(t,n.y,e.y)}},u:function(t,n){return function(e){var r=n(e);t.setAttribute("rx",ft(r.x)),t.setAttribute("ry",ft(r.y))}}},gt={f:null,i:function(t,n,e){return 0===t?n:1===t?e:{width:q(t,n.width,e.width),height:q(t,n.height,e.height)}},u:function(t,n){return function(e){var r=n(e);t.setAttribute("width",ft(r.width)),t.setAttribute("height",ft(r.height))}}};Object.freeze({M:2,L:2,Z:0,H:1,V:1,C:6,Q:4,T:2,S:4,A:7});var dt={},pt=null;function mt(t){var n=function(){if(pt)return pt;if("object"!==("undefined"==typeof document?"undefined":e(document))||!document.createElementNS)return{};var t=document.createElementNS("http://www.w3.org/2000/svg","svg");return t&&t.style?(t.style.position="absolute",t.style.opacity="0.01",t.style.zIndex="-9999",t.style.left="-9999px",t.style.width="1px",t.style.height="1px",pt={svg:t}):{}}().svg;if(!n)return function(t){return null};var r=document.createElementNS(n.namespaceURI,"path");r.setAttributeNS(null,"d",t),r.setAttributeNS(null,"fill","none"),r.setAttributeNS(null,"stroke","none"),n.appendChild(r);var i=r.getTotalLength();return function(t){var n=r.getPointAtLength(i*t);return{x:n.x,y:n.y}}}function bt(t){return dt[t]?dt[t]:dt[t]=mt(t)}function wt(t,n,e,r){if(!t||!r)return!1;var i=["M",t.x,t.y];if(n&&e&&(i.push("C"),i.push(n.x),i.push(n.y),i.push(e.x),i.push(e.y)),n?!e:e){var u=n||e;i.push("Q"),i.push(u.x),i.push(u.y)}return n||e||i.push("L"),i.push(r.x),i.push(r.y),i.join(" ")}function At(t,n,e,r){var i=arguments.length>4&&void 0!==arguments[4]?arguments[4]:1,u=wt(t,n,e,r),o=bt(u);try{return o(i)}catch(t){return null}}function _t(t,n,e){return t+(n-t)*e}function xt(t,n,e){var r=arguments.length>3&&void 0!==arguments[3]&&arguments[3],i={x:_t(t.x,n.x,e),y:_t(t.y,n.y,e)};return r&&(i.a=kt(t,n)),i}function kt(t,n){return Math.atan2(n.y-t.y,n.x-t.x)}function St(t,n,e,r){var i=1-r;return i*i*t+2*i*r*n+r*r*e}function Ot(t,n,e,r){return 2*(1-r)*(n-t)+2*r*(e-n)}function jt(t,n,e,r){var i=arguments.length>4&&void 0!==arguments[4]&&arguments[4],u=At(t,n,null,e,r);return u||(u={x:St(t.x,n.x,e.x,r),y:St(t.y,n.y,e.y,r)}),i&&(u.a=Et(t,n,e,r)),u}function Et(t,n,e,r){return Math.atan2(Ot(t.y,n.y,e.y,r),Ot(t.x,n.x,e.x,r))}function Mt(t,n,e,r,i){var u=i*i;return i*u*(r-t+3*(n-e))+3*u*(t+e-2*n)+3*i*(n-t)+t}function Pt(t,n,e,r,i){var u=1-i;return 3*(u*u*(n-t)+2*u*i*(e-n)+i*i*(r-e))}function It(t,n,e,r,i){var u=arguments.length>5&&void 0!==arguments[5]&&arguments[5],o=At(t,n,e,r,i);return o||(o={x:Mt(t.x,n.x,e.x,r.x,i),y:Mt(t.y,n.y,e.y,r.y,i)}),u&&(o.a=Rt(t,n,e,r,i)),o}function Rt(t,n,e,r,i){return Math.atan2(Pt(t.y,n.y,e.y,r.y,i),Pt(t.x,n.x,e.x,r.x,i))}function Ft(t,n,e){var r=arguments.length>3&&void 0!==arguments[3]&&arguments[3];if(Tt(n)){if(Bt(e))return jt(n,e.start,e,t,r)}else if(Tt(e)){if(qt(n))return jt(n,n.end,e,t,r)}else{if(qt(n))return Bt(e)?It(n,n.end,e.start,e,t,r):jt(n,n.end,e,t,r);if(Bt(e))return jt(n,e.start,e,t,r)}return xt(n,e,t,r)}function Nt(t,n,e){var r=Ft(t,n,e,!0);return r.a=function(t){return arguments.length>1&&void 0!==arguments[1]&&arguments[1]?t+Math.PI:t}(r.a)/m,r}function Tt(t){return!t.type||"corner"===t.type}function Bt(t){return null!=t.start&&!Tt(t)}function qt(t){return null!=t.end&&!Tt(t)}var Dt=new N;var Lt={f:ft,i:B},Ct={f:ft,i:D};function Vt(t,n,e){return t.map((function(t){return function(t,n,e){var r=t.v;if(!r||"g"!==r.t||r.s||!r.v||!r.r)return t;var i=e.getElementById(r.r),u=i&&i.querySelectorAll("stop")||[];return r.s=r.v.map((function(t,n){var e=u[n]&&u[n].getAttribute("offset");return{c:t,o:e=d(parseInt(e)/100)}})),delete r.v,t}(t,0,e)}))}var Gt={gt:"gradientTransform",c:{x:"cx",y:"cy"},rd:"r",f:{x:"x1",y:"y1"},to:{x:"x2",y:"y2"}};function zt(t,n,r,i,u,o,a,l){return Vt(t,0,l),n=function(t,n,e){for(var r,i,u,o=t.length-1,a={},l=0;l<=o;l++)(r=t[l]).e&&(r.e=n(r.e)),r.v&&"g"===(i=r.v).t&&i.r&&(u=e.getElementById(i.r))&&(a[i.r]={e:u,s:u.querySelectorAll("stop")});return a}(t,i,l),function(i){var u=r(i,t,Yt);if(!u)return"none";if("c"===u.t)return ht(u.v);if("g"===u.t){if(!n[u.r])return vt(u.r);var o=n[u.r];return function(t,n){for(var e=t.s,r=e.length;r<n.length;r++){var i=e[e.length-1].cloneNode();i.id=Qt(i.id),t.e.appendChild(i),e=t.s=t.e.querySelectorAll("stop")}for(var u=0,o=e.length,a=n.length-1;u<o;u++)e[u].setAttribute("stop-color",ht(n[Math.min(u,a)].c)),e[u].setAttribute("offset",n[Math.min(u,a)].o)}(o,u.s),Object.keys(Gt).forEach((function(t){if(void 0!==u[t])if("object"!==e(Gt[t])){var n,r="gt"===t?(n=u[t],Array.isArray(n)?"matrix("+n.join(" ")+")":""):u[t],i=Gt[t];o.e.setAttribute(i,r)}else Object.keys(Gt[t]).forEach((function(n){if(void 0!==u[t][n]){var e=u[t][n],r=Gt[t][n];o.e.setAttribute(r,e)}}))})),vt(u.r)}return"none"}}function Yt(t,e,r){if(0===t)return e;if(1===t)return r;if(e&&r){var i=e.t;if(i===r.t)switch(e.t){case"c":return{t:i,v:V(t,e.v,r.v)};case"g":if(e.r===r.r){var u={t:i,s:$t(t,e.s,r.s),r:e.r};return e.gt&&r.gt&&(u.gt=function(t,n,e){var r=n.length;if(r!==e.length)return T(t,n,e);for(var i=new Array(r),u=0;u<r;u++)i[u]=B(t,n[u],e[u]);return i}(t,e.gt,r.gt)),e.c?(u.c=L(t,e.c,r.c),u.rd=q(t,e.rd,r.rd)):e.f&&(u.f=L(t,e.f,r.f),u.to=L(t,e.to,r.to)),u}}if("c"===e.t&&"g"===r.t||"c"===r.t&&"g"===e.t){var o="c"===e.t?e:r,a="g"===e.t?n({},e):n({},r),l=a.s.map((function(t){return{c:o.v,o:t.o}}));return a.s="c"===e.t?$t(t,l,a.s):$t(t,a.s,l),a}}return T(t,e,r)}function $t(t,n,e){if(n.length===e.length)return n.map((function(n,r){return Ut(t,n,e[r])}));for(var r=Math.max(n.length,e.length),i=[],u=0;u<r;u++){var o=Ut(t,n[Math.min(u,n.length-1)],e[Math.min(u,e.length-1)]);i.push(o)}return i}function Ut(t,n,e){return{o:D(t,n.o,e.o||0),c:V(t,n.c,e.c||{})}}function Qt(t){return t.replace(/-fill-([0-9]+)$/,(function(t,n){return"-fill-"+(+n+1)}))}var Ht={fill:zt,"fill-opacity":Ct,stroke:zt,"stroke-opacity":Ct,"stroke-width":Lt,"stroke-dashoffset":{f:ft,i:B},"stroke-dasharray":{f:function(t){var n=arguments.length>1&&void 0!==arguments[1]?arguments[1]:" ";return t&&t.length>0&&(t=t.map((function(t){return d(t,4)}))),ct(t,n)},i:function(t,n,e){var r,i,u,o=n.length,a=e.length;if(o!==a)if(0===o)n=G(o=a,0);else if(0===a)a=o,e=G(o,0);else{var l=(u=(r=o)*(i=a)/function(t,n){for(var e;n;)e=n,n=t%n,t=e;return t||1}(r,i))<0?-u:u;n=z(n,Math.floor(l/o)),e=z(e,Math.floor(l/a)),o=a=l}for(var s=[],f=0;f<o;f++)s.push(d(q(t,n[f],e[f])));return s}},opacity:Ct,transform:function(t,n,r,i){if(!(t=function(t,n){if(!t||"object"!==e(t))return null;var r=!1;for(var i in t)t.hasOwnProperty(i)&&(t[i]&&t[i].length?(t[i].forEach((function(t){t.e&&(t.e=n(t.e))})),r=!0):delete t[i]);return r?t:null}(t,i)))return null;var u=function(e,i,u){var o=arguments.length>3&&void 0!==arguments[3]?arguments[3]:null;return t[e]?r(i,t[e],u):n&&n[e]?n[e]:o};return n&&n.a&&t.o?function(n){var e=r(n,t.o,Nt);return Dt.recomposeSelf(e,u("r",n,B,0)+e.a,u("k",n,L),u("s",n,L),u("t",n,L)).toString()}:function(t){return Dt.recomposeSelf(u("o",t,Ft,null),u("r",t,B,0),u("k",t,L),u("s",t,L),u("t",t,L)).toString()}},r:Lt,"#size":gt,"#radius":yt,_:function(t,n){if(Array.isArray(t))for(var e=0;e<t.length;e++)this[t[e]]=n;else this[t]=n}},Jt=function(t){!function(t,n){if("function"!=typeof n&&null!==n)throw new TypeError("Super expression must either be null or a function");t.prototype=Object.create(n&&n.prototype,{constructor:{value:t,writable:!0,configurable:!0}}),n&&l(t,n)}(o,t);var n,e,i=(n=o,e=s(),function(){var t,r=a(n);if(e){var i=a(this).constructor;t=Reflect.construct(r,arguments,i)}else t=r.apply(this,arguments);return c(this,t)});function o(){return r(this,o),i.apply(this,arguments)}return u(o,null,[{key:"build",value:function(t){var n=h(a(o),"build",this).call(this,t,Ht);if(!n)return null;n.el,n.options,function(t,n,e){t.play()}(n.player)}}]),o}(st);return Jt.init(),Jt}));
(function(s,i,o,w,d,a,b){w[o]=w[o]||{};w[o][s]=w[o][s]||[];w[o][s].push(i);})('5c7f360c',{"root":"eYKJvSHINEs1","version":"2022-05-04","animations":[{"elements":{"eYKJvSHINEs4":{"transform":{"data":{"o":{"x":358.117031,"y":176.549336,"type":"corner"},"t":{"x":-358.117031,"y":-176.549336}},"keys":{"s":[{"t":0,"v":{"x":0,"y":0}},{"t":1000,"v":{"x":1,"y":1},"e":[0.42,0,0.58,1]}]}}},"eYKJvSHINEs8":{"transform":{"data":{"o":{"x":339.046509,"y":419.112,"type":"corner"},"t":{"x":-339.046509,"y":-419.112}},"keys":{"s":[{"t":600,"v":{"x":0,"y":0.5}},{"t":1700,"v":{"x":1,"y":1},"e":[0.42,0,0.58,1]}]}}},"eYKJvSHINEs12":{"transform":{"data":{"t":{"x":-1056.354813,"y":-662.67183}},"keys":{"o":[{"t":1300,"v":{"x":360.635742,"y":207.5755,"type":"corner"}},{"t":2000,"v":{"x":1056.354813,"y":662.67183,"type":"corner"},"e":[0.25,1,0.25,1]}]}}},"eYKJvSHINEs356":{"transform":{"data":{"o":{"x":385.495392,"y":418.920349,"type":"corner"},"t":{"x":-385.495392,"y":-418.920349}},"keys":{"s":[{"t":1000,"v":{"x":0,"y":0},"e":[0.42,0,0.58,1]},{"t":1500,"v":{"x":1,"y":1}}]}}},"eYKJvSHINEs367":{"transform":{"data":{"o":{"x":420.707,"y":202.9715,"type":"corner"},"t":{"x":-420.707,"y":-202.9715}},"keys":{"s":[{"t":1000,"v":{"x":0,"y":0}},{"t":1400,"v":{"x":1.15,"y":1}},{"t":1700,"v":{"x":1,"y":1},"e":[0.42,0,0.58,1]}]}}},"eYKJvSHINEs385":{"transform":{"data":{"o":{"x":351.4245,"y":587.893192,"type":"corner"},"t":{"x":-351.4245,"y":-587.893192}},"keys":{"s":[{"t":500,"v":{"x":1,"y":0}},{"t":1300,"v":{"x":1,"y":1},"e":[0,0,0.58,1]}]}}},"eYKJvSHINEs401":{"transform":{"data":{"t":{"x":-516.019,"y":-681.441569}},"keys":{"o":[{"t":1900,"v":{"x":514.375015,"y":181.266502,"type":"corner"}},{"t":2800,"v":{"x":516.019,"y":681.441569,"type":"corner"}}]}}},"eYKJvSHINEs501":{"transform":{"data":{"o":{"x":197.072,"y":205.405014,"type":"corner"},"t":{"x":-197.072,"y":-205.405014}},"keys":{"s":[{"t":1100,"v":{"x":0,"y":0}},{"t":1500,"v":{"x":1.2,"y":1.2},"e":[0.42,0,0.58,1]},{"t":1700,"v":{"x":1,"y":1}}]}}},"eYKJvSHINEs539":{"transform":{"data":{"o":{"x":621.715515,"y":423.811,"type":"corner"},"t":{"x":-621.715515,"y":-423.811}},"keys":{"s":[{"t":500,"v":{"x":0.4,"y":0}},{"t":1700,"v":{"x":1.1,"y":1}},{"t":2300,"v":{"x":1,"y":1}}]}}},"eYKJvSHINEs582":{"transform":{"data":{"o":{"x":824.267442,"y":13.5479,"type":"corner"},"t":{"x":-824.267442,"y":-13.5479}},"keys":{"s":[{"t":1000,"v":{"x":0,"y":0}},{"t":2600,"v":{"x":1,"y":1}}]}}},"eYKJvSHINEs620":{"transform":{"data":{"o":{"x":-201.964926,"y":135.608,"type":"corner"},"t":{"x":201.964926,"y":-135.608}},"keys":{"s":[{"t":1000,"v":{"x":0,"y":0.5}},{"t":2000,"v":{"x":1,"y":1},"e":[0,0,0.58,1]}]}}},"eYKJvSHINEs654":{"transform":{"data":{"o":{"x":94.95545,"y":195.951,"type":"corner"},"t":{"x":-94.95545,"y":-195.951}},"keys":{"s":[{"t":1200,"v":{"x":0,"y":0}},{"t":2100,"v":{"x":1.1,"y":1.1}},{"t":2500,"v":{"x":1,"y":1},"e":[0,0,0.58,1]}]}}},"eYKJvSHINEs718":{"transform":{"data":{"o":{"x":71.249694,"y":425.346,"type":"corner"},"t":{"x":-71.249694,"y":-425.346}},"keys":{"s":[{"t":800,"v":{"x":0.5,"y":0}},{"t":2000,"v":{"x":1.1,"y":1}},{"t":2500,"v":{"x":1,"y":1},"e":[0.42,0,0.58,1]}]}}}},"s":"MDDA1ZGUwSDg3YzlkYWIQ3YzZkOWNlZDRkMzgH3OWY5NzllOTU5NTkxRODdjOWNlZDdjYWM4ZADljZWQ0ZDM4NzlmOTCY5MTg3Y2VkOWNhZDdGjNmQ5Y2VBZDRkM2Q4PODc5Zjk2OTFTODdjYXmNlZDFkMTg3TzlmOTVY5MTg3YzZkMWQ5VWNIhZDdkM2M2ZDljYTg3TQjlmS0pjYmM2ZDFkOWGNhOTFGODdkOE1kNWYNhT1FjYWM5ODc5ZjkT2OTE4N2NiZDVkODg3COWY5Njk1OTVlMg|"}],"options":"MUDAxMDg4MmY4MDgxNmAU3ZjgxMmY0NzJmNzkF3YzZlNzFLMmY4YQ|"},'__SVGATOR_PLAYER__',window,document)
]]></script>
</svg>
