<svg id="eM4HP15A7UG1" xmlns="http://www.w3.org/2000/svg" xmlns:xlink="http://www.w3.org/1999/xlink" viewBox="0 0 647 602" shape-rendering="geometricPrecision" text-rendering="geometricPrecision"><g transform="matrix(.821772 0 0 0.810901 57.656758 56.918799)"><g id="eM4HP15A7UG3" transform="matrix(0 0 0 0.3 323.5 400.4)"><path d="M323.5,602C502.164,602,647,588.569,647,572s-144.836-30-323.5-30-323.5,13.431-323.5,30s144.836,30,323.5,30Z" opacity="0.1" fill="#3a36db"/></g><g id="eM4HP15A7UG5" transform="matrix(0 0 0 0 518.279007 296.660004)"><g><g><g><g><path d="M509.787,268.44l-7.267,1.113l8.409,54.907l7.267-1.113-8.409-54.907Z" fill="#99b2c6"/></g></g><g><g><path d="M509.782,268.479l-7.188,1.143l1.633-5.554.817-2.941l1.634,2.451l3.104,4.901Z" fill="#ff8c64"/></g></g><g><g><path d="M517.621,319.439l-7.267,1.113.618,4.037l7.267-1.113-.618-4.037Z" fill="#35252f"/></g></g><g><g><path d="M518.277,326.639l-6.372.98c-.327,0-.49-.163-.49-.49l-.49-2.777l7.352-1.144.49,2.777c0,.327-.164.654-.49.654Z" fill="#ef452f"/></g></g><g><g><path d="M506.676,263.578l-2.45.49.816-2.941l1.634,2.451Z" fill="#35252f"/></g></g><g><g><path d="M510.373,320.555l7.268-1.113-.446-2.906-7.267,1.113.445,2.906Z" fill="#f68407"/></g></g><g><g><path d="M504.718,272.072l6.208,40.68c0,.327.327.49.653.49.327,0,.491-.327.491-.653l-6.209-40.68c0-.327-.326-.49-.653-.49s-.49.327-.49.653Z" fill="#99b2c6"/></g></g><g><g><path d="M507.657,271.583l6.208,40.68c0,.326.327.49.654.49s.49-.327.49-.654l-6.208-40.679c0-.327-.327-.49-.654-.49-.326,0-.49.326-.49.653Z" fill="#99b2c6"/></g></g></g><g><g><g><path d="M522.928,268.63l-7.352.024.181,55.547l7.352-.024-.181-55.547Z" fill="#03a89e"/></g></g><g><g><path d="M523.015,268.641l-7.352.163l2.451-5.391l1.143-2.614l1.307,2.614l2.451,5.228Z" fill="#ff8c64"/></g></g><g><g><path d="M523.175,320.255l-7.352.024.014,4.085l7.351-.024-.013-4.085Z" fill="#35252f"/></g></g><g><g><path d="M522.69,327.456h-6.372c-.327,0-.49-.163-.49-.49v-2.778h7.352v2.778c0,.327-.164.49-.49.49Z" fill="#ef452f"/></g></g><g><g><path d="M520.566,263.415h-2.451l1.144-2.614l1.307,2.614Z" fill="#35252f"/></g></g><g><g><path d="M515.821,320.282l7.352-.024-.01-2.941-7.351.024.009,2.941Z" fill="#3c7341"/></g></g><g><g><path d="M517.459,271.418l.163,41.17c0,.326.327.49.49.49.327,0,.491-.327.491-.49l-.164-41.17c0-.327-.327-.49-.49-.49s-.49.163-.49.49Z" fill="#03a89e"/></g></g><g><g><path d="M520.401,271.42l.164,41.169c0,.327.326.491.49.491.327,0,.49-.327.49-.491l-.163-41.169c0-.327-.327-.49-.491-.49-.326,0-.49.163-.49.49Z" fill="#03a89e"/></g></g></g><g><g><g><path d="M535.731,269.477l-7.279-1.035-7.815,54.997l7.279,1.034l7.815-54.996Z" fill="#3a36db"/></g></g><g><g><path d="M535.758,269.459l-7.352-.98l3.104-4.901l1.634-2.451.98,2.777l1.634,5.555Z" fill="#ff8c64"/></g></g><g><g><path d="M528.509,320.523l-7.279-1.035-.574,4.044l7.279,1.035.574-4.044Z" fill="#35252f"/></g></g><g><g><path d="M526.936,327.62l-6.372-.98c-.326,0-.49-.327-.49-.491l.327-2.777l7.352.98-.327,2.778c0,.326-.163.49-.49.49Z" fill="#ef452f"/></g></g><g><g><path d="M534.125,263.904l-2.614-.326l1.633-2.451.981,2.777Z" fill="#35252f"/></g></g><g><g><path d="M521.181,319.372l7.279,1.034.414-2.911-7.279-1.035-.414,2.912Z" fill="#1b48ca"/></g></g><g><g><path d="M529.875,271.42l-5.718,40.679c0,.327.164.654.49.654.327,0,.654-.164.654-.49l5.718-40.68c0-.327-.163-.653-.49-.653s-.654.163-.654.49Z" opacity="0.6" fill="#3a36db"/></g></g><g><g><path d="M532.655,271.91l-5.718,40.679c0,.327.163.654.49.654.326,0,.653-.164.653-.491l5.718-40.679c0-.327-.163-.654-.49-.654-.327-.163-.49.164-.653.491Z" opacity="0.6" fill="#3a36db"/></g></g></g></g><g><g><g><path d="M538.21,290.698l-.49,2.941-.327,2.777-.49,4.085-.326,2.614-.654,4.247-.327,2.614-.49,4.084-.326,2.614-.491,4.248-.326,2.614-.654,4.248-.327,2.45-.326,2.287h-28.917l-.327-2.287-.327-2.45-.49-4.248-.326-2.614-.491-4.248-.326-2.614-.654-4.084-.327-2.614-.49-4.247-.326-2.614-.49-4.085-.327-2.777-.49-2.941h39.862Z" fill="#ff69b4"/></g></g><g><g><g><path d="M537.719,293.639l-.326,2.777h-38.229l-.327-2.777h38.882Z" fill="#ff2291"/></g></g><g><g><path d="M536.903,300.501l-.327,2.614h-36.595l-.327-2.614h37.249Z" fill="#ff2291"/></g></g><g><g><path d="M535.922,307.36l-.326,2.614h-34.799l-.326-2.614h35.451Z" fill="#ff2291"/></g></g><g><g><path d="M535.105,314.061l-.327,2.613h-33.001l-.327-2.613h33.655Z" fill="#ff2291"/></g></g><g><g><path d="M534.288,320.923l-.326,2.614h-31.368l-.326-2.614h32.02Z" fill="#ff2291"/></g></g><g><g><path d="M533.307,327.782l-.327,2.451h-29.57l-.327-2.451h30.224Z" fill="#ff2291"/></g></g></g></g></g><g id="eM4HP15A7UG105" transform="translate(-597.009171-636.647053)"><g><g><g><g><g><g><path d="M212.965,99.1668c25.715,0,46.561-20.846,46.561-46.5609s-20.846-46.56098-46.561-46.56098-46.561,20.84608-46.561,46.56098s20.846,46.5609,46.561,46.5609Z" opacity="0.2" fill="#3a36db"/></g></g></g></g></g><g><g><g><g><g><path d="M212.965,93.1219c25.715,0,46.561-20.846,46.561-46.5609C259.526,20.846,238.68,0,212.965,0s-46.561,20.846-46.561,46.561c0,25.7149,20.846,46.5609,46.561,46.5609Z" fill="#3a36db"/></g></g></g></g></g><g><g><g><g><g><g><path d="M212.964,84.4627c20.911,0,37.902-16.9907,37.902-37.9023s-16.991-37.9022-37.902-37.9022c-20.912,0-37.902,16.9907-37.902,37.9022s16.99,37.9023,37.902,37.9023Z" fill="#fff"/></g></g></g></g></g></g><g><g><g><g><g><path d="M175.062,46.5605c0,.9802,0,1.9604.163,2.9406c1.47-19.4412,17.971-34.9615,37.739-34.9615c19.931,0,36.268,15.3569,37.739,34.9615c0-.9802.163-1.9604.163-2.9406c0-20.9116-16.991-37.9023-37.902-37.9023-20.912,0-37.902,16.9907-37.902,37.9023Z" opacity="0.2" fill="#3a36db"/></g></g></g></g></g></g><g><g><g><path d="M213.049,48.6641L185.178,35.4033" fill="none" stroke="#06152b" stroke-width="2" stroke-linecap="round" stroke-miterlimit="10"/><path d="M213.382,48.8172l8.617-19.7867" fill="none" stroke="#06152b" stroke-width="2" stroke-linecap="round" stroke-miterlimit="10"/></g></g></g></g><g id="eM4HP15A7UG137" transform="matrix(0 0 0 0 380.220444 585.952)"><g><g><g><g><path d="M492.165,301.607L453.268,433.049c-1.788,5.813-7.153,9.836-13.114,9.836l-157.97.447c-8.345,0-15.052-7.004-14.605-15.35.447-7.749,6.856-13.859,14.605-13.859h60.357l48.434-134.722h84.499c11.624,0,19.969,11.177,16.691,22.206Z" fill="#99b2c6"/></g></g></g><g><g><g><g><path d="M394.403,425.598c-19.836,0-35.916-.267-35.916-.597c0-.329,16.08-.596,35.916-.596c19.835,0,35.915.267,35.915.596c0,.33-16.08.597-35.915.597Z" fill="#06152b"/></g></g></g></g><g><g><g><g><path d="M480.541,283.575c-.299-.149-11.029,31.296-23.994,70.341-12.965,38.896-23.248,70.49-22.95,70.639s11.028-31.296,23.993-70.341c12.966-38.896,23.249-70.639,22.951-70.639Z" fill="#06152b"/></g></g></g></g></g><g><path d="M365.045,559.724l9.686-.298v-116.54h-9.686v116.838Z" fill="#ffd66b"/></g><g><path d="M414.67,559.127h-89.566l40.536-14.009h9.686l39.344,14.009Z" fill="#ffd66b"/></g></g><g id="eM4HP15A7UG157" transform="translate(486.811416-856.219555)"><g><g><g><g><g><g><path d="M437.324,249.148L422.57,323.215l2.683,55.587-99.7-16.542l3.875-48.583.149-40.238-24.441,47.391-19.075-36.81l34.872-63.039c6.408-6.557,13.86-11.475,22.802-14.754c4.321-1.639,8.941-2.533,14.306-2.682c11.475,3.577,22.951,3.577,34.575,0c1.341.149,3.278.298,5.812.596.149,0,.298,0,.447,0c21.162,2.534,37.257,20.119,38.449,41.43v3.577Z" fill="#ff69b4"/></g></g></g></g></g><g><g><g><path d="M398.279,204.141c0,0,40.983.298,46.05,43.516l.745,31.743-35.319-.298-11.476-74.961Z" fill="#ff69b4"/></g></g></g></g><g><g><g><path d="M300.367,259.728c0,.298,32.19.596,71.98.596c39.791,0,71.981-.298,71.981-.596s-32.19-.596-71.981-.596c-39.79,0-71.98.298-71.98.596Z" fill="#fff"/></g></g></g><g><g><g><path d="M300.367,266.583c0,.298,32.19.597,71.98.597c39.791,0,71.981-.299,71.981-.597s-32.19-.596-71.981-.596c-39.79,0-71.98.298-71.98.596Z" fill="#fff"/></g></g></g><g><g><g><path d="M302.751,254.066c0,.298,31.743.596,70.789.596c39.045,0,70.788-.298,70.788-.596s-31.743-.596-70.788-.596c-39.195,0-70.789.298-70.789.596Z" fill="#fff"/></g></g></g><g><g><g><path d="M330.025,320.83c.298,0,.149-17.585-.298-39.194-.448-21.609-1.044-39.195-1.491-39.195-.298,0-.149,17.586.298,39.195.596,21.609,1.193,39.194,1.491,39.194Z" fill="#06152b"/></g></g></g><g><g><path d="M344.032,292.366c0,0-19.373,1.341-22.801,6.557-3.428,5.067-8.793,19.672-6.855,19.821c2.086.149,3.427-1.043,3.427-1.043l5.365-9.389c0,0-.894,9.091,2.385,9.24c3.129.149,18.926,3.279,18.926,3.279l-.447-28.465Z" fill="#ffbe9d"/></g></g><g><g><path d="M444.925,270.905v49.925c-.596,11.624-11.624,19.97-22.951,17.585l-78.09-16.095.149-32.041l67.36,12.965.895-33.829l32.637,1.49Z" fill="#ff69b4"/></g></g><g><g><g><path d="M400.365,334.391c0,0-.298-.149-1.043-.298s-1.788-.447-2.981-.745c-2.682-.596-6.557-1.341-11.475-2.384-9.985-2.087-23.993-4.918-40.685-8.346l.448.447c0-9.985,0-21.162,0-32.935l-.597.596c4.471.894,9.091,1.789,13.711,2.683c19.672,3.725,38.151,7.302,53.65,10.283l.596.149v-.596c-.447-14.903-.894-27.273-1.192-36.065-.149-4.322-.298-7.601-.447-9.985c0-1.043-.149-1.938-.149-2.683c0-.596-.149-.894-.149-.894s0,.298,0,.894c0,.745,0,1.491,0,2.683c0,2.384.149,5.812.149,10.134.149,8.792.447,21.162.894,36.065l.596-.448c-15.499-2.98-33.978-6.557-53.65-10.431-4.769-.895-9.389-1.789-13.711-2.683l-.596-.149v.596c0,11.773,0,22.801,0,32.935v.447l.447.149c16.692,3.279,30.7,5.962,40.685,7.899c4.918.894,8.793,1.639,11.475,2.086c1.342.149,2.236.447,3.13.596.596,0,.894,0,.894,0Z" fill="#06152b"/></g></g></g><g><g><g><path d="M355.507,204.141c0,0-.149.298-.298.745s-.447,1.192-.596,2.236c-.447,1.937-.596,4.917.298,8.345s3.279,7.302,6.706,10.432c3.577,3.279,8.644,5.365,14.158,5.365s10.73-2.235,14.009-5.663c3.278-3.428,4.769-7.749,5.216-11.326s-.298-6.557-1.043-8.346c-.298-.894-.746-1.639-1.044-2.086s-.447-.745-.447-.596c-.149,0,.447,1.043,1.044,2.831.596,1.789,1.043,4.62.596,8.048-.447,3.427-1.938,7.451-5.216,10.73-3.13,3.278-8.048,5.365-13.264,5.365s-10.134-1.937-13.561-5.067c-3.428-2.981-5.664-6.557-6.707-9.985-1.043-3.279-.894-6.259-.745-8.047.745-1.938,1.043-2.981.894-2.981Z" fill="#263238"/></g></g></g><g><g><g><path d="M351.781,324.854c.149,0,.149-1.937,0-4.918-.149-2.98-.298-7.153-.298-11.773s0-8.793.149-11.773c.149-2.981.149-4.918,0-4.918s-.447,1.788-.745,4.918c-.298,2.98-.447,7.302-.447,11.922s.298,8.793.596,11.922c.298,2.832.596,4.769.745,4.62Z" fill="#fafafa"/></g></g></g><g><g><g><path d="M355.806,325.749c.149,0,.149-1.938.149-4.918c0-3.428-.149-7.452-.149-11.774c0-4.321,0-8.345,0-11.773c0-2.98,0-4.918-.149-4.918s-.447,1.789-.596,4.918c-.149,2.981-.298,7.153-.298,11.773s.149,8.793.447,11.774c.149,3.129.447,4.918.596,4.918Z" fill="#fafafa"/></g></g></g><g><path d="M277.564,524.105L262.81,564.79l-21.012,28.763c-1.491,2.086-.895,5.067,1.192,6.408c1.192.745,2.682.894,4.023.298c8.495-3.577,39.493-16.542,40.387-19.523c1.043-3.576,21.013-47.242,21.013-47.242l-30.849-9.389Z" fill="#ff69b4"/></g><g opacity="0.6"><path d="M243.139,599.962l45.454-21.907-.596,1.639c-.596,1.49-1.64,2.682-2.981,3.428-3.726,1.937-14.158,7.302-37.555,17.138-1.49.596-3.13.447-4.322-.298Z" fill="#93079f"/></g><g opacity="0.6"><g opacity="0.6"><path d="M285.463,561.811c-1.342.298-2.236,1.639-1.938,2.981.298,1.341,1.64,2.235,2.981,1.937s2.384-1.938,2.086-3.13c-.447-1.192-2.086-2.235-3.278-1.639" opacity="0.6" fill="#fff"/></g></g><g><g><path d="M259.234,585.952c-.298,0-.298-2.384-2.385-4.47-1.937-2.087-4.322-2.385-4.322-2.683c0-.149.596-.298,1.64,0c1.043.298,2.235.894,3.427,2.086c1.043,1.193,1.64,2.534,1.789,3.577.149.894,0,1.49-.149,1.49Z" fill="#06152b"/></g></g><g><g><path d="M254.168,590.274c-.298.149-1.044-1.789-2.832-3.13-1.788-1.49-3.726-1.788-3.726-2.086s2.236-.298,4.322,1.341c2.087,1.49,2.534,3.726,2.236,3.875Z" fill="#06152b"/></g></g><g><g><path d="M267.282,581.035c-.298.149-1.49-2.682-4.173-5.067-2.682-2.533-5.514-3.427-5.365-3.725c0-.298,3.279.298,6.11,2.98c2.832,2.683,3.577,5.812,3.428,5.812Z" fill="#06152b"/></g></g><g><g><path d="M272.795,569.112c-.149.149-2.086-1.639-4.918-2.832-2.831-1.341-5.365-1.49-5.365-1.639c0-.298,2.683-.447,5.812.894c2.981,1.193,4.62,3.428,4.471,3.577Z" fill="#06152b"/></g></g><g><g><path d="M277.416,557.339c-.149.149-1.937-2.087-5.067-3.13-3.13-1.192-5.812-.447-5.812-.745c0-.149.596-.447,1.788-.596c1.193-.149,2.832-.149,4.471.447s2.981,1.49,3.726,2.384c.745.895.894,1.491.894,1.64Z" fill="#06152b"/></g></g><g><g><path d="M273.242,551.974c0,0,0-.596.596-1.49.448-.894,1.342-2.235,2.832-3.577.745-.596,1.49-1.341,2.831-1.49.597,0,1.491.447,1.789,1.043.298.745.149,1.49,0,2.087-1.043,2.533-4.173,4.172-7.154,3.427-2.98-.745-4.917-3.427-5.216-6.11c0-.596,0-1.49.597-1.937.596-.596,1.49-.596,2.086-.149c1.192.596,1.639,1.639,2.086,2.384.895,1.639,1.342,3.13,1.491,4.173s.149,1.639.149,1.639c-.149,0-.298-2.384-2.236-5.514-.447-.745-1.043-1.639-1.937-2.086-.447-.149-.894-.149-1.043.149-.298.298-.447.745-.298,1.341.298,2.235,2.086,4.62,4.62,5.216c2.533.596,5.365-.745,6.11-2.831.149-.448.298-1.044.149-1.491s-.447-.596-.894-.596c-.895,0-1.789.596-2.534,1.192-3.13,2.385-3.875,4.769-4.024,4.62Z" fill="#06152b"/></g></g><g><path d="M215.271,513.524l1.342,33.084c0,0-33.085,12.37-33.532,18.48l64.082-.149.149-51.564-32.041.149Z" fill="#ff69b4"/></g><g opacity="0.6"><g opacity="0.6"><path d="M236.432,543.777c1.192.298,2.087,1.788,1.789,2.981-.299,1.192-1.64,2.086-2.981,1.788-1.192-.298-2.384-1.937-1.937-3.13.447-1.192,2.086-2.235,3.278-1.49" opacity="0.6" fill="#fff"/></g></g><g opacity="0.6"><path d="M247.163,564.939v-5.067l-61.698,2.087c0,0-2.831,1.192-2.533,3.278l64.231-.298Z" fill="#93079f"/></g><g><g><path d="M215.569,546.31c0,.298,1.639.447,3.129,1.49c1.639.895,2.385,2.385,2.683,2.236.298,0-.149-1.938-2.087-3.13-1.937-1.341-3.874-.894-3.725-.596Z" fill="#06152b"/></g></g><g><g><path d="M208.861,548.992c0,.298,1.342.895,2.385,2.087c1.043,1.341,1.341,2.682,1.639,2.682s.447-1.788-.894-3.427c-1.341-1.491-3.13-1.64-3.13-1.342Z" fill="#06152b"/></g></g><g><g><path d="M204.987,557.04c.298,0,.745-1.49-.149-3.279-.745-1.788-2.235-2.384-2.385-2.086-.149.298.746,1.192,1.491,2.533.596,1.491.745,2.832,1.043,2.832Z" fill="#06152b"/></g></g><g><g><path d="M216.015,538.709c.15.299,1.64-.149,3.279,0c1.788.15,3.13.597,3.279.448.149-.299-1.192-1.342-3.279-1.491-1.937-.298-3.428.745-3.279,1.043Z" fill="#263238"/></g></g><path d="M215.57,520.081l.149,5.812l31.593-.298v-5.365l-31.742-.149Z" opacity="0.3"/><g><path d="M215.867,532.004c0,.149,1.192.298,3.279,0c1.043-.149,2.086-.447,3.427-1.043.596-.298,1.193-.596,1.789-1.043.298-.149.596-.447.894-.745.298-.299.596-1.193.149-1.64-.298-.447-.894-.745-1.341-.745-.448,0-.895.149-1.193.149-.745.149-1.341.447-1.937.745-1.192.596-2.235,1.342-2.981,1.938-1.49,1.341-1.937,2.533-1.937,2.682.149.149.894-.894,2.384-2.086.746-.596,1.789-1.193,2.832-1.64.596-.298,1.192-.447,1.788-.596.746-.149,1.193-.149,1.491.149c0,.149,0,.149,0,.298-.149.149-.447.298-.745.597-.597.298-1.193.745-1.64,1.043-1.043.596-2.235.894-3.129,1.192-1.789.447-3.13.596-3.13.745Z" fill="#263238"/></g><g><path d="M216.314,532.45c.149,0,.745-1.043.894-3.13c0-1.043,0-2.235-.447-3.576-.149-.596-.447-1.342-.894-1.938s-.894-1.49-2.087-1.639c-.596,0-1.192.447-1.341.894s-.298.745-.298,1.192c-.149.746-.149,1.491,0,2.236.149,1.341.745,2.533,1.341,3.278c1.193,1.64,2.534,2.087,2.534,1.938.149-.149-1.043-.745-1.938-2.385-.447-.745-.894-1.788-1.043-2.98c0-.596,0-1.192,0-1.789.149-.745.298-1.192.596-1.192s.894.447,1.193,1.043c.298.597.596,1.193.745,1.789.447,1.192.596,2.235.596,3.129.298,1.938,0,3.13.149,3.13Z" fill="#263238"/></g><g><g><g><path d="M247.311,355.107c37.853,3.875,88.076,9.091,88.076,9.091l-6.856,61.698c0,0-73.769-19.523-73.321-17.884.596,1.64-3.428,131.294-3.428,131.294h-44.411l-.894-146.792c-.149-22.206,18.778-39.642,40.834-37.407Z" fill="#06152b"/></g></g></g><g><g><g><path d="M426.146,379.995v19.075c0,12.966-14.903,26.826-27.869,26.826h-10.134c-7.898,0-20.417-5.813-26.825-10.432l-3.874-2.832-46.348,143.365c0,0-52.905-9.538-52.905-11.177s35.916-117.434,52.458-171.233c6.706-21.907,30.252-34.724,52.011-27.272.745.298,1.49.596,2.235.894c23.695,9.687,61.251,32.786,61.251,32.786Z" fill="#06152b"/></g></g></g><g><g><g><g><path d="M258.34,544.969c0,0,.15-.149.299-.447.149-.447.298-.894.596-1.49.447-1.341,1.192-3.279,2.086-5.961c1.788-5.216,4.173-12.667,7.153-22.056c5.962-18.629,13.86-44.56,22.504-73.173c4.322-14.307,8.345-28.017,12.071-40.387c1.788-6.259,3.577-12.071,5.216-17.585.894-2.832,1.639-5.365,2.384-8.048.746-2.533,1.491-5.067,2.385-7.302c1.788-4.471,4.62-7.899,7.451-10.581c2.832-2.683,5.514-4.62,7.899-6.11c2.235-1.49,4.023-2.683,5.365-3.428.596-.298,1.043-.596,1.341-.894.298-.149.447-.298.447-.298s-.149,0-.447.298c-.447.149-.894.447-1.49.745-1.342.745-3.13,1.789-5.365,3.279-2.385,1.49-5.067,3.427-8.048,5.961-2.831,2.682-5.812,6.11-7.749,10.73-1.043,2.235-1.789,4.769-2.534,7.302-.745,2.534-1.639,5.216-2.384,7.899-1.64,5.514-3.428,11.475-5.365,17.585-3.726,12.37-7.899,26.08-12.221,40.387-8.643,28.613-16.393,54.395-22.056,73.322-2.831,9.239-5.216,16.84-6.855,22.205-.745,2.533-1.49,4.62-1.937,5.961-.149.596-.298,1.192-.447,1.639-.299.149-.299.447-.299.447Z" fill="#455a64"/></g></g></g></g><g><g><g><path d="M247.163,389.533c-.298.149,2.236,4.024,4.322,9.091s2.981,9.537,3.428,9.537c.298,0-.149-4.619-2.385-9.984-2.235-5.365-5.216-8.942-5.365-8.644Z" fill="#455a64"/></g></g></g><path d="M238.668,395.493c-.149.298,3.726,1.938,7.601,5.067c4.023,3.13,6.557,6.409,6.855,6.26.298-.15-1.937-3.875-6.11-7.154s-8.346-4.471-8.346-4.173Z" fill="#455a64"/><path d="M310.798,556.146c.298.149,12.817-38.301,27.869-85.691c15.2-47.391,27.123-85.99,26.825-85.99-.298-.149-12.817,38.301-27.869,85.691-15.052,47.391-27.123,85.841-26.825,85.99Z" fill="#455a64"/><path d="M367.577,332.455l-151.562,1.491-28.166-79.88l110.132.746l25.633,71.831l43.963.596v5.216Z" fill="#99b2c6"/><path d="M251.783,300.862c-3.374,0-6.11-2.736-6.11-6.11c0-3.375,2.736-6.11,6.11-6.11c3.375,0,6.111,2.735,6.111,6.11c0,3.374-2.736,6.11-6.111,6.11Z" fill="#fff"/><path d="M379.945,116.364c-1.49-5.365-5.365-7.898-10.581-9.687-5.216-1.788-11.326-.745-15.648,2.534-2.981,2.235-5.216,5.514-8.644,6.706-5.663,1.938-12.369-2.235-17.883.298-3.279,1.491-5.067,5.514-4.322,8.942.894,3.428,4.322,6.11,7.899,5.961-3.726,1.341-4.918,6.706-2.683,9.985c2.236,3.279,6.706,4.62,10.581,3.875s7.303-3.13,10.283-5.812c2.981-2.683,5.663-5.663,8.793-8.048c3.129-2.384,7.004-4.173,11.028-4.024c5.365.298,9.985,4.322,12.369,9.091c2.385,4.769,2.981,10.283,3.279,15.648s.447,10.879,1.937,15.946c.149.596.447,1.341,1.043,1.49.895.298,1.64-.596,2.087-1.49c4.918-9.091,8.047-19.076,9.091-29.359.596-5.961.447-11.624-2.832-16.542-3.428-5.067-11.773-8.792-15.797-5.514Z" fill="#06152b"/><path d="M390.377,141.253l2.682,60.356c.447,10.283-.894,25.484-17.138,25.484-14.158-1.043-18.331-14.307-18.629-23.845-.149-4.471-.447-8.345-.447-8.792c0,0-15.35-.745-17.287-15.946-.894-7.303-1.49-22.504-1.788-36.363-.447-14.754,10.73-27.421,25.335-28.912l1.49-.149c15.946-.745,25.335,12.221,25.782,28.167Z" fill="#ffaa8c"/><path d="M356.695,194.158c0,0,9.687-.298,19.225-7.75c0,0-3.577,11.475-18.778,11.624l-.447-3.874Z" fill="#eb996e"/><path d="M343.281,151.833c.149,1.192,1.192,2.086,2.385,1.937c1.192,0,2.086-1.043,2.086-2.235-.149-1.193-1.192-2.087-2.385-1.938-1.341.149-2.235,1.044-2.086,2.236Z" fill="#263238"/><path d="M341.791,149.299c.298.298,1.788-1.193,4.173-1.342c2.384-.298,4.173.746,4.322.447.149-.149-.149-.596-1.044-1.043-.745-.447-2.086-.894-3.576-.745s-2.683.894-3.279,1.49c-.596.448-.745,1.044-.596,1.193Z" fill="#263238"/><path d="M366.232,150.193c.149,1.192,1.193,2.086,2.385,1.937c1.192,0,2.086-1.043,2.086-2.235-.149-1.192-1.192-2.086-2.384-1.937-1.342.149-2.236,1.043-2.087,2.235Z" fill="#263238"/><path d="M364.743,147.213c.298.298,1.789-1.193,4.173-1.342c2.384-.298,4.173.746,4.322.448.149-.149-.149-.597-1.043-1.044-.746-.447-2.087-.894-3.577-.745s-2.683.894-3.279,1.49c-.596.597-.745,1.044-.596,1.193Z" fill="#263238"/><path d="M358.185,165.394c0-.149-1.491-.298-3.875-.298-.596,0-1.192,0-1.341-.447s0-1.044.149-1.789c.447-1.49.894-3.129,1.341-4.769c1.788-6.706,2.98-12.22,2.682-12.22s-1.937,5.365-3.725,12.071c-.447,1.64-.895,3.279-1.193,4.769-.149.745-.447,1.491,0,2.385.149.447.746.745,1.044.745.447.149.745,0,1.043,0c2.384-.149,3.875-.298,3.875-.447Z" fill="#263238"/><path d="M365.19,166.289c-.447,0-.149,2.534-2.086,4.62-1.938,2.086-4.769,2.086-4.62,2.384c0,.149.596.447,1.788.298s2.683-.596,3.875-1.788s1.639-2.831,1.639-3.875c-.149-1.043-.447-1.639-.596-1.639Z" fill="#263238"/><path d="M363.104,138.123c.298.596,2.534,0,5.365.149c2.832,0,5.067.596,5.365,0c.149-.299-.298-.895-1.341-1.342-.894-.447-2.384-.894-4.024-.894-1.639,0-3.129.447-4.023.894-.895.447-1.342.894-1.342,1.193Z" fill="#263238"/><path d="M341.942,142.445c.447.447,2.086-.299,3.875-.448c1.937-.298,3.576,0,3.874-.596.149-.298-.149-.745-.894-1.192s-1.937-.745-3.279-.596c-1.341.149-2.384.745-2.98,1.341s-.745,1.192-.596,1.491Z" fill="#263238"/><path d="M390.228,152.579c.298-.149,10.134-4.173,10.879,6.259s-9.836,9.091-9.836,8.793c0-.447-1.043-15.052-1.043-15.052Z" fill="#ffbe9d"/><path d="M394.102,163.309c0,0,.149.149.448.298.298.149.894.149,1.341,0c1.043-.447,1.937-2.235,1.788-4.173c0-.894-.298-1.788-.745-2.533-.447-.746-.894-1.193-1.49-1.342s-.894.298-1.043.596c-.15.299,0,.448-.15.597c0,0-.298-.149-.149-.597c0-.149.149-.447.299-.745.298-.149.596-.298,1.043-.298.745,0,1.639.745,2.086,1.491.447.745.745,1.788.894,2.831.149,2.087-.894,4.173-2.235,4.62-.745.298-1.341,0-1.639-.149-.299-.298-.448-.447-.448-.596Z" fill="#eb996e"/><path d="M334.193,139.316c6.855,1.043,14.158-1.491,18.927-6.409c3.427-3.576,5.663-8.345,10.134-10.283c2.98-1.341,6.557-1.043,9.537.298c2.981,1.342,5.514,3.428,7.899,5.813-2.086,8.047.745,16.393,3.577,24.142.298.894.745,1.788,1.49,2.236c1.341.745,3.129-.149,4.024-1.342c1.49-1.937,1.937-4.62,2.086-7.004.447-5.663,0-11.475-1.937-16.84-1.789-5.365-5.067-10.283-9.538-13.86-5.663-4.322-12.966-6.11-20.119-5.216s-13.711,4.173-18.777,9.091c-2.385,2.235-4.62,4.918-5.515,8.047" fill="#06152b"/></g><g id="eM4HP15A7UG291" transform="matrix(0 0 0 0 553.117 574.605)"><path d="M540.6,477.114c-5.365-2.683-11.624-3.13-17.437-2.087-3.129.596-6.408,1.49-8.643,3.875-2.087,2.384-2.534,6.557-.149,8.644c1.49,1.192,3.576,1.341,5.514,1.341c4.62,0,9.687-.894,13.412,1.937c2.087,1.639,3.577,4.173,5.961,5.067c2.534.745,5.216-.745,6.558-2.98c1.341-2.236,1.341-5.067.745-7.452.149-.149-.596-5.663-5.961-8.345Z" fill="#03a89e"/><path d="M552.819,453.567c-3.278,4.619-9.537,3.129-12.518.298-2.98-2.832-4.173-7.005-5.365-10.88-2.533-8.941-5.216-18.33-3.279-27.421.597-2.682,1.64-5.365,3.577-7.451s4.918-3.279,7.601-2.534c3.129.895,5.216,4.024,6.557,6.856c4.173,8.792,6.408,18.33,6.408,28.017.149,4.62-.447,9.389-2.981,13.115Z" fill="#03a89e"/><path d="M561.761,460.273c-3.577-4.172-4.173-10.283-2.683-15.499c1.64-5.216,5.067-9.686,9.24-13.412c4.769-4.322,10.432-7.601,16.542-9.687c2.385-.894,4.918-1.49,7.452-1.192c2.533.298,5.067,1.49,6.259,3.726c1.788,3.278,0,7.302-1.789,10.58-3.129,5.813-6.855,11.327-10.879,16.543-3.278,4.172-7.004,8.345-11.922,10.134-4.918,1.937-10.134,1.639-12.667-1.789" fill="#03a89e"/><path d="M553.117,523.609c0,0-.149-.745-.298-2.086-.149-1.49-.298-3.428-.596-5.812-.298-2.385-.596-5.365-1.341-8.495-.596-3.129-1.789-6.557-3.13-9.985-1.341-3.427-3.129-6.557-5.067-8.941-1.937-2.534-4.322-4.322-6.408-5.365s-4.024-1.491-5.365-1.64-2.086-.298-2.086-.298.745,0,2.086,0c1.341.149,3.428.447,5.663,1.491c2.235,1.043,4.769,2.831,6.855,5.365c2.087,2.533,3.875,5.663,5.216,9.239c1.342,3.428,2.385,6.856,2.981,10.134.596,3.13.894,6.11,1.192,8.495.149,2.384.298,4.471.298,5.812s0,2.086,0,2.086Z" fill="#06152b"/><path d="M552.67,519.139c0,0,0-.298,0-1.044c0-.745,0-1.639,0-2.831c0-2.385,0-5.961-.149-10.283-.149-8.644-.894-18.033-2.384-31.147-1.342-12.369-3.13-26.825-5.067-36.214-.447-2.086-.895-4.024-1.193-5.663-.447-1.639-.745-3.13-1.043-4.322-.298-1.043-.447-1.937-.596-2.682-.149-.596-.149-.894-.149-.894s.149.298.298.894c.149.745.447,1.639.745,2.682.298,1.192.745,2.534,1.193,4.322.447,1.639.894,3.577,1.341,5.663c1.937,8.495,3.875,20.417,5.365,33.532c1.49,13.263,2.086,25.185,2.086,33.978c0,4.322,0,7.898-.149,10.283c0,1.192-.149,2.086-.149,2.831-.149.597-.149.895-.149.895Z" fill="#06152b"/><path d="M552.67,495.89c0,0,0-1.043,0-2.98.15-1.938.299-4.62.895-7.899.596-3.278,1.341-7.302,2.533-11.475.596-1.937,1.788-6.706,4.769-13.71c4.024-9.538,9.389-17.288,14.158-22.057c1.043-1.341,2.384-2.235,3.278-3.129.447-.447.895-.894,1.491-1.192.447-.299.894-.597,1.341-.895c1.49-1.043,2.384-1.639,2.533-1.639.149.149-3.427,2.384-8.047,7.153-4.62,4.918-9.836,12.519-13.86,21.908-2.235,5.067-3.725,9.686-4.918,13.561-1.192,4.173-2.086,8.197-2.682,11.475-.596,3.279-.894,5.961-1.192,7.899-.149,2.086-.299,2.98-.299,2.98Z" fill="#06152b"/><path d="M575.025,536.873l-2.384,31.743h-40.834l-2.384-31.743h45.602Z" fill="#ffd66b"/><path d="M524.503,524.354h54.395v12.519h-54.395v-12.519Z" fill="#ffd66b"/><path d="M573.072,574.605l2.395-5.961h-46.199l2.676,5.961h41.128Z" fill="#ffd66b"/><path d="M530.316,547.157c0,0,0,.149.149.298s.298.447.597.745c.596.745,1.341,1.789,2.384,2.981l.149.149c1.49-2.087,3.428-4.769,5.812-8.048h-.298c1.788,2.534,3.726,5.216,5.812,8.197l.149.298.149-.298c2.087-2.534,4.471-5.216,6.855-8.197h-.447c.149.149.298.298.447.447c2.087,2.683,4.173,5.216,6.111,7.601l.149.298.149-.298c2.086-2.981,4.023-5.663,5.812-8.197h-.298c2.831,3.279,5.216,5.961,7.153,8.048l.149.149.149-.149c.894-1.64,1.639-2.832,2.236-3.726.298-.447.447-.745.596-1.043s.149-.298.149-.298-.149.149-.298.298c-.149.298-.447.596-.596.894-.597.894-1.342,2.086-2.385,3.726h.149c-1.788-2.087-4.173-4.918-7.004-8.197l-.149-.149-.149.149c-1.789,2.534-3.726,5.216-5.812,8.048h.447c-1.938-2.385-4.024-5.067-6.11-7.601-.149-.149-.298-.298-.448-.447l-.149-.298-.149.298c-2.384,2.832-4.619,5.663-6.855,8.197h.447c-2.086-2.981-4.024-5.663-5.812-8.048l-.149-.298-.149.298c-2.235,3.279-4.322,6.11-5.663,8.197h.149c-1.043-1.192-1.937-2.236-2.533-2.981-.299-.298-.448-.596-.597-.745-.298-.149-.298-.298-.298-.298Z" fill="#030229"/><path d="M551.777,536.873c-12.593,0-22.802-.133-22.802-.298c0-.164,10.209-.298,22.802-.298s22.801.134,22.801.298c0,.165-10.208.298-22.801.298Z" fill="#455a64"/></g><g id="eM4HP15A7UG303" transform="translate(-811.560694-186.152998)"><path d="M128.835,187.897L157.15,306.524h-7.898L121.235,187.897h7.6Z" fill="#06152b"/><path d="M139.715,265.987c.447,2.236-12.965,66.914-12.965,66.914h6.408l10.134-51.266-3.577-15.648Z" fill="#06152b"/></g><g id="eM4HP15A7UG306" transform="matrix(0 0 0 0 173.245 553.761)"><g><g><g><path d="M45.2289,418.444h132.9331v140.981h-132.9331v-140.981Z" fill="#99b2c6"/></g><g><path d="M38.5228,439.01h6.5573v6.557h-6.5573v-6.557Z" fill="#06152b"/></g><g><path d="M38.5228,459.725h6.5573v6.557h-6.5573v-6.557Z" fill="#06152b"/></g><g><path d="M38.5228,480.589h6.5573v6.557h-6.5573v-6.557Z" fill="#06152b"/></g><g><path d="M38.5228,501.303h6.5573v6.557h-6.5573v-6.557Z" fill="#06152b"/></g><g><g><path d="M38.3732,482.377c0,0-.7451-.149-1.9373-.447-1.3413-.149-3.1296-.596-5.6631-.596-2.3845,0-5.365.447-8.0475,2.086-1.3413.895-2.6826,2.087-3.4277,3.726-.8942,1.639-1.1922,3.428-1.0432,5.365.1491,1.788.7451,3.577,1.6393,5.067s2.0864,2.683,3.4277,3.577c2.5335,1.937,5.365,2.682,7.7494,3.129c2.3845.298,4.3219.298,5.6631.149c1.3413-.149,2.0864-.298,2.0864-.298s-.7451,0-2.0864,0c-1.3412,0-3.2786,0-5.514-.447s-4.918-1.341-7.4514-3.129c-2.3845-1.789-4.6199-4.769-4.7689-8.197-.149-1.788.149-3.428.8941-4.918s1.9374-2.533,3.1296-3.428c2.5335-1.639,5.365-2.086,7.7495-2.235c2.3844,0,4.1728.149,5.514.298c1.3413.298,2.0864.447,2.0864.298Z" fill="#06152b"/></g></g><g><g><path d="M40.0137,461.811c0,0-.149-.149-.5961-.447-.4471-.149-1.0432-.447-1.9374-.745-1.7883-.596-4.4708-1.043-7.6004-.447-.7452.149-1.6393.447-2.3845.894s-1.4902,1.342-1.7883,2.385c-.5961,1.937.149,4.173,1.4903,5.961.7451.894,1.6393,1.639,2.6825,2.086s2.5334.447,3.5766-.149s2.0864-1.788,2.0864-3.129c0-1.342-.8941-2.683-2.0864-3.279s-2.5334-.596-3.8747-.447c-1.1922.298-2.3844.894-3.2786,1.639-1.9374,1.491-3.1296,3.726-3.2786,5.961-.2981,2.236.5961,4.322,1.6393,5.962c1.1922,1.639,2.6825,2.682,4.0238,3.427c2.9805,1.49,5.663,1.788,7.4514,1.938.8941,0,1.6393.149,2.0864.149s.7451,0,.7451,0-1.0432-.149-2.8315-.299c-1.7884-.298-4.3219-.596-7.1534-2.086-1.3413-.745-2.8316-1.788-3.8747-3.279-1.0432-1.49-1.7884-3.427-1.4903-5.514.298-2.086,1.3412-4.023,3.1296-5.365.8941-.745,1.9373-1.192,2.9805-1.49s2.2355-.149,3.2787.298s1.6393,1.49,1.6393,2.534c0,1.043-.7452,1.937-1.6393,2.533s-2.0864.596-2.9806.149c-1.0432-.298-1.7883-1.043-2.3845-1.788-1.3412-1.49-1.9373-3.577-1.4902-5.365.4471-1.789,2.0864-2.683,3.7257-2.981c3.1296-.745,5.663-.298,7.4514.149c1.7883.298,2.6825.894,2.6825.745Z" fill="#06152b"/></g></g><g><g><path d="M39.8643,441.543c0,0-.4471-.149-1.4903-.298-.8942,0-2.3845,0-4.0238.596s-3.4276,1.64-4.9179,3.279c-1.4903,1.788-2.5335,4.173-2.5335,6.855-.149,2.683.7451,5.216,2.0864,7.004c1.3412,1.789,3.1296,2.981,4.7689,3.577s2.9806.745,3.8747.745c.8942,0,1.4903-.149,1.4903-.149c0-.149-2.2354.298-5.216-1.192-1.4903-.745-3.1296-1.788-4.3218-3.577-1.3413-1.788-2.0864-4.023-1.9374-6.557.1491-2.533,1.0432-4.769,2.3845-6.408c1.3412-1.639,3.1296-2.683,4.6199-3.279c3.1296-.894,5.216-.447,5.216-.596Z" fill="#06152b"/></g></g><g><g><path d="M138.669,343.632c0,0-.596.894-1.192,2.682-.596,1.789-1.193,4.471-1.789,8.048s-1.043,7.898-1.49,12.816c-.447,5.067-.894,10.73-1.639,17.139-.149,1.639-.447,3.129-.745,4.768-.298,1.64-.746,3.279-1.491,4.769-.745,1.491-1.937,2.832-3.278,4.024s-2.683,2.385-4.322,3.279c-3.13,1.937-6.855,3.278-10.73,3.725s-8.048-.149-11.773-2.086c-3.726-1.788-6.7066-5.365-7.6008-9.538-.447-2.086-.298-4.322.4471-6.408s2.2355-3.726,4.1728-4.918c1.7884-1.192,4.0239-1.937,6.2589-2.086c2.236-.149,4.62.447,6.409,1.937.894.745,1.639,1.49,2.086,2.534.447,1.043.596,2.086.447,3.278-.447,2.236-2.086,4.173-4.173,5.216-2.086,1.192-4.471,1.639-6.855,1.937-2.3846.299-4.769.448-7.0045.448-4.7689.149-9.3887-.299-13.8596-.746-9.0907-1.043-17.8833-2.533-26.2289-2.533-8.3456-.149-16.5421,1.043-23.3974,4.471-3.4277,1.639-6.4083,3.875-8.6437,6.557-2.3844,2.683-3.8747,5.812-4.4708,8.942-1.3413,6.408.149,12.369,2.5335,16.84c2.5334,4.471,5.9611,7.451,8.7926,9.389c2.9806,1.937,5.514,3.129,7.3024,3.725c1.7883.597,2.6825.895,2.6825.895s-.298-.149-.7451-.298c-.4471-.15-1.1923-.448-1.9374-.746-1.7884-.745-4.3218-1.788-7.1533-3.874-2.8316-2.087-6.2593-5.067-8.6437-9.389s-3.7257-10.283-2.3844-16.393c.7451-2.981,2.0864-6.11,4.4708-8.644c2.2354-2.533,5.216-4.769,8.4946-6.259c6.7063-3.279,14.7538-4.471,23.0994-4.322s17.1382,1.639,26.2289,2.534c4.6199.447,9.2398.894,14.0087.745c2.3844,0,4.7689-.149,7.1534-.447c2.384-.298,4.918-.746,7.004-1.938c2.236-1.192,4.024-3.278,4.471-5.812.298-1.192,0-2.533-.447-3.726-.596-1.192-1.341-2.086-2.384-2.831-1.938-1.49-4.471-2.086-6.856-2.086-2.384.149-4.7686.894-6.706,2.235s-3.5767,3.13-4.4708,5.365c-.8942,2.235-.8942,4.62-.4471,6.706c1.0432,4.471,4.1728,8.048,8.0475,9.985c3.8744,1.938,8.1964,2.534,12.0714,2.087c4.024-.448,7.749-1.789,11.028-3.726c1.639-1.043,3.13-2.087,4.322-3.428c1.341-1.341,2.533-2.533,3.427-4.173.746-1.639,1.193-3.278,1.491-4.918.298-1.639.596-3.278.745-4.768.745-6.26,1.192-12.072,1.639-17.139s.894-9.388,1.341-12.816c.448-3.577,1.044-6.259,1.64-8.048.298-.894.447-1.639.745-1.937.149-.894.298-1.043.298-1.043Z" fill="#06152b"/></g></g></g><g><g><path d="M52.6813,553.463c0,0,0-.149,0-.596s0-1.043,0-1.788c0-1.639,0-3.875,0-7.004c0-6.111,0-15.052.149-26.378c0-22.653.149-54.992.149-93.739l-.298.298c35.1706,0,76.3027,0,120.2657,0l-.447-.447c0,47.689,0,92.099,0,129.505l.298-.298c-36.065,0-66.019.149-87.0325.149-10.581,0-18.7775,0-24.4406.149-2.8315,0-4.9179,0-6.4082,0-1.4903.149-2.2354.149-2.2354.149s.7451,0,2.2354,0s3.5767,0,6.4082,0c5.6631,0,13.8596,0,24.2916.149c21.0125,0,51.1165.149,87.3305.149h.298v-.298c0-37.406,0-81.965,0-129.505v-.447h-.447c-43.814,0-84.946,0-120.2657,0h-.2981v.298c0,38.747.149,71.235.149,93.888c0,11.326,0,20.267.1491,26.378c0,2.98,0,5.365,0,6.855c0,.745,0,1.341,0,1.788.149.596.149.745.149.745Z" fill="#06152b"/></g></g></g><g><g><path d="M87.106,440.502c-.3292,0-.5961-.267-.5961-.596c0-.33.2669-.596.5961-.596.3293,0,.5961.266.5961.596c0,.329-.2668.596-.5961.596Z" fill="#263238"/></g><g><path d="M83.8277,440.501c-.3292,0-.5961-.267-.5961-.596c0-.33.2669-.596.5961-.596s.5961.266.5961.596c0,.329-.2669.596-.5961.596Z" fill="#263238"/></g><g><path d="M80.399,440.501c-.3292,0-.5961-.267-.5961-.596c0-.33.2669-.596.5961-.596s.5961.266.5961.596c0,.329-.2669.596-.5961.596Z" fill="#263238"/></g><g><path d="M76.8785,440.591c-.3292,0-.5961-.267-.5961-.596c0-.33.2669-.597.5961-.597s.5961.267.5961.597c0,.329-.2669.596-.5961.596Z" fill="#263238"/></g><g><path d="M73.4507,440.591c-.3292,0-.5961-.267-.5961-.596c0-.33.2669-.597.5961-.597s.5962.267.5962.597c0,.329-.267.596-.5962.596Z" fill="#263238"/></g><g><path d="M70.1168,440.501c-.3292,0-.5961-.267-.5961-.596c0-.33.2669-.596.5961-.596s.5961.266.5961.596c0,.329-.2669.596-.5961.596Z" fill="#263238"/></g><g><path d="M66.8394,440.501c-.3292,0-.5961-.267-.5961-.596c0-.33.2669-.596.5961-.596s.5961.266.5961.596c0,.329-.2669.596-.5961.596Z" fill="#263238"/></g><g><path d="M68.3296,442.886c-.3292,0-.5961-.267-.5961-.597c0-.329.2669-.596.5961-.596.3293,0,.5962.267.5962.596c0,.33-.2669.597-.5962.597Z" fill="#263238"/></g><g><path d="M71.6627,442.975c-.3292,0-.5961-.266-.5961-.596c0-.329.2669-.596.5961-.596s.5961.267.5961.596c0,.33-.2669.596-.5961.596Z" fill="#263238"/></g><g><path d="M75.2379,442.975c-.3292,0-.5961-.266-.5961-.596c0-.329.2669-.596.5961-.596s.5961.267.5961.596c0,.33-.2669.596-.5961.596Z" fill="#263238"/></g><g><path d="M78.6665,442.975c-.3292,0-.5961-.266-.5961-.596c0-.329.2669-.596.5961-.596.3293,0,.5962.267.5962.596c0,.33-.2669.596-.5962.596Z" fill="#263238"/></g><g><path d="M82.1891,442.886c-.3293,0-.5962-.267-.5962-.597c0-.329.2669-.596.5962-.596s.5961.267.5961.596c0,.33-.2669.597-.5961.597Z" fill="#263238"/></g><g><path d="M85.7652,442.886c-.3292,0-.5961-.267-.5961-.597c0-.329.2669-.596.5961-.596s.5961.267.5961.596c0,.33-.2669.597-.5961.597Z" fill="#263238"/></g><g><path d="M87.106,445.419c-.3292,0-.5961-.267-.5961-.596c0-.33.2669-.596.5961-.596.3293,0,.5961.266.5961.596c0,.329-.2668.596-.5961.596Z" fill="#263238"/></g><g><path d="M83.8277,445.419c-.3292,0-.5961-.267-.5961-.596c0-.33.2669-.596.5961-.596s.5961.266.5961.596c0,.329-.2669.596-.5961.596Z" fill="#263238"/></g><g><path d="M80.399,445.419c-.3292,0-.5961-.267-.5961-.596c0-.33.2669-.596.5961-.596s.5961.266.5961.596c0,.329-.2669.596-.5961.596Z" fill="#263238"/></g><g><path d="M76.8785,445.509c-.3292,0-.5961-.267-.5961-.596c0-.33.2669-.597.5961-.597s.5961.267.5961.597c0,.329-.2669.596-.5961.596Z" fill="#263238"/></g><g><path d="M73.4507,445.509c-.3292,0-.5961-.267-.5961-.596c0-.33.2669-.597.5961-.597s.5962.267.5962.597c0,.329-.267.596-.5962.596Z" fill="#263238"/></g><g><path d="M70.1168,445.419c-.3292,0-.5961-.267-.5961-.596c0-.33.2669-.596.5961-.596s.5961.266.5961.596c0,.329-.2669.596-.5961.596Z" fill="#263238"/></g><g><path d="M66.8394,445.419c-.3292,0-.5961-.267-.5961-.596c0-.33.2669-.596.5961-.596s.5961.266.5961.596c0,.329-.2669.596-.5961.596Z" fill="#263238"/></g><g><path d="M68.3296,447.653c-.3292,0-.5961-.267-.5961-.596s.2669-.596.5961-.596c.3293,0,.5962.267.5962.596s-.2669.596-.5962.596Z" fill="#263238"/></g><g><path d="M71.6627,447.744c-.3292,0-.5961-.267-.5961-.596s.2669-.596.5961-.596.5961.267.5961.596-.2669.596-.5961.596Z" fill="#263238"/></g><g><path d="M75.2379,447.744c-.3292,0-.5961-.267-.5961-.596s.2669-.596.5961-.596.5961.267.5961.596-.2669.596-.5961.596Z" fill="#263238"/></g><g><path d="M78.6665,447.744c-.3292,0-.5961-.267-.5961-.596s.2669-.596.5961-.596c.3293,0,.5962.267.5962.596s-.2669.596-.5962.596Z" fill="#263238"/></g><g><path d="M82.1891,447.653c-.3293,0-.5962-.267-.5962-.596s.2669-.596.5962-.596.5961.267.5961.596-.2669.596-.5961.596Z" fill="#263238"/></g><g><path d="M85.7652,447.653c-.3292,0-.5961-.267-.5961-.596s.2669-.596.5961-.596.5961.267.5961.596-.2669.596-.5961.596Z" fill="#263238"/></g><g><path d="M87.106,450.337c-.3292,0-.5961-.267-.5961-.596c0-.33.2669-.596.5961-.596.3293,0,.5961.266.5961.596c0,.329-.2668.596-.5961.596Z" fill="#263238"/></g><g><path d="M83.8277,450.337c-.3292,0-.5961-.267-.5961-.596c0-.33.2669-.596.5961-.596s.5961.266.5961.596c0,.329-.2669.596-.5961.596Z" fill="#263238"/></g><g><path d="M80.399,450.337c-.3292,0-.5961-.267-.5961-.596c0-.33.2669-.596.5961-.596s.5961.266.5961.596c0,.329-.2669.596-.5961.596Z" fill="#263238"/></g><g><path d="M76.8785,450.428c-.3292,0-.5961-.267-.5961-.597c0-.329.2669-.596.5961-.596s.5961.267.5961.596c0,.33-.2669.597-.5961.597Z" fill="#263238"/></g><g><path d="M73.4507,450.428c-.3292,0-.5961-.267-.5961-.597c0-.329.2669-.596.5961-.596s.5962.267.5962.596c0,.33-.267.597-.5962.597Z" fill="#263238"/></g><g><path d="M70.1168,450.337c-.3292,0-.5961-.267-.5961-.596c0-.33.2669-.596.5961-.596s.5961.266.5961.596c0,.329-.2669.596-.5961.596Z" fill="#263238"/></g><g><path d="M66.8394,450.337c-.3292,0-.5961-.267-.5961-.596c0-.33.2669-.596.5961-.596s.5961.266.5961.596c0,.329-.2669.596-.5961.596Z" fill="#263238"/></g><g><path d="M68.3296,452.572c-.3292,0-.5961-.267-.5961-.596s.2669-.596.5961-.596c.3293,0,.5962.267.5962.596s-.2669.596-.5962.596Z" fill="#263238"/></g><g><path d="M71.6627,452.663c-.3292,0-.5961-.267-.5961-.596s.2669-.596.5961-.596.5961.267.5961.596-.2669.596-.5961.596Z" fill="#263238"/></g><g><path d="M75.2379,452.663c-.3292,0-.5961-.267-.5961-.596s.2669-.596.5961-.596.5961.267.5961.596-.2669.596-.5961.596Z" fill="#263238"/></g><g><path d="M78.6665,452.663c-.3292,0-.5961-.267-.5961-.596s.2669-.596.5961-.596c.3293,0,.5962.267.5962.596s-.2669.596-.5962.596Z" fill="#263238"/></g><g><path d="M82.1891,452.572c-.3293,0-.5962-.267-.5962-.596s.2669-.596.5962-.596.5961.267.5961.596-.2669.596-.5961.596Z" fill="#263238"/></g><g><path d="M85.7652,452.572c-.3292,0-.5961-.267-.5961-.596s.2669-.596.5961-.596.5961.267.5961.596-.2669.596-.5961.596Z" fill="#263238"/></g></g></g><g id="eM4HP15A7UG413" transform="matrix(0 0 0 1 334.939255 606.869422)"><path d="M571.745,332.903v14.307h-78.836v212.216h-7.302v-212.216l-329.502,1.639v210.577h-7.153v-211.024l-50.8185.447v-17.138l473.6115,1.192Z" fill="#3a36db"/><path d="M521.225,344.378l-31.147,22.354l2.831,2.683l31.296-23.696-2.98-1.341Z" fill="#ff69b4"/><path d="M119.595,346.465l36.214,25.782-2.683,2.533-36.363-26.974l2.832-1.341Z" fill="#ff69b4"/><path d="M375.475,327.687h81.518v5.961h-81.518v-5.961Z" fill="#263238"/></g></g>
<script><![CDATA[
!function(t,n){"object"==typeof exports&&"undefined"!=typeof module?module.exports=n():"function"==typeof __SVGATOR_DEFINE__&&__SVGATOR_DEFINE__.amd?__SVGATOR_DEFINE__(n):((t="undefined"!=typeof globalThis?globalThis:t||self).__SVGATOR_PLAYER__=t.__SVGATOR_PLAYER__||{},t.__SVGATOR_PLAYER__["5c7f360c"]=n())}(this,(function(){"use strict";function t(t,n){var e=Object.keys(t);if(Object.getOwnPropertySymbols){var r=Object.getOwnPropertySymbols(t);n&&(r=r.filter((function(n){return Object.getOwnPropertyDescriptor(t,n).enumerable}))),e.push.apply(e,r)}return e}function n(n){for(var e=1;e<arguments.length;e++){var r=null!=arguments[e]?arguments[e]:{};e%2?t(Object(r),!0).forEach((function(t){o(n,t,r[t])})):Object.getOwnPropertyDescriptors?Object.defineProperties(n,Object.getOwnPropertyDescriptors(r)):t(Object(r)).forEach((function(t){Object.defineProperty(n,t,Object.getOwnPropertyDescriptor(r,t))}))}return n}function e(t){return(e="function"==typeof Symbol&&"symbol"==typeof Symbol.iterator?function(t){return typeof t}:function(t){return t&&"function"==typeof Symbol&&t.constructor===Symbol&&t!==Symbol.prototype?"symbol":typeof t})(t)}function r(t,n){if(!(t instanceof n))throw new TypeError("Cannot call a class as a function")}function i(t,n){for(var e=0;e<n.length;e++){var r=n[e];r.enumerable=r.enumerable||!1,r.configurable=!0,"value"in r&&(r.writable=!0),Object.defineProperty(t,r.key,r)}}function u(t,n,e){return n&&i(t.prototype,n),e&&i(t,e),t}function o(t,n,e){return n in t?Object.defineProperty(t,n,{value:e,enumerable:!0,configurable:!0,writable:!0}):t[n]=e,t}function a(t){return(a=Object.setPrototypeOf?Object.getPrototypeOf:function(t){return t.__proto__||Object.getPrototypeOf(t)})(t)}function l(t,n){return(l=Object.setPrototypeOf||function(t,n){return t.__proto__=n,t})(t,n)}function s(){if("undefined"==typeof Reflect||!Reflect.construct)return!1;if(Reflect.construct.sham)return!1;if("function"==typeof Proxy)return!0;try{return Boolean.prototype.valueOf.call(Reflect.construct(Boolean,[],(function(){}))),!0}catch(t){return!1}}function f(t,n,e){return(f=s()?Reflect.construct:function(t,n,e){var r=[null];r.push.apply(r,n);var i=new(Function.bind.apply(t,r));return e&&l(i,e.prototype),i}).apply(null,arguments)}function c(t,n){if(n&&("object"==typeof n||"function"==typeof n))return n;if(void 0!==n)throw new TypeError("Derived constructors may only return object or undefined");return function(t){if(void 0===t)throw new ReferenceError("this hasn't been initialised - super() hasn't been called");return t}(t)}function h(t,n,e){return(h="undefined"!=typeof Reflect&&Reflect.get?Reflect.get:function(t,n,e){var r=function(t,n){for(;!Object.prototype.hasOwnProperty.call(t,n)&&null!==(t=a(t)););return t}(t,n);if(r){var i=Object.getOwnPropertyDescriptor(r,n);return i.get?i.get.call(e):i.value}})(t,n,e||t)}function v(t){return function(t){if(Array.isArray(t))return y(t)}(t)||function(t){if("undefined"!=typeof Symbol&&null!=t[Symbol.iterator]||null!=t["@@iterator"])return Array.from(t)}(t)||function(t,n){if(!t)return;if("string"==typeof t)return y(t,n);var e=Object.prototype.toString.call(t).slice(8,-1);"Object"===e&&t.constructor&&(e=t.constructor.name);if("Map"===e||"Set"===e)return Array.from(t);if("Arguments"===e||/^(?:Ui|I)nt(?:8|16|32)(?:Clamped)?Array$/.test(e))return y(t,n)}(t)||function(){throw new TypeError("Invalid attempt to spread non-iterable instance.\nIn order to be iterable, non-array objects must have a [Symbol.iterator]() method.")}()}function y(t,n){(null==n||n>t.length)&&(n=t.length);for(var e=0,r=new Array(n);e<n;e++)r[e]=t[e];return r}Number.isInteger||(Number.isInteger=function(t){return"number"==typeof t&&isFinite(t)&&Math.floor(t)===t}),Number.EPSILON||(Number.EPSILON=2220446049250313e-31);var g=d(Math.pow(10,-6));function d(t){var n=arguments.length>1&&void 0!==arguments[1]?arguments[1]:6;if(Number.isInteger(t))return t;var e=Math.pow(10,n);return Math.round((+t+Number.EPSILON)*e)/e}function p(t,n){var e=arguments.length>2&&void 0!==arguments[2]?arguments[2]:g;return Math.abs(t-n)<e}var m=Math.PI/180;function b(t){return t}function w(t,n,e){var r=1-e;return 3*e*r*(t*r+n*e)+e*e*e}function A(){var t=arguments.length>0&&void 0!==arguments[0]?arguments[0]:0,n=arguments.length>1&&void 0!==arguments[1]?arguments[1]:0,e=arguments.length>2&&void 0!==arguments[2]?arguments[2]:1,r=arguments.length>3&&void 0!==arguments[3]?arguments[3]:1;return t<0||t>1||e<0||e>1?null:p(t,n)&&p(e,r)?b:function(i){if(i<=0)return t>0?i*n/t:0===n&&e>0?i*r/e:0;if(i>=1)return e<1?1+(i-1)*(r-1)/(e-1):1===e&&t<1?1+(i-1)*(n-1)/(t-1):1;for(var u,o=0,a=1;o<a;){var l=w(t,e,u=(o+a)/2);if(p(i,l))break;l<i?o=u:a=u}return w(n,r,u)}}function _(){return 1}function x(t){return 1===t?1:0}function k(){var t=arguments.length>0&&void 0!==arguments[0]?arguments[0]:1,n=arguments.length>1&&void 0!==arguments[1]?arguments[1]:0;if(1===t){if(0===n)return x;if(1===n)return _}var e=1/t;return function(t){return t>=1?1:(t+=n*e)-t%e}}var S=Math.sin,O=Math.cos,j=Math.acos,E=Math.asin,M=Math.tan,P=Math.atan2,I=Math.PI/180,R=180/Math.PI,F=Math.sqrt,N=function(){function t(){var n=arguments.length>0&&void 0!==arguments[0]?arguments[0]:1,e=arguments.length>1&&void 0!==arguments[1]?arguments[1]:0,i=arguments.length>2&&void 0!==arguments[2]?arguments[2]:0,u=arguments.length>3&&void 0!==arguments[3]?arguments[3]:1,o=arguments.length>4&&void 0!==arguments[4]?arguments[4]:0,a=arguments.length>5&&void 0!==arguments[5]?arguments[5]:0;r(this,t),this.m=[n,e,i,u,o,a],this.i=null,this.w=null,this.s=null}return u(t,[{key:"determinant",get:function(){var t=this.m;return t[0]*t[3]-t[1]*t[2]}},{key:"isIdentity",get:function(){if(null===this.i){var t=this.m;this.i=1===t[0]&&0===t[1]&&0===t[2]&&1===t[3]&&0===t[4]&&0===t[5]}return this.i}},{key:"point",value:function(t,n){var e=this.m;return{x:e[0]*t+e[2]*n+e[4],y:e[1]*t+e[3]*n+e[5]}}},{key:"translateSelf",value:function(){var t=arguments.length>0&&void 0!==arguments[0]?arguments[0]:0,n=arguments.length>1&&void 0!==arguments[1]?arguments[1]:0;if(!t&&!n)return this;var e=this.m;return e[4]+=e[0]*t+e[2]*n,e[5]+=e[1]*t+e[3]*n,this.w=this.s=this.i=null,this}},{key:"rotateSelf",value:function(){var t=arguments.length>0&&void 0!==arguments[0]?arguments[0]:0;if(t%=360){var n=S(t*=I),e=O(t),r=this.m,i=r[0],u=r[1];r[0]=i*e+r[2]*n,r[1]=u*e+r[3]*n,r[2]=r[2]*e-i*n,r[3]=r[3]*e-u*n,this.w=this.s=this.i=null}return this}},{key:"scaleSelf",value:function(){var t=arguments.length>0&&void 0!==arguments[0]?arguments[0]:1,n=arguments.length>1&&void 0!==arguments[1]?arguments[1]:1;if(1!==t||1!==n){var e=this.m;e[0]*=t,e[1]*=t,e[2]*=n,e[3]*=n,this.w=this.s=this.i=null}return this}},{key:"skewSelf",value:function(t,n){if(n%=360,(t%=360)||n){var e=this.m,r=e[0],i=e[1],u=e[2],o=e[3];t&&(t=M(t*I),e[2]+=r*t,e[3]+=i*t),n&&(n=M(n*I),e[0]+=u*n,e[1]+=o*n),this.w=this.s=this.i=null}return this}},{key:"resetSelf",value:function(){var t=arguments.length>0&&void 0!==arguments[0]?arguments[0]:1,n=arguments.length>1&&void 0!==arguments[1]?arguments[1]:0,e=arguments.length>2&&void 0!==arguments[2]?arguments[2]:0,r=arguments.length>3&&void 0!==arguments[3]?arguments[3]:1,i=arguments.length>4&&void 0!==arguments[4]?arguments[4]:0,u=arguments.length>5&&void 0!==arguments[5]?arguments[5]:0,o=this.m;return o[0]=t,o[1]=n,o[2]=e,o[3]=r,o[4]=i,o[5]=u,this.w=this.s=this.i=null,this}},{key:"recomposeSelf",value:function(){var t=arguments.length>0&&void 0!==arguments[0]?arguments[0]:null,n=arguments.length>1&&void 0!==arguments[1]?arguments[1]:null,e=arguments.length>2&&void 0!==arguments[2]?arguments[2]:null,r=arguments.length>3&&void 0!==arguments[3]?arguments[3]:null,i=arguments.length>4&&void 0!==arguments[4]?arguments[4]:null;return this.isIdentity||this.resetSelf(),t&&(t.x||t.y)&&this.translateSelf(t.x,t.y),n&&this.rotateSelf(n),e&&(e.x&&this.skewSelf(e.x,0),e.y&&this.skewSelf(0,e.y)),!r||1===r.x&&1===r.y||this.scaleSelf(r.x,r.y),i&&(i.x||i.y)&&this.translateSelf(i.x,i.y),this}},{key:"decompose",value:function(){var t=arguments.length>0&&void 0!==arguments[0]?arguments[0]:0,n=arguments.length>1&&void 0!==arguments[1]?arguments[1]:0,e=this.m,r=e[0]*e[0]+e[1]*e[1],i=[[e[0],e[1]],[e[2],e[3]]],u=F(r);if(0===u)return{origin:{x:d(e[4]),y:d(e[5])},translate:{x:d(t),y:d(n)},scale:{x:0,y:0},skew:{x:0,y:0},rotate:0};i[0][0]/=u,i[0][1]/=u;var o=e[0]*e[3]-e[1]*e[2]<0;o&&(u=-u);var a=i[0][0]*i[1][0]+i[0][1]*i[1][1];i[1][0]-=i[0][0]*a,i[1][1]-=i[0][1]*a;var l=F(i[1][0]*i[1][0]+i[1][1]*i[1][1]);if(0===l)return{origin:{x:d(e[4]),y:d(e[5])},translate:{x:d(t),y:d(n)},scale:{x:d(u),y:0},skew:{x:0,y:0},rotate:0};i[1][0]/=l,i[1][1]/=l,a/=l;var s=0;return i[1][1]<0?(s=j(i[1][1])*R,i[0][1]<0&&(s=360-s)):s=E(i[0][1])*R,o&&(s=-s),a=P(a,F(i[0][0]*i[0][0]+i[0][1]*i[0][1]))*R,o&&(a=-a),{origin:{x:d(e[4]),y:d(e[5])},translate:{x:d(t),y:d(n)},scale:{x:d(u),y:d(l)},skew:{x:d(a),y:0},rotate:d(s)}}},{key:"clone",value:function(){var t=this.m;return new this.constructor(t[0],t[1],t[2],t[3],t[4],t[5])}},{key:"toString",value:function(){var t=arguments.length>0&&void 0!==arguments[0]?arguments[0]:" ";if(null===this.s){var n=this.m.map((function(t){return d(t)}));1===n[0]&&0===n[1]&&0===n[2]&&1===n[3]?this.s="translate("+n[4]+t+n[5]+")":this.s="matrix("+n.join(t)+")"}return this.s}}],[{key:"create",value:function(t){return t?Array.isArray(t)?f(this,v(t)):t instanceof this?t.clone():(new this).recomposeSelf(t.origin,t.rotate,t.skew,t.scale,t.translate):new this}}]),t}();function T(t,n,e){return t>=.5?e:n}function B(t,n,e){return 0===t||n===e?n:t*(e-n)+n}function q(t,n,e){var r=B(t,n,e);return r<=0?0:r}function D(t,n,e){var r=B(t,n,e);return r<=0?0:r>=1?1:r}function L(t,n,e){return 0===t?n:1===t?e:{x:B(t,n.x,e.x),y:B(t,n.y,e.y)}}function C(t,n,e){var r=function(t,n,e){return Math.round(B(t,n,e))}(t,n,e);return r<=0?0:r>=255?255:r}function V(t,n,e){return 0===t?n:1===t?e:{r:C(t,n.r,e.r),g:C(t,n.g,e.g),b:C(t,n.b,e.b),a:B(t,null==n.a?1:n.a,null==e.a?1:e.a)}}function G(t,n){for(var e=[],r=0;r<t;r++)e.push(n);return e}function z(t,n){if(--n<=0)return t;var e=(t=Object.assign([],t)).length;do{for(var r=0;r<e;r++)t.push(t[r])}while(--n>0);return t}var Y,$=function(){function t(n){r(this,t),this.list=n,this.length=n.length}return u(t,[{key:"setAttribute",value:function(t,n){for(var e=this.list,r=0;r<this.length;r++)e[r].setAttribute(t,n)}},{key:"removeAttribute",value:function(t){for(var n=this.list,e=0;e<this.length;e++)n[e].removeAttribute(t)}},{key:"style",value:function(t,n){for(var e=this.list,r=0;r<this.length;r++)e[r].style[t]=n}}]),t}(),U=/-./g,Q=function(t,n){return n.toUpperCase()};function H(t){return"function"==typeof t?t:T}function J(t){return t?"function"==typeof t?t:Array.isArray(t)?function(t){var n=arguments.length>1&&void 0!==arguments[1]?arguments[1]:b;if(!Array.isArray(t))return n;switch(t.length){case 1:return k(t[0])||n;case 2:return k(t[0],t[1])||n;case 4:return A(t[0],t[1],t[2],t[3])||n}return n}(t,null):function(t,n){var e=arguments.length>2&&void 0!==arguments[2]?arguments[2]:b;switch(t){case"linear":return b;case"steps":return k(n.steps||1,n.jump||0)||e;case"bezier":case"cubic-bezier":return A(n.x1||0,n.y1||0,n.x2||0,n.y2||0)||e}return e}(t.type,t.value,null):null}function Z(t,n,e){var r=arguments.length>3&&void 0!==arguments[3]&&arguments[3],i=n.length-1;if(t<=n[0].t)return r?[0,0,n[0].v]:n[0].v;if(t>=n[i].t)return r?[i,1,n[i].v]:n[i].v;var u,o=n[0],a=null;for(u=1;u<=i;u++){if(!(t>n[u].t)){a=n[u];break}o=n[u]}return null==a?r?[i,1,n[i].v]:n[i].v:o.t===a.t?r?[u,1,a.v]:a.v:(t=(t-o.t)/(a.t-o.t),o.e&&(t=o.e(t)),r?[u,t,e(t,o.v,a.v)]:e(t,o.v,a.v))}function K(t,n){var e=arguments.length>2&&void 0!==arguments[2]?arguments[2]:null;return t&&t.length?"function"!=typeof n?null:("function"!=typeof e&&(e=null),function(r){var i=Z(r,t,n);return null!=i&&e&&(i=e(i)),i}):null}function W(t,n){return t.t-n.t}function X(t,n,r,i,u){var o,a="@"===r[0],l="#"===r[0],s=Y[r],f=T;switch(a?(o=r.substr(1),r=o.replace(U,Q)):l&&(r=r.substr(1)),e(s)){case"function":if(f=s(i,u,Z,J,r,a,n,t),l)return f;break;case"string":f=K(i,H(s));break;case"object":if((f=K(i,H(s.i),s.f))&&"function"==typeof s.u)return s.u(n,f,r,a,t)}return f?function(t,n,e){if(arguments.length>3&&void 0!==arguments[3]&&arguments[3])return t instanceof $?function(r){return t.style(n,e(r))}:function(r){return t.style[n]=e(r)};if(Array.isArray(n)){var r=n.length;return function(i){var u=e(i);if(null==u)for(var o=0;o<r;o++)t[o].removeAttribute(n);else for(var a=0;a<r;a++)t[a].setAttribute(n,u)}}return function(r){var i=e(r);null==i?t.removeAttribute(n):t.setAttribute(n,i)}}(n,r,f,a):null}function tt(t,n,r,i){if(!i||"object"!==e(i))return null;var u=null,o=null;return Array.isArray(i)?o=function(t){if(!t||!t.length)return null;for(var n=0;n<t.length;n++)t[n].e&&(t[n].e=J(t[n].e));return t.sort(W)}(i):(o=i.keys,u=i.data||null),o?X(t,n,r,o,u):null}function nt(t,n,e){if(!e)return null;var r=[];for(var i in e)if(e.hasOwnProperty(i)){var u=tt(t,n,i,e[i]);u&&r.push(u)}return r.length?r:null}function et(t,n){if(!n.settings.duration||n.settings.duration<0)return null;var e,r,i,u,o,a=function(t,n){if(!n)return null;var e=[];if(Array.isArray(n))for(var r=n.length,i=0;i<r;i++){var u=n[i];if(2===u.length){var o=null;if("string"==typeof u[0])o=t.getElementById(u[0]);else if(Array.isArray(u[0])){o=[];for(var a=0;a<u[0].length;a++)if("string"==typeof u[0][a]){var l=t.getElementById(u[0][a]);l&&o.push(l)}o=o.length?1===o.length?o[0]:new $(o):null}if(o){var s=nt(t,o,u[1]);s&&(e=e.concat(s))}}}else for(var f in n)if(n.hasOwnProperty(f)){var c=t.getElementById(f);if(c){var h=nt(t,c,n[f]);h&&(e=e.concat(h))}}return e.length?e:null}(t,n.elements);return a?(e=a,r=n.settings,i=r.duration,u=e.length,o=null,function(t,n){var a=r.iterations||1/0,l=(r.alternate&&a%2==0)^r.direction>0?i:0,s=t%i,f=1+(t-s)/i;n*=r.direction,r.alternate&&f%2==0&&(n=-n);var c=!1;if(f>a)s=l,c=!0,-1===r.fill&&(s=r.direction>0?0:i);else if(n<0&&(s=i-s),s===o)return!1;o=s;for(var h=0;h<u;h++)e[h](s);return c}):null}function rt(t,n){if(Y=n,!t||!t.root||!Array.isArray(t.animations))return null;var e=function(t){for(var n=document.getElementsByTagName("svg"),e=0;e<n.length;e++)if(n[e].id===t.root&&!n[e].svgatorAnimation)return n[e].svgatorAnimation=!0,n[e];return null}(t);if(!e)return null;var r=t.animations.map((function(t){return et(e,t)})).filter((function(t){return!!t}));return r.length?{svg:e,animations:r,animationSettings:t.animationSettings,options:t.options||void 0}:null}function it(t){var n=arguments.length>1&&void 0!==arguments[1]?arguments[1]:null,e=arguments.length>2&&void 0!==arguments[2]?arguments[2]:Number,r=arguments.length>3&&void 0!==arguments[3]?arguments[3]:"undefined"!=typeof BigInt&&BigInt,i="0x"+(t.replace(/[^0-9a-fA-F]+/g,"")||27);return n&&r&&e.isSafeInteger&&!e.isSafeInteger(+i)?e(r(i))%n+n:+i}function ut(t,n,e){return!t||!e||n>t.length?t:t.substring(0,n)+ut(t.substring(n+1),e,e)}function ot(t){var n=arguments.length>1&&void 0!==arguments[1]?arguments[1]:27;return!t||t%n?t%n:[0,1].includes(n)?n:ot(t/n,n)}function at(t,n,e){if(t&&t.length){var r=it(e),i=ot(r)+5,u=ut(t,ot(r,5),i);return u=u.replace(/\x7c$/g,"==").replace(/\x2f$/g,"="),u=function(t,n,e){var r=+("0x"+t.substring(0,4));t=t.substring(4);for(var i=it(n,r)%r+e%27,u=[],o=0;o<t.length;o+=2)if("|"!==t[o]){var a=+("0x"+t[o]+t[o+1])-i;u.push(a)}else{var l=+("0x"+t.substring(o+1,o+1+4))-i;o+=3,u.push(l)}return String.fromCharCode.apply(String,u)}(u=(u=atob(u)).replace(/[\x41-\x5A]/g,""),n,r),u=JSON.parse(u)}}var lt=[{key:"alternate",def:!1},{key:"fill",def:1},{key:"iterations",def:0},{key:"direction",def:1},{key:"speed",def:1},{key:"fps",def:100}],st=function(){function t(n,e){var i=this,u=arguments.length>2&&void 0!==arguments[2]?arguments[2]:null;r(this,t),this._id=0,this._running=!1,this._rollingBack=!1,this._animations=n,this._settings=e,(!u||u<"2022-05-02")&&delete this._settings.speed,lt.forEach((function(t){i._settings[t.key]=i._settings[t.key]||t.def})),this.duration=e.duration,this.offset=e.offset||0,this.rollbackStartOffset=0}return u(t,[{key:"alternate",get:function(){return this._settings.alternate}},{key:"fill",get:function(){return this._settings.fill}},{key:"iterations",get:function(){return this._settings.iterations}},{key:"direction",get:function(){return this._settings.direction}},{key:"speed",get:function(){return this._settings.speed}},{key:"fps",get:function(){return this._settings.fps}},{key:"maxFiniteDuration",get:function(){return this.iterations>0?this.iterations*this.duration:this.duration}},{key:"_apply",value:function(t){for(var n=arguments.length>1&&void 0!==arguments[1]?arguments[1]:{},e=this._animations,r=e.length,i=0,u=0;u<r;u++)n[u]?i++:(n[u]=e[u](t,1),n[u]&&i++);return i}},{key:"_rollback",value:function(t){var n=this,e=1/0,r=null;this.rollbackStartOffset=t,this._rollingBack=!0,this._running=!0;this._id=window.requestAnimationFrame((function i(u){if(n._rollingBack){null==r&&(r=u);var o=Math.round(t-(u-r)*n.speed);if(o>n.duration&&e!==1/0){var a=!!n.alternate&&o/n.duration%2>1,l=o%n.duration;o=(l+=a?n.duration:0)||n.duration}var s=(n.fps?1e3/n.fps:0)*n.speed,f=Math.max(0,o);f<=e-s&&(n.offset=f,e=f,n._apply(f));var c=n.iterations>0&&-1===n.fill&&o>=n.maxFiniteDuration;(o<=0||n.offset<o||c)&&n.stop(),n._id=window.requestAnimationFrame(i)}}))}},{key:"_start",value:function(){var t=this,n=arguments.length>0&&void 0!==arguments[0]?arguments[0]:0,e=-1/0,r=null,i={};this._running=!0;var u=function u(o){null==r&&(r=o);var a=Math.round((o-r)*t.speed+n),l=(t.fps?1e3/t.fps:0)*t.speed;if(a>=e+l&&!t._rollingBack&&(t.offset=a,e=a,t._apply(a,i)===t._animations.length))return void t.pause(!0);t._id=window.requestAnimationFrame(u)};this._id=window.requestAnimationFrame(u)}},{key:"_pause",value:function(){this._id&&window.cancelAnimationFrame(this._id),this._running=!1}},{key:"play",value:function(){if(!this._running)return this._rollingBack?this._rollback(this.offset):this._start(this.offset)}},{key:"stop",value:function(){this._pause(),this.offset=0,this.rollbackStartOffset=0,this._rollingBack=!1,this._apply(0)}},{key:"reachedToEnd",value:function(){return this.iterations>0&&this.offset>=this.iterations*this.duration}},{key:"restart",value:function(){var t=arguments.length>0&&void 0!==arguments[0]&&arguments[0];this.stop(t),this.play(t)}},{key:"pause",value:function(){this._pause()}},{key:"reverse",value:function(){this.direction=-this.direction}}],[{key:"build",value:function(t,n){delete t.animationSettings,t.options=at(t.options,t.root,"5c7f360c"),t.animations.map((function(n){n.settings=at(n.s,t.root,"5c7f360c"),delete n.s,t.animationSettings||(t.animationSettings=n.settings)}));var e=t.version;if(!(t=rt(t,n)))return null;var r=t.options||{},i=new this(t.animations,t.animationSettings,e);return{el:t.svg,options:r,player:i}}},{key:"push",value:function(t){return this.build(t)}},{key:"init",value:function(){var t=this,n=window.__SVGATOR_PLAYER__&&window.__SVGATOR_PLAYER__["5c7f360c"];Array.isArray(n)&&n.splice(0).forEach((function(n){return t.build(n)}))}}]),t}();function ft(t){return d(t)+""}function ct(t){var n=arguments.length>1&&void 0!==arguments[1]?arguments[1]:" ";return t&&t.length?t.map(ft).join(n):""}function ht(t){if(!t)return"transparent";if(null==t.a||t.a>=1){var n=function(t){return 1===(t=parseInt(t).toString(16)).length?"0"+t:t},e=function(t){return t.charAt(0)===t.charAt(1)},r=n(t.r),i=n(t.g),u=n(t.b);return e(r)&&e(i)&&e(u)&&(r=r.charAt(0),i=i.charAt(0),u=u.charAt(0)),"#"+r+i+u}return"rgba("+t.r+","+t.g+","+t.b+","+t.a+")"}function vt(t){return t?"url(#"+t+")":"none"}!function(){for(var t=0,n=["ms","moz","webkit","o"],e=0;e<n.length&&!window.requestAnimationFrame;++e)window.requestAnimationFrame=window[n[e]+"RequestAnimationFrame"],window.cancelAnimationFrame=window[n[e]+"CancelAnimationFrame"]||window[n[e]+"CancelRequestAnimationFrame"];window.requestAnimationFrame||(window.requestAnimationFrame=function(n){var e=Date.now(),r=Math.max(0,16-(e-t)),i=window.setTimeout((function(){n(e+r)}),r);return t=e+r,i},window.cancelAnimationFrame=window.clearTimeout)}();var yt={f:null,i:function(t,n,e){return 0===t?n:1===t?e:{x:q(t,n.x,e.x),y:q(t,n.y,e.y)}},u:function(t,n){return function(e){var r=n(e);t.setAttribute("rx",ft(r.x)),t.setAttribute("ry",ft(r.y))}}},gt={f:null,i:function(t,n,e){return 0===t?n:1===t?e:{width:q(t,n.width,e.width),height:q(t,n.height,e.height)}},u:function(t,n){return function(e){var r=n(e);t.setAttribute("width",ft(r.width)),t.setAttribute("height",ft(r.height))}}};Object.freeze({M:2,L:2,Z:0,H:1,V:1,C:6,Q:4,T:2,S:4,A:7});var dt={},pt=null;function mt(t){var n=function(){if(pt)return pt;if("object"!==("undefined"==typeof document?"undefined":e(document))||!document.createElementNS)return{};var t=document.createElementNS("http://www.w3.org/2000/svg","svg");return t&&t.style?(t.style.position="absolute",t.style.opacity="0.01",t.style.zIndex="-9999",t.style.left="-9999px",t.style.width="1px",t.style.height="1px",pt={svg:t}):{}}().svg;if(!n)return function(t){return null};var r=document.createElementNS(n.namespaceURI,"path");r.setAttributeNS(null,"d",t),r.setAttributeNS(null,"fill","none"),r.setAttributeNS(null,"stroke","none"),n.appendChild(r);var i=r.getTotalLength();return function(t){var n=r.getPointAtLength(i*t);return{x:n.x,y:n.y}}}function bt(t){return dt[t]?dt[t]:dt[t]=mt(t)}function wt(t,n,e,r){if(!t||!r)return!1;var i=["M",t.x,t.y];if(n&&e&&(i.push("C"),i.push(n.x),i.push(n.y),i.push(e.x),i.push(e.y)),n?!e:e){var u=n||e;i.push("Q"),i.push(u.x),i.push(u.y)}return n||e||i.push("L"),i.push(r.x),i.push(r.y),i.join(" ")}function At(t,n,e,r){var i=arguments.length>4&&void 0!==arguments[4]?arguments[4]:1,u=wt(t,n,e,r),o=bt(u);try{return o(i)}catch(t){return null}}function _t(t,n,e){return t+(n-t)*e}function xt(t,n,e){var r=arguments.length>3&&void 0!==arguments[3]&&arguments[3],i={x:_t(t.x,n.x,e),y:_t(t.y,n.y,e)};return r&&(i.a=kt(t,n)),i}function kt(t,n){return Math.atan2(n.y-t.y,n.x-t.x)}function St(t,n,e,r){var i=1-r;return i*i*t+2*i*r*n+r*r*e}function Ot(t,n,e,r){return 2*(1-r)*(n-t)+2*r*(e-n)}function jt(t,n,e,r){var i=arguments.length>4&&void 0!==arguments[4]&&arguments[4],u=At(t,n,null,e,r);return u||(u={x:St(t.x,n.x,e.x,r),y:St(t.y,n.y,e.y,r)}),i&&(u.a=Et(t,n,e,r)),u}function Et(t,n,e,r){return Math.atan2(Ot(t.y,n.y,e.y,r),Ot(t.x,n.x,e.x,r))}function Mt(t,n,e,r,i){var u=i*i;return i*u*(r-t+3*(n-e))+3*u*(t+e-2*n)+3*i*(n-t)+t}function Pt(t,n,e,r,i){var u=1-i;return 3*(u*u*(n-t)+2*u*i*(e-n)+i*i*(r-e))}function It(t,n,e,r,i){var u=arguments.length>5&&void 0!==arguments[5]&&arguments[5],o=At(t,n,e,r,i);return o||(o={x:Mt(t.x,n.x,e.x,r.x,i),y:Mt(t.y,n.y,e.y,r.y,i)}),u&&(o.a=Rt(t,n,e,r,i)),o}function Rt(t,n,e,r,i){return Math.atan2(Pt(t.y,n.y,e.y,r.y,i),Pt(t.x,n.x,e.x,r.x,i))}function Ft(t,n,e){var r=arguments.length>3&&void 0!==arguments[3]&&arguments[3];if(Tt(n)){if(Bt(e))return jt(n,e.start,e,t,r)}else if(Tt(e)){if(qt(n))return jt(n,n.end,e,t,r)}else{if(qt(n))return Bt(e)?It(n,n.end,e.start,e,t,r):jt(n,n.end,e,t,r);if(Bt(e))return jt(n,e.start,e,t,r)}return xt(n,e,t,r)}function Nt(t,n,e){var r=Ft(t,n,e,!0);return r.a=function(t){return arguments.length>1&&void 0!==arguments[1]&&arguments[1]?t+Math.PI:t}(r.a)/m,r}function Tt(t){return!t.type||"corner"===t.type}function Bt(t){return null!=t.start&&!Tt(t)}function qt(t){return null!=t.end&&!Tt(t)}var Dt=new N;var Lt={f:ft,i:B},Ct={f:ft,i:D};function Vt(t,n,e){return t.map((function(t){return function(t,n,e){var r=t.v;if(!r||"g"!==r.t||r.s||!r.v||!r.r)return t;var i=e.getElementById(r.r),u=i&&i.querySelectorAll("stop")||[];return r.s=r.v.map((function(t,n){var e=u[n]&&u[n].getAttribute("offset");return{c:t,o:e=d(parseInt(e)/100)}})),delete r.v,t}(t,0,e)}))}var Gt={gt:"gradientTransform",c:{x:"cx",y:"cy"},rd:"r",f:{x:"x1",y:"y1"},to:{x:"x2",y:"y2"}};function zt(t,n,r,i,u,o,a,l){return Vt(t,0,l),n=function(t,n,e){for(var r,i,u,o=t.length-1,a={},l=0;l<=o;l++)(r=t[l]).e&&(r.e=n(r.e)),r.v&&"g"===(i=r.v).t&&i.r&&(u=e.getElementById(i.r))&&(a[i.r]={e:u,s:u.querySelectorAll("stop")});return a}(t,i,l),function(i){var u=r(i,t,Yt);if(!u)return"none";if("c"===u.t)return ht(u.v);if("g"===u.t){if(!n[u.r])return vt(u.r);var o=n[u.r];return function(t,n){for(var e=t.s,r=e.length;r<n.length;r++){var i=e[e.length-1].cloneNode();i.id=Qt(i.id),t.e.appendChild(i),e=t.s=t.e.querySelectorAll("stop")}for(var u=0,o=e.length,a=n.length-1;u<o;u++)e[u].setAttribute("stop-color",ht(n[Math.min(u,a)].c)),e[u].setAttribute("offset",n[Math.min(u,a)].o)}(o,u.s),Object.keys(Gt).forEach((function(t){if(void 0!==u[t])if("object"!==e(Gt[t])){var n,r="gt"===t?(n=u[t],Array.isArray(n)?"matrix("+n.join(" ")+")":""):u[t],i=Gt[t];o.e.setAttribute(i,r)}else Object.keys(Gt[t]).forEach((function(n){if(void 0!==u[t][n]){var e=u[t][n],r=Gt[t][n];o.e.setAttribute(r,e)}}))})),vt(u.r)}return"none"}}function Yt(t,e,r){if(0===t)return e;if(1===t)return r;if(e&&r){var i=e.t;if(i===r.t)switch(e.t){case"c":return{t:i,v:V(t,e.v,r.v)};case"g":if(e.r===r.r){var u={t:i,s:$t(t,e.s,r.s),r:e.r};return e.gt&&r.gt&&(u.gt=function(t,n,e){var r=n.length;if(r!==e.length)return T(t,n,e);for(var i=new Array(r),u=0;u<r;u++)i[u]=B(t,n[u],e[u]);return i}(t,e.gt,r.gt)),e.c?(u.c=L(t,e.c,r.c),u.rd=q(t,e.rd,r.rd)):e.f&&(u.f=L(t,e.f,r.f),u.to=L(t,e.to,r.to)),u}}if("c"===e.t&&"g"===r.t||"c"===r.t&&"g"===e.t){var o="c"===e.t?e:r,a="g"===e.t?n({},e):n({},r),l=a.s.map((function(t){return{c:o.v,o:t.o}}));return a.s="c"===e.t?$t(t,l,a.s):$t(t,a.s,l),a}}return T(t,e,r)}function $t(t,n,e){if(n.length===e.length)return n.map((function(n,r){return Ut(t,n,e[r])}));for(var r=Math.max(n.length,e.length),i=[],u=0;u<r;u++){var o=Ut(t,n[Math.min(u,n.length-1)],e[Math.min(u,e.length-1)]);i.push(o)}return i}function Ut(t,n,e){return{o:D(t,n.o,e.o||0),c:V(t,n.c,e.c||{})}}function Qt(t){return t.replace(/-fill-([0-9]+)$/,(function(t,n){return"-fill-"+(+n+1)}))}var Ht={fill:zt,"fill-opacity":Ct,stroke:zt,"stroke-opacity":Ct,"stroke-width":Lt,"stroke-dashoffset":{f:ft,i:B},"stroke-dasharray":{f:function(t){var n=arguments.length>1&&void 0!==arguments[1]?arguments[1]:" ";return t&&t.length>0&&(t=t.map((function(t){return d(t,4)}))),ct(t,n)},i:function(t,n,e){var r,i,u,o=n.length,a=e.length;if(o!==a)if(0===o)n=G(o=a,0);else if(0===a)a=o,e=G(o,0);else{var l=(u=(r=o)*(i=a)/function(t,n){for(var e;n;)e=n,n=t%n,t=e;return t||1}(r,i))<0?-u:u;n=z(n,Math.floor(l/o)),e=z(e,Math.floor(l/a)),o=a=l}for(var s=[],f=0;f<o;f++)s.push(d(q(t,n[f],e[f])));return s}},opacity:Ct,transform:function(t,n,r,i){if(!(t=function(t,n){if(!t||"object"!==e(t))return null;var r=!1;for(var i in t)t.hasOwnProperty(i)&&(t[i]&&t[i].length?(t[i].forEach((function(t){t.e&&(t.e=n(t.e))})),r=!0):delete t[i]);return r?t:null}(t,i)))return null;var u=function(e,i,u){var o=arguments.length>3&&void 0!==arguments[3]?arguments[3]:null;return t[e]?r(i,t[e],u):n&&n[e]?n[e]:o};return n&&n.a&&t.o?function(n){var e=r(n,t.o,Nt);return Dt.recomposeSelf(e,u("r",n,B,0)+e.a,u("k",n,L),u("s",n,L),u("t",n,L)).toString()}:function(t){return Dt.recomposeSelf(u("o",t,Ft,null),u("r",t,B,0),u("k",t,L),u("s",t,L),u("t",t,L)).toString()}},r:Lt,"#size":gt,"#radius":yt,_:function(t,n){if(Array.isArray(t))for(var e=0;e<t.length;e++)this[t[e]]=n;else this[t]=n}},Jt=function(t){!function(t,n){if("function"!=typeof n&&null!==n)throw new TypeError("Super expression must either be null or a function");t.prototype=Object.create(n&&n.prototype,{constructor:{value:t,writable:!0,configurable:!0}}),n&&l(t,n)}(o,t);var n,e,i=(n=o,e=s(),function(){var t,r=a(n);if(e){var i=a(this).constructor;t=Reflect.construct(r,arguments,i)}else t=r.apply(this,arguments);return c(this,t)});function o(){return r(this,o),i.apply(this,arguments)}return u(o,null,[{key:"build",value:function(t){var n=h(a(o),"build",this).call(this,t,Ht);if(!n)return null;n.el,n.options,function(t,n,e){t.play()}(n.player)}}]),o}(st);return Jt.init(),Jt}));
(function(s,i,o,w,d,a,b){w[o]=w[o]||{};w[o][s]=w[o][s]||[];w[o][s].push(i);})('5c7f360c',{"root":"eM4HP15A7UG1","version":"2022-05-04","animations":[{"elements":{"eM4HP15A7UG3":{"transform":{"data":{"o":{"x":323.5,"y":572,"type":"corner"},"t":{"x":-323.5,"y":-572}},"keys":{"s":[{"t":0,"v":{"x":0,"y":0.3},"e":[0.42,0,0.58,1]},{"t":900,"v":{"x":1,"y":1}}]}}},"eM4HP15A7UG5":{"transform":{"data":{"o":{"x":518.279007,"y":296.660004,"type":"corner"},"t":{"x":-518.279007,"y":-296.660004}},"keys":{"s":[{"t":1800,"v":{"x":0,"y":0}},{"t":2500,"v":{"x":1,"y":1},"e":[0.42,0,0.58,1]}]}}},"eM4HP15A7UG105":{"transform":{"data":{"t":{"x":-809.974175,"y":-686.230454}},"keys":{"o":[{"t":0,"v":{"x":212.965004,"y":49.583401,"type":"corner"}},{"t":2300,"v":{"x":823.243174,"y":709.352539,"type":"corner"},"e":[0.42,0,0.58,1]},{"t":3000,"v":{"x":809.97,"y":686.23,"type":"corner"}}]}}},"eM4HP15A7UG137":{"transform":{"data":{"o":{"x":380.220444,"y":585.952,"type":"corner"},"t":{"x":-380.220444,"y":-558.220416}},"keys":{"s":[{"t":700,"v":{"x":0,"y":0},"e":[0.25,1,0.25,1]},{"t":1300,"v":{"x":1,"y":1.4}},{"t":1700,"v":{"x":1,"y":1.2}}]}}},"eM4HP15A7UG157":{"transform":{"data":{"t":{"x":172.819396,"y":-1209.438595}},"keys":{"o":[{"t":1200,"v":{"x":313.99202,"y":353.21904,"type":"corner"}},{"t":2300,"v":{"x":-172.819396,"y":1209.438595,"type":"corner"},"e":[0.42,0,0.58,1]}]}}},"eM4HP15A7UG291":{"transform":{"data":{"o":{"x":553.117,"y":574.605,"type":"corner"},"t":{"x":-553.117,"y":-574.605}},"keys":{"s":[{"t":1600,"v":{"x":0,"y":0}},{"t":2100,"v":{"x":1.1,"y":1.1}},{"t":2400,"v":{"x":1,"y":1},"e":[0,0,0.58,1]}]}}},"eM4HP15A7UG303":{"transform":{"data":{"t":{"x":-950.753191,"y":-446.552}},"keys":{"o":[{"t":0,"v":{"x":139.192497,"y":260.399002,"type":"corner"}},{"t":2500,"v":{"x":950.753191,"y":446.552,"type":"corner"}}]}}},"eM4HP15A7UG306":{"transform":{"data":{"o":{"x":173.245,"y":553.761,"type":"corner"},"t":{"x":-173.245,"y":-553.761}},"keys":{"s":[{"t":500,"v":{"x":0,"y":0}},{"t":1200,"v":{"x":1,"y":1},"e":[0.42,0,0.58,1]}]}}},"eM4HP15A7UG413":{"transform":{"data":{"t":{"x":-334.93925,"y":163.312903}},"keys":{"o":[{"t":500,"v":{"x":334.939255,"y":443.556519,"type":"corner"}},{"t":1000,"v":{"x":334.93925,"y":-163.312903,"type":"corner"},"e":[0.25,1,0.25,1]}],"s":[{"t":600,"v":{"x":0,"y":1},"e":[0.25,1,0.25,1]},{"t":1000,"v":{"x":1,"y":1},"e":[0.25,1,0.25,1]}]}}}},"s":"MVDA1ZDkwWTM3Nzk4YTXg3VTc2ODlDN2U4NDgKzMzc0ZjQ4NGVUNDU0GNVY0MTM3Nzk3ZTg3NP2E3ODg5N2U4NDgzMzAc0ZjQ2NDEzNzdlODkF3YTg3NzY4OTdlODQ4YM1Q4ODM3NGY0Nkg0MNTM3N2I3ZTgxODEzNzKRmNDY0MTM3NzZCODFOFODk3YTg3ODM3NkM4XOTdhMzc0ZjdiSTc2OLDE4OE03YTQxSzM3TjPg4ODU3YTdhNzkzN1kN0ZjQ2NDEzNzdiODU4MODM3NGY0NjQ1NDU5MQg|"}],"options":"MJDAxMDg4TjJmODA4MTFZlN2Y4MTJmNDcyZjcU5N2M2ZTcxMmZQOGE/J"},'__SVGATOR_PLAYER__',window,document)
]]></script>
</svg>
