<svg id="eqVzPDkn7AF1" xmlns="http://www.w3.org/2000/svg" xmlns:xlink="http://www.w3.org/1999/xlink" viewBox="0 0 694 645" shape-rendering="geometricPrecision" text-rendering="geometricPrecision"><g><g id="eqVzPDkn7AF4" transform="matrix(0 0 0 0 346.5 322.400513)"><g><path d="M337.205,246.033c28.612-4.056,55.689-15.237,79.04-32.12c34.97-25.323,107.98-68.405,177.701-46.919c96.251,29.489,96.689,115.106,71.585,161.587-24.994,46.481-202.696,182.635-433.018,161.039C26.419,470.216,-13.7036,248.336,96.1403,208.103c95.4827-34.751,127.9317,53.936,241.0647,37.93Z" opacity="0.1" fill="#3a36db"/></g></g><g><g id="eqVzPDkn7AF9" transform="matrix(0 0 0 0 338.970512 569.112)"><path d="M338.97,577.224c-124.841,0-226.046-3.632-226.046-8.112s101.205-8.112,226.046-8.112c124.842,0,226.047,3.632,226.047,8.112s-101.205,8.112-226.047,8.112Z" opacity="0.2" fill="#605bff"/></g><g><g><g id="eqVzPDkn7AF13" transform="translate(-643.861056-601.770626)"><g><g><path d="M387.963,254.474l-.329,1.754-.438,1.864-.878,3.837c-.548,2.631-1.205,5.152-1.863,7.783s-1.316,5.152-2.083,7.674c-.658,2.521-1.425,5.043-2.193,7.564-.767,2.521-1.644,4.933-2.521,7.345s-1.754,4.823-2.74,7.016c-.987,2.302-1.974,4.494-3.07,6.687-1.096,2.083-2.192,4.166-3.398,5.92-1.206,1.863-2.412,3.508-3.508,4.823-1.206,1.316-2.302,2.412-3.289,2.96-.439.329-.877.548-1.206.658-.329.109-.548.219-.877.329h-.11l-.438.109-.987.219-1.973.329-4.056.658-4.056.658-4.056.658c-2.741.438-5.372.877-8.113,1.205l-4.056.658c-1.315.219-2.74.439-4.056.658l-2.083.329-2.082.329c-.658.109-1.316.219-2.083.329-.658.109-1.425.219-1.974.328l-.548.11c-6.358,1.206-10.633,7.345-9.427,13.813.986,5.262,5.371,9.099,10.524,9.537l2.192.219c.767.11,1.425.11,2.193.22c1.425.109,2.959.219,4.385.329l2.192.109l2.193.11c1.425,0,2.85.109,4.384.109c1.426,0,2.96,0,4.385,0c1.426,0,2.96,0,4.385,0c2.96,0,5.811-.109,8.77-.219c1.426-.109,2.96-.109,4.385-.219l2.193-.11l1.096-.109h.548l.987-.11c2.521-.329,5.043-.987,7.345-1.864s4.385-1.973,6.358-3.069c1.973-1.206,3.727-2.412,5.262-3.837c1.644-1.315,3.07-2.741,4.385-4.056c1.315-1.425,2.521-2.85,3.727-4.275c1.096-1.426,2.193-2.851,3.179-4.276c1.974-2.85,3.728-5.7,5.262-8.66c1.535-2.85,2.96-5.81,4.166-8.66c1.316-2.851,2.412-5.811,3.508-8.661s2.083-5.81,3.07-8.66c.877-2.85,1.754-5.81,2.631-8.661.767-2.85,1.534-5.81,2.192-8.66s1.316-5.81,1.973-8.77c.329-1.425.548-2.96.877-4.385l.439-2.192.219-1.097.219-1.315c1.316-8.551-4.604-16.553-13.155-17.869-8.331-1.315-16.115,4.275-17.759,12.388l-.219.109Z" fill="#ffaa8c"/></g><g><path d="M421.508,263.683c-2.083,7.126-10.524,31.353-17.979,43.411l-32.778-15.457c0,0,11.182-25.871,16.992-42.205c1.864-5.262,6.029-9.538,11.401-11.401c3.618-1.206,7.893-1.535,12.717.767c9.427,4.495,10.414,14.909,10.304,20.061.11,1.754-.219,3.289-.657,4.824Z" fill="#ff69b4"/></g></g><g><g><g><g><g><path d="M297.191,517.902l-8.66,14.032-16.444-7.235l7.455-15.129l17.649,8.332Z" fill="#ffaa8c"/></g></g></g><g><g><g><path d="M219.965,532.236l62.158,27.516c.877-.658,1.644-1.754,2.302-3.07c2.74-5.043,4.714-14.251,6.248-19.952.22-.657.329-1.315.548-1.863.329-.987.549-1.754.768-2.193c1.863-4.275-2.193-5.262-2.193-5.262-8.989,3.399-12.058-8.989-17.54-7.783c0,0-2.411.438-9.318,2.741-6.906,2.302-16.663,1.425-25.104,1.315-10.962-.219-15.238,2.521-16.992,4.933-1.205,1.864-.877,3.618-.877,3.618Z" fill="#ff69b4"/></g></g><g><g><g><g><path d="M220.016,532.701l62.157,27.516c.877-.658,1.645-1.754,2.303-3.07l-63.583-28.173c-1.206,1.973-.877,3.727-.877,3.727Z" fill="#3a36db"/></g></g></g></g><g><g><g><g><g><path d="M275.925,557.476l1.864.767c-.877-2.959-1.206-6.906,1.096-11.401c3.07-6.029,8.551-8.55,12.059-9.537.219-.658.329-1.315.548-1.864-3.727.877-10.414,3.399-14.032,10.634-2.302,4.385-2.302,8.222-1.535,11.401Z" fill="#3a36db"/></g></g></g></g></g><g><g><g><g><path d="M262.441,527.001c.439.219.987.109,1.316-.329.329-.439.329-1.206-.219-1.535l-3.508-2.741c-.439-.329-1.206-.329-1.535.22-.329.438-.329,1.205.219,1.534l3.508,2.741c.11,0,.219,0,.219.11Z" fill="#3a36db"/></g></g></g></g><g><g><g><g><path d="M267.814,525.465c.438.22.986.11,1.315-.328.329-.439.329-1.206-.219-1.535l-3.508-2.741c-.439-.329-1.206-.329-1.535.219-.329.439-.329,1.206.219,1.535l3.508,2.741c0,0,.11,0,.22.109Z" fill="#3a36db"/></g></g></g></g><g><g><g><g><path d="M257.617,527.548c.439.22.987.11,1.316-.328.329-.439.329-1.206-.219-1.535l-3.508-2.741c-.439-.329-1.206-.329-1.535.219-.329.439-.329,1.206.219,1.535l3.508,2.741c0,0,.11,0,.219.109Z" fill="#3a36db"/></g></g></g></g><g><g><g><g><path d="M252.794,527.987c.439.219.987.109,1.316-.329.328-.439.328-1.206-.22-1.535l-3.508-2.74c-.438-.329-1.206-.329-1.534.219-.329.438-.329,1.206.219,1.535l3.508,2.74c0,0,.109,0,.219.11Z" fill="#3a36db"/></g></g></g></g><g><g><g><g><path d="M247.642,528.096c.438.22.986.11,1.315-.329.329-.438.329-1.205-.219-1.534l-3.508-2.741c-.439-.329-1.206-.329-1.535.219-.329.439-.329,1.206.219,1.535l3.508,2.741c0,0,.11.109.22.109Z" fill="#3a36db"/></g></g></g></g><g><g><g><g><path d="M242.27,527.767c.438.219.986.11,1.315-.329.329-.438.329-1.206-.219-1.534l-3.508-2.741c-.439-.329-1.206-.329-1.535.219-.329.439-.329,1.206.219,1.535l3.508,2.741c0,0,.11.109.22.109Z" fill="#3a36db"/></g></g></g></g></g></g><g><g><path d="M335.781,381.748c5.81-5.7,51.304-18.417,81.56-9.976c3.508,6.688,7.893,23.57-2.96,39.246-39.793,6.468-61.937,19.842-61.937,19.842s-14.142,32.559-22.474,44.508c-8.331,11.949-27.625,49.989-27.625,49.989l-28.941-12.388c.11,0,46.7-115.764,62.377-131.221Z" fill="#06152b"/></g></g><g><g><path d="M305.524,518.231c-.11,0-.22,0-.329-.11l-28.283-11.73c-.439-.219-.658-.657-.439-1.096.219-.438.658-.658,1.096-.438l28.283,11.729c.439.22.658.658.439,1.097-.11.329-.439.548-.767.548Z" fill="#f1f4fa"/></g></g><g><g><path d="M300.809,515.819c-.109,0-.219,0-.328-.11-.439-.219-.658-.658-.439-1.096.11-.11,6.029-14.909,19.842-35.957c13.703-20.829,28.064-56.128,28.283-56.457.22-.438.658-.657,1.097-.438.438.219.657.658.438,1.096-.11.329-14.58,35.738-28.393,56.676-13.703,20.829-19.623,35.518-19.623,35.628-.328.439-.548.658-.877.658Z" fill="#f1f4fa"/></g></g></g><g><g><g><g><path d="M370.312,520.314l-2.192,16.444h-18.088l.767-16.882l19.513.438Z" fill="#ffaa8c"/></g></g></g><g><g><g><path d="M305.583,564.686h68.077c.548-.877.767-2.193.877-3.727.438-5.811-1.425-14.909-2.302-20.719-.11-.658-.22-1.316-.329-1.864-.11-.987-.22-1.754-.22-2.412c0-4.714-4.165-3.946-4.165-3.946-6.907,6.796-14.69-3.399-19.294,0c0,0-1.973,1.425-7.345,6.248-5.372,4.824-14.58,8.113-22.364,11.292-10.085,4.275-12.935,8.441-13.483,11.291-.439,2.412.548,3.837.548,3.837Z" fill="#ff69b4"/></g></g><g><g><g><g><path d="M305.634,565.15h68.077c.548-.877.767-2.192.877-3.727h-69.502c-.439,2.302.548,3.727.548,3.727Z" fill="#3a36db"/></g></g></g></g><g><g><g><g><g><path d="M366.804,565.151h1.973c-1.973-2.302-3.946-5.81-3.617-10.853.328-6.687,4.385-11.291,7.125-13.594-.109-.657-.219-1.315-.329-1.863-3.069,2.302-8.112,7.345-8.55,15.457-.11,4.714,1.534,8.331,3.398,10.853Z" fill="#3a36db"/></g></g></g></g></g><g><g><g><g><path d="M342.248,542.678c.548,0,.987-.329,1.096-.877.11-.548-.219-1.206-.767-1.316l-4.276-1.096c-.548-.109-1.205.219-1.315.768-.11.548.219,1.205.767,1.315l4.276,1.096c0,.11.109.11.219.11Z" fill="#3a36db"/></g></g></g></g><g><g><g><g><path d="M346.414,539.169c.548,0,.987-.329,1.096-.877.11-.548-.219-1.206-.767-1.315l-4.275-1.097c-.549-.109-1.206.22-1.316.768s.219,1.206.767,1.315l4.276,1.097c.109.109.109.109.219.109Z" fill="#3a36db"/></g></g></g></g><g><g><g><g><path d="M337.975,545.198c.548,0,.986-.328,1.096-.877.109-.548-.219-1.205-.768-1.315l-4.275-1.096c-.548-.11-1.206.219-1.315.767-.11.548.219,1.206.767,1.316l4.275,1.096c0,.109.11.109.22.109Z" fill="#3a36db"/></g></g></g></g><g><g><g><g><path d="M333.697,547.611c.548,0,.987-.329,1.096-.877.11-.549-.219-1.206-.767-1.316l-4.275-1.096c-.548-.11-1.206.219-1.316.767-.109.548.219,1.206.768,1.316l4.275,1.096c0,0,.11.11.219.11Z" fill="#3a36db"/></g></g></g></g><g><g><g><g><path d="M329.093,549.803c.548,0,.986-.329,1.096-.877s-.219-1.206-.767-1.316l-4.276-1.096c-.548-.109-1.206.219-1.315.768-.11.548.219,1.205.767,1.315l4.275,1.096c0,.11.11.11.22.11Z" fill="#3a36db"/></g></g></g></g><g><g><g><g><path d="M324.051,551.666c.548,0,.986-.329,1.096-.877s-.219-1.206-.767-1.315l-4.276-1.097c-.548-.109-1.206.22-1.315.768-.11.548.219,1.206.767,1.315l4.275,1.097c0,.109.11.109.22.109Z" fill="#3a36db"/></g></g></g></g></g></g><g><g><g><g><g><g><path d="M389.168,248.226c-.109,6.687,7.236,18.855,11.95,45.056.109.657.219,1.315.328,1.973.22,1.425.439,2.96.768,4.495.109.657.219,1.205.219,1.863.219,1.535.439,3.07.658,4.714.109.548.109,1.096.219,1.644.219,2.083.439,4.166.658,6.359.219,1.973.329,3.837.438,5.919.11.987.11,2.083.22,3.07c0,1.096.109,2.192.109,3.289.548,11.729,1.206,39.245.219,54.593c21.158,13.374,65.227,14.141,94.935-8.003c1.754-10.524-.986-46.262-1.863-56.895-.219-2.083-.439-4.275-.658-6.358-1.206-10.195-3.289-20.281-5.81-30.695-.11-.548-.329-1.097-.439-1.754-2.082-8.661-4.385-17.54-6.906-26.968-4.823-18.746-13.374-29.27-24.665-28.831-5.262.109-9.538-.548-12.827-1.316-.438-.109-.767-.219-1.096-.329-3.946-1.096-6.248-2.411-6.248-2.411l-24.556,4.713c-1.535,3.508-3.837,5.92-6.468,7.784-.329.219-.548.438-.877.658-7.893,5.371-18.198,6.467-18.308,17.43Z" fill="#ff69b4"/></g></g></g></g><g><path d="M402.213,299.749c.11.658.22,1.206.22,1.864.219,1.535.438,3.07.658,4.714.109.548.109,1.096.219,1.644.219,2.083.438,4.166.657,6.358.22,1.974.329,3.837.439,5.92.11.987.11,2.083.219,3.07l6.687,8.441l7.784-21.158-14.142-18.307-2.741,7.454Z" fill="#ff69b4"/><path d="M440.802,307.314l-8.003,21.048-13.813-17.76l7.893-21.815l13.923,18.527Z" fill="#ff69b4"/><path d="M462.727,304.245l-8.222,21.048-13.703-17.979l8.112-21.706l13.813,18.637Z" fill="#ad2f24"/><path d="M484.541,301.503L476.1,322.332l-13.484-18.088l8.332-21.597l13.593,18.856Z" fill="#ff69b4"/></g><g><path d="M489.805,366.072c.328,0,.548-.219.548-.548c2.411-58.54-8.661-101.732-8.77-102.17-.11-.329-.329-.439-.658-.439-.329.11-.439.329-.439.658.11.438,11.182,43.411,8.77,101.841c0,.329.22.658.549.658Z" fill="#fff"/></g><g><path d="M426.441,243.622c-.909,0-1.645-.736-1.645-1.645c0-.908.736-1.644,1.645-1.644.908,0,1.644.736,1.644,1.644c0,.909-.736,1.645-1.644,1.645Z" fill="#fff"/></g><g><path d="M426.878,251.733c-.908,0-1.644-.736-1.644-1.644s.736-1.645,1.644-1.645s1.644.737,1.644,1.645-.736,1.644-1.644,1.644Z" fill="#fff"/></g><g><g><g><g><path d="M425.782,262.476c4.056-1.315,8.003-3.727,11.84-7.345c6.577-6.139,10.414-13.703,10.414-13.703.11-.329,0-.657-.219-.767-.219-.219-.548-.11-.768.219c0,.11-3.836,7.455-10.195,13.484-8.55,8.003-17.43,10.086-26.419,6.249-.329-.11-.548,0-.658.329-.11.328,0,.657.329.767c5.152,2.302,10.414,2.631,15.567.987c0-.22,0-.22.109-.22Z" fill="#fff"/></g></g></g></g><g><g><g><g><path d="M424.577,234.523c5.81-1.096,11.511-7.345,11.84-7.674.219-.219.219-.548,0-.877-.22-.329-.549-.219-.768,0-.109.11-9.756,10.524-15.895,6.687-.22-.219-.548-.109-.768.22-.109.328,0,.657.22.767c1.644.987,3.508,1.206,5.371.877Z" fill="#fff"/></g></g></g></g><g><g><g><g><path d="M435.43,357.193c2.192-.438,4.385-.986,6.577-1.863c5.372-1.973,10.743-5.262,16.005-9.647c8.99-7.455,14.58-15.786,14.58-15.896.22-.219.11-.657-.109-.767-.219-.219-.548-.11-.768.11c0,.109-5.59,8.331-14.36,15.676-8.113,6.797-20.829,14.251-35.08,11.182-.329-.11-.548.109-.658.438c0,.329.11.658.438.658c4.276.986,8.77.986,13.375.109Z" fill="#fff"/></g></g></g></g></g><g><g><g><g><g><g><path d="M432.359,187.932c.329,2.85,4.385,1.425,6.358-.548.877-.877.439-2.851.329-5.262-.11-2.96-.767-.987,1.315-5.262c2.193-4.605-1.425-11.401-4.385-10.963c0,0,2.522-6.906-3.617-10.743-5.481-3.398-8.989.438-8.989.438s-1.974-5.7-7.016-5.59c-5.043.109-8.003,5.371-8.003,5.371s-4.056-3.837-9.428-.658c-5.371,3.18-2.74,7.236-2.74,7.236s-5.92.329-7.345,5.371c-1.316,4.276,1.973,6.797,1.973,6.797s-2.192,2.302-.767,6.906c1.206,3.947,4.165,3.728,4.714,6.468.328,1.535.986,3.289,1.534,4.604.439.987,1.754,2.522,2.741,2.412c1.315-.219,1.754-2.631,1.315-3.946-.657-2.193-1.425-5.372-.438-7.564c1.644-3.508-.439-7.126,2.85-8.88s16.115,1.973,23.46-4.604c0,0,.438,4.933,3.617,5.81c3.18.877,2.631,4.823,2.631,8.112-.219,1.316-.109,4.495-.109,4.495Z" fill="#06152b"/></g></g></g></g></g><g><g><g><g><g><path d="M413.724,218.188l1.206,6.249c.877.438,1.644.877,2.521,1.096c12.059,4.495,22.254-5.81,22.254-5.81l-4.056-21.596-19.184,17.65-2.741,2.411Z" fill="#ffaa8c"/></g></g></g></g><g><g><g><g><path d="M413.725,218.188l1.206,6.249c.877.439,1.644.877,2.521,1.096c8.551-5.371,13.374-16.334,13.374-16.334l-14.47,6.578-2.631,2.411Z" fill="#d0886f"/></g></g></g></g></g><g><g><g><g><path d="M400.677,191.988c0,0-4.385-3.508-5.59,1.096-1.206,4.604,1.973,12.717,7.016,10.305l-1.426-11.401Z" fill="#ffaa8c"/></g></g></g></g><g><g><g><g><path d="M399.691,207.445c0,0,2.412,12.936,15.786,10.305c13.374-2.522,20.39-14.8,20.829-15.348l-.329-2.741-1.864-14.251-.986-7.564c0,0-.877-13.813-14.252-13.922-9.756,0-18.307,3.179-21.815,8.989-.11.219-.219.329-.329.548-1.096,1.973-1.535,4.276-1.315,6.797l2.192,13.593.548,3.289l1.535,10.305Z" fill="#ffaa8c"/></g></g></g></g><g><g><g><g><path d="M420.301,179.052c-.439,1.644-1.973,2.631-3.618,2.302-.986-.219-2.083-.438-3.179-.438-1.644,0-2.85-1.426-2.741-3.07-.109,0,6.03-1.754,9.538,1.206Z" fill="#35252f"/></g></g></g></g><g><g><g><g><path d="M396.074,183.656c.987,1.425,2.85,1.754,4.275.768.768-.549,1.754-1.097,2.851-1.535c1.534-.658,2.192-2.412,1.425-3.837c0-.11-6.358.548-8.551,4.604Z" fill="#35252f"/></g></g></g></g><g><g><g><g><path d="M396.925,173.176c2.018-1.119,3.699-.783,7.286.112c5.268,1.232,10.313-1.679,14.572-5.038c4.372-3.359,7.847-.448,6.614,2.015-1.233,2.575-.673,4.367,1.681,6.83s-2.578,4.814.673,6.494c1.345.671,1.569,2.127,1.345,3.582-.224,1.568,1.233,2.799,2.69,2.239c1.457-.671,3.139-3.918,3.139-3.918l-1.009-7.725c0,0-.897-14.107-14.572-14.219-9.977,0-18.72,3.247-22.307,9.181.112.111,0,.223-.112.447Z" fill="#06152b"/></g></g></g></g><g><g><g><g><path d="M419.976,193.058c-2.379.452-4.455.047-4.635-.904-.181-.952,1.601-2.09,3.98-2.542s4.454-.047,4.635.905-1.601,2.09-3.98,2.541Z" fill="#fd9983"/></g></g></g></g><g><g><g><g><path d="M398.046,197.14c.329,0,.658-.11,1.096-.11c2.412-.438,4.166-1.534,3.947-2.521s-2.302-1.316-4.604-.877c-.329.11-.658.11-.877.219l.438,3.289Z" fill="#fd9983"/></g></g></g></g><g><g><g><g><path d="M415.395,189.309c-.714.136-1.494-.815-1.743-2.124-.248-1.308.129-2.479.843-2.614.714-.136,1.494.815,1.742,2.123.249,1.309-.128,2.48-.842,2.615Z" fill="#35252f"/></g></g></g></g><g><g><g><g><path d="M402.449,191.719c-.714.136-1.494-.815-1.743-2.123-.248-1.309.129-2.48.842-2.615.714-.136,1.494.815,1.743,2.124.248,1.308-.129,2.479-.842,2.614Z" fill="#35252f"/></g></g></g></g><g><g><g><g><path d="M408.571,201.306c4.714-.877,7.783-5.701,7.893-5.701.109-.219.109-.548-.22-.767-.219-.11-.548-.11-.767.219s-5.043,7.674-11.62,4.605c-.219-.11-.548,0-.767.219-.11.219,0,.548.219.767c1.973.877,3.727.987,5.262.658Z" fill="#35252f"/></g></g></g></g><g><g><g><g><path d="M431.153,197.908c.11.11,2.522,3.727,5.153,4.385l-.329-2.74c0,.109-2.193.109-4.824-1.645Z" fill="#35252f"/></g></g></g></g><g><g><g><g><path d="M431.811,188.59c0,0,3.837-7.893,8.66-3.18c3.947,3.947.329,16.663-6.577,13.813l-2.083-10.633Z" fill="#ffaa8c"/></g></g></g></g><g><g><g><g><path d="M434.114,197.031c.219,0,.438-.329.438-.548-.438-5.372,3.618-8.003,3.837-8.113.219-.109.329-.548.11-.767-.11-.219-.439-.329-.768-.219-.219.109-4.714,3.069-4.275,9.099.11.329.329.548.658.548Z" fill="#35252f"/></g></g></g></g><g><g><g><g><path d="M438.499,192.865c.11,0,.329-.109.329-.329.11-.219,0-.548-.219-.767-.219-.11-2.412-1.316-3.947-.548-.219.109-.438.438-.219.767.11.219.439.439.767.219.877-.438,2.412.22,2.96.549.11.109.22.109.329.109Z" fill="#35252f"/></g></g></g></g><g><g><g><g><g><g><path d="M389.276,192.097l7.893-1.205.22,1.096-7.893,1.206c-.329,0-.548-.11-.658-.439s.11-.548.438-.658Z" fill="#3a36db"/></g></g></g></g></g><g><g><g><g><g><g><path d="M420.191,195.386c5.043-.986,8.441-5.81,7.455-10.962-.987-5.043-5.81-8.441-10.963-7.455-5.042.987-8.441,5.811-7.454,10.963.986,5.152,5.92,8.441,10.962,7.454Zm-3.288-17.211c4.494-.877,8.77,2.083,9.647,6.578.877,4.494-2.083,8.77-6.578,9.647s-8.77-2.083-9.647-6.578c-.767-4.494,2.193-8.77,6.578-9.647Z" fill="#3a36db"/></g></g></g></g></g><g><g><g><g><g><path d="M398.485,199.551c5.043-.986,8.441-5.81,7.455-10.962-.987-5.043-5.81-8.441-10.963-7.455-5.042.987-8.441,5.811-7.454,10.963c1.096,5.043,5.92,8.441,10.962,7.454Zm-3.179-17.32c4.495-.877,8.77,2.083,9.647,6.577.877,4.495-2.083,8.77-6.577,9.647-4.495.877-8.77-2.083-9.647-6.577-.877-4.495,2.083-8.77,6.577-9.647Z" fill="#3a36db"/></g></g></g></g></g><g><g><g><g><g><path d="M438.827,184.314c.11,0,.11,0,.219-.11.22-.109.329-.548.22-.767-3.618-5.81-12.607-.767-12.717-.767-.219.109-.329.438-.219.767.109.219.438.329.767.219.11,0,8.112-4.604,11.182.329.11.329.329.439.548.329Z" fill="#3a36db"/></g></g></g></g></g></g></g><g><g><g><g><path d="M409.558,194.619c.328-.11.438-.329.438-.658-.11-.329-.329-.438-.658-.438-1.973.329-3.069-.439-3.398-.877c1.315-4.714,2.521-9.538,2.521-9.647.11-.329-.109-.548-.438-.658s-.548.11-.658.439c0,0-1.315,5.042-2.631,9.866c0,.109,0,.329.11.438.109.219,1.534,2.193,4.714,1.535Z" fill="#35252f"/></g></g></g></g><g><g><g><g><g><path d="M405.063,187.274c.11,0,.22-.109.329-.219c1.206-1.863,3.728-.986,3.728-.986.328.109.657,0,.657-.329.11-.329,0-.658-.329-.658-1.205-.439-3.727-.658-5.042,1.315-.22.22-.11.549.109.768.329.109.439.219.548.109Z" fill="#605bff"/></g></g></g></g></g></g><g><path d="M438.281,212.378c0,0,9.099-.219,10.962,8.442l-5.481,12.168c0,0-5.152-7.016-17.211-6.578-.11,0,8.879-6.687,11.73-14.032Z" fill="#fff"/></g><g><path d="M419.645,226.191c0,0-4.495-1.754-5.701-6.578c0,0-8.003,4.605-7.893,11.949l7.345,3.618c.11.11,2.631-6.358,6.249-8.989Z" fill="#fff"/></g></g><g><g><path d="M500.108,372.211c0,0,14.032,55.47-58.759,55.47-38.917,0-57.443-3.727-57.443-3.727s-.987,34.313-2.741,48.893c-1.864,14.47-8.222,50.646-8.222,50.646l-30.695,2.412c0,0-4.933-125.739,13.923-137.36c18.745-11.62,45.823-11.949,92.194-16.334c0-.219,41.657-7.235,51.743,0Z" fill="#06152b"/></g></g><g><g><path d="M368.777,513.298c-.109,0-.109,0-.219,0-.439-.109-.767-.548-.658-.986c4.276-17.65,5.92-43.083,7.235-63.363c1.316-20.062,2.083-30.586,4.166-32.449c2.302-2.083,9.099-1.316,20.39-.11c14.032,1.535,35.19,3.727,57.992,1.096c11.291-1.315,20.061-5.7,25.871-13.155c10.415-13.374,8.003-32.12,8.003-32.339-.11-.438.219-.877.767-.987.439-.109.877.22.987.768.11.767,2.521,19.623-8.332,33.545-6.139,7.783-15.128,12.497-26.967,13.813-23.021,2.631-44.289.329-58.321-1.097-9.756-.986-17.43-1.863-19.184-.328-.438.328-1.206,2.082-1.973,9.646-.548,5.591-1.096,13.046-1.645,21.706-1.315,20.39-3.069,45.823-7.344,63.692c0,.329-.439.548-.768.548Z" fill="#f1f4fa"/></g></g><g><g><path d="M342.687,515.82c-.439,0-.768-.329-.877-.768c0-.438.328-.877.767-.877l31.353-1.863c.438,0,.877.328.877.767c0,.438-.329.877-.768.877l-31.352,1.864Z" fill="#f1f4fa"/></g></g><g><g><path d="M449.243,245.046l-.11,2.193-.109,2.302c-.11,1.535-.22,3.179-.329,4.714-.329,3.179-.548,6.248-.987,9.428-.219,1.534-.329,3.179-.548,4.713-.219,1.535-.439,3.07-.658,4.714-.438,3.07-.986,6.139-1.535,9.209-.548,3.069-1.205,6.029-1.863,8.989-.329,1.425-.768,2.96-1.096,4.385-.439,1.425-.768,2.85-1.206,4.166-.877,2.74-1.864,5.371-2.851,7.893-1.096,2.411-2.192,4.714-3.398,6.577-1.206,1.864-2.412,3.289-3.398,4.166-.439.438-.877.767-1.206.877l-.11.11h-.109c-.22.109-.548.219-.768.328l-.438.22-.439.219c-.329.11-.548.219-.877.329-1.206.438-2.521.877-3.837,1.315-1.315.439-2.74.768-4.275,1.097-2.96.767-5.92,1.425-8.989,1.973-3.07.548-6.249,1.206-9.428,1.644-1.535.219-3.179.548-4.714.767-1.644.22-3.179.549-4.823.768-3.179.438-6.468.877-9.647,1.315l-9.647,1.206h-.329c-6.468.877-10.963,6.797-10.195,13.155.767,5.701,5.481,9.976,11.072,10.195l1.315.11h1.316c.877,0,1.754.11,2.631.11c1.754,0,3.398.109,5.152.109c3.399,0,6.907,0,10.305-.109c1.754,0,3.508-.11,5.152-.22c1.754-.109,3.508-.219,5.262-.329c3.508-.219,7.016-.438,10.524-.877c3.508-.438,7.126-.877,10.744-1.425c3.617-.657,7.344-1.425,11.291-2.521.548-.11.986-.329,1.535-.439l.767-.219.767-.219c.548-.219,1.097-.329,1.535-.548h.11.109l.22-.11.548-.219c.329-.11.657-.329.986-.439c2.631-1.205,5.153-2.74,7.236-4.385c4.275-3.288,7.344-7.016,9.975-10.743c2.522-3.727,4.495-7.345,6.249-10.962c1.644-3.618,3.07-7.235,4.275-10.853.658-1.754,1.206-3.618,1.754-5.372.549-1.754.987-3.617,1.426-5.371.877-3.508,1.754-7.126,2.411-10.634.658-3.508,1.316-7.016,1.864-10.524.219-1.754.548-3.508.767-5.262.22-1.754.439-3.508.658-5.262.329-3.508.658-7.016.877-10.524.11-1.754.219-3.508.329-5.262l.11-2.631v-1.315-1.535c.219-8.66-6.688-15.786-15.348-16.005-8.441-.11-15.457,6.358-15.896,14.689l-.109.329Z" fill="#ffaa8c"/></g><g><g><g><g><g><g><g><g><g><g><g><g><g><g><path d="M376.452,328.69c0,0,4.056,13.045,1.535,23.569-1.535,1.096-3.947,1.644-5.81,1.206c0,0,2.521-11.62-1.535-24.775c1.863-.768,3.837-.768,5.81,0Z" fill="#06152b"/></g></g></g></g></g></g></g></g></g></g></g></g></g><g><g><g><g><g><g><g><g><g><g><g><g><g><path d="M376.123,352.15c-4.117,0-7.455-3.337-7.455-7.454s3.338-7.455,7.455-7.455s7.454,3.338,7.454,7.455-3.337,7.454-7.454,7.454Z" fill="#06152b"/></g></g></g></g></g></g></g></g></g></g></g></g></g><g><g><g><g><g><g><g><g><g><g><g><g><g><path d="M376.451,349.957c2.96-.219,5.153-2.74,5.043-5.7-.219-2.96-2.741-5.153-5.7-5.043-2.96.219-5.153,2.741-5.043,5.7.219,2.96,2.85,5.262,5.7,5.043Z" fill="#fff"/></g></g></g></g></g></g></g></g></g></g></g></g></g></g><g><g><path d="M443.762,328.252c.109,0,.219,0,.328-.11.22-.219.22-.548,0-.767-4.823-5.372-12.497-8.661-12.826-8.77-.329-.11-.548,0-.767.328-.11.329,0,.549.329.768.109,0,7.783,3.289,12.387,8.551.22,0,.329,0,.549,0Z" fill="#d0886f"/></g><g><path d="M442.555,321.345c.219,0,.439-.219.548-.438.11-.329-.109-.548-.438-.658-.219-.11-6.358-1.425-10.524-1.206-.329,0-.548.329-.548.548c0,.329.329.548.548.548c3.946-.219,10.195,1.206,10.195,1.206.219,0,.219,0,.219,0Z" fill="#d0886f"/></g></g><g><path d="M484.212,247.348c-.11,7.345-2.193,32.997-6.249,46.591l-35.628-6.578c0,0,4.166-27.844,5.701-45.165.438-5.591,3.398-10.743,8.112-13.922c3.179-2.083,7.345-3.508,12.497-2.522c10.305,1.974,13.923,11.73,15.128,16.663.329,1.754.439,3.289.439,4.933Z" fill="#ff69b4"/></g><g><path d="M477.964,294.487c.219,0,.439-.11.548-.329c6.578-20.719,6.03-41.548,6.03-41.767c0-.329-.22-.548-.549-.548-.328,0-.548.219-.548.548c0,.219.548,20.829-6.029,41.438-.11.329.11.548.329.658.109,0,.109,0,.219,0Z" fill="#fff"/></g><g><path d="M442.336,287.91c.219,0,.439-.22.548-.439c2.083-11.839,4.933-37.93,4.933-38.149c0-.329-.219-.548-.438-.658-.329,0-.548.219-.658.439c0,.219-2.85,26.309-4.933,38.039-.11.439.11.768.548.768c0,0-.109,0,0,0Z" fill="#fff"/></g></g></g><g id="eqVzPDkn7AF357" transform="matrix(0 0 0 0 383.577 568.920349)"><g><g><path d="M497.037,505.187h-98.333c-2.302,0-4.166-1.864-4.166-4.166s1.864-4.166,4.166-4.166h98.333c2.303,0,4.166,1.864,4.166,4.166s-1.863,4.166-4.166,4.166Z" fill="#99b2c6"/></g></g><g><g><path d="M389.606,568.769c-.22,0-.329,0-.549,0-2.302-.329-3.836-2.412-3.617-4.714l17.978-133.742c.329-2.083,2.083-3.618,4.166-3.618h80.245c2.083,0,3.837,1.535,4.166,3.618l17.65,133.852c.328,2.302-1.316,4.385-3.618,4.714-2.302.328-4.385-1.316-4.714-3.618L484.102,435.136h-73.01l-17.43,130.235c-.22,1.973-1.974,3.398-4.056,3.398Z" fill="#99b2c6"/></g></g><g><g><path d="M430.825,430.861h52.181c16.553,0,34.203-8.989,36.724-25.323c3.399-21.815,4.276-42.973,3.289-62.376-1.096-21.925-12.278-42.316-29.599-55.909c0,0,12.936,66.433,3.508,107.98-5.481,23.679-66.103,35.628-66.103,35.628Z" fill="#99b2c6"/></g></g></g></g><g><g id="eqVzPDkn7AF368" transform="matrix(0 0 0 0 420.631 351.711)"><g><g><g><g><g><path d="M294.343,355.328h125.74c.329,0,.548-.219.548-.548c0-3.947-3.179-7.016-7.016-7.016h-119.162c-.329,0-.548.219-.548.548v6.577c-.11.22.219.439.438.439Z" fill="#99b2c6"/></g></g></g></g><g><g><path d="M252.021,285.37l15.676,66.433c.439,1.754,1.974,3.069,3.837,3.069h96.689c2.522,0,4.385-2.411,3.837-4.823l-15.676-66.433c-.439-1.754-1.974-3.069-3.837-3.069h-96.689c-2.521,0-4.385,2.412-3.837,4.823Z" fill="#99b2c6"/></g></g><g><g><g><path d="M302.903,317.975c.987,5.262,6.029,9.427,11.182,9.427c5.152,0,8.66-4.275,7.673-9.427-.986-5.262-6.029-9.428-11.181-9.428-5.153,0-8.661,4.166-7.674,9.428Z" fill="#fff"/></g></g></g><g><g><g><path d="M349.046,281.002l16.663,74.216h2.85c2.522,0,4.385-2.412,3.837-4.823L356.72,283.962c-.439-1.754-1.974-3.069-3.837-3.069h-3.837v.109Z" fill="#99b2c6"/></g></g></g></g></g><g id="eqVzPDkn7AF386" transform="matrix(0 0 0 0.5 352.871097 425.408293)"><g><g><g><g><path d="M158.628,360.589v5.153c0,2.96,2.521,5.371,5.59,5.371h385.551c3.069,0,5.59-2.411,5.59-5.371v-5.153c0-2.959-2.521-5.371-5.59-5.371h-385.551c-3.179,0-5.59,2.412-5.59,5.371Z" fill="#605bff"/></g><g><path d="M179.895,384.159h343.016c7.016,0,12.607-5.701,12.607-12.607v-.548h-368.34v.548c.11,6.906,5.701,12.607,12.717,12.607Z" fill="#605bff"/></g><g><path d="M174.414,449.275h348.936v9.099h-348.936v-9.099Z" fill="#605bff"/></g><g><path d="M540.012,570.411L495.066,384.158h15.786l44.946,186.253h-15.786Z" fill="#605bff"/></g><g><path d="M159.724,570.411L204.67,384.158h-15.786L143.938,570.411h15.786Z" fill="#605bff"/></g></g></g></g><g><path d="M158.518,363.111h396.732v2.302h-396.732v-2.302Z" fill="#1b48ca"/></g></g></g><g id="eqVzPDkn7AF402" transform="translate(-4.165508-419.0727)"><g><g><g><g><path d="M519.996,312.329l4.876.747-5.643,36.844-4.876-.747l5.643-36.844Z" fill="#3a36db"/></g></g><g><g><path d="M520,312.356l4.823.767-1.096-3.727-.548-1.973-1.096,1.644L520,312.356Z" fill="#ff8c64"/></g></g><g><g><path d="M514.74,346.551l4.876.747-.415,2.709-4.876-.747.415-2.709Z" fill="#35252f"/></g></g><g><g><path d="M514.299,351.382l4.276.658c.219,0,.329-.11.329-.329l.328-1.864-4.933-.767-.329,1.864c0,.219.11.438.329.438Z" fill="#ef452f"/></g></g><g><g><path d="M522.083,309.067l1.645.329-.549-1.973-1.096,1.644Z" fill="#35252f"/></g></g><g><g><path d="M519.603,347.3l-4.876-.747.298-1.951l4.877.747-.299,1.951Z" fill="#f68407"/></g></g><g><g><path d="M523.397,314.768l-4.165,27.296c0,.219-.22.329-.439.329s-.329-.219-.329-.438l4.166-27.297c0-.219.219-.329.439-.329.219,0,.328.219.328.439Z" fill="#3a36db"/></g></g><g><g><path d="M521.425,314.439l-4.166,27.296c0,.219-.219.329-.438.329-.22,0-.329-.219-.329-.439l4.165-27.296c0-.219.22-.329.439-.329s.329.219.329.439Z" fill="#3a36db"/></g></g></g><g><g><g><path d="M511.178,312.458l4.933.016-.121,37.272-4.933-.016.121-37.272Z" fill="#03a89e"/></g></g><g><g><path d="M511.12,312.465l4.933.11-1.645-3.618-.767-1.754-.877,1.754-1.644,3.508Z" fill="#ff8c64"/></g></g><g><g><path d="M511.012,347.099l4.933.016-.009,2.741-4.933-.016.009-2.741Z" fill="#35252f"/></g></g><g><g><path d="M511.338,351.931h4.276c.219,0,.328-.11.328-.329v-1.864h-4.933v1.864c0,.219.11.329.329.329Z" fill="#ef452f"/></g></g><g><g><path d="M512.763,308.958h1.644l-.767-1.754-.877,1.754Z" fill="#35252f"/></g></g><g><g><path d="M515.947,347.117l-4.933-.016.006-1.974l4.933.016-.006,1.974Z" fill="#3c7341"/></g></g><g><g><path d="M514.848,314.329l-.11,27.625c0,.22-.219.329-.329.329-.219,0-.329-.219-.329-.329l.11-27.625c0-.219.219-.329.329-.329.109,0,.329.11.329.329Z" fill="#03a89e"/></g></g><g><g><path d="M512.873,314.33l-.11,27.625c0,.22-.219.329-.328.329-.22,0-.329-.219-.329-.329l.109-27.625c0-.219.22-.329.329-.329.219,0,.329.11.329.329Z" fill="#03a89e"/></g></g></g><g><g><g><path d="M502.587,313.025l4.885-.694l5.244,36.903-4.884.695-5.245-36.904Z" fill="#06152b"/></g></g><g><g><path d="M502.57,313.014l4.933-.658-2.083-3.289-1.096-1.644-.658,1.863-1.096,3.728Z" fill="#ff8c64"/></g></g><g><g><path d="M507.434,347.279l4.884-.694.386,2.713-4.884.695-.386-2.714Z" fill="#35252f"/></g></g><g><g><path d="M508.489,352.041l4.276-.658c.219,0,.329-.219.329-.329l-.22-1.864-4.933.658.22,1.864c0,.219.109.329.328.329Z" fill="#ef452f"/></g></g><g><g><path d="M503.666,309.286l1.754-.219-1.096-1.644-.658,1.863Z" fill="#35252f"/></g></g><g><g><path d="M512.351,346.506l-4.884.694-.278-1.954l4.884-.694.278,1.954Z" fill="#1b48ca"/></g></g><g><g><path d="M506.517,314.329l3.837,27.296c0,.22-.11.439-.329.439-.22,0-.439-.11-.439-.329l-3.837-27.296c0-.22.11-.439.329-.439s.439.11.439.329Z" fill="#06152b"/></g></g><g><g><path d="M504.652,314.658l3.837,27.296c0,.22-.109.439-.329.439-.219,0-.438-.11-.438-.329l-3.837-27.297c0-.219.11-.438.329-.438.219-.11.329.11.438.329Z" fill="#06152b"/></g></g></g></g><g><g><g><path d="M500.924,327.266l.329,1.973.22,1.863.328,2.741.22,1.754.438,2.85.219,1.754.329,2.741.22,1.754.328,2.85.22,1.754.438,2.85.219,1.645.22,1.535h19.403l.219-1.535.22-1.645.329-2.85.219-1.754.329-2.85.219-1.754.438-2.741.22-1.754.329-2.85.219-1.754.329-2.741.219-1.863.329-1.973h-26.749Z" fill="#ff69b4"/></g></g><g><g><g><path d="M501.254,329.239l.219,1.864h25.652l.22-1.864h-26.091Z" fill="#ff2290"/></g></g><g><g><path d="M501.801,333.844l.22,1.754h24.556l.219-1.754h-24.995Z" fill="#ff2290"/></g></g><g><g><path d="M502.459,338.446l.22,1.754h23.35l.219-1.754h-23.789Z" fill="#ff2290"/></g></g><g><g><path d="M503.008,342.942l.219,1.754h22.145l.219-1.754h-22.583Z" fill="#ff2290"/></g></g><g><g><path d="M503.557,347.547l.219,1.754h21.048l.219-1.754h-21.486Z" fill="#ff2290"/></g></g><g><g><path d="M504.215,352.149l.219,1.645h19.842l.219-1.645h-20.28Z" fill="#ff2290"/></g></g></g></g></g><g id="eqVzPDkn7AF502" transform="matrix(0 0 0 0 198.602908 355.295166)"><g><g><g><path d="M176.497,326.608h41.986v6.03h-41.986v-6.03Z" fill="#fab623"/></g></g><g><g><path d="M175.839,350.287c4.276,5.043,16.444,5.153,20.39,5.043.768,0,1.206,0,1.206,0s16.444,1.096,21.596-5.043c2.851-3.508,1.316-8.66-.657-12.497-.439-.877-.987-1.754-1.426-2.521-.986-1.645-1.754-2.631-1.754-2.631h-35.518c0,0-1.644,2.192-3.179,5.042-1.864,3.947-3.508,9.099-.658,12.607Z" fill="#fab623"/></g></g><g><g><path d="M211.029,345.573c1.754,5.591-4.824,9.867-13.594,9.647c0,0,16.444,1.097,21.596-5.042c2.851-3.508,1.316-8.661-.657-12.498c0-.109-.11-.219-.11-.219c0-.109-.11-.219-.11-.219-.329-.658-.767-1.316-1.096-1.973-.987-1.645-1.754-2.631-1.754-2.631h-35.518c0,0-1.645,2.192-3.179,5.042h15.895c3.947,0,7.893.768,11.62,2.193c3.07,1.315,6.139,3.179,6.907,5.7Z" fill="#f68407"/></g></g></g><g><g><g><g><path d="M182.635,321.236c.439.767.987,1.425,1.426,1.973c1.425,1.973,2.631,3.289,2.74,3.398h21.377c.11-.109,1.206-1.425,2.741-3.398.438-.658.986-1.315,1.425-1.973c2.631-3.947,5.371-9.209,4.604-13.155-.219-1.206-.548-2.083-1.096-2.631-.219-.329-.439-.548-.768-.658-2.302-1.315-5.81,1.754-6.906,1.644-1.535-.109.987-7.673,4.495-13.045c3.288-5.043,5.371-11.62,1.425-14.032-.11-.109-.329-.219-.439-.219-.109-.11-.329-.11-.438-.219-5.153-1.864-7.016,5.042-9.209,4.056-2.192-.987,4.495-23.241-5.919-23.241-.11,0-.329,0-.549,0-.219,0-.328,0-.548,0-10.414,0-3.727,22.364-5.919,23.241-2.193.986-3.947-6.03-9.209-4.056-.11.109-.329.109-.438.219-.11.11-.329.11-.439.219-4.056,2.412-1.864,9.099,1.425,14.032c3.508,5.372,5.92,12.826,4.495,13.045-1.096.11-4.604-3.069-6.906-1.644-.22.11-.549.329-.768.658-.438.548-.767,1.425-1.096,2.631-.877,3.946,1.864,9.208,4.494,13.155Z" fill="#4f9d5c"/></g></g></g><g><g><g><path d="M196.996,259.737v66.871h.986v-66.871c-.109,0-.328,0-.548,0-.109,0-.329,0-.438,0Z" fill="#3c7341"/></g></g></g><g><g><g><path d="M197.106,298.106l.329.329.329.328.11-.109l16.443-18.965-.438-.329c-.11-.11-.329-.219-.439-.219l-15.566,17.978-.548.548-.22.439Z" fill="#3c7341"/></g></g></g><g><g><g><path d="M197.105,325.511l.329.329.329.329.109-.11l17.869-20.609c-.219-.329-.438-.548-.767-.658l-17.102,19.732-.548.549-.219.438Z" fill="#3c7341"/></g></g></g><g><g><g><path d="M180.554,279.579l16.443,18.965.11.11.329-.329.329-.329-.329-.438-.548-.548-15.567-17.979c-.11.11-.329.11-.439.219l-.328.329Z" fill="#3c7341"/></g></g></g><g><g><g><path d="M179.018,305.34l17.869,20.61.11.109.328-.328.329-.329-.329-.439-.548-.548-17.101-19.732c-.11.219-.329.438-.658.657Z" fill="#3c7341"/></g></g></g></g></g></g></g><g><g><g id="eqVzPDkn7AF540" transform="matrix(.4 0 0 0 372.983679 575.346)"><g><g><path d="M619.599,573.811c-30.091,0-54.484-1.914-54.484-4.275s24.393-4.275,54.484-4.275c30.09,0,54.483,1.914,54.483,4.275s-24.393,4.275-54.483,4.275Z" opacity="0.2" fill="#605bff"/></g></g><g><g><g><g><g><path d="M580.572,550.901l-8.441-126.617h97.676l-8.551,126.617h-80.684Z" fill="#ef452f"/></g></g></g><g><g><g><path d="M572.899,436.233l95.702,5.481.658-9.976h-96.689l.329,4.495Z" fill="#ad2f24"/></g></g></g><g><g><g><path d="M568.842,431.738h104.143c1.425,0,2.631-1.206,2.631-2.631v-5.81c0-1.425-1.206-2.631-2.631-2.631h-104.143c-1.425,0-2.631,1.206-2.631,2.631v5.81c0,1.425,1.206,2.631,2.631,2.631Z" fill="#ef5f44"/></g></g></g><g><g><g><path d="M583.093,452.02l2.412,42.315h70.927l2.412-42.315h-75.751Z" fill="#ad2f24"/></g></g></g><g><g><g><path d="M620.914,478.438c-1.938,0-3.508-1.571-3.508-3.508c0-1.938,1.57-3.508,3.508-3.508c1.937,0,3.508,1.57,3.508,3.508c0,1.937-1.571,3.508-3.508,3.508Z" fill="#ef452f"/></g></g></g><g><g><g><path d="M586.382,504.311l2.192,38.478h64.679l2.192-38.478h-69.063Z" fill="#ad2f24"/></g></g></g><g><g><g><path d="M620.914,528.428c-1.938,0-3.508-1.571-3.508-3.508s1.57-3.508,3.508-3.508c1.937,0,3.508,1.571,3.508,3.508s-1.571,3.508-3.508,3.508Z" fill="#ef452f"/></g></g></g><g><g><g><g><path d="M631.328,550.9c.22,0,.439,0,.548,0c9.757.11,18.198,6.907,20.391,16.225l.657,2.631h7.564l.768-18.856h-29.928Z" fill="#ad2f24"/></g></g></g><g><g><g><path d="M610.5,550.9c-.219,0-.438,0-.548,0-9.757.11-18.198,6.907-20.39,16.225l-.658,2.631h-7.564l-.768-18.856h29.928Z" fill="#ad2f24"/></g></g></g></g></g></g></g><g id="eqVzPDkn7AF583" transform="matrix(0 0 0 0 843.714823 79.409548)"><g><g><g><g><g><path d="M640.427,357.412c0,0,8.551,2.412,17.978-9.757c6.797-8.879,18.856-27.735,35.519-28.064c0,0-19.733-8.55-37.163.11-17.54,8.77-26.858,31.353-16.334,37.711Z" fill="#03a89e"/></g></g><g><g><path d="M635.275,392.711c.22,0,.439-.22.439-.439c0-.11-.548-11.949,1.754-25.323c2.192-12.388,7.235-28.612,19.403-36.176.22-.11.329-.439.11-.658-.11-.219-.438-.329-.658-.11-5.481,3.399-9.976,8.77-13.484,16.115-2.74,5.81-4.933,12.717-6.248,20.719-2.412,13.484-1.754,25.433-1.754,25.543c0,.109.219.329.438.329Z" fill="#06152b"/></g></g></g><g><g><g><path d="M633.85,330.444c0,0-8.66-1.973-10.962-17.321-1.645-11.072-3.07-33.435-17.43-41.767c0,0,21.486,2.083,32.448,18.198c10.963,16.115,8.222,40.452-4.056,40.89Z" fill="#03a89e"/></g></g><g><g><path d="M622.011,393.698c.219,0,.329-.109.439-.329.109-.109,5.81-15.895,9.975-35.299c2.412-11.401,3.947-21.815,4.276-31.024.548-11.51-.658-21.048-3.399-28.283-.109-.219-.328-.329-.548-.219-.219.11-.329.329-.219.548c6.139,16.334,2.85,41-.987,58.759-4.165,19.404-9.866,35.08-9.866,35.189-.109.22,0,.549.219.549c0,.109,0,.109.11.109Z" fill="#06152b"/></g></g></g><g><g><g><path d="M618.721,337.899c0,0-8.77,1.206-16.444-12.278-5.481-9.757-14.799-30.037-31.243-32.778c0,0,20.829-5.7,36.834,5.372c16.115,11.291,22.144,34.86,10.853,39.684Z" fill="#03a89e"/></g></g><g><g><path d="M617.405,393.698c.22,0,.439-.109.439-.329c0-.109,2.96-15.018,2.96-32.777c0-10.415-.877-19.842-2.741-27.955-2.302-10.085-6.139-18.197-11.291-24.117-.22-.219-.439-.219-.658,0s-.219.438,0,.658c11.511,13.045,13.922,35.08,13.813,51.414-.11,17.649-2.96,32.449-2.96,32.558-.11.219.109.439.438.548c0,0-.109,0,0,0Z" fill="#06152b"/></g></g></g><g><g><g><path d="M603.593,358.508c0,0-8.441,2.96-18.526-8.77-7.345-8.441-20.5-26.529-37.163-25.871c0,0,19.184-9.757,37.163-1.974c17.978,7.674,28.612,29.709,18.526,36.615Z" fill="#03a89e"/></g></g><g><g><path d="M611.815,393.698c.219,0,.438-.22.438-.439c0-.109.22-10.305-2.85-22.911-1.863-7.345-4.385-14.142-7.674-20.062-4.165-7.454-9.427-13.593-15.676-18.197-.219-.11-.438-.11-.658.109-.109.219-.109.439.11.658c13.922,10.414,20.171,26.31,23.021,37.821c3.07,12.497,2.85,22.473,2.85,22.582c0,.219.11.439.439.439Z" fill="#06152b"/></g></g></g><g><g><path d="M584.519,404.221c0,1.316.219,2.631.657,4.056c1.754,5.92,6.797,10.305,12.936,11.182c14.909,2.083,30.257,1.973,46.043-.11c6.906-.877,12.497-6.139,13.593-13.045.219-1.206.219-2.302.11-3.508-.329-3.946-2.412-7.783-6.359-11.62h-60.622c-4.385,4.166-6.358,8.551-6.358,13.045Z" fill="#ffd66b"/></g></g><g><g><path d="M618.94,410.251c19.294,0,31.792-3.727,38.808-6.906.219-.11.328-.329.219-.549-.11-.219-.329-.328-.548-.219-7.016,3.07-19.294,6.797-38.479,6.797-13.593,0-24.994-1.864-33.874-5.481-.219-.11-.548,0-.548.219-.109.219,0,.548.219.548c8.99,3.727,20.5,5.591,34.203,5.591Z" fill="#f68407"/></g></g></g></g></g></g><g><g id="eqVzPDkn7AF621" transform="matrix(0 0 0 1-225.883167 0.000013)"><g><g><g><g><path d="M40.671,268.616h7.2352v74.984h-7.2352v-74.984Z" fill="#f2b441"/></g></g></g><g><g><g><path d="M40.5614,272.233v6.468l7.3448,2.193v-8.661h-7.3448Z" fill="#f28d32"/></g></g></g></g><g><g><g><path d="M4.82266,270.919c26.20034,4.056,52.51024,4.056,78.71054,0L64.897,219.285c-13.8127-2.411-27.6254-2.411-41.3285,0L4.82266,270.919Z" fill="#3a36db"/></g></g><g><g><g><path d="M44.5072,266.972c11.9491,0,23.7886-.657,36.0665-1.863.4385,0,.6577-.439.6577-.768c0-.438-.4384-.657-.7673-.657-24.227,2.521-47.2482,2.521-72.35229,0-.4385,0-.76739.219-.76739.657c0,.439.21923.768.65773.768c12.49725,1.206,24.55595,1.863,36.50505,1.863Z" fill="#1b48ca"/></g></g></g><g><g><g><path d="M70.3785,265.986c.1096,0,.1096,0,.2193,0c.4385-.11.6577-.548.5481-.877L59.6353,218.957c-.1096-.439-.5482-.658-.8771-.548-.4385.109-.6577.548-.5481.877l11.5106,46.152c0,.329.3289.548.6578.548Z" fill="#1b48ca"/></g></g></g><g><g><g><path d="M17.9766,265.986c.3289,0,.6577-.219.7673-.548l11.401-46.152c.1096-.439-.1096-.768-.5481-.877-.4385-.11-.7674.109-.877.548l-11.401,46.152c-.1096.438.1096.767.5481.877c0,0,.0001,0,.1097,0Z" fill="#1b48ca"/></g></g></g><g><g><g><path d="M44.1779,266.972c.4385,0,.7674-.329.7674-.767v-47.906c0-.439-.3289-.768-.7674-.768s-.7674.329-.7674.768v48.015c.1097.329.4386.658.7674.658Z" fill="#1b48ca"/></g></g></g></g><g><g><g><path d="M26.4198,336.146v7.455h35.6281v-7.455L44.179,331.98l-17.7592,4.166Z" fill="#3a36db"/></g></g></g></g><g id="eqVzPDkn7AF655" transform="matrix(1 0 0 0 0 341.955)"><g><g><g><g><g><g><path d="M68.8432,333.733h-1.3155v-1.973l48.7833.109c1.644,0,3.069.658,4.165,1.754c1.097,1.097,1.754,2.522,1.754,4.166c0,3.289-2.631,5.81-5.919,5.81l-48.7833-.109v-1.645h1.3155v-8.112Z" fill="#ff69b4"/></g></g></g></g></g><g><g><g><g><path d="M68.5161,333.733v8.113l44.7269.109c2.192,0,3.946-1.863,3.946-4.056c0-1.096-.438-2.083-1.205-2.85-.768-.767-1.754-1.206-2.851-1.206l-44.6169-.11Z" fill="#fff"/></g></g></g></g><g><g><g><g><path d="M68.5153,335.816v1.206l43.6307.11c.329,0,.658-.329.658-.658s-.329-.658-.658-.658h-43.6307Z" fill="#ead6bf"/></g></g></g></g><g><g><g><g><path d="M68.5153,338.886v1.206l43.6307.109c.329,0,.658-.329.658-.658c0-.328-.329-.657-.658-.657h-43.6307Z" fill="#ead6bf"/></g></g></g></g></g><g><g><g><g><g><g><path d="M73.228,322.004h-1.3155v-1.974l48.7825.11c1.645,0,3.07.658,4.166,1.754c1.097,1.096,1.754,2.521,1.754,4.166c0,3.288-2.631,5.81-5.92,5.81l-48.7825-.11v-1.644h1.3155v-8.112Z" fill="#03a89e"/></g></g></g></g></g><g><g><g><g><path d="M72.8998,322.003v8.112l44.7272.11c2.192,0,3.946-1.864,3.946-4.056c0-1.097-.438-2.083-1.206-2.851-.767-.767-1.754-1.205-2.85-1.205l-44.6172-.11Z" fill="#fff"/></g></g></g></g><g><g><g><g><path d="M72.901,324.087v1.206l43.631.109c.329,0,.657-.328.657-.657s-.328-.658-.657-.658h-43.631Z" fill="#ead6bf"/></g></g></g></g><g><g><g><g><path d="M72.901,327.156v1.206l43.631.11c.329,0,.657-.329.657-.658s-.328-.658-.657-.658h-43.631Z" fill="#ead6bf"/></g></g></g></g></g><g><g><g><path d="M64.7876,310.274h-1.3155v-1.973l48.7829.109c1.644,0,3.07.658,4.166,1.754c1.096,1.097,1.754,2.522,1.754,4.166c0,3.289-2.631,5.81-5.92,5.81l-48.7829-.109v-1.645h1.3155v-8.112Z" fill="#3a36db"/></g></g><g><g><g><g><path d="M64.4584,310.273v8.113l44.7266.109c2.193,0,3.947-1.863,3.947-4.056c0-1.096-.439-2.083-1.206-2.85s-1.754-1.206-2.85-1.206l-44.6176-.11Z" fill="#fff"/></g></g></g></g><g><g><g><g><path d="M64.4577,312.357v1.206l43.6303.11c.329,0,.658-.329.658-.658s-.329-.658-.658-.658h-43.6303Z" fill="#ead6bf"/></g></g></g></g><g><g><g><g><path d="M64.4577,315.427v1.206l43.6303.109c.329,0,.658-.329.658-.657c0-.329-.329-.658-.658-.658h-43.6303Z" fill="#ead6bf"/></g></g></g></g></g></g><g id="eqVzPDkn7AF719" transform="matrix(.4 0 0 0 43.1475 575.346)"><g><g><g><path d="M68.5148,575.346c-37.84,0-68.515426-2.7-68.515426-6.03c0-3.329,30.675426-6.029,68.515426-6.029c37.8402,0,68.5152,2.7,68.5152,6.029c0,3.33-30.675,6.03-68.5152,6.03Z" opacity="0.2" fill="#605bff"/></g></g></g><g><g><path d="M8.7686,348.095L23.6775,569.537h89.7825l14.909-221.442h-119.6004Z" fill="#fab623"/></g></g><g><g><g><path d="M9.75552,362.675L126.944,369.471l.877-12.278h-118.50401l.43853,5.482Z" fill="#f68407"/></g></g></g><g><g><g><path d="M4.27505,357.193h128.58995c1.535,0,2.74-1.206,2.74-2.741v-8.112c0-1.535-1.205-2.74-2.74-2.74h-128.58995c-1.53474,0-2.74061,1.205-2.74061,2.74v8.112c0,1.535,1.20587,2.741,2.74061,2.741Z" fill="#edc85a"/></g></g></g><g><g><g><path d="M22.1439,382.188l2.9599,51.742h86.9322l2.96-51.742h-92.8521Z" fill="#f68407"/></g></g></g><g><g><g><path d="M68.5144,414.636c-2.4217,0-4.385-1.963-4.385-4.385s1.9633-4.385,4.385-4.385c2.4218,0,4.385,1.963,4.385,4.385s-1.9632,4.385-4.385,4.385Z" fill="#fab623"/></g></g></g><g><g><g><path d="M26.1996,446.099l2.7406,47.248h79.2588l2.74-47.248h-84.7394Z" fill="#f68407"/></g></g></g><g><g><g><path d="M68.5144,475.916c-2.4217,0-4.385-1.963-4.385-4.385c0-2.421,1.9633-4.385,4.385-4.385c2.4218,0,4.385,1.964,4.385,4.385c0,2.422-1.9632,4.385-4.385,4.385Z" fill="#fab623"/></g></g></g><g><g><g><path d="M29.7079,505.296l2.5214,43.411h72.6817l2.411-43.411h-77.6141Z" fill="#f68407"/></g></g></g><g><g><g><path d="M68.5144,531.386c-2.4217,0-4.385-1.963-4.385-4.385s1.9633-4.385,4.385-4.385c2.4218,0,4.385,1.963,4.385,4.385s-1.9632,4.385-4.385,4.385Z" fill="#fab623"/></g></g></g></g></g></g></g>
<script><![CDATA[
!function(t,n){"object"==typeof exports&&"undefined"!=typeof module?module.exports=n():"function"==typeof __SVGATOR_DEFINE__&&__SVGATOR_DEFINE__.amd?__SVGATOR_DEFINE__(n):((t="undefined"!=typeof globalThis?globalThis:t||self).__SVGATOR_PLAYER__=t.__SVGATOR_PLAYER__||{},t.__SVGATOR_PLAYER__["5c7f360c"]=n())}(this,(function(){"use strict";function t(t,n){var e=Object.keys(t);if(Object.getOwnPropertySymbols){var r=Object.getOwnPropertySymbols(t);n&&(r=r.filter((function(n){return Object.getOwnPropertyDescriptor(t,n).enumerable}))),e.push.apply(e,r)}return e}function n(n){for(var e=1;e<arguments.length;e++){var r=null!=arguments[e]?arguments[e]:{};e%2?t(Object(r),!0).forEach((function(t){o(n,t,r[t])})):Object.getOwnPropertyDescriptors?Object.defineProperties(n,Object.getOwnPropertyDescriptors(r)):t(Object(r)).forEach((function(t){Object.defineProperty(n,t,Object.getOwnPropertyDescriptor(r,t))}))}return n}function e(t){return(e="function"==typeof Symbol&&"symbol"==typeof Symbol.iterator?function(t){return typeof t}:function(t){return t&&"function"==typeof Symbol&&t.constructor===Symbol&&t!==Symbol.prototype?"symbol":typeof t})(t)}function r(t,n){if(!(t instanceof n))throw new TypeError("Cannot call a class as a function")}function i(t,n){for(var e=0;e<n.length;e++){var r=n[e];r.enumerable=r.enumerable||!1,r.configurable=!0,"value"in r&&(r.writable=!0),Object.defineProperty(t,r.key,r)}}function u(t,n,e){return n&&i(t.prototype,n),e&&i(t,e),t}function o(t,n,e){return n in t?Object.defineProperty(t,n,{value:e,enumerable:!0,configurable:!0,writable:!0}):t[n]=e,t}function a(t){return(a=Object.setPrototypeOf?Object.getPrototypeOf:function(t){return t.__proto__||Object.getPrototypeOf(t)})(t)}function l(t,n){return(l=Object.setPrototypeOf||function(t,n){return t.__proto__=n,t})(t,n)}function s(){if("undefined"==typeof Reflect||!Reflect.construct)return!1;if(Reflect.construct.sham)return!1;if("function"==typeof Proxy)return!0;try{return Boolean.prototype.valueOf.call(Reflect.construct(Boolean,[],(function(){}))),!0}catch(t){return!1}}function f(t,n,e){return(f=s()?Reflect.construct:function(t,n,e){var r=[null];r.push.apply(r,n);var i=new(Function.bind.apply(t,r));return e&&l(i,e.prototype),i}).apply(null,arguments)}function c(t,n){if(n&&("object"==typeof n||"function"==typeof n))return n;if(void 0!==n)throw new TypeError("Derived constructors may only return object or undefined");return function(t){if(void 0===t)throw new ReferenceError("this hasn't been initialised - super() hasn't been called");return t}(t)}function h(t,n,e){return(h="undefined"!=typeof Reflect&&Reflect.get?Reflect.get:function(t,n,e){var r=function(t,n){for(;!Object.prototype.hasOwnProperty.call(t,n)&&null!==(t=a(t)););return t}(t,n);if(r){var i=Object.getOwnPropertyDescriptor(r,n);return i.get?i.get.call(e):i.value}})(t,n,e||t)}function v(t){return function(t){if(Array.isArray(t))return y(t)}(t)||function(t){if("undefined"!=typeof Symbol&&null!=t[Symbol.iterator]||null!=t["@@iterator"])return Array.from(t)}(t)||function(t,n){if(!t)return;if("string"==typeof t)return y(t,n);var e=Object.prototype.toString.call(t).slice(8,-1);"Object"===e&&t.constructor&&(e=t.constructor.name);if("Map"===e||"Set"===e)return Array.from(t);if("Arguments"===e||/^(?:Ui|I)nt(?:8|16|32)(?:Clamped)?Array$/.test(e))return y(t,n)}(t)||function(){throw new TypeError("Invalid attempt to spread non-iterable instance.\nIn order to be iterable, non-array objects must have a [Symbol.iterator]() method.")}()}function y(t,n){(null==n||n>t.length)&&(n=t.length);for(var e=0,r=new Array(n);e<n;e++)r[e]=t[e];return r}Number.isInteger||(Number.isInteger=function(t){return"number"==typeof t&&isFinite(t)&&Math.floor(t)===t}),Number.EPSILON||(Number.EPSILON=2220446049250313e-31);var g=d(Math.pow(10,-6));function d(t){var n=arguments.length>1&&void 0!==arguments[1]?arguments[1]:6;if(Number.isInteger(t))return t;var e=Math.pow(10,n);return Math.round((+t+Number.EPSILON)*e)/e}function p(t,n){var e=arguments.length>2&&void 0!==arguments[2]?arguments[2]:g;return Math.abs(t-n)<e}var m=Math.PI/180;function b(t){return t}function w(t,n,e){var r=1-e;return 3*e*r*(t*r+n*e)+e*e*e}function A(){var t=arguments.length>0&&void 0!==arguments[0]?arguments[0]:0,n=arguments.length>1&&void 0!==arguments[1]?arguments[1]:0,e=arguments.length>2&&void 0!==arguments[2]?arguments[2]:1,r=arguments.length>3&&void 0!==arguments[3]?arguments[3]:1;return t<0||t>1||e<0||e>1?null:p(t,n)&&p(e,r)?b:function(i){if(i<=0)return t>0?i*n/t:0===n&&e>0?i*r/e:0;if(i>=1)return e<1?1+(i-1)*(r-1)/(e-1):1===e&&t<1?1+(i-1)*(n-1)/(t-1):1;for(var u,o=0,a=1;o<a;){var l=w(t,e,u=(o+a)/2);if(p(i,l))break;l<i?o=u:a=u}return w(n,r,u)}}function _(){return 1}function x(t){return 1===t?1:0}function k(){var t=arguments.length>0&&void 0!==arguments[0]?arguments[0]:1,n=arguments.length>1&&void 0!==arguments[1]?arguments[1]:0;if(1===t){if(0===n)return x;if(1===n)return _}var e=1/t;return function(t){return t>=1?1:(t+=n*e)-t%e}}var S=Math.sin,O=Math.cos,j=Math.acos,E=Math.asin,M=Math.tan,P=Math.atan2,I=Math.PI/180,R=180/Math.PI,F=Math.sqrt,N=function(){function t(){var n=arguments.length>0&&void 0!==arguments[0]?arguments[0]:1,e=arguments.length>1&&void 0!==arguments[1]?arguments[1]:0,i=arguments.length>2&&void 0!==arguments[2]?arguments[2]:0,u=arguments.length>3&&void 0!==arguments[3]?arguments[3]:1,o=arguments.length>4&&void 0!==arguments[4]?arguments[4]:0,a=arguments.length>5&&void 0!==arguments[5]?arguments[5]:0;r(this,t),this.m=[n,e,i,u,o,a],this.i=null,this.w=null,this.s=null}return u(t,[{key:"determinant",get:function(){var t=this.m;return t[0]*t[3]-t[1]*t[2]}},{key:"isIdentity",get:function(){if(null===this.i){var t=this.m;this.i=1===t[0]&&0===t[1]&&0===t[2]&&1===t[3]&&0===t[4]&&0===t[5]}return this.i}},{key:"point",value:function(t,n){var e=this.m;return{x:e[0]*t+e[2]*n+e[4],y:e[1]*t+e[3]*n+e[5]}}},{key:"translateSelf",value:function(){var t=arguments.length>0&&void 0!==arguments[0]?arguments[0]:0,n=arguments.length>1&&void 0!==arguments[1]?arguments[1]:0;if(!t&&!n)return this;var e=this.m;return e[4]+=e[0]*t+e[2]*n,e[5]+=e[1]*t+e[3]*n,this.w=this.s=this.i=null,this}},{key:"rotateSelf",value:function(){var t=arguments.length>0&&void 0!==arguments[0]?arguments[0]:0;if(t%=360){var n=S(t*=I),e=O(t),r=this.m,i=r[0],u=r[1];r[0]=i*e+r[2]*n,r[1]=u*e+r[3]*n,r[2]=r[2]*e-i*n,r[3]=r[3]*e-u*n,this.w=this.s=this.i=null}return this}},{key:"scaleSelf",value:function(){var t=arguments.length>0&&void 0!==arguments[0]?arguments[0]:1,n=arguments.length>1&&void 0!==arguments[1]?arguments[1]:1;if(1!==t||1!==n){var e=this.m;e[0]*=t,e[1]*=t,e[2]*=n,e[3]*=n,this.w=this.s=this.i=null}return this}},{key:"skewSelf",value:function(t,n){if(n%=360,(t%=360)||n){var e=this.m,r=e[0],i=e[1],u=e[2],o=e[3];t&&(t=M(t*I),e[2]+=r*t,e[3]+=i*t),n&&(n=M(n*I),e[0]+=u*n,e[1]+=o*n),this.w=this.s=this.i=null}return this}},{key:"resetSelf",value:function(){var t=arguments.length>0&&void 0!==arguments[0]?arguments[0]:1,n=arguments.length>1&&void 0!==arguments[1]?arguments[1]:0,e=arguments.length>2&&void 0!==arguments[2]?arguments[2]:0,r=arguments.length>3&&void 0!==arguments[3]?arguments[3]:1,i=arguments.length>4&&void 0!==arguments[4]?arguments[4]:0,u=arguments.length>5&&void 0!==arguments[5]?arguments[5]:0,o=this.m;return o[0]=t,o[1]=n,o[2]=e,o[3]=r,o[4]=i,o[5]=u,this.w=this.s=this.i=null,this}},{key:"recomposeSelf",value:function(){var t=arguments.length>0&&void 0!==arguments[0]?arguments[0]:null,n=arguments.length>1&&void 0!==arguments[1]?arguments[1]:null,e=arguments.length>2&&void 0!==arguments[2]?arguments[2]:null,r=arguments.length>3&&void 0!==arguments[3]?arguments[3]:null,i=arguments.length>4&&void 0!==arguments[4]?arguments[4]:null;return this.isIdentity||this.resetSelf(),t&&(t.x||t.y)&&this.translateSelf(t.x,t.y),n&&this.rotateSelf(n),e&&(e.x&&this.skewSelf(e.x,0),e.y&&this.skewSelf(0,e.y)),!r||1===r.x&&1===r.y||this.scaleSelf(r.x,r.y),i&&(i.x||i.y)&&this.translateSelf(i.x,i.y),this}},{key:"decompose",value:function(){var t=arguments.length>0&&void 0!==arguments[0]?arguments[0]:0,n=arguments.length>1&&void 0!==arguments[1]?arguments[1]:0,e=this.m,r=e[0]*e[0]+e[1]*e[1],i=[[e[0],e[1]],[e[2],e[3]]],u=F(r);if(0===u)return{origin:{x:d(e[4]),y:d(e[5])},translate:{x:d(t),y:d(n)},scale:{x:0,y:0},skew:{x:0,y:0},rotate:0};i[0][0]/=u,i[0][1]/=u;var o=e[0]*e[3]-e[1]*e[2]<0;o&&(u=-u);var a=i[0][0]*i[1][0]+i[0][1]*i[1][1];i[1][0]-=i[0][0]*a,i[1][1]-=i[0][1]*a;var l=F(i[1][0]*i[1][0]+i[1][1]*i[1][1]);if(0===l)return{origin:{x:d(e[4]),y:d(e[5])},translate:{x:d(t),y:d(n)},scale:{x:d(u),y:0},skew:{x:0,y:0},rotate:0};i[1][0]/=l,i[1][1]/=l,a/=l;var s=0;return i[1][1]<0?(s=j(i[1][1])*R,i[0][1]<0&&(s=360-s)):s=E(i[0][1])*R,o&&(s=-s),a=P(a,F(i[0][0]*i[0][0]+i[0][1]*i[0][1]))*R,o&&(a=-a),{origin:{x:d(e[4]),y:d(e[5])},translate:{x:d(t),y:d(n)},scale:{x:d(u),y:d(l)},skew:{x:d(a),y:0},rotate:d(s)}}},{key:"clone",value:function(){var t=this.m;return new this.constructor(t[0],t[1],t[2],t[3],t[4],t[5])}},{key:"toString",value:function(){var t=arguments.length>0&&void 0!==arguments[0]?arguments[0]:" ";if(null===this.s){var n=this.m.map((function(t){return d(t)}));1===n[0]&&0===n[1]&&0===n[2]&&1===n[3]?this.s="translate("+n[4]+t+n[5]+")":this.s="matrix("+n.join(t)+")"}return this.s}}],[{key:"create",value:function(t){return t?Array.isArray(t)?f(this,v(t)):t instanceof this?t.clone():(new this).recomposeSelf(t.origin,t.rotate,t.skew,t.scale,t.translate):new this}}]),t}();function T(t,n,e){return t>=.5?e:n}function B(t,n,e){return 0===t||n===e?n:t*(e-n)+n}function q(t,n,e){var r=B(t,n,e);return r<=0?0:r}function D(t,n,e){var r=B(t,n,e);return r<=0?0:r>=1?1:r}function L(t,n,e){return 0===t?n:1===t?e:{x:B(t,n.x,e.x),y:B(t,n.y,e.y)}}function C(t,n,e){var r=function(t,n,e){return Math.round(B(t,n,e))}(t,n,e);return r<=0?0:r>=255?255:r}function V(t,n,e){return 0===t?n:1===t?e:{r:C(t,n.r,e.r),g:C(t,n.g,e.g),b:C(t,n.b,e.b),a:B(t,null==n.a?1:n.a,null==e.a?1:e.a)}}function G(t,n){for(var e=[],r=0;r<t;r++)e.push(n);return e}function z(t,n){if(--n<=0)return t;var e=(t=Object.assign([],t)).length;do{for(var r=0;r<e;r++)t.push(t[r])}while(--n>0);return t}var Y,$=function(){function t(n){r(this,t),this.list=n,this.length=n.length}return u(t,[{key:"setAttribute",value:function(t,n){for(var e=this.list,r=0;r<this.length;r++)e[r].setAttribute(t,n)}},{key:"removeAttribute",value:function(t){for(var n=this.list,e=0;e<this.length;e++)n[e].removeAttribute(t)}},{key:"style",value:function(t,n){for(var e=this.list,r=0;r<this.length;r++)e[r].style[t]=n}}]),t}(),U=/-./g,Q=function(t,n){return n.toUpperCase()};function H(t){return"function"==typeof t?t:T}function J(t){return t?"function"==typeof t?t:Array.isArray(t)?function(t){var n=arguments.length>1&&void 0!==arguments[1]?arguments[1]:b;if(!Array.isArray(t))return n;switch(t.length){case 1:return k(t[0])||n;case 2:return k(t[0],t[1])||n;case 4:return A(t[0],t[1],t[2],t[3])||n}return n}(t,null):function(t,n){var e=arguments.length>2&&void 0!==arguments[2]?arguments[2]:b;switch(t){case"linear":return b;case"steps":return k(n.steps||1,n.jump||0)||e;case"bezier":case"cubic-bezier":return A(n.x1||0,n.y1||0,n.x2||0,n.y2||0)||e}return e}(t.type,t.value,null):null}function Z(t,n,e){var r=arguments.length>3&&void 0!==arguments[3]&&arguments[3],i=n.length-1;if(t<=n[0].t)return r?[0,0,n[0].v]:n[0].v;if(t>=n[i].t)return r?[i,1,n[i].v]:n[i].v;var u,o=n[0],a=null;for(u=1;u<=i;u++){if(!(t>n[u].t)){a=n[u];break}o=n[u]}return null==a?r?[i,1,n[i].v]:n[i].v:o.t===a.t?r?[u,1,a.v]:a.v:(t=(t-o.t)/(a.t-o.t),o.e&&(t=o.e(t)),r?[u,t,e(t,o.v,a.v)]:e(t,o.v,a.v))}function K(t,n){var e=arguments.length>2&&void 0!==arguments[2]?arguments[2]:null;return t&&t.length?"function"!=typeof n?null:("function"!=typeof e&&(e=null),function(r){var i=Z(r,t,n);return null!=i&&e&&(i=e(i)),i}):null}function W(t,n){return t.t-n.t}function X(t,n,r,i,u){var o,a="@"===r[0],l="#"===r[0],s=Y[r],f=T;switch(a?(o=r.substr(1),r=o.replace(U,Q)):l&&(r=r.substr(1)),e(s)){case"function":if(f=s(i,u,Z,J,r,a,n,t),l)return f;break;case"string":f=K(i,H(s));break;case"object":if((f=K(i,H(s.i),s.f))&&"function"==typeof s.u)return s.u(n,f,r,a,t)}return f?function(t,n,e){if(arguments.length>3&&void 0!==arguments[3]&&arguments[3])return t instanceof $?function(r){return t.style(n,e(r))}:function(r){return t.style[n]=e(r)};if(Array.isArray(n)){var r=n.length;return function(i){var u=e(i);if(null==u)for(var o=0;o<r;o++)t[o].removeAttribute(n);else for(var a=0;a<r;a++)t[a].setAttribute(n,u)}}return function(r){var i=e(r);null==i?t.removeAttribute(n):t.setAttribute(n,i)}}(n,r,f,a):null}function tt(t,n,r,i){if(!i||"object"!==e(i))return null;var u=null,o=null;return Array.isArray(i)?o=function(t){if(!t||!t.length)return null;for(var n=0;n<t.length;n++)t[n].e&&(t[n].e=J(t[n].e));return t.sort(W)}(i):(o=i.keys,u=i.data||null),o?X(t,n,r,o,u):null}function nt(t,n,e){if(!e)return null;var r=[];for(var i in e)if(e.hasOwnProperty(i)){var u=tt(t,n,i,e[i]);u&&r.push(u)}return r.length?r:null}function et(t,n){if(!n.settings.duration||n.settings.duration<0)return null;var e,r,i,u,o,a=function(t,n){if(!n)return null;var e=[];if(Array.isArray(n))for(var r=n.length,i=0;i<r;i++){var u=n[i];if(2===u.length){var o=null;if("string"==typeof u[0])o=t.getElementById(u[0]);else if(Array.isArray(u[0])){o=[];for(var a=0;a<u[0].length;a++)if("string"==typeof u[0][a]){var l=t.getElementById(u[0][a]);l&&o.push(l)}o=o.length?1===o.length?o[0]:new $(o):null}if(o){var s=nt(t,o,u[1]);s&&(e=e.concat(s))}}}else for(var f in n)if(n.hasOwnProperty(f)){var c=t.getElementById(f);if(c){var h=nt(t,c,n[f]);h&&(e=e.concat(h))}}return e.length?e:null}(t,n.elements);return a?(e=a,r=n.settings,i=r.duration,u=e.length,o=null,function(t,n){var a=r.iterations||1/0,l=(r.alternate&&a%2==0)^r.direction>0?i:0,s=t%i,f=1+(t-s)/i;n*=r.direction,r.alternate&&f%2==0&&(n=-n);var c=!1;if(f>a)s=l,c=!0,-1===r.fill&&(s=r.direction>0?0:i);else if(n<0&&(s=i-s),s===o)return!1;o=s;for(var h=0;h<u;h++)e[h](s);return c}):null}function rt(t,n){if(Y=n,!t||!t.root||!Array.isArray(t.animations))return null;var e=function(t){for(var n=document.getElementsByTagName("svg"),e=0;e<n.length;e++)if(n[e].id===t.root&&!n[e].svgatorAnimation)return n[e].svgatorAnimation=!0,n[e];return null}(t);if(!e)return null;var r=t.animations.map((function(t){return et(e,t)})).filter((function(t){return!!t}));return r.length?{svg:e,animations:r,animationSettings:t.animationSettings,options:t.options||void 0}:null}function it(t){var n=arguments.length>1&&void 0!==arguments[1]?arguments[1]:null,e=arguments.length>2&&void 0!==arguments[2]?arguments[2]:Number,r=arguments.length>3&&void 0!==arguments[3]?arguments[3]:"undefined"!=typeof BigInt&&BigInt,i="0x"+(t.replace(/[^0-9a-fA-F]+/g,"")||27);return n&&r&&e.isSafeInteger&&!e.isSafeInteger(+i)?e(r(i))%n+n:+i}function ut(t,n,e){return!t||!e||n>t.length?t:t.substring(0,n)+ut(t.substring(n+1),e,e)}function ot(t){var n=arguments.length>1&&void 0!==arguments[1]?arguments[1]:27;return!t||t%n?t%n:[0,1].includes(n)?n:ot(t/n,n)}function at(t,n,e){if(t&&t.length){var r=it(e),i=ot(r)+5,u=ut(t,ot(r,5),i);return u=u.replace(/\x7c$/g,"==").replace(/\x2f$/g,"="),u=function(t,n,e){var r=+("0x"+t.substring(0,4));t=t.substring(4);for(var i=it(n,r)%r+e%27,u=[],o=0;o<t.length;o+=2)if("|"!==t[o]){var a=+("0x"+t[o]+t[o+1])-i;u.push(a)}else{var l=+("0x"+t.substring(o+1,o+1+4))-i;o+=3,u.push(l)}return String.fromCharCode.apply(String,u)}(u=(u=atob(u)).replace(/[\x41-\x5A]/g,""),n,r),u=JSON.parse(u)}}var lt=[{key:"alternate",def:!1},{key:"fill",def:1},{key:"iterations",def:0},{key:"direction",def:1},{key:"speed",def:1},{key:"fps",def:100}],st=function(){function t(n,e){var i=this,u=arguments.length>2&&void 0!==arguments[2]?arguments[2]:null;r(this,t),this._id=0,this._running=!1,this._rollingBack=!1,this._animations=n,this._settings=e,(!u||u<"2022-05-02")&&delete this._settings.speed,lt.forEach((function(t){i._settings[t.key]=i._settings[t.key]||t.def})),this.duration=e.duration,this.offset=e.offset||0,this.rollbackStartOffset=0}return u(t,[{key:"alternate",get:function(){return this._settings.alternate}},{key:"fill",get:function(){return this._settings.fill}},{key:"iterations",get:function(){return this._settings.iterations}},{key:"direction",get:function(){return this._settings.direction}},{key:"speed",get:function(){return this._settings.speed}},{key:"fps",get:function(){return this._settings.fps}},{key:"maxFiniteDuration",get:function(){return this.iterations>0?this.iterations*this.duration:this.duration}},{key:"_apply",value:function(t){for(var n=arguments.length>1&&void 0!==arguments[1]?arguments[1]:{},e=this._animations,r=e.length,i=0,u=0;u<r;u++)n[u]?i++:(n[u]=e[u](t,1),n[u]&&i++);return i}},{key:"_rollback",value:function(t){var n=this,e=1/0,r=null;this.rollbackStartOffset=t,this._rollingBack=!0,this._running=!0;this._id=window.requestAnimationFrame((function i(u){if(n._rollingBack){null==r&&(r=u);var o=Math.round(t-(u-r)*n.speed);if(o>n.duration&&e!==1/0){var a=!!n.alternate&&o/n.duration%2>1,l=o%n.duration;o=(l+=a?n.duration:0)||n.duration}var s=(n.fps?1e3/n.fps:0)*n.speed,f=Math.max(0,o);f<=e-s&&(n.offset=f,e=f,n._apply(f));var c=n.iterations>0&&-1===n.fill&&o>=n.maxFiniteDuration;(o<=0||n.offset<o||c)&&n.stop(),n._id=window.requestAnimationFrame(i)}}))}},{key:"_start",value:function(){var t=this,n=arguments.length>0&&void 0!==arguments[0]?arguments[0]:0,e=-1/0,r=null,i={};this._running=!0;var u=function u(o){null==r&&(r=o);var a=Math.round((o-r)*t.speed+n),l=(t.fps?1e3/t.fps:0)*t.speed;if(a>=e+l&&!t._rollingBack&&(t.offset=a,e=a,t._apply(a,i)===t._animations.length))return void t.pause(!0);t._id=window.requestAnimationFrame(u)};this._id=window.requestAnimationFrame(u)}},{key:"_pause",value:function(){this._id&&window.cancelAnimationFrame(this._id),this._running=!1}},{key:"play",value:function(){if(!this._running)return this._rollingBack?this._rollback(this.offset):this._start(this.offset)}},{key:"stop",value:function(){this._pause(),this.offset=0,this.rollbackStartOffset=0,this._rollingBack=!1,this._apply(0)}},{key:"reachedToEnd",value:function(){return this.iterations>0&&this.offset>=this.iterations*this.duration}},{key:"restart",value:function(){var t=arguments.length>0&&void 0!==arguments[0]&&arguments[0];this.stop(t),this.play(t)}},{key:"pause",value:function(){this._pause()}},{key:"reverse",value:function(){this.direction=-this.direction}}],[{key:"build",value:function(t,n){delete t.animationSettings,t.options=at(t.options,t.root,"5c7f360c"),t.animations.map((function(n){n.settings=at(n.s,t.root,"5c7f360c"),delete n.s,t.animationSettings||(t.animationSettings=n.settings)}));var e=t.version;if(!(t=rt(t,n)))return null;var r=t.options||{},i=new this(t.animations,t.animationSettings,e);return{el:t.svg,options:r,player:i}}},{key:"push",value:function(t){return this.build(t)}},{key:"init",value:function(){var t=this,n=window.__SVGATOR_PLAYER__&&window.__SVGATOR_PLAYER__["5c7f360c"];Array.isArray(n)&&n.splice(0).forEach((function(n){return t.build(n)}))}}]),t}();function ft(t){return d(t)+""}function ct(t){var n=arguments.length>1&&void 0!==arguments[1]?arguments[1]:" ";return t&&t.length?t.map(ft).join(n):""}function ht(t){if(!t)return"transparent";if(null==t.a||t.a>=1){var n=function(t){return 1===(t=parseInt(t).toString(16)).length?"0"+t:t},e=function(t){return t.charAt(0)===t.charAt(1)},r=n(t.r),i=n(t.g),u=n(t.b);return e(r)&&e(i)&&e(u)&&(r=r.charAt(0),i=i.charAt(0),u=u.charAt(0)),"#"+r+i+u}return"rgba("+t.r+","+t.g+","+t.b+","+t.a+")"}function vt(t){return t?"url(#"+t+")":"none"}!function(){for(var t=0,n=["ms","moz","webkit","o"],e=0;e<n.length&&!window.requestAnimationFrame;++e)window.requestAnimationFrame=window[n[e]+"RequestAnimationFrame"],window.cancelAnimationFrame=window[n[e]+"CancelAnimationFrame"]||window[n[e]+"CancelRequestAnimationFrame"];window.requestAnimationFrame||(window.requestAnimationFrame=function(n){var e=Date.now(),r=Math.max(0,16-(e-t)),i=window.setTimeout((function(){n(e+r)}),r);return t=e+r,i},window.cancelAnimationFrame=window.clearTimeout)}();var yt={f:null,i:function(t,n,e){return 0===t?n:1===t?e:{x:q(t,n.x,e.x),y:q(t,n.y,e.y)}},u:function(t,n){return function(e){var r=n(e);t.setAttribute("rx",ft(r.x)),t.setAttribute("ry",ft(r.y))}}},gt={f:null,i:function(t,n,e){return 0===t?n:1===t?e:{width:q(t,n.width,e.width),height:q(t,n.height,e.height)}},u:function(t,n){return function(e){var r=n(e);t.setAttribute("width",ft(r.width)),t.setAttribute("height",ft(r.height))}}};Object.freeze({M:2,L:2,Z:0,H:1,V:1,C:6,Q:4,T:2,S:4,A:7});var dt={},pt=null;function mt(t){var n=function(){if(pt)return pt;if("object"!==("undefined"==typeof document?"undefined":e(document))||!document.createElementNS)return{};var t=document.createElementNS("http://www.w3.org/2000/svg","svg");return t&&t.style?(t.style.position="absolute",t.style.opacity="0.01",t.style.zIndex="-9999",t.style.left="-9999px",t.style.width="1px",t.style.height="1px",pt={svg:t}):{}}().svg;if(!n)return function(t){return null};var r=document.createElementNS(n.namespaceURI,"path");r.setAttributeNS(null,"d",t),r.setAttributeNS(null,"fill","none"),r.setAttributeNS(null,"stroke","none"),n.appendChild(r);var i=r.getTotalLength();return function(t){var n=r.getPointAtLength(i*t);return{x:n.x,y:n.y}}}function bt(t){return dt[t]?dt[t]:dt[t]=mt(t)}function wt(t,n,e,r){if(!t||!r)return!1;var i=["M",t.x,t.y];if(n&&e&&(i.push("C"),i.push(n.x),i.push(n.y),i.push(e.x),i.push(e.y)),n?!e:e){var u=n||e;i.push("Q"),i.push(u.x),i.push(u.y)}return n||e||i.push("L"),i.push(r.x),i.push(r.y),i.join(" ")}function At(t,n,e,r){var i=arguments.length>4&&void 0!==arguments[4]?arguments[4]:1,u=wt(t,n,e,r),o=bt(u);try{return o(i)}catch(t){return null}}function _t(t,n,e){return t+(n-t)*e}function xt(t,n,e){var r=arguments.length>3&&void 0!==arguments[3]&&arguments[3],i={x:_t(t.x,n.x,e),y:_t(t.y,n.y,e)};return r&&(i.a=kt(t,n)),i}function kt(t,n){return Math.atan2(n.y-t.y,n.x-t.x)}function St(t,n,e,r){var i=1-r;return i*i*t+2*i*r*n+r*r*e}function Ot(t,n,e,r){return 2*(1-r)*(n-t)+2*r*(e-n)}function jt(t,n,e,r){var i=arguments.length>4&&void 0!==arguments[4]&&arguments[4],u=At(t,n,null,e,r);return u||(u={x:St(t.x,n.x,e.x,r),y:St(t.y,n.y,e.y,r)}),i&&(u.a=Et(t,n,e,r)),u}function Et(t,n,e,r){return Math.atan2(Ot(t.y,n.y,e.y,r),Ot(t.x,n.x,e.x,r))}function Mt(t,n,e,r,i){var u=i*i;return i*u*(r-t+3*(n-e))+3*u*(t+e-2*n)+3*i*(n-t)+t}function Pt(t,n,e,r,i){var u=1-i;return 3*(u*u*(n-t)+2*u*i*(e-n)+i*i*(r-e))}function It(t,n,e,r,i){var u=arguments.length>5&&void 0!==arguments[5]&&arguments[5],o=At(t,n,e,r,i);return o||(o={x:Mt(t.x,n.x,e.x,r.x,i),y:Mt(t.y,n.y,e.y,r.y,i)}),u&&(o.a=Rt(t,n,e,r,i)),o}function Rt(t,n,e,r,i){return Math.atan2(Pt(t.y,n.y,e.y,r.y,i),Pt(t.x,n.x,e.x,r.x,i))}function Ft(t,n,e){var r=arguments.length>3&&void 0!==arguments[3]&&arguments[3];if(Tt(n)){if(Bt(e))return jt(n,e.start,e,t,r)}else if(Tt(e)){if(qt(n))return jt(n,n.end,e,t,r)}else{if(qt(n))return Bt(e)?It(n,n.end,e.start,e,t,r):jt(n,n.end,e,t,r);if(Bt(e))return jt(n,e.start,e,t,r)}return xt(n,e,t,r)}function Nt(t,n,e){var r=Ft(t,n,e,!0);return r.a=function(t){return arguments.length>1&&void 0!==arguments[1]&&arguments[1]?t+Math.PI:t}(r.a)/m,r}function Tt(t){return!t.type||"corner"===t.type}function Bt(t){return null!=t.start&&!Tt(t)}function qt(t){return null!=t.end&&!Tt(t)}var Dt=new N;var Lt={f:ft,i:B},Ct={f:ft,i:D};function Vt(t,n,e){return t.map((function(t){return function(t,n,e){var r=t.v;if(!r||"g"!==r.t||r.s||!r.v||!r.r)return t;var i=e.getElementById(r.r),u=i&&i.querySelectorAll("stop")||[];return r.s=r.v.map((function(t,n){var e=u[n]&&u[n].getAttribute("offset");return{c:t,o:e=d(parseInt(e)/100)}})),delete r.v,t}(t,0,e)}))}var Gt={gt:"gradientTransform",c:{x:"cx",y:"cy"},rd:"r",f:{x:"x1",y:"y1"},to:{x:"x2",y:"y2"}};function zt(t,n,r,i,u,o,a,l){return Vt(t,0,l),n=function(t,n,e){for(var r,i,u,o=t.length-1,a={},l=0;l<=o;l++)(r=t[l]).e&&(r.e=n(r.e)),r.v&&"g"===(i=r.v).t&&i.r&&(u=e.getElementById(i.r))&&(a[i.r]={e:u,s:u.querySelectorAll("stop")});return a}(t,i,l),function(i){var u=r(i,t,Yt);if(!u)return"none";if("c"===u.t)return ht(u.v);if("g"===u.t){if(!n[u.r])return vt(u.r);var o=n[u.r];return function(t,n){for(var e=t.s,r=e.length;r<n.length;r++){var i=e[e.length-1].cloneNode();i.id=Qt(i.id),t.e.appendChild(i),e=t.s=t.e.querySelectorAll("stop")}for(var u=0,o=e.length,a=n.length-1;u<o;u++)e[u].setAttribute("stop-color",ht(n[Math.min(u,a)].c)),e[u].setAttribute("offset",n[Math.min(u,a)].o)}(o,u.s),Object.keys(Gt).forEach((function(t){if(void 0!==u[t])if("object"!==e(Gt[t])){var n,r="gt"===t?(n=u[t],Array.isArray(n)?"matrix("+n.join(" ")+")":""):u[t],i=Gt[t];o.e.setAttribute(i,r)}else Object.keys(Gt[t]).forEach((function(n){if(void 0!==u[t][n]){var e=u[t][n],r=Gt[t][n];o.e.setAttribute(r,e)}}))})),vt(u.r)}return"none"}}function Yt(t,e,r){if(0===t)return e;if(1===t)return r;if(e&&r){var i=e.t;if(i===r.t)switch(e.t){case"c":return{t:i,v:V(t,e.v,r.v)};case"g":if(e.r===r.r){var u={t:i,s:$t(t,e.s,r.s),r:e.r};return e.gt&&r.gt&&(u.gt=function(t,n,e){var r=n.length;if(r!==e.length)return T(t,n,e);for(var i=new Array(r),u=0;u<r;u++)i[u]=B(t,n[u],e[u]);return i}(t,e.gt,r.gt)),e.c?(u.c=L(t,e.c,r.c),u.rd=q(t,e.rd,r.rd)):e.f&&(u.f=L(t,e.f,r.f),u.to=L(t,e.to,r.to)),u}}if("c"===e.t&&"g"===r.t||"c"===r.t&&"g"===e.t){var o="c"===e.t?e:r,a="g"===e.t?n({},e):n({},r),l=a.s.map((function(t){return{c:o.v,o:t.o}}));return a.s="c"===e.t?$t(t,l,a.s):$t(t,a.s,l),a}}return T(t,e,r)}function $t(t,n,e){if(n.length===e.length)return n.map((function(n,r){return Ut(t,n,e[r])}));for(var r=Math.max(n.length,e.length),i=[],u=0;u<r;u++){var o=Ut(t,n[Math.min(u,n.length-1)],e[Math.min(u,e.length-1)]);i.push(o)}return i}function Ut(t,n,e){return{o:D(t,n.o,e.o||0),c:V(t,n.c,e.c||{})}}function Qt(t){return t.replace(/-fill-([0-9]+)$/,(function(t,n){return"-fill-"+(+n+1)}))}var Ht={fill:zt,"fill-opacity":Ct,stroke:zt,"stroke-opacity":Ct,"stroke-width":Lt,"stroke-dashoffset":{f:ft,i:B},"stroke-dasharray":{f:function(t){var n=arguments.length>1&&void 0!==arguments[1]?arguments[1]:" ";return t&&t.length>0&&(t=t.map((function(t){return d(t,4)}))),ct(t,n)},i:function(t,n,e){var r,i,u,o=n.length,a=e.length;if(o!==a)if(0===o)n=G(o=a,0);else if(0===a)a=o,e=G(o,0);else{var l=(u=(r=o)*(i=a)/function(t,n){for(var e;n;)e=n,n=t%n,t=e;return t||1}(r,i))<0?-u:u;n=z(n,Math.floor(l/o)),e=z(e,Math.floor(l/a)),o=a=l}for(var s=[],f=0;f<o;f++)s.push(d(q(t,n[f],e[f])));return s}},opacity:Ct,transform:function(t,n,r,i){if(!(t=function(t,n){if(!t||"object"!==e(t))return null;var r=!1;for(var i in t)t.hasOwnProperty(i)&&(t[i]&&t[i].length?(t[i].forEach((function(t){t.e&&(t.e=n(t.e))})),r=!0):delete t[i]);return r?t:null}(t,i)))return null;var u=function(e,i,u){var o=arguments.length>3&&void 0!==arguments[3]?arguments[3]:null;return t[e]?r(i,t[e],u):n&&n[e]?n[e]:o};return n&&n.a&&t.o?function(n){var e=r(n,t.o,Nt);return Dt.recomposeSelf(e,u("r",n,B,0)+e.a,u("k",n,L),u("s",n,L),u("t",n,L)).toString()}:function(t){return Dt.recomposeSelf(u("o",t,Ft,null),u("r",t,B,0),u("k",t,L),u("s",t,L),u("t",t,L)).toString()}},r:Lt,"#size":gt,"#radius":yt,_:function(t,n){if(Array.isArray(t))for(var e=0;e<t.length;e++)this[t[e]]=n;else this[t]=n}},Jt=function(t){!function(t,n){if("function"!=typeof n&&null!==n)throw new TypeError("Super expression must either be null or a function");t.prototype=Object.create(n&&n.prototype,{constructor:{value:t,writable:!0,configurable:!0}}),n&&l(t,n)}(o,t);var n,e,i=(n=o,e=s(),function(){var t,r=a(n);if(e){var i=a(this).constructor;t=Reflect.construct(r,arguments,i)}else t=r.apply(this,arguments);return c(this,t)});function o(){return r(this,o),i.apply(this,arguments)}return u(o,null,[{key:"build",value:function(t){var n=h(a(o),"build",this).call(this,t,Ht);if(!n)return null;n.el,n.options,function(t,n,e){t.play()}(n.player)}}]),o}(st);return Jt.init(),Jt}));
(function(s,i,o,w,d,a,b){w[o]=w[o]||{};w[o][s]=w[o][s]||[];w[o][s].push(i);})('5c7f360c',{"root":"eqVzPDkn7AF1","version":"2022-05-04","animations":[{"elements":{"eqVzPDkn7AF4":{"transform":{"data":{"o":{"x":346.5,"y":322.400513,"type":"corner"},"t":{"x":-346.5,"y":-322.400513}},"keys":{"s":[{"t":0,"v":{"x":0,"y":0}},{"t":1000,"v":{"x":1,"y":1},"e":[0.42,0,0.58,1]}]}}},"eqVzPDkn7AF9":{"transform":{"data":{"o":{"x":338.970512,"y":569.112,"type":"corner"},"t":{"x":-338.970512,"y":-569.112}},"keys":{"s":[{"t":600,"v":{"x":0,"y":0}},{"t":1400,"v":{"x":1,"y":1},"e":[0.42,0,0.58,1]}]}}},"eqVzPDkn7AF13":{"transform":{"data":{"t":{"x":-1004.420397,"y":-959.34634}},"keys":{"o":[{"t":1200,"v":{"x":360.559341,"y":357.575714,"type":"corner"}},{"t":2200,"v":{"x":1004.420401,"y":959.346341,"type":"corner"},"e":[0.42,0,0.58,1]}]}}},"eqVzPDkn7AF357":{"transform":{"data":{"o":{"x":383.577,"y":568.920349,"type":"corner"},"t":{"x":-383.576999,"y":-568.920344}},"keys":{"s":[{"t":1200,"v":{"x":0,"y":0}},{"t":1700,"v":{"x":1,"y":1},"e":[0.25,1,0.25,1]}]}}},"eqVzPDkn7AF368":{"transform":{"data":{"o":{"x":420.631,"y":351.711,"type":"corner"},"t":{"x":-420.630991,"y":-351.710998}},"keys":{"s":[{"t":1200,"v":{"x":0,"y":0}},{"t":1700,"v":{"x":1.15,"y":1},"e":[0.42,0,0.58,1]},{"t":2200,"v":{"x":1,"y":1}}]}}},"eqVzPDkn7AF386":{"transform":{"data":{"o":{"x":352.871097,"y":850.816583,"type":"corner"},"t":{"x":-352.871087,"y":-850.816581}},"keys":{"s":[{"t":500,"v":{"x":0,"y":0.5}},{"t":1600,"v":{"x":1,"y":1},"e":[0.42,0,0.58,1]}]}}},"eqVzPDkn7AF402":{"transform":{"data":{"t":{"x":-518.464,"y":-750.339195}},"keys":{"o":[{"t":2200,"v":{"x":514.298492,"y":331.266495,"type":"corner"}},{"t":3000,"v":{"x":518.464,"y":750.339196,"type":"corner"}}]}}},"eqVzPDkn7AF502":{"transform":{"data":{"o":{"x":198.602908,"y":355.295166,"type":"corner"},"t":{"x":-198.602908,"y":-355.295166}},"keys":{"s":[{"t":1800,"v":{"x":0,"y":0}},{"t":2300,"v":{"x":1.15,"y":1.15},"e":[0.42,0,0.58,1]},{"t":2700,"v":{"x":1,"y":1}}]}}},"eqVzPDkn7AF540":{"transform":{"data":{"o":{"x":621.639465,"y":575.346,"type":"corner"},"t":{"x":-621.639465,"y":-575.345997}},"keys":{"s":[{"t":300,"v":{"x":0.4,"y":0},"e":[0,0,0.58,1]},{"t":1200,"v":{"x":1,"y":1.1}},{"t":1700,"v":{"x":1,"y":1}}]}}},"eqVzPDkn7AF583":{"transform":{"data":{"o":{"x":843.714823,"y":79.409548,"type":"corner"},"t":{"x":-843.71482,"y":-79.409546}},"keys":{"s":[{"t":700,"v":{"x":0,"y":0}},{"t":1900,"v":{"x":1,"y":1}}]}}},"eqVzPDkn7AF621":{"transform":{"data":{"o":{"x":-225.883167,"y":276.5635,"type":"corner"},"t":{"x":225.883168,"y":-276.563487}},"keys":{"s":[{"t":1000,"v":{"x":0,"y":1}},{"t":2000,"v":{"x":1,"y":1}}]}}},"eqVzPDkn7AF655":{"transform":{"data":{"o":{"x":95.045,"y":341.955,"type":"corner"},"t":{"x":-95.045,"y":-341.954997}},"keys":{"s":[{"t":1000,"v":{"x":1,"y":0},"e":[0.42,0,0.58,1]},{"t":1500,"v":{"x":1.1,"y":1.1}},{"t":1800,"v":{"x":1,"y":1}}]}}},"eqVzPDkn7AF719":{"transform":{"data":{"o":{"x":71.9125,"y":575.346,"type":"corner"},"t":{"x":-71.9125,"y":-575.345993}},"keys":{"s":[{"t":700,"v":{"x":0.4,"y":0},"e":[0,0,0.58,1]},{"t":1500,"v":{"x":1.1,"y":1}},{"t":2000,"v":{"x":1,"y":1}}]}}}},"s":"MXDA1ZGI3NWVhME5iMWLFlOWRiMGE1YWJhYTVNlNzY2ZjZjVTZjNmM2QODVlYTBhNWFlYTFYOBWZiMGE1YWJJYWE1ZTUc2NmQ2OEI1ZWE1YjBQhMWFlOWRCYjBhNWFiDYWFhZjVlUTc2NmQ2OUDVlYTJhNWE4WGE4NWFU3NjZkNjg1ZTlkYThFiMGExYWVhYU05ZGIwEYTFONWVWNzZhMjlkTNGE4YWZhMTY4NWVhZkXRhY2ExYTFhMDVlNzYC2ZDY4NWVHYTJhY2FmLTzVlNzY2ZDZjNmNiORQ|"}],"options":"MXDAxMDg4MmY4MDgxNmIU3ZlI4MTJmNDcyZjcJ5N2M2ZTcxMmY4YQ|"},'__SVGATOR_PLAYER__',window,document)
]]></script>
</svg>
