<svg id="ez1U3jblBmV1"
    xmlns="http://www.w3.org/2000/svg"
    xmlns:xlink="http://www.w3.org/1999/xlink" viewBox="0 0 221 199" shape-rendering="geometricPrecision" text-rendering="geometricPrecision">
    <g transform="matrix(.605352 0 0 0.611015 43.561676 38.906836)">
        <g id="ez1U3jblBmV3" transform="matrix(0 0 0 0 115 107)">
            <circle r="92" transform="translate(115 107)" opacity="0.05" fill="#3a36db"/>
        </g>
        <g id="ez1U3jblBmV5" transform="matrix(0 0 0 0 120.076127 216.186451)">
            <g>
                <path d="M115.407,73.2109c2.239,21.833-10.593,30.9391-14.229,33.0571.03.226.045.466.045.707v31.149l5.98,3.291h31.45c.06,0,.135,0,.195.015c7.243.991,7.528-7.574,7.528-8.64-.045-.541.256-1.082.782-1.308c4.538-1.953,2.614-8.084,2.434-8.61-.24-.616.045-1.322.646-1.622c5.89-2.855,2.179-7.994,1.698-8.641-.391-.42-.451-1.066-.135-1.577c10.668-16.3637-22.66-12.3217-24.793-12.0512-.166.03-.346.0451-.526,0-.706-.1353-1.157-.8114-1.022-1.5177c4.974-25.1988-6.491-24.9283-10.083-24.2822l.03.03Z" clip-rule="evenodd" fill="#3a36db" fill-rule="evenodd"/>
                <path d="M99.0884,138.5v-31.525c0-.751-.3005-1.427-.7964-1.908-.4958-.496-1.172-.796-1.9083-.796h-16.679c-.7513,0-1.4275.3-1.9083.796-.4959.496-.7964,1.172-.7964,1.908v31.525c0,.751.3005,1.428.7964,1.908.4958.496,1.172.797,1.9083.797h16.679c.7513,0,1.4275-.301,1.9083-.797.4058-.405.6762-.931.7664-1.517c0-.09,0-.196.03-.286c0-.03,0-.075,0-.105Z" clip-rule="evenodd" fill="#3a36db" fill-rule="evenodd"/>
            </g>
        </g>
        <g id="ez1U3jblBmV9" transform="matrix(0 0 0 0 122.293472 180.999099)">
            <path d="M138.767,7.04776c-.86-.2355-1.718-.226-2.698-.21513-.245.00272-.49.00544-.736.00815c1.214-1.11612,2.427-2.23224,3.27-3.58929.241-.37023-.254-.73231-.496-.48458-1.458,1.11884-2.793,2.35882-4.127,3.5988-.018-1.59255-.035-3.1851-.053-4.77766-.008-.73502-1.111-.722795-1.103.01223.018,1.59255.037,3.30761.055,4.90016-1.116-1.09031-2.229-2.05812-3.343-3.02592-.494-.36208-1.1.25723-.606.61931.869.97052,1.737,1.94104,2.729,2.91021-1.226.01358-2.451.02717-3.675.16325-.49.00544-.482.74046.008.73503c1.472.1062,2.82.09126,4.168.07632-1.092.99225-2.183,2.10706-3.151,3.22046-.485.4954.257,1.0998.743.7268c1.092-.9922,2.186-1.862,3.155-2.85288.015,1.34758.031,2.81758.291,4.16238.003.245.493.2396.613-.0068.232-1.2277.217-2.5753.202-3.9228.37.24094.619.60573.989.8467.743.6043,1.485,1.2087,2.225,1.6906.248.2423.612-.1293.364-.3716-.621-.7282-1.119-1.4578-1.74-2.18607-.373-.48594-.868-.84802-1.239-1.21146.612-.00679,1.103-.01222,1.715-.01902.981-.01086,1.716-.01901,2.694-.27489.121-.12386.115-.61387-.254-.7323Z" opacity="0.1" fill="#06152b"/>
            <path d="M12.011,68.8696c-.8605-.2355-1.7183-.2259-2.69867-.2151-.24508.0027-.49017.0055-.73525.0082c1.21319-1.1162,2.42642-2.2323,3.26922-3.5893.241-.3703-.2532-.7323-.4956-.4846-1.58215.9977-2.91517,2.3602-4.24955,3.6002-.01765-1.5926-.03531-3.1852-.05296-4.7777-.00815-.735-1.11102-.7228-1.10287.0122.01765,1.5926.03666,3.3076.05432,4.9002-1.1151-1.0903-2.22884-2.0581-3.34257-3.0259-.49424-.3621-1.10016.2572-.60592.6193.86865.9705,1.73731,1.941,2.7285,2.9102-1.22541.0136-2.45083.0271-3.67488.1632-.49017.0055-.482022.7405.00814.7351c1.47186.1062,2.81981.0912,4.16777.0763-1.09201.9922-2.18266,2.107-3.15077,3.2204-.48473.4954.25731,1.0998.7434.7269c1.09201-.9923,2.18537-1.862,3.15484-2.8529.01494,1.3475.03124,2.8176.29126,4.1624.00271.245.49288.2396.6127-.0068.23151-1.2278.21657-2.5753.20163-3.9229.37034.241.6195.6058.98984.8467.74204.6044,1.48408,1.2087,2.22472,1.6906.2478.2423.6114-.1293.3636-.3716-.6209-.7282-1.11918-1.4578-1.74004-2.186-.37305-.486-.86729-.848-1.23899-1.2115.61271-.0068,1.10287-.0122,1.71558-.019.98035-.0109,1.71555-.019,2.69315-.2749.1212-.1239.1158-.6139-.1306-.7337Z" opacity="0.1" fill="#06152b"/>
            <path d="M32.6416,28.3324c-1.3561-.7201-2.5897-1.4415-3.5836-2.6557-1.1178-1.3353-1.6256-2.9224-2.3785-4.5068c0,0-.0014-.1225-.1239-.1211l-.1226.0013c0,0,0,0-.1212.1239c0,0,0,0,.0014.1225-.331,3.3117-2.2658,5.661-4.6936,7.7707-.1212.1239-.1184.3689.0055.49c2.7095,1.1952,4.5842,4.4824,5.4719,7.168.1253.2436.4929.2396.6127-.0068.4725-1.598.8239-3.0721,1.6653-4.5517s1.9322-2.5943,3.2706-3.4668c.1212-.1238.1185-.3688-.004-.3675Z" fill="#3a36db"/>
            <path d="M219.894,65.0809c-1.356-.7201-2.59-1.4416-3.461-2.6571-1.118-1.3353-1.626-2.9224-2.379-4.5068c0,0-.001-.1225-.123-.1212l-.123.0014c0,0,0,0-.121.1238c0,0,0,0,.001.1225-.331,3.3117-2.266,5.661-4.693,7.7708-.122.1238-.119.3688.005.49c2.71,1.1951,4.584,4.4824,5.472,7.168.125.2436.493.2395.613-.0068.472-1.598.824-3.0721,1.665-4.5517.842-1.4796,1.932-2.5943,3.271-3.4668c0,0-.003-.245-.127-.3661Z" fill="#3a36db"/>
            <path d="M130.094,34.9566c-.985-.4792-1.726-.961-2.471-1.8104-.746-.9719-1.126-2.0704-1.751-3.1661c0,0,0,0-.122.0014l-.123.0013c0,0,0,0,.001.1225-.219,2.3303-1.549,3.9378-3.248,5.4269-.122.1238-.12.2463.002.245c1.97.8358,3.222,3.1498,3.855,4.9805.002.245.37.241.367-.004.233-1.1053.589-2.2119,1.19-3.1987.602-.9869,1.329-1.73,2.303-2.3534.123-.0014.12-.2464-.003-.245Z" fill="#3a36db"/>
            <path d="M98.839,56.8049c-1.7251-.8385-3.0825-1.6811-4.2017-3.1389-1.367-1.7001-2-3.5309-2.8795-5.4814c0,0-.0014-.1226-.124-.1212l-.1225.0014c0,0-.1225.0013-.1212.1238l.0014.1225c-.4467,3.9256-2.7424,6.8915-5.6563,9.3742-.1211.1238-.1171.4913.128.4886c3.3249,1.4334,5.5741,5.3291,6.5911,8.6258.1266.3662.6168.3607.7353-.0081.4698-1.843,1.0621-3.6874,2.0234-5.4133s2.2944-3.0884,3.9991-4.0875c-.2451.0028-.1266-.3661-.3731-.4859Z" fill="#3a36db"/>
            <g>
                <path d="M69.4523,25.9507c-1.7427-2.4311-3.4841-4.7397-5.7116-6.6753-1.2363-.9664-2.4726-1.9329-3.8287-2.6529-.7393-.3594-1.4772-.5963-2.2166-.9556-.369-.1185-.7379-.2369-1.1083-.4778-.369-.1184-.6168-.3607-.983-.2342-.2451.0028-.3663.1266-.241.3703.1293.6111.8686.9705,1.3629,1.3326.6181.4832,1.2349.8439,1.853,1.3271c1.2349.844,2.4712,1.8104,3.585,2.7782c2.1049,1.937,3.8436,4.0006,5.4624,6.3105.7475,1.0944,2.5747.094,1.8259-1.1229Z" fill="#ff69b4"/>
            </g>
            <g>
                <path d="M68.5789,75.1029c-1.0061-2.3167-3.348-3.5159-5.6871-4.4702-2.3392-.9542-5.0446-1.7818-7.4914-1.3871-2.3255.2708-4.8826,1.7693-5.7159,3.9839-.5951,1.5994-1.182,3.9337.3021,5.1425.7434.7268,2.0927.8344,2.8198.0912c1.2132-1.1161.0913-2.8189-.8985-3.6656-4.0846-3.6303-10.9402-2.9417-15.4511-.8089-2.8049,1.2563-5.2327,3.3661-6.6719,6.2-1.201,2.2186-2.5055,6.1537-.8866,8.4636.2491.3648.7393.3594.9803-.0109c1.3276-1.8525,1.2977-4.5476,2.2563-6.5185.9572-2.0934,2.5313-3.8261,4.3572-4.9491c3.7716-2.4921,10.2527-3.7892,14.2039-1.1375.4943.362,1.8517,1.2046,1.1246,1.9478-.6059.6193-1.593.0176-1.9661-.4683-1.5003-2.6788,2.0208-5.6583,4.2197-6.2952c2.199-.637,4.7791-.053,6.8718.7814c2.3365.7092,5.0473,2.0269,6.417,3.972.6154.2382,1.4678-.2613,1.2159-.8711Z" fill="#03a89e"/>
            </g>
            <g>
                <path d="M176.16,55.642c.122-.0014.121-.1239-.002-.1225-.122.0013-.121.1238.002.1225Z" fill="#3f3937"/>
            </g>
            <g>
                <path d="M177.24,53.5469c2.04-3.9432,6.283-8.1559,11.078-6.7388c1.721.471,3.945,2.0391,3.724,4.2469-.106,1.4714-1.833.5104-2.452-.0954-1.488-1.5762-.784-4.402-.315-6.245.708-2.4582,2.276-4.8034,4.343-6.2966c1.7-1.3665,4.022-2.0048,6.102-2.2729c2.326-.2709,4.417.4411,6.628.9066.859.113,1.461-.8738.842-1.4795-1.612-1.6974-4.433-1.9112-6.636-1.6417-2.326.2708-4.77.9105-6.716,2.2798-3.893,2.616-6.772,8.1613-6.353,12.8124.268,2.0798,3.007,5.97,5.311,3.7392c1.092-.9923.704-2.8258.2-4.0454-.878-1.828-2.852-3.0313-4.696-3.501-5.53-1.4089-9.768,3.2938-11.799,7.972-.119.3689.498.7296.739.3594Z" fill="#03a89e"/>
            </g>
            <g>
                <path d="M71.2249,48.4867c-1.7428-2.431-3.9689-4.2441-6.5558-5.4406-1.3548-.5976-2.7082-1.0727-4.0588-1.3028-1.2282-.2314-3.0677-.3335-4.1637.2912-.2438.1252-.2397.4928.0081.735.9871.6017,2.459.7079,3.5646.9407c1.352.3526,2.459.7078,3.6912,1.3068c2.3405,1.0767,4.5639,2.6448,6.1786,4.5872.6209.7283,1.958-.2667,1.3358-1.1175Z" fill="#ff69b4"/>
            </g>
            <g>
                <path d="M43.2557,57.0061c1.1001-.2572,2.3242-.3933,3.4271-.4055.6127-.0068,1.2254-.0136,1.8381-.0204.3676-.0041.7352-.0081.979-.1333.2437-.1253.4888-.128.7325-.2532s.2396-.4927-.0068-.6125-.4929-.2396-.6168-.3607c-.2464-.1198-.7366-.1144-.983-.2342-.6127.0068-1.2254.0136-1.9593.1442-1.2241.1361-2.4468.3947-3.6681.7758-.7339.1307-.4766,1.2305.2573,1.0998Z" fill="#ff69b4"/>
            </g>
            <g>
                <path d="M173.803,86.1759c3.408-2.1206,7.065-3.8764,10.974-5.0224c1.833-.5104,3.788-1.0222,5.746-1.2889c1.102-.1347,2.081-.2681,3.182-.4028.858-.0095,1.716-.0191,2.447-.3947.244-.1252.24-.4927-.007-.6125-.862-.358-1.718-.226-2.698-.2152-1.103.0123-2.082.1456-3.185.1579-2.082.1456-4.161.5362-6.239,1.0493-4.155,1.0262-7.811,2.9045-11.213,5.6376-.484.4955.262,1.4674.993,1.0917Z" fill="#ff69b4"/>
            </g>
            <g>
                <path d="M166.999,80.4926c2.907-3.0952,6.683-5.2199,10.336-7.3432c1.827-1.0004,3.776-2.1247,5.727-3.004c1.097-.5022,2.072-1.0031,3.047-1.504s2.075-.7581,3.049-1.3815c.244-.1252.239-.4927-.13-.6111-.983-.2342-2.081.1456-3.06.2789-1.224.1361-2.323.5159-3.421,1.0181-2.195,1.0045-4.388,2.1315-6.458,3.3796-4.019,2.2499-7.547,4.6169-10.325,8.3232-.483.618.628,1.3408,1.235.844Z" fill="#ff69b4"/>
            </g>
            <g>
                <path d="M146.87,22.5192c-.126-.3662-.131-.7337-.259-1.2223-.002-.2451-.126-.3662-.128-.4887-.001-.1225-.002-.245-.126-.3662-.001-.1225-.124-.1211-.125-.2436-.124-.1212-.248-.2423-.371-.2409-.122.0013-.243.1252-.365.249.002.1225-.121.1239-.119.2464.001.1225.002.245.004.3675.002.245.005.49.13.7337.004.3675.131.7336.258,1.0998l-.002-.1225.002.1225c.001.1225.126.3662.25.4873s.37.2409.492.1171c.122-.0014.366-.1266.365-.2491c0,0-.003-.245-.006-.49Z" fill="#06152b"/>
            </g>
            <g>
                <path d="M151.967,40.1051c.087-3.1864,1.036-6.0149,2.107-8.9672.596-1.4768,1.194-2.8312,1.914-4.1869s1.443-2.4663,1.795-3.9405c-.003-.245-.252-.6098-.494-.362-.608.4968-.971.8683-1.455,1.4863-.36.6166-.72,1.3557-1.081,1.9723-.719,1.4782-1.438,2.9564-2.033,4.5557-1.07,2.9523-1.646,6.2667-1.733,9.4532.129.6112.987.6017.98-.0109Z" fill="#ff69b4"/>
            </g>
            <g>
                <path d="M162.277,19.4083c.12-.2464.241-.3703.361-.6166c0,0,.001.1225-.121.1238c0,0-.001-.1225.121-.1238l.121-.1239c.121-.1239.121-.1239.243-.2477.241-.3702.606-.6193.847-.9896.241-.3702.606-.6193.847-.9895.119-.2464.363-.3716.483-.618-.001-.1225.121-.1238.12-.2463.121-.1239.12-.2464.118-.3689.12-.2464-.129-.6111-.497-.6071-.122.0014-.245.0027-.49.0055-.122.0013-.121.1238-.244.1252c0,0,0,0-.122.0013.122-.0013.122-.0013,0,0-.245.0028-.488.2505-.731.3757-.488.2504-.851.622-1.215.9936-.363.3716-.727.7432-.967,1.2359-.241.3703-.603.8643-.721,1.2332-.241.3702-.112.9814.381,1.221.736.1143,1.225-.0136,1.466-.3838Z" fill="#ff69b4"/>
            </g>
            <g>
                <path d="M158.243,42.3637c.357-.9841.837-1.847,1.194-2.8311s.715-1.8457,1.194-2.8312c.481-.863.838-1.8471,1.318-2.71.481-.863,1.207-1.7287,1.318-2.7101-.004-.3675-.373-.4859-.618-.4832-.977.2559-1.455,1.3639-2.06,2.1057-.726.8657-1.205,1.8511-1.684,2.8366-.479.9854-.836,1.9696-1.192,3.0762-.117.4913-.356.9841-.35,1.5966-.117.4914-.11,1.1039-.104,1.5939-.116.6139.744.8494.984.3566Z" fill="#ff69b4"/>
            </g>
            <g>
                <path d="M164.956,28.9351c.238-.6152.6-1.1093.963-1.6034.482-.7405.717-1.6007,1.2-2.2187.484-.6179,1.094-.8697,1.701-1.3665s1.215-.9936,1.821-1.6129c2.303-2.2309,4.978-4.2209,7.778-5.8447.732-.3756,1.463-.7513,2.194-1.127.487-.2504,1.217-.7486.843-1.357-.626-1.2183-3.06.4015-3.791.7771-2.801,1.6238-5.103,3.9772-7.653,6.0883-.73.4982-1.336,1.1175-1.942,1.7368s-1.087,1.4823-1.693,2.1016c-.605.6193-1.337.9949-1.943,1.6143-.484.4954-.844,1.2345-1.081,1.9722-.479.9855,1.002,1.9492,1.603.8399Z" fill="#ff69b4"/>
            </g>
            <g>
                <path d="M106.944,36.0711c.48-.9855.589-2.2119.454-3.313-.014-1.2251-.15-2.4488-.407-3.5486-.003-.245-.493-.2396-.49.0054-.111,1.1039-.098,2.2065-.085,3.4315.011.98.023,2.0826-.335,2.9442-.238.6152.625,1.0957.863.4805Z" opacity="0.5" fill="#03a89e"/>
            </g>
            <g opacity="0.5">
                <path d="M107.013,20.1434c-.012-1.1025.098-2.2064-.035-3.1851-.135-1.1012-.513-2.0771-1.137-3.0503-.125-.2437-.614-.1158-.487.2504.512,1.9546.535,4.0372.558,6.1198-.116.6138,1.109.6003,1.101-.1348Z" fill="#03a89e"/>
            </g>
            <g>
                <path d="M101.503,9.66716c-.256-.97731-.634-1.95327-1.134-2.80536-.249-.3648-.3771-.85345-.6263-1.21825-.2491-.36479-.5024-1.0971-.9925-1.09167-.2451.00272-.4902.00544-.61.2518-.2397.49273.1334.97868.3839,1.46597.2492.3648.4997.8521.6263,1.21825.4997.8521.8766,1.70555,1.1316,2.5604.253.7323,1.474.3512,1.221-.38114Z" opacity="0.5" fill="#03a89e"/>
            </g>
            <g>
                <path d="M107.122,7.88985c.235-.98274.345-2.08664.455-3.19053-.005-.49002-.012-1.10254-.017-1.59255-.006-.49002-.013-1.10254-.263-1.58984-.127-.36615-.617-.36072-.735.00815-.24.49274-.233,1.10526-.228,1.59527.006.49002.011.98003.016,1.47005.011.98003-.1,1.96142-.212,2.94281.003.24501.129.61116.374.60845.248.24229.614.11571.61-.25181Z" opacity="0.5" fill="#03a89e"/>
            </g>
            <g>
                <path d="M111.818,11.391c.231-1.2278.709-2.33574,1.311-3.32257s1.45-1.85386,2.175-2.84204c.119-.24636-.007-.61252-.251-.4873-1.344.38246-2.312,1.49586-2.912,2.60519-.723,1.11068-1.076,2.4623-1.308,3.69002-.236.7378.87,1.0931.985.3567Z" opacity="0.5" fill="#03a89e"/>
            </g>
            <g>
                <path d="M192.87,59.5005c.121-.1239.12-.2464.241-.3703.12-.2463.24-.4927.237-.7377s-.004-.3675.116-.6139l-.002-.1225c-.001-.1225-.003-.245-.004-.3675-.003-.245-.005-.49-.131-.7337-.002-.245-.126-.3661-.25-.4873-.251-.4873-.745-.8494-1.359-.9651.247.1198.493.2396.741.4819-.248-.2423-.494-.3621-.74-.3594-.246-.1197-.491-.117-.612.0068-.245.0027-.367.1266-.61.2518-.244.1253-.486.373-.606.6193.365-.249.607-.4968.972-.7458-.123.0013-.244.1252-.366.1265-.244.1253-.488.2505-.609.3743s-.242.2478-.363.3716c.001.1225-.122.1239-.12.2464.001.1225-.12.2464-.119.3689.121-.1239.119-.3689.24-.4928.001.1225-.121.1239-.12.2464s-.121.1239-.12.2464c-.121.1238-.118.3688-.239.4927-.12.2464-.24.4927-.236.8602-.12.2464.007.6126.01.8576.125.2436.25.4873.375.7309.126.2437.373.486.62.6057.124.1212.369.1185.493.2396.369.1184.859.113,1.225-.0136.121-.1238.366-.1265.488-.2504.487-.2505.728-.6207.848-.867Z" fill="#03a89e"/>
            </g>
            <g>
                <path d="M187.988,17.0395c-.002-.1225-.124-.1211-.126-.2436-.123-.1212-.247-.2423-.249-.3648c0,0-.124-.1211-.246-.1198-.247-.1198-.248-.2423-.617-.3607-.122.0014-.369-.1184-.491-.1171-.123.0014-.368.0041-.368.0041l-.366.1266c-.244.1252-.365.2491-.485.4954-.121.1239-.121.1239-.12.2464s-.121.1239-.12.2464c-.12.2463-.238.6152-.234.9827s.129.6112.256.9773c.374.6085.991.9692,1.604.9624s1.344-.3825,1.582-.9977c.12-.2464.238-.6152.234-.9827-.002-.2451-.128-.4887-.254-.8549Z" fill="#ff69b4"/>
            </g>
            <g>
                <path d="M97.8371,32.7421c-1.017-3.2967-.5662-6.8547.0098-10.1691-.0027-.2451-.2492-.3648-.369-.1185-1.1887,3.3212-1.5143,7.1229-.4959,10.5422.0068.6125.9844.3566.8551-.2546Z" fill="#06152b"/>
            </g>
        </g>
    </g>
    <script><![CDATA[
!function(t,n){"object"==typeof exports&&"undefined"!=typeof module?module.exports=n():"function"==typeof __SVGATOR_DEFINE__&&__SVGATOR_DEFINE__.amd?__SVGATOR_DEFINE__(n):((t="undefined"!=typeof globalThis?globalThis:t||self).__SVGATOR_PLAYER__=t.__SVGATOR_PLAYER__||{},t.__SVGATOR_PLAYER__["5c7f360c"]=n())}(this,(function(){"use strict";function t(t,n){var e=Object.keys(t);if(Object.getOwnPropertySymbols){var r=Object.getOwnPropertySymbols(t);n&&(r=r.filter((function(n){return Object.getOwnPropertyDescriptor(t,n).enumerable}))),e.push.apply(e,r)}return e}function n(n){for(var e=1;e<arguments.length;e++){var r=null!=arguments[e]?arguments[e]:{};e%2?t(Object(r),!0).forEach((function(t){o(n,t,r[t])})):Object.getOwnPropertyDescriptors?Object.defineProperties(n,Object.getOwnPropertyDescriptors(r)):t(Object(r)).forEach((function(t){Object.defineProperty(n,t,Object.getOwnPropertyDescriptor(r,t))}))}return n}function e(t){return(e="function"==typeof Symbol&&"symbol"==typeof Symbol.iterator?function(t){return typeof t}:function(t){return t&&"function"==typeof Symbol&&t.constructor===Symbol&&t!==Symbol.prototype?"symbol":typeof t})(t)}function r(t,n){if(!(t instanceof n))throw new TypeError("Cannot call a class as a function")}function i(t,n){for(var e=0;e<n.length;e++){var r=n[e];r.enumerable=r.enumerable||!1,r.configurable=!0,"value"in r&&(r.writable=!0),Object.defineProperty(t,r.key,r)}}function u(t,n,e){return n&&i(t.prototype,n),e&&i(t,e),t}function o(t,n,e){return n in t?Object.defineProperty(t,n,{value:e,enumerable:!0,configurable:!0,writable:!0}):t[n]=e,t}function a(t){return(a=Object.setPrototypeOf?Object.getPrototypeOf:function(t){return t.__proto__||Object.getPrototypeOf(t)})(t)}function l(t,n){return(l=Object.setPrototypeOf||function(t,n){return t.__proto__=n,t})(t,n)}function s(){if("undefined"==typeof Reflect||!Reflect.construct)return!1;if(Reflect.construct.sham)return!1;if("function"==typeof Proxy)return!0;try{return Boolean.prototype.valueOf.call(Reflect.construct(Boolean,[],(function(){}))),!0}catch(t){return!1}}function f(t,n,e){return(f=s()?Reflect.construct:function(t,n,e){var r=[null];r.push.apply(r,n);var i=new(Function.bind.apply(t,r));return e&&l(i,e.prototype),i}).apply(null,arguments)}function c(t,n){if(n&&("object"==typeof n||"function"==typeof n))return n;if(void 0!==n)throw new TypeError("Derived constructors may only return object or undefined");return function(t){if(void 0===t)throw new ReferenceError("this hasn't been initialised - super() hasn't been called");return t}(t)}function h(t,n,e){return(h="undefined"!=typeof Reflect&&Reflect.get?Reflect.get:function(t,n,e){var r=function(t,n){for(;!Object.prototype.hasOwnProperty.call(t,n)&&null!==(t=a(t)););return t}(t,n);if(r){var i=Object.getOwnPropertyDescriptor(r,n);return i.get?i.get.call(e):i.value}})(t,n,e||t)}function v(t){return function(t){if(Array.isArray(t))return y(t)}(t)||function(t){if("undefined"!=typeof Symbol&&null!=t[Symbol.iterator]||null!=t["@@iterator"])return Array.from(t)}(t)||function(t,n){if(!t)return;if("string"==typeof t)return y(t,n);var e=Object.prototype.toString.call(t).slice(8,-1);"Object"===e&&t.constructor&&(e=t.constructor.name);if("Map"===e||"Set"===e)return Array.from(t);if("Arguments"===e||/^(?:Ui|I)nt(?:8|16|32)(?:Clamped)?Array$/.test(e))return y(t,n)}(t)||function(){throw new TypeError("Invalid attempt to spread non-iterable instance.\nIn order to be iterable, non-array objects must have a [Symbol.iterator]() method.")}()}function y(t,n){(null==n||n>t.length)&&(n=t.length);for(var e=0,r=new Array(n);e<n;e++)r[e]=t[e];return r}Number.isInteger||(Number.isInteger=function(t){return"number"==typeof t&&isFinite(t)&&Math.floor(t)===t}),Number.EPSILON||(Number.EPSILON=2220446049250313e-31);var g=d(Math.pow(10,-6));function d(t){var n=arguments.length>1&&void 0!==arguments[1]?arguments[1]:6;if(Number.isInteger(t))return t;var e=Math.pow(10,n);return Math.round((+t+Number.EPSILON)*e)/e}function p(t,n){var e=arguments.length>2&&void 0!==arguments[2]?arguments[2]:g;return Math.abs(t-n)<e}var m=Math.PI/180;function b(t){return t}function w(t,n,e){var r=1-e;return 3*e*r*(t*r+n*e)+e*e*e}function A(){var t=arguments.length>0&&void 0!==arguments[0]?arguments[0]:0,n=arguments.length>1&&void 0!==arguments[1]?arguments[1]:0,e=arguments.length>2&&void 0!==arguments[2]?arguments[2]:1,r=arguments.length>3&&void 0!==arguments[3]?arguments[3]:1;return t<0||t>1||e<0||e>1?null:p(t,n)&&p(e,r)?b:function(i){if(i<=0)return t>0?i*n/t:0===n&&e>0?i*r/e:0;if(i>=1)return e<1?1+(i-1)*(r-1)/(e-1):1===e&&t<1?1+(i-1)*(n-1)/(t-1):1;for(var u,o=0,a=1;o<a;){var l=w(t,e,u=(o+a)/2);if(p(i,l))break;l<i?o=u:a=u}return w(n,r,u)}}function _(){return 1}function x(t){return 1===t?1:0}function k(){var t=arguments.length>0&&void 0!==arguments[0]?arguments[0]:1,n=arguments.length>1&&void 0!==arguments[1]?arguments[1]:0;if(1===t){if(0===n)return x;if(1===n)return _}var e=1/t;return function(t){return t>=1?1:(t+=n*e)-t%e}}var S=Math.sin,O=Math.cos,j=Math.acos,E=Math.asin,M=Math.tan,P=Math.atan2,I=Math.PI/180,R=180/Math.PI,F=Math.sqrt,N=function(){function t(){var n=arguments.length>0&&void 0!==arguments[0]?arguments[0]:1,e=arguments.length>1&&void 0!==arguments[1]?arguments[1]:0,i=arguments.length>2&&void 0!==arguments[2]?arguments[2]:0,u=arguments.length>3&&void 0!==arguments[3]?arguments[3]:1,o=arguments.length>4&&void 0!==arguments[4]?arguments[4]:0,a=arguments.length>5&&void 0!==arguments[5]?arguments[5]:0;r(this,t),this.m=[n,e,i,u,o,a],this.i=null,this.w=null,this.s=null}return u(t,[{key:"determinant",get:function(){var t=this.m;return t[0]*t[3]-t[1]*t[2]}},{key:"isIdentity",get:function(){if(null===this.i){var t=this.m;this.i=1===t[0]&&0===t[1]&&0===t[2]&&1===t[3]&&0===t[4]&&0===t[5]}return this.i}},{key:"point",value:function(t,n){var e=this.m;return{x:e[0]*t+e[2]*n+e[4],y:e[1]*t+e[3]*n+e[5]}}},{key:"translateSelf",value:function(){var t=arguments.length>0&&void 0!==arguments[0]?arguments[0]:0,n=arguments.length>1&&void 0!==arguments[1]?arguments[1]:0;if(!t&&!n)return this;var e=this.m;return e[4]+=e[0]*t+e[2]*n,e[5]+=e[1]*t+e[3]*n,this.w=this.s=this.i=null,this}},{key:"rotateSelf",value:function(){var t=arguments.length>0&&void 0!==arguments[0]?arguments[0]:0;if(t%=360){var n=S(t*=I),e=O(t),r=this.m,i=r[0],u=r[1];r[0]=i*e+r[2]*n,r[1]=u*e+r[3]*n,r[2]=r[2]*e-i*n,r[3]=r[3]*e-u*n,this.w=this.s=this.i=null}return this}},{key:"scaleSelf",value:function(){var t=arguments.length>0&&void 0!==arguments[0]?arguments[0]:1,n=arguments.length>1&&void 0!==arguments[1]?arguments[1]:1;if(1!==t||1!==n){var e=this.m;e[0]*=t,e[1]*=t,e[2]*=n,e[3]*=n,this.w=this.s=this.i=null}return this}},{key:"skewSelf",value:function(t,n){if(n%=360,(t%=360)||n){var e=this.m,r=e[0],i=e[1],u=e[2],o=e[3];t&&(t=M(t*I),e[2]+=r*t,e[3]+=i*t),n&&(n=M(n*I),e[0]+=u*n,e[1]+=o*n),this.w=this.s=this.i=null}return this}},{key:"resetSelf",value:function(){var t=arguments.length>0&&void 0!==arguments[0]?arguments[0]:1,n=arguments.length>1&&void 0!==arguments[1]?arguments[1]:0,e=arguments.length>2&&void 0!==arguments[2]?arguments[2]:0,r=arguments.length>3&&void 0!==arguments[3]?arguments[3]:1,i=arguments.length>4&&void 0!==arguments[4]?arguments[4]:0,u=arguments.length>5&&void 0!==arguments[5]?arguments[5]:0,o=this.m;return o[0]=t,o[1]=n,o[2]=e,o[3]=r,o[4]=i,o[5]=u,this.w=this.s=this.i=null,this}},{key:"recomposeSelf",value:function(){var t=arguments.length>0&&void 0!==arguments[0]?arguments[0]:null,n=arguments.length>1&&void 0!==arguments[1]?arguments[1]:null,e=arguments.length>2&&void 0!==arguments[2]?arguments[2]:null,r=arguments.length>3&&void 0!==arguments[3]?arguments[3]:null,i=arguments.length>4&&void 0!==arguments[4]?arguments[4]:null;return this.isIdentity||this.resetSelf(),t&&(t.x||t.y)&&this.translateSelf(t.x,t.y),n&&this.rotateSelf(n),e&&(e.x&&this.skewSelf(e.x,0),e.y&&this.skewSelf(0,e.y)),!r||1===r.x&&1===r.y||this.scaleSelf(r.x,r.y),i&&(i.x||i.y)&&this.translateSelf(i.x,i.y),this}},{key:"decompose",value:function(){var t=arguments.length>0&&void 0!==arguments[0]?arguments[0]:0,n=arguments.length>1&&void 0!==arguments[1]?arguments[1]:0,e=this.m,r=e[0]*e[0]+e[1]*e[1],i=[[e[0],e[1]],[e[2],e[3]]],u=F(r);if(0===u)return{origin:{x:d(e[4]),y:d(e[5])},translate:{x:d(t),y:d(n)},scale:{x:0,y:0},skew:{x:0,y:0},rotate:0};i[0][0]/=u,i[0][1]/=u;var o=e[0]*e[3]-e[1]*e[2]<0;o&&(u=-u);var a=i[0][0]*i[1][0]+i[0][1]*i[1][1];i[1][0]-=i[0][0]*a,i[1][1]-=i[0][1]*a;var l=F(i[1][0]*i[1][0]+i[1][1]*i[1][1]);if(0===l)return{origin:{x:d(e[4]),y:d(e[5])},translate:{x:d(t),y:d(n)},scale:{x:d(u),y:0},skew:{x:0,y:0},rotate:0};i[1][0]/=l,i[1][1]/=l,a/=l;var s=0;return i[1][1]<0?(s=j(i[1][1])*R,i[0][1]<0&&(s=360-s)):s=E(i[0][1])*R,o&&(s=-s),a=P(a,F(i[0][0]*i[0][0]+i[0][1]*i[0][1]))*R,o&&(a=-a),{origin:{x:d(e[4]),y:d(e[5])},translate:{x:d(t),y:d(n)},scale:{x:d(u),y:d(l)},skew:{x:d(a),y:0},rotate:d(s)}}},{key:"clone",value:function(){var t=this.m;return new this.constructor(t[0],t[1],t[2],t[3],t[4],t[5])}},{key:"toString",value:function(){var t=arguments.length>0&&void 0!==arguments[0]?arguments[0]:" ";if(null===this.s){var n=this.m.map((function(t){return d(t)}));1===n[0]&&0===n[1]&&0===n[2]&&1===n[3]?this.s="translate("+n[4]+t+n[5]+")":this.s="matrix("+n.join(t)+")"}return this.s}}],[{key:"create",value:function(t){return t?Array.isArray(t)?f(this,v(t)):t instanceof this?t.clone():(new this).recomposeSelf(t.origin,t.rotate,t.skew,t.scale,t.translate):new this}}]),t}();function T(t,n,e){return t>=.5?e:n}function B(t,n,e){return 0===t||n===e?n:t*(e-n)+n}function q(t,n,e){var r=B(t,n,e);return r<=0?0:r}function D(t,n,e){var r=B(t,n,e);return r<=0?0:r>=1?1:r}function L(t,n,e){return 0===t?n:1===t?e:{x:B(t,n.x,e.x),y:B(t,n.y,e.y)}}function C(t,n,e){var r=function(t,n,e){return Math.round(B(t,n,e))}(t,n,e);return r<=0?0:r>=255?255:r}function V(t,n,e){return 0===t?n:1===t?e:{r:C(t,n.r,e.r),g:C(t,n.g,e.g),b:C(t,n.b,e.b),a:B(t,null==n.a?1:n.a,null==e.a?1:e.a)}}function G(t,n){for(var e=[],r=0;r<t;r++)e.push(n);return e}function z(t,n){if(--n<=0)return t;var e=(t=Object.assign([],t)).length;do{for(var r=0;r<e;r++)t.push(t[r])}while(--n>0);return t}var Y,$=function(){function t(n){r(this,t),this.list=n,this.length=n.length}return u(t,[{key:"setAttribute",value:function(t,n){for(var e=this.list,r=0;r<this.length;r++)e[r].setAttribute(t,n)}},{key:"removeAttribute",value:function(t){for(var n=this.list,e=0;e<this.length;e++)n[e].removeAttribute(t)}},{key:"style",value:function(t,n){for(var e=this.list,r=0;r<this.length;r++)e[r].style[t]=n}}]),t}(),U=/-./g,Q=function(t,n){return n.toUpperCase()};function H(t){return"function"==typeof t?t:T}function J(t){return t?"function"==typeof t?t:Array.isArray(t)?function(t){var n=arguments.length>1&&void 0!==arguments[1]?arguments[1]:b;if(!Array.isArray(t))return n;switch(t.length){case 1:return k(t[0])||n;case 2:return k(t[0],t[1])||n;case 4:return A(t[0],t[1],t[2],t[3])||n}return n}(t,null):function(t,n){var e=arguments.length>2&&void 0!==arguments[2]?arguments[2]:b;switch(t){case"linear":return b;case"steps":return k(n.steps||1,n.jump||0)||e;case"bezier":case"cubic-bezier":return A(n.x1||0,n.y1||0,n.x2||0,n.y2||0)||e}return e}(t.type,t.value,null):null}function Z(t,n,e){var r=arguments.length>3&&void 0!==arguments[3]&&arguments[3],i=n.length-1;if(t<=n[0].t)return r?[0,0,n[0].v]:n[0].v;if(t>=n[i].t)return r?[i,1,n[i].v]:n[i].v;var u,o=n[0],a=null;for(u=1;u<=i;u++){if(!(t>n[u].t)){a=n[u];break}o=n[u]}return null==a?r?[i,1,n[i].v]:n[i].v:o.t===a.t?r?[u,1,a.v]:a.v:(t=(t-o.t)/(a.t-o.t),o.e&&(t=o.e(t)),r?[u,t,e(t,o.v,a.v)]:e(t,o.v,a.v))}function K(t,n){var e=arguments.length>2&&void 0!==arguments[2]?arguments[2]:null;return t&&t.length?"function"!=typeof n?null:("function"!=typeof e&&(e=null),function(r){var i=Z(r,t,n);return null!=i&&e&&(i=e(i)),i}):null}function W(t,n){return t.t-n.t}function X(t,n,r,i,u){var o,a="@"===r[0],l="#"===r[0],s=Y[r],f=T;switch(a?(o=r.substr(1),r=o.replace(U,Q)):l&&(r=r.substr(1)),e(s)){case"function":if(f=s(i,u,Z,J,r,a,n,t),l)return f;break;case"string":f=K(i,H(s));break;case"object":if((f=K(i,H(s.i),s.f))&&"function"==typeof s.u)return s.u(n,f,r,a,t)}return f?function(t,n,e){if(arguments.length>3&&void 0!==arguments[3]&&arguments[3])return t instanceof $?function(r){return t.style(n,e(r))}:function(r){return t.style[n]=e(r)};if(Array.isArray(n)){var r=n.length;return function(i){var u=e(i);if(null==u)for(var o=0;o<r;o++)t[o].removeAttribute(n);else for(var a=0;a<r;a++)t[a].setAttribute(n,u)}}return function(r){var i=e(r);null==i?t.removeAttribute(n):t.setAttribute(n,i)}}(n,r,f,a):null}function tt(t,n,r,i){if(!i||"object"!==e(i))return null;var u=null,o=null;return Array.isArray(i)?o=function(t){if(!t||!t.length)return null;for(var n=0;n<t.length;n++)t[n].e&&(t[n].e=J(t[n].e));return t.sort(W)}(i):(o=i.keys,u=i.data||null),o?X(t,n,r,o,u):null}function nt(t,n,e){if(!e)return null;var r=[];for(var i in e)if(e.hasOwnProperty(i)){var u=tt(t,n,i,e[i]);u&&r.push(u)}return r.length?r:null}function et(t,n){if(!n.settings.duration||n.settings.duration<0)return null;var e,r,i,u,o,a=function(t,n){if(!n)return null;var e=[];if(Array.isArray(n))for(var r=n.length,i=0;i<r;i++){var u=n[i];if(2===u.length){var o=null;if("string"==typeof u[0])o=t.getElementById(u[0]);else if(Array.isArray(u[0])){o=[];for(var a=0;a<u[0].length;a++)if("string"==typeof u[0][a]){var l=t.getElementById(u[0][a]);l&&o.push(l)}o=o.length?1===o.length?o[0]:new $(o):null}if(o){var s=nt(t,o,u[1]);s&&(e=e.concat(s))}}}else for(var f in n)if(n.hasOwnProperty(f)){var c=t.getElementById(f);if(c){var h=nt(t,c,n[f]);h&&(e=e.concat(h))}}return e.length?e:null}(t,n.elements);return a?(e=a,r=n.settings,i=r.duration,u=e.length,o=null,function(t,n){var a=r.iterations||1/0,l=(r.alternate&&a%2==0)^r.direction>0?i:0,s=t%i,f=1+(t-s)/i;n*=r.direction,r.alternate&&f%2==0&&(n=-n);var c=!1;if(f>a)s=l,c=!0,-1===r.fill&&(s=r.direction>0?0:i);else if(n<0&&(s=i-s),s===o)return!1;o=s;for(var h=0;h<u;h++)e[h](s);return c}):null}function rt(t,n){if(Y=n,!t||!t.root||!Array.isArray(t.animations))return null;var e=function(t){for(var n=document.getElementsByTagName("svg"),e=0;e<n.length;e++)if(n[e].id===t.root&&!n[e].svgatorAnimation)return n[e].svgatorAnimation=!0,n[e];return null}(t);if(!e)return null;var r=t.animations.map((function(t){return et(e,t)})).filter((function(t){return!!t}));return r.length?{svg:e,animations:r,animationSettings:t.animationSettings,options:t.options||void 0}:null}function it(t){var n=arguments.length>1&&void 0!==arguments[1]?arguments[1]:null,e=arguments.length>2&&void 0!==arguments[2]?arguments[2]:Number,r=arguments.length>3&&void 0!==arguments[3]?arguments[3]:"undefined"!=typeof BigInt&&BigInt,i="0x"+(t.replace(/[^0-9a-fA-F]+/g,"")||27);return n&&r&&e.isSafeInteger&&!e.isSafeInteger(+i)?e(r(i))%n+n:+i}function ut(t,n,e){return!t||!e||n>t.length?t:t.substring(0,n)+ut(t.substring(n+1),e,e)}function ot(t){var n=arguments.length>1&&void 0!==arguments[1]?arguments[1]:27;return!t||t%n?t%n:[0,1].includes(n)?n:ot(t/n,n)}function at(t,n,e){if(t&&t.length){var r=it(e),i=ot(r)+5,u=ut(t,ot(r,5),i);return u=u.replace(/\x7c$/g,"==").replace(/\x2f$/g,"="),u=function(t,n,e){var r=+("0x"+t.substring(0,4));t=t.substring(4);for(var i=it(n,r)%r+e%27,u=[],o=0;o<t.length;o+=2)if("|"!==t[o]){var a=+("0x"+t[o]+t[o+1])-i;u.push(a)}else{var l=+("0x"+t.substring(o+1,o+1+4))-i;o+=3,u.push(l)}return String.fromCharCode.apply(String,u)}(u=(u=atob(u)).replace(/[\x41-\x5A]/g,""),n,r),u=JSON.parse(u)}}var lt=[{key:"alternate",def:!1},{key:"fill",def:1},{key:"iterations",def:0},{key:"direction",def:1},{key:"speed",def:1},{key:"fps",def:100}],st=function(){function t(n,e){var i=this,u=arguments.length>2&&void 0!==arguments[2]?arguments[2]:null;r(this,t),this._id=0,this._running=!1,this._rollingBack=!1,this._animations=n,this._settings=e,(!u||u<"2022-05-02")&&delete this._settings.speed,lt.forEach((function(t){i._settings[t.key]=i._settings[t.key]||t.def})),this.duration=e.duration,this.offset=e.offset||0,this.rollbackStartOffset=0}return u(t,[{key:"alternate",get:function(){return this._settings.alternate}},{key:"fill",get:function(){return this._settings.fill}},{key:"iterations",get:function(){return this._settings.iterations}},{key:"direction",get:function(){return this._settings.direction}},{key:"speed",get:function(){return this._settings.speed}},{key:"fps",get:function(){return this._settings.fps}},{key:"maxFiniteDuration",get:function(){return this.iterations>0?this.iterations*this.duration:this.duration}},{key:"_apply",value:function(t){for(var n=arguments.length>1&&void 0!==arguments[1]?arguments[1]:{},e=this._animations,r=e.length,i=0,u=0;u<r;u++)n[u]?i++:(n[u]=e[u](t,1),n[u]&&i++);return i}},{key:"_rollback",value:function(t){var n=this,e=1/0,r=null;this.rollbackStartOffset=t,this._rollingBack=!0,this._running=!0;this._id=window.requestAnimationFrame((function i(u){if(n._rollingBack){null==r&&(r=u);var o=Math.round(t-(u-r)*n.speed);if(o>n.duration&&e!==1/0){var a=!!n.alternate&&o/n.duration%2>1,l=o%n.duration;o=(l+=a?n.duration:0)||n.duration}var s=(n.fps?1e3/n.fps:0)*n.speed,f=Math.max(0,o);f<=e-s&&(n.offset=f,e=f,n._apply(f));var c=n.iterations>0&&-1===n.fill&&o>=n.maxFiniteDuration;(o<=0||n.offset<o||c)&&n.stop(),n._id=window.requestAnimationFrame(i)}}))}},{key:"_start",value:function(){var t=this,n=arguments.length>0&&void 0!==arguments[0]?arguments[0]:0,e=-1/0,r=null,i={};this._running=!0;var u=function u(o){null==r&&(r=o);var a=Math.round((o-r)*t.speed+n),l=(t.fps?1e3/t.fps:0)*t.speed;if(a>=e+l&&!t._rollingBack&&(t.offset=a,e=a,t._apply(a,i)===t._animations.length))return void t.pause(!0);t._id=window.requestAnimationFrame(u)};this._id=window.requestAnimationFrame(u)}},{key:"_pause",value:function(){this._id&&window.cancelAnimationFrame(this._id),this._running=!1}},{key:"play",value:function(){if(!this._running)return this._rollingBack?this._rollback(this.offset):this._start(this.offset)}},{key:"stop",value:function(){this._pause(),this.offset=0,this.rollbackStartOffset=0,this._rollingBack=!1,this._apply(0)}},{key:"reachedToEnd",value:function(){return this.iterations>0&&this.offset>=this.iterations*this.duration}},{key:"restart",value:function(){var t=arguments.length>0&&void 0!==arguments[0]&&arguments[0];this.stop(t),this.play(t)}},{key:"pause",value:function(){this._pause()}},{key:"reverse",value:function(){this.direction=-this.direction}}],[{key:"build",value:function(t,n){delete t.animationSettings,t.options=at(t.options,t.root,"5c7f360c"),t.animations.map((function(n){n.settings=at(n.s,t.root,"5c7f360c"),delete n.s,t.animationSettings||(t.animationSettings=n.settings)}));var e=t.version;if(!(t=rt(t,n)))return null;var r=t.options||{},i=new this(t.animations,t.animationSettings,e);return{el:t.svg,options:r,player:i}}},{key:"push",value:function(t){return this.build(t)}},{key:"init",value:function(){var t=this,n=window.__SVGATOR_PLAYER__&&window.__SVGATOR_PLAYER__["5c7f360c"];Array.isArray(n)&&n.splice(0).forEach((function(n){return t.build(n)}))}}]),t}();function ft(t){return d(t)+""}function ct(t){var n=arguments.length>1&&void 0!==arguments[1]?arguments[1]:" ";return t&&t.length?t.map(ft).join(n):""}function ht(t){if(!t)return"transparent";if(null==t.a||t.a>=1){var n=function(t){return 1===(t=parseInt(t).toString(16)).length?"0"+t:t},e=function(t){return t.charAt(0)===t.charAt(1)},r=n(t.r),i=n(t.g),u=n(t.b);return e(r)&&e(i)&&e(u)&&(r=r.charAt(0),i=i.charAt(0),u=u.charAt(0)),"#"+r+i+u}return"rgba("+t.r+","+t.g+","+t.b+","+t.a+")"}function vt(t){return t?"url(#"+t+")":"none"}!function(){for(var t=0,n=["ms","moz","webkit","o"],e=0;e<n.length&&!window.requestAnimationFrame;++e)window.requestAnimationFrame=window[n[e]+"RequestAnimationFrame"],window.cancelAnimationFrame=window[n[e]+"CancelAnimationFrame"]||window[n[e]+"CancelRequestAnimationFrame"];window.requestAnimationFrame||(window.requestAnimationFrame=function(n){var e=Date.now(),r=Math.max(0,16-(e-t)),i=window.setTimeout((function(){n(e+r)}),r);return t=e+r,i},window.cancelAnimationFrame=window.clearTimeout)}();var yt={f:null,i:function(t,n,e){return 0===t?n:1===t?e:{x:q(t,n.x,e.x),y:q(t,n.y,e.y)}},u:function(t,n){return function(e){var r=n(e);t.setAttribute("rx",ft(r.x)),t.setAttribute("ry",ft(r.y))}}},gt={f:null,i:function(t,n,e){return 0===t?n:1===t?e:{width:q(t,n.width,e.width),height:q(t,n.height,e.height)}},u:function(t,n){return function(e){var r=n(e);t.setAttribute("width",ft(r.width)),t.setAttribute("height",ft(r.height))}}};Object.freeze({M:2,L:2,Z:0,H:1,V:1,C:6,Q:4,T:2,S:4,A:7});var dt={},pt=null;function mt(t){var n=function(){if(pt)return pt;if("object"!==("undefined"==typeof document?"undefined":e(document))||!document.createElementNS)return{};var t=document.createElementNS("http://www.w3.org/2000/svg","svg");return t&&t.style?(t.style.position="absolute",t.style.opacity="0.01",t.style.zIndex="-9999",t.style.left="-9999px",t.style.width="1px",t.style.height="1px",pt={svg:t}):{}}().svg;if(!n)return function(t){return null};var r=document.createElementNS(n.namespaceURI,"path");r.setAttributeNS(null,"d",t),r.setAttributeNS(null,"fill","none"),r.setAttributeNS(null,"stroke","none"),n.appendChild(r);var i=r.getTotalLength();return function(t){var n=r.getPointAtLength(i*t);return{x:n.x,y:n.y}}}function bt(t){return dt[t]?dt[t]:dt[t]=mt(t)}function wt(t,n,e,r){if(!t||!r)return!1;var i=["M",t.x,t.y];if(n&&e&&(i.push("C"),i.push(n.x),i.push(n.y),i.push(e.x),i.push(e.y)),n?!e:e){var u=n||e;i.push("Q"),i.push(u.x),i.push(u.y)}return n||e||i.push("L"),i.push(r.x),i.push(r.y),i.join(" ")}function At(t,n,e,r){var i=arguments.length>4&&void 0!==arguments[4]?arguments[4]:1,u=wt(t,n,e,r),o=bt(u);try{return o(i)}catch(t){return null}}function _t(t,n,e){return t+(n-t)*e}function xt(t,n,e){var r=arguments.length>3&&void 0!==arguments[3]&&arguments[3],i={x:_t(t.x,n.x,e),y:_t(t.y,n.y,e)};return r&&(i.a=kt(t,n)),i}function kt(t,n){return Math.atan2(n.y-t.y,n.x-t.x)}function St(t,n,e,r){var i=1-r;return i*i*t+2*i*r*n+r*r*e}function Ot(t,n,e,r){return 2*(1-r)*(n-t)+2*r*(e-n)}function jt(t,n,e,r){var i=arguments.length>4&&void 0!==arguments[4]&&arguments[4],u=At(t,n,null,e,r);return u||(u={x:St(t.x,n.x,e.x,r),y:St(t.y,n.y,e.y,r)}),i&&(u.a=Et(t,n,e,r)),u}function Et(t,n,e,r){return Math.atan2(Ot(t.y,n.y,e.y,r),Ot(t.x,n.x,e.x,r))}function Mt(t,n,e,r,i){var u=i*i;return i*u*(r-t+3*(n-e))+3*u*(t+e-2*n)+3*i*(n-t)+t}function Pt(t,n,e,r,i){var u=1-i;return 3*(u*u*(n-t)+2*u*i*(e-n)+i*i*(r-e))}function It(t,n,e,r,i){var u=arguments.length>5&&void 0!==arguments[5]&&arguments[5],o=At(t,n,e,r,i);return o||(o={x:Mt(t.x,n.x,e.x,r.x,i),y:Mt(t.y,n.y,e.y,r.y,i)}),u&&(o.a=Rt(t,n,e,r,i)),o}function Rt(t,n,e,r,i){return Math.atan2(Pt(t.y,n.y,e.y,r.y,i),Pt(t.x,n.x,e.x,r.x,i))}function Ft(t,n,e){var r=arguments.length>3&&void 0!==arguments[3]&&arguments[3];if(Tt(n)){if(Bt(e))return jt(n,e.start,e,t,r)}else if(Tt(e)){if(qt(n))return jt(n,n.end,e,t,r)}else{if(qt(n))return Bt(e)?It(n,n.end,e.start,e,t,r):jt(n,n.end,e,t,r);if(Bt(e))return jt(n,e.start,e,t,r)}return xt(n,e,t,r)}function Nt(t,n,e){var r=Ft(t,n,e,!0);return r.a=function(t){return arguments.length>1&&void 0!==arguments[1]&&arguments[1]?t+Math.PI:t}(r.a)/m,r}function Tt(t){return!t.type||"corner"===t.type}function Bt(t){return null!=t.start&&!Tt(t)}function qt(t){return null!=t.end&&!Tt(t)}var Dt=new N;var Lt={f:ft,i:B},Ct={f:ft,i:D};function Vt(t,n,e){return t.map((function(t){return function(t,n,e){var r=t.v;if(!r||"g"!==r.t||r.s||!r.v||!r.r)return t;var i=e.getElementById(r.r),u=i&&i.querySelectorAll("stop")||[];return r.s=r.v.map((function(t,n){var e=u[n]&&u[n].getAttribute("offset");return{c:t,o:e=d(parseInt(e)/100)}})),delete r.v,t}(t,0,e)}))}var Gt={gt:"gradientTransform",c:{x:"cx",y:"cy"},rd:"r",f:{x:"x1",y:"y1"},to:{x:"x2",y:"y2"}};function zt(t,n,r,i,u,o,a,l){return Vt(t,0,l),n=function(t,n,e){for(var r,i,u,o=t.length-1,a={},l=0;l<=o;l++)(r=t[l]).e&&(r.e=n(r.e)),r.v&&"g"===(i=r.v).t&&i.r&&(u=e.getElementById(i.r))&&(a[i.r]={e:u,s:u.querySelectorAll("stop")});return a}(t,i,l),function(i){var u=r(i,t,Yt);if(!u)return"none";if("c"===u.t)return ht(u.v);if("g"===u.t){if(!n[u.r])return vt(u.r);var o=n[u.r];return function(t,n){for(var e=t.s,r=e.length;r<n.length;r++){var i=e[e.length-1].cloneNode();i.id=Qt(i.id),t.e.appendChild(i),e=t.s=t.e.querySelectorAll("stop")}for(var u=0,o=e.length,a=n.length-1;u<o;u++)e[u].setAttribute("stop-color",ht(n[Math.min(u,a)].c)),e[u].setAttribute("offset",n[Math.min(u,a)].o)}(o,u.s),Object.keys(Gt).forEach((function(t){if(void 0!==u[t])if("object"!==e(Gt[t])){var n,r="gt"===t?(n=u[t],Array.isArray(n)?"matrix("+n.join(" ")+")":""):u[t],i=Gt[t];o.e.setAttribute(i,r)}else Object.keys(Gt[t]).forEach((function(n){if(void 0!==u[t][n]){var e=u[t][n],r=Gt[t][n];o.e.setAttribute(r,e)}}))})),vt(u.r)}return"none"}}function Yt(t,e,r){if(0===t)return e;if(1===t)return r;if(e&&r){var i=e.t;if(i===r.t)switch(e.t){case"c":return{t:i,v:V(t,e.v,r.v)};case"g":if(e.r===r.r){var u={t:i,s:$t(t,e.s,r.s),r:e.r};return e.gt&&r.gt&&(u.gt=function(t,n,e){var r=n.length;if(r!==e.length)return T(t,n,e);for(var i=new Array(r),u=0;u<r;u++)i[u]=B(t,n[u],e[u]);return i}(t,e.gt,r.gt)),e.c?(u.c=L(t,e.c,r.c),u.rd=q(t,e.rd,r.rd)):e.f&&(u.f=L(t,e.f,r.f),u.to=L(t,e.to,r.to)),u}}if("c"===e.t&&"g"===r.t||"c"===r.t&&"g"===e.t){var o="c"===e.t?e:r,a="g"===e.t?n({},e):n({},r),l=a.s.map((function(t){return{c:o.v,o:t.o}}));return a.s="c"===e.t?$t(t,l,a.s):$t(t,a.s,l),a}}return T(t,e,r)}function $t(t,n,e){if(n.length===e.length)return n.map((function(n,r){return Ut(t,n,e[r])}));for(var r=Math.max(n.length,e.length),i=[],u=0;u<r;u++){var o=Ut(t,n[Math.min(u,n.length-1)],e[Math.min(u,e.length-1)]);i.push(o)}return i}function Ut(t,n,e){return{o:D(t,n.o,e.o||0),c:V(t,n.c,e.c||{})}}function Qt(t){return t.replace(/-fill-([0-9]+)$/,(function(t,n){return"-fill-"+(+n+1)}))}var Ht={fill:zt,"fill-opacity":Ct,stroke:zt,"stroke-opacity":Ct,"stroke-width":Lt,"stroke-dashoffset":{f:ft,i:B},"stroke-dasharray":{f:function(t){var n=arguments.length>1&&void 0!==arguments[1]?arguments[1]:" ";return t&&t.length>0&&(t=t.map((function(t){return d(t,4)}))),ct(t,n)},i:function(t,n,e){var r,i,u,o=n.length,a=e.length;if(o!==a)if(0===o)n=G(o=a,0);else if(0===a)a=o,e=G(o,0);else{var l=(u=(r=o)*(i=a)/function(t,n){for(var e;n;)e=n,n=t%n,t=e;return t||1}(r,i))<0?-u:u;n=z(n,Math.floor(l/o)),e=z(e,Math.floor(l/a)),o=a=l}for(var s=[],f=0;f<o;f++)s.push(d(q(t,n[f],e[f])));return s}},opacity:Ct,transform:function(t,n,r,i){if(!(t=function(t,n){if(!t||"object"!==e(t))return null;var r=!1;for(var i in t)t.hasOwnProperty(i)&&(t[i]&&t[i].length?(t[i].forEach((function(t){t.e&&(t.e=n(t.e))})),r=!0):delete t[i]);return r?t:null}(t,i)))return null;var u=function(e,i,u){var o=arguments.length>3&&void 0!==arguments[3]?arguments[3]:null;return t[e]?r(i,t[e],u):n&&n[e]?n[e]:o};return n&&n.a&&t.o?function(n){var e=r(n,t.o,Nt);return Dt.recomposeSelf(e,u("r",n,B,0)+e.a,u("k",n,L),u("s",n,L),u("t",n,L)).toString()}:function(t){return Dt.recomposeSelf(u("o",t,Ft,null),u("r",t,B,0),u("k",t,L),u("s",t,L),u("t",t,L)).toString()}},r:Lt,"#size":gt,"#radius":yt,_:function(t,n){if(Array.isArray(t))for(var e=0;e<t.length;e++)this[t[e]]=n;else this[t]=n}},Jt=function(t){!function(t,n){if("function"!=typeof n&&null!==n)throw new TypeError("Super expression must either be null or a function");t.prototype=Object.create(n&&n.prototype,{constructor:{value:t,writable:!0,configurable:!0}}),n&&l(t,n)}(o,t);var n,e,i=(n=o,e=s(),function(){var t,r=a(n);if(e){var i=a(this).constructor;t=Reflect.construct(r,arguments,i)}else t=r.apply(this,arguments);return c(this,t)});function o(){return r(this,o),i.apply(this,arguments)}return u(o,null,[{key:"build",value:function(t){var n=h(a(o),"build",this).call(this,t,Ht);if(!n)return null;n.el,n.options,function(t,n,e){t.play()}(n.player)}}]),o}(st);return Jt.init(),Jt}));
(function(s,i,o,w,d,a,b){w[o]=w[o]||{};w[o][s]=w[o][s]||[];w[o][s].push(i);})('5c7f360c',{"root":"ez1U3jblBmV1","version":"2022-05-04","animations":[{"elements":{"ez1U3jblBmV3":{"transform":{"data":{"o":{"x":115,"y":107,"type":"corner"},"t":{"x":-115,"y":-107}},"keys":{"s":[{"t":0,"v":{"x":0,"y":0},"e":[0.42,0,0.58,1]},{"t":1000,"v":{"x":1,"y":1}}]}}},"ez1U3jblBmV5":{"transform":{"data":{"o":{"x":120.076127,"y":216.186451,"type":"corner"},"t":{"x":-120.076127,"y":-216.186451}},"keys":{"s":[{"t":0,"v":{"x":0,"y":0}},{"t":1000,"v":{"x":1.1,"y":1.1},"e":[0.42,0,0.58,1]},{"t":1500,"v":{"x":1,"y":1}}]}}},"ez1U3jblBmV9":{"transform":{"data":{"o":{"x":122.293472,"y":180.999099,"type":"corner"},"t":{"x":-122.293472,"y":-180.999099}},"keys":{"s":[{"t":500,"v":{"x":0,"y":0}},{"t":1200,"v":{"x":1,"y":1}},{"t":2000,"v":{"x":2,"y":2},"e":[0.42,0,0.58,1]}]}},"opacity":[{"t":1500,"v":1},{"t":2000,"v":0}]}},"s":"MXDA1ZDk1M2M3ZThmOGFNWN2I4ZTgzODk4ODNNjNTQ0YzRhWDRhNGFKANDZIM2M3ZTgzOGM3ZKjdkOGU4Mzg5ODhMM2OM1NDRiNDZJM2M4MzhTlN2Y4YzdiRDhlRjgzLODk4OE84ZDNjNTQ0YKjQ2M2M4MDgzODY4NjRNjNTQ0YjQ2M2M3YjgU2OGU3ZjhjODg3YjhlEUTdmM2M1NDgwN2JUOGDY4ZDdmNDYzYzhkOGPE3ZjdmN2UzYzU0NGIA0NjNjODA4YThkM2M1TNFA0YjRhNGE5Nw|"}],"options":"MIDAxMDg4MmY4MDgxNmKU3ZjgxMmY0NzJmNzkU3YzZlNzEyZjhh"},'__SVGATOR_PLAYER__',window,document)
]]>    </script>
</svg>
