<svg width="134" height="134" viewBox="0 0 134 134" fill="none" xmlns="http://www.w3.org/2000/svg">
<path d="M103.415 104.284C106.019 103.741 107.571 101.016 106.276 98.6917C103.424 93.5682 98.9296 89.0657 93.1801 85.6344C85.7758 81.2157 76.7038 78.8203 67.3709 78.8203C58.0379 78.8203 48.9656 81.2157 41.5612 85.6344C35.8121 89.0657 31.3179 93.5682 28.4652 98.6917C27.1711 101.016 28.7221 103.741 31.3262 104.284C55.1005 109.239 79.641 109.239 103.415 104.284Z" fill="#9596A7" fill-opacity="0.898039"/>
<path d="M67.3725 74.1091C80.3814 74.1091 90.9271 63.5634 90.9271 50.5546C90.9271 37.5457 80.3814 27 67.3725 27C54.3637 27 43.818 37.5457 43.818 50.5546C43.818 63.5634 54.3637 74.1091 67.3725 74.1091Z" fill="#9596A7" fill-opacity="0.898039"/>
</svg>
